<svg width="356" height="382" viewBox="0 0 356 382" fill="none" xmlns="http://www.w3.org/2000/svg">
<g clip-path="url(#clip0_118_567)">
<path d="M324.567 370.103C341.374 370.103 354.999 356.521 354.999 339.765C354.999 323.01 341.374 309.428 324.567 309.428C307.76 309.428 294.136 323.01 294.136 339.765C294.136 356.521 307.76 370.103 324.567 370.103Z" fill="#0000FF" stroke="white" stroke-width="2" stroke-miterlimit="10"/>
<path d="M323.019 362.396C339.826 362.396 353.451 348.814 353.451 332.058C353.451 315.303 339.826 301.721 323.019 301.721C306.213 301.721 292.588 315.303 292.588 332.058C292.588 348.814 306.213 362.396 323.019 362.396Z" fill="#0000FF" stroke="white" stroke-width="2" stroke-miterlimit="10"/>
<path d="M321.473 354.689C338.279 354.689 351.904 341.106 351.904 324.351C351.904 307.596 338.279 294.014 321.473 294.014C304.666 294.014 291.041 307.596 291.041 324.351C291.041 341.106 304.666 354.689 321.473 354.689Z" fill="#0000FF" stroke="white" stroke-width="2" stroke-miterlimit="10"/>
<path d="M319.925 346.982C336.732 346.982 350.356 333.399 350.356 316.644C350.356 299.889 336.732 286.307 319.925 286.307C303.118 286.307 289.493 299.889 289.493 316.644C289.493 333.399 303.118 346.982 319.925 346.982Z" fill="#0000FF" stroke="white" stroke-width="2" stroke-miterlimit="10"/>
<path d="M318.377 339.275C335.184 339.275 348.808 325.692 348.808 308.937C348.808 292.182 335.184 278.6 318.377 278.6C301.57 278.6 287.945 292.182 287.945 308.937C287.945 325.692 301.57 339.275 318.377 339.275Z" fill="#0000FF" stroke="white" stroke-width="2" stroke-miterlimit="10"/>
<path d="M316.83 331.568C333.637 331.568 347.261 317.985 347.261 301.23C347.261 284.475 333.637 270.893 316.83 270.893C300.023 270.893 286.398 284.475 286.398 301.23C286.398 317.985 300.023 331.568 316.83 331.568Z" fill="#0000FF" stroke="white" stroke-width="2" stroke-miterlimit="10"/>
<path d="M315.282 323.861C332.089 323.861 345.714 310.278 345.714 293.523C345.714 276.768 332.089 263.186 315.282 263.186C298.475 263.186 284.851 276.768 284.851 293.523C284.851 310.278 298.475 323.861 315.282 323.861Z" fill="#0000FF" stroke="white" stroke-width="2" stroke-miterlimit="10"/>
<path d="M313.734 316.154C330.541 316.154 344.166 302.571 344.166 285.816C344.166 269.061 330.541 255.479 313.734 255.479C296.927 255.479 283.303 269.061 283.303 285.816C283.303 302.571 296.927 316.154 313.734 316.154Z" fill="#0000FF" stroke="white" stroke-width="2" stroke-miterlimit="10"/>
<path d="M312.187 308.447C328.994 308.447 342.619 294.864 342.619 278.109C342.619 261.354 328.994 247.771 312.187 247.771C295.381 247.771 281.756 261.354 281.756 278.109C281.756 294.864 295.381 308.447 312.187 308.447Z" fill="#0000FF" stroke="white" stroke-width="2" stroke-miterlimit="10"/>
<path d="M310.64 300.74C327.446 300.74 341.071 287.157 341.071 270.402C341.071 253.647 327.446 240.064 310.64 240.064C293.833 240.064 280.208 253.647 280.208 270.402C280.208 287.157 293.833 300.74 310.64 300.74Z" fill="#0000FF" stroke="white" stroke-width="2" stroke-miterlimit="10"/>
<path d="M309.092 293.033C325.899 293.033 339.523 279.45 339.523 262.695C339.523 245.94 325.899 232.357 309.092 232.357C292.285 232.357 278.66 245.94 278.66 262.695C278.66 279.45 292.285 293.033 309.092 293.033Z" fill="#0000FF" stroke="white" stroke-width="2" stroke-miterlimit="10"/>
<path d="M307.545 285.326C324.352 285.326 337.976 271.743 337.976 254.988C337.976 238.233 324.352 224.65 307.545 224.65C290.738 224.65 277.113 238.233 277.113 254.988C277.113 271.743 290.738 285.326 307.545 285.326Z" fill="#0000FF" stroke="white" stroke-width="2" stroke-miterlimit="10"/>
<path d="M305.997 277.619C322.804 277.619 336.428 264.036 336.428 247.281C336.428 230.526 322.804 216.943 305.997 216.943C289.19 216.943 275.565 230.526 275.565 247.281C275.565 264.036 289.19 277.619 305.997 277.619Z" fill="#0000FF" stroke="white" stroke-width="2" stroke-miterlimit="10"/>
<path d="M304.449 269.912C321.256 269.912 334.881 256.329 334.881 239.574C334.881 222.819 321.256 209.236 304.449 209.236C287.642 209.236 274.018 222.819 274.018 239.574C274.018 256.329 287.642 269.912 304.449 269.912Z" fill="#0000FF" stroke="white" stroke-width="2" stroke-miterlimit="10"/>
<path d="M302.901 262.205C319.708 262.205 333.333 248.622 333.333 231.867C333.333 215.112 319.708 201.529 302.901 201.529C286.094 201.529 272.47 215.112 272.47 231.867C272.47 248.622 286.094 262.205 302.901 262.205Z" fill="#0000FF" stroke="white" stroke-width="2" stroke-miterlimit="10"/>
<path d="M301.354 254.498C318.161 254.498 331.786 240.915 331.786 224.16C331.786 207.405 318.161 193.822 301.354 193.822C284.547 193.822 270.923 207.405 270.923 224.16C270.923 240.915 284.547 254.498 301.354 254.498Z" fill="#0000FF" stroke="white" stroke-width="2" stroke-miterlimit="10"/>
<path d="M299.806 246.791C316.613 246.791 330.238 233.208 330.238 216.453C330.238 199.698 316.613 186.115 299.806 186.115C283 186.115 269.375 199.698 269.375 216.453C269.375 233.208 283 246.791 299.806 246.791Z" fill="#0000FF" stroke="white" stroke-width="2" stroke-miterlimit="10"/>
<path d="M298.259 239.084C315.066 239.084 328.69 225.501 328.69 208.746C328.69 191.991 315.066 178.408 298.259 178.408C281.452 178.408 267.827 191.991 267.827 208.746C267.827 225.501 281.452 239.084 298.259 239.084Z" fill="#0000FF" stroke="white" stroke-width="2" stroke-miterlimit="10"/>
<path d="M296.712 231.377C313.519 231.377 327.143 217.794 327.143 201.039C327.143 184.284 313.519 170.701 296.712 170.701C279.905 170.701 266.28 184.284 266.28 201.039C266.28 217.794 279.905 231.377 296.712 231.377Z" fill="#0000FF" stroke="white" stroke-width="2" stroke-miterlimit="10"/>
<path d="M295.164 223.67C311.971 223.67 325.595 210.087 325.595 193.332C325.595 176.577 311.971 162.994 295.164 162.994C278.357 162.994 264.732 176.577 264.732 193.332C264.732 210.087 278.357 223.67 295.164 223.67Z" fill="#0000FF" stroke="white" stroke-width="2" stroke-miterlimit="10"/>
<path d="M293.616 215.963C310.423 215.963 324.048 202.38 324.048 185.625C324.048 168.87 310.423 155.287 293.616 155.287C276.809 155.287 263.185 168.87 263.185 185.625C263.185 202.38 276.809 215.963 293.616 215.963Z" fill="#0000FF" stroke="white" stroke-width="2" stroke-miterlimit="10"/>
<path d="M292.069 208.256C308.876 208.256 322.501 194.673 322.501 177.918C322.501 161.163 308.876 147.58 292.069 147.58C275.262 147.58 261.638 161.163 261.638 177.918C261.638 194.673 275.262 208.256 292.069 208.256Z" fill="#0000FF" stroke="white" stroke-width="2" stroke-miterlimit="10"/>
<path d="M290.521 200.549C307.328 200.549 320.953 186.966 320.953 170.211C320.953 153.456 307.328 139.873 290.521 139.873C273.714 139.873 260.09 153.456 260.09 170.211C260.09 186.966 273.714 200.549 290.521 200.549Z" fill="#0000FF" stroke="white" stroke-width="2" stroke-miterlimit="10"/>
<path d="M288.973 192.842C305.78 192.842 319.405 179.259 319.405 162.504C319.405 145.749 305.78 132.166 288.973 132.166C272.167 132.166 258.542 145.749 258.542 162.504C258.542 179.259 272.167 192.842 288.973 192.842Z" fill="#0000FF" stroke="white" stroke-width="2" stroke-miterlimit="10"/>
<path d="M287.427 185.134C304.233 185.134 317.858 171.552 317.858 154.797C317.858 138.042 304.233 124.459 287.427 124.459C270.62 124.459 256.995 138.042 256.995 154.797C256.995 171.552 270.62 185.134 287.427 185.134Z" fill="#0000FF" stroke="white" stroke-width="2" stroke-miterlimit="10"/>
<path d="M285.879 177.427C302.686 177.427 316.31 163.845 316.31 147.09C316.31 130.335 302.686 116.752 285.879 116.752C269.072 116.752 255.447 130.335 255.447 147.09C255.447 163.845 269.072 177.427 285.879 177.427Z" fill="#0000FF" stroke="white" stroke-width="2" stroke-miterlimit="10"/>
<path d="M284.331 169.72C301.138 169.72 314.762 156.138 314.762 139.383C314.762 122.628 301.138 109.045 284.331 109.045C267.524 109.045 253.899 122.628 253.899 139.383C253.899 156.138 267.524 169.72 284.331 169.72Z" fill="#0000FF" stroke="white" stroke-width="2" stroke-miterlimit="10"/>
<path d="M282.783 162.013C299.59 162.013 313.215 148.431 313.215 131.676C313.215 114.921 299.59 101.338 282.783 101.338C265.976 101.338 252.352 114.921 252.352 131.676C252.352 148.431 265.976 162.013 282.783 162.013Z" fill="#0000FF" stroke="white" stroke-width="2" stroke-miterlimit="10"/>
<path d="M281.236 154.306C298.043 154.306 311.668 140.724 311.668 123.969C311.668 107.214 298.043 93.6309 281.236 93.6309C264.429 93.6309 250.805 107.214 250.805 123.969C250.805 140.724 264.429 154.306 281.236 154.306Z" fill="#0000FF" stroke="white" stroke-width="2" stroke-miterlimit="10"/>
<path d="M279.688 146.599C296.495 146.599 310.12 133.017 310.12 116.262C310.12 99.5065 296.495 85.9238 279.688 85.9238C262.881 85.9238 249.257 99.5065 249.257 116.262C249.257 133.017 262.881 146.599 279.688 146.599Z" fill="#0000FF" stroke="white" stroke-width="2" stroke-miterlimit="10"/>
<path d="M278.14 138.892C294.947 138.892 308.572 125.31 308.572 108.555C308.572 91.7995 294.947 78.2168 278.14 78.2168C261.334 78.2168 247.709 91.7995 247.709 108.555C247.709 125.31 261.334 138.892 278.14 138.892Z" fill="#0000FF" stroke="white" stroke-width="2" stroke-miterlimit="10"/>
<path d="M276.594 131.185C293.4 131.185 307.025 117.603 307.025 100.848C307.025 84.0924 293.4 70.5098 276.594 70.5098C259.787 70.5098 246.162 84.0924 246.162 100.848C246.162 117.603 259.787 131.185 276.594 131.185Z" fill="#0000FF" stroke="white" stroke-width="2" stroke-miterlimit="10"/>
<path d="M275.046 123.478C291.853 123.478 305.477 109.896 305.477 93.1405C305.477 76.3854 291.853 62.8027 275.046 62.8027C258.239 62.8027 244.614 76.3854 244.614 93.1405C244.614 109.896 258.239 123.478 275.046 123.478Z" fill="#0000FF" stroke="white" stroke-width="2" stroke-miterlimit="10"/>
<path d="M273.498 115.771C290.305 115.771 303.929 102.189 303.929 85.4334C303.929 68.6784 290.305 55.0957 273.498 55.0957C256.691 55.0957 243.066 68.6784 243.066 85.4334C243.066 102.189 256.691 115.771 273.498 115.771Z" fill="#0000FF" stroke="white" stroke-width="2" stroke-miterlimit="10"/>
<path d="M271.951 108.064C288.758 108.064 302.383 94.4815 302.383 77.7264C302.383 60.9713 288.758 47.3887 271.951 47.3887C255.144 47.3887 241.52 60.9713 241.52 77.7264C241.52 94.4815 255.144 108.064 271.951 108.064Z" fill="#0000FF" stroke="white" stroke-width="2" stroke-miterlimit="10"/>
<path d="M270.403 100.357C287.21 100.357 300.835 86.7745 300.835 70.0194C300.835 53.2643 287.21 39.6816 270.403 39.6816C253.596 39.6816 239.972 53.2643 239.972 70.0194C239.972 86.7745 253.596 100.357 270.403 100.357Z" fill="#0000FF" stroke="white" stroke-width="2" stroke-miterlimit="10"/>
<path d="M268.855 92.6501C285.662 92.6501 299.287 79.0674 299.287 62.3124C299.287 45.5573 285.662 31.9746 268.855 31.9746C252.048 31.9746 238.424 45.5573 238.424 62.3124C238.424 79.0674 252.048 92.6501 268.855 92.6501Z" fill="#0000FF" stroke="white" stroke-width="2" stroke-miterlimit="10"/>
<path d="M267.308 84.9431C284.115 84.9431 297.74 71.3604 297.74 54.6053C297.74 37.8502 284.115 24.2676 267.308 24.2676C250.502 24.2676 236.877 37.8502 236.877 54.6053C236.877 71.3604 250.502 84.9431 267.308 84.9431Z" fill="#0000FF" stroke="white" stroke-width="2" stroke-miterlimit="10"/>
<path d="M265.761 77.236C282.567 77.236 296.192 63.6534 296.192 46.8983C296.192 30.1432 282.567 16.5605 265.761 16.5605C248.954 16.5605 235.329 30.1432 235.329 46.8983C235.329 63.6534 248.954 77.236 265.761 77.236Z" fill="#0000FF" stroke="white" stroke-width="2" stroke-miterlimit="10"/>
<path d="M264.213 69.529C281.02 69.529 294.644 55.9463 294.644 39.1913C294.644 22.4362 281.02 8.85352 264.213 8.85352C247.406 8.85352 233.781 22.4362 233.781 39.1913C233.781 55.9463 247.406 69.529 264.213 69.529Z" fill="#0000FF" stroke="white" stroke-width="2" stroke-miterlimit="10"/>
<path d="M262.666 61.822C279.473 61.822 293.097 48.2393 293.097 31.4842C293.097 14.7292 279.473 1.14648 262.666 1.14648C245.859 1.14648 232.234 14.7292 232.234 31.4842C232.234 48.2393 245.859 61.822 262.666 61.822Z" fill="#0000FF" stroke="white" stroke-width="2" stroke-miterlimit="10"/>
<path d="M310.552 317.904C327.358 317.904 340.983 304.321 340.983 287.566C340.983 270.811 327.358 257.229 310.552 257.229C293.745 257.229 280.12 270.811 280.12 287.566C280.12 304.321 293.745 317.904 310.552 317.904Z" fill="#0000FF" stroke="white" stroke-width="2" stroke-miterlimit="10"/>
<path d="M306.809 321.181C323.616 321.181 337.241 307.599 337.241 290.844C337.241 274.089 323.616 260.506 306.809 260.506C290.003 260.506 276.378 274.089 276.378 290.844C276.378 307.599 290.003 321.181 306.809 321.181Z" fill="#0000FF" stroke="white" stroke-width="2" stroke-miterlimit="10"/>
<path d="M303.066 324.457C319.873 324.457 333.498 310.874 333.498 294.119C333.498 277.364 319.873 263.781 303.066 263.781C286.259 263.781 272.635 277.364 272.635 294.119C272.635 310.874 286.259 324.457 303.066 324.457Z" fill="#0000FF" stroke="white" stroke-width="2" stroke-miterlimit="10"/>
<path d="M299.323 327.732C316.13 327.732 329.755 314.149 329.755 297.394C329.755 280.639 316.13 267.057 299.323 267.057C282.516 267.057 268.892 280.639 268.892 297.394C268.892 314.149 282.516 327.732 299.323 327.732Z" fill="#0000FF" stroke="white" stroke-width="2" stroke-miterlimit="10"/>
<path d="M295.581 331.009C312.388 331.009 326.012 317.427 326.012 300.672C326.012 283.917 312.388 270.334 295.581 270.334C278.774 270.334 265.149 283.917 265.149 300.672C265.149 317.427 278.774 331.009 295.581 331.009Z" fill="#0000FF" stroke="white" stroke-width="2" stroke-miterlimit="10"/>
<path d="M291.838 334.285C308.645 334.285 322.269 320.702 322.269 303.947C322.269 287.192 308.645 273.609 291.838 273.609C275.031 273.609 261.406 287.192 261.406 303.947C261.406 320.702 275.031 334.285 291.838 334.285Z" fill="#0000FF" stroke="white" stroke-width="2" stroke-miterlimit="10"/>
<path d="M288.096 337.56C304.902 337.56 318.527 323.978 318.527 307.223C318.527 290.467 304.902 276.885 288.096 276.885C271.289 276.885 257.664 290.467 257.664 307.223C257.664 323.978 271.289 337.56 288.096 337.56Z" fill="#0000FF" stroke="white" stroke-width="2" stroke-miterlimit="10"/>
<path d="M284.352 340.838C301.159 340.838 314.784 327.255 314.784 310.5C314.784 293.745 301.159 280.162 284.352 280.162C267.546 280.162 253.921 293.745 253.921 310.5C253.921 327.255 267.546 340.838 284.352 340.838Z" fill="#0000FF" stroke="white" stroke-width="2" stroke-miterlimit="10"/>
<path d="M280.609 344.113C297.416 344.113 311.041 330.53 311.041 313.775C311.041 297.02 297.416 283.438 280.609 283.438C263.802 283.438 250.178 297.02 250.178 313.775C250.178 330.53 263.802 344.113 280.609 344.113Z" fill="#0000FF" stroke="white" stroke-width="2" stroke-miterlimit="10"/>
<path d="M276.867 347.39C293.674 347.39 307.299 333.808 307.299 317.053C307.299 300.298 293.674 286.715 276.867 286.715C260.06 286.715 246.436 300.298 246.436 317.053C246.436 333.808 260.06 347.39 276.867 347.39Z" fill="#0000FF" stroke="white" stroke-width="2" stroke-miterlimit="10"/>
<path d="M273.124 350.666C289.931 350.666 303.555 337.083 303.555 320.328C303.555 303.573 289.931 289.99 273.124 289.99C256.317 289.99 242.692 303.573 242.692 320.328C242.692 337.083 256.317 350.666 273.124 350.666Z" fill="#0000FF" stroke="white" stroke-width="2" stroke-miterlimit="10"/>
<path d="M269.381 353.941C286.188 353.941 299.812 340.358 299.812 323.603C299.812 306.848 286.188 293.266 269.381 293.266C252.574 293.266 238.949 306.848 238.949 323.603C238.949 340.358 252.574 353.941 269.381 353.941Z" fill="#0000FF" stroke="white" stroke-width="2" stroke-miterlimit="10"/>
<path d="M265.639 357.218C282.445 357.218 296.07 343.636 296.07 326.881C296.07 310.126 282.445 296.543 265.639 296.543C248.832 296.543 235.207 310.126 235.207 326.881C235.207 343.636 248.832 357.218 265.639 357.218Z" fill="#0000FF" stroke="white" stroke-width="2" stroke-miterlimit="10"/>
<path d="M261.895 360.494C278.702 360.494 292.327 346.911 292.327 330.156C292.327 313.401 278.702 299.818 261.895 299.818C245.089 299.818 231.464 313.401 231.464 330.156C231.464 346.911 245.089 360.494 261.895 360.494Z" fill="#0000FF" stroke="white" stroke-width="2" stroke-miterlimit="10"/>
<path d="M258.152 363.769C274.959 363.769 288.584 350.187 288.584 333.431C288.584 316.676 274.959 303.094 258.152 303.094C241.345 303.094 227.721 316.676 227.721 333.431C227.721 350.187 241.345 363.769 258.152 363.769Z" fill="#0000FF" stroke="white" stroke-width="2" stroke-miterlimit="10"/>
<path d="M254.41 367.047C271.217 367.047 284.842 353.464 284.842 336.709C284.842 319.954 271.217 306.371 254.41 306.371C237.603 306.371 223.979 319.954 223.979 336.709C223.979 353.464 237.603 367.047 254.41 367.047Z" fill="#0000FF" stroke="white" stroke-width="2" stroke-miterlimit="10"/>
<path d="M250.667 370.322C267.474 370.322 281.098 356.739 281.098 339.984C281.098 323.229 267.474 309.646 250.667 309.646C233.86 309.646 220.235 323.229 220.235 339.984C220.235 356.739 233.86 370.322 250.667 370.322Z" fill="#0000FF" stroke="white" stroke-width="2" stroke-miterlimit="10"/>
<path d="M246.924 373.597C263.731 373.597 277.355 360.015 277.355 343.26C277.355 326.505 263.731 312.922 246.924 312.922C230.117 312.922 216.492 326.505 216.492 343.26C216.492 360.015 230.117 373.597 246.924 373.597Z" fill="#0000FF" stroke="white" stroke-width="2" stroke-miterlimit="10"/>
<path d="M243.181 376.875C259.988 376.875 273.613 363.292 273.613 346.537C273.613 329.782 259.988 316.199 243.181 316.199C226.375 316.199 212.75 329.782 212.75 346.537C212.75 363.292 226.375 376.875 243.181 376.875Z" fill="#0000FF" stroke="white" stroke-width="2" stroke-miterlimit="10"/>
<path d="M239.438 380.15C256.245 380.15 269.87 366.567 269.87 349.812C269.87 333.057 256.245 319.475 239.438 319.475C222.631 319.475 209.007 333.057 209.007 349.812C209.007 366.567 222.631 380.15 239.438 380.15Z" fill="#0000FF" stroke="white" stroke-width="2" stroke-miterlimit="10"/>
<path d="M234.614 379.23C251.421 379.23 265.046 365.648 265.046 348.892C265.046 332.137 251.421 318.555 234.614 318.555C217.807 318.555 204.183 332.137 204.183 348.892C204.183 365.648 217.807 379.23 234.614 379.23Z" fill="#0000FF" stroke="white" stroke-width="2" stroke-miterlimit="10"/>
<path d="M229.791 378.308C246.598 378.308 260.222 364.726 260.222 347.971C260.222 331.215 246.598 317.633 229.791 317.633C212.984 317.633 199.359 331.215 199.359 347.971C199.359 364.726 212.984 378.308 229.791 378.308Z" fill="#0000FF" stroke="white" stroke-width="2" stroke-miterlimit="10"/>
<path d="M224.967 377.386C241.774 377.386 255.398 363.804 255.398 347.049C255.398 330.294 241.774 316.711 224.967 316.711C208.16 316.711 194.535 330.294 194.535 347.049C194.535 363.804 208.16 377.386 224.967 377.386Z" fill="#0000FF" stroke="white" stroke-width="2" stroke-miterlimit="10"/>
<path d="M220.142 376.467C236.949 376.467 250.574 362.884 250.574 346.129C250.574 329.374 236.949 315.791 220.142 315.791C203.336 315.791 189.711 329.374 189.711 346.129C189.711 362.884 203.336 376.467 220.142 376.467Z" fill="#0000FF" stroke="white" stroke-width="2" stroke-miterlimit="10"/>
<path d="M215.318 375.545C232.125 375.545 245.75 361.962 245.75 345.207C245.75 328.452 232.125 314.869 215.318 314.869C198.511 314.869 184.887 328.452 184.887 345.207C184.887 361.962 198.511 375.545 215.318 375.545Z" fill="#0000FF" stroke="white" stroke-width="2" stroke-miterlimit="10"/>
<path d="M210.494 374.625C227.301 374.625 240.926 361.042 240.926 344.287C240.926 327.532 227.301 313.949 210.494 313.949C193.687 313.949 180.062 327.532 180.062 344.287C180.062 361.042 193.687 374.625 210.494 374.625Z" fill="#0000FF" stroke="white" stroke-width="2" stroke-miterlimit="10"/>
<path d="M205.671 373.703C222.478 373.703 236.102 360.12 236.102 343.365C236.102 326.61 222.478 313.027 205.671 313.027C188.864 313.027 175.239 326.61 175.239 343.365C175.239 360.12 188.864 373.703 205.671 373.703Z" fill="#0000FF" stroke="white" stroke-width="2" stroke-miterlimit="10"/>
<path d="M200.847 372.781C217.653 372.781 231.278 359.198 231.278 342.443C231.278 325.688 217.653 312.105 200.847 312.105C184.04 312.105 170.415 325.688 170.415 342.443C170.415 359.198 184.04 372.781 200.847 372.781Z" fill="#0000FF" stroke="white" stroke-width="2" stroke-miterlimit="10"/>
<path d="M196.022 371.861C212.829 371.861 226.454 358.278 226.454 341.523C226.454 324.768 212.829 311.186 196.022 311.186C179.215 311.186 165.591 324.768 165.591 341.523C165.591 358.278 179.215 371.861 196.022 371.861Z" fill="#0000FF" stroke="white" stroke-width="2" stroke-miterlimit="10"/>
<path d="M191.198 370.939C208.005 370.939 221.63 357.356 221.63 340.601C221.63 323.846 208.005 310.264 191.198 310.264C174.391 310.264 160.767 323.846 160.767 340.601C160.767 357.356 174.391 370.939 191.198 370.939Z" fill="#0000FF" stroke="white" stroke-width="2" stroke-miterlimit="10"/>
<path d="M186.375 370.019C203.182 370.019 216.806 356.437 216.806 339.681C216.806 322.926 203.182 309.344 186.375 309.344C169.568 309.344 155.943 322.926 155.943 339.681C155.943 356.437 169.568 370.019 186.375 370.019Z" fill="#0000FF" stroke="white" stroke-width="2" stroke-miterlimit="10"/>
<path d="M181.551 369.097C198.357 369.097 211.982 355.515 211.982 338.76C211.982 322.005 198.357 308.422 181.551 308.422C164.744 308.422 151.119 322.005 151.119 338.76C151.119 355.515 164.744 369.097 181.551 369.097Z" fill="#0000FF" stroke="white" stroke-width="2" stroke-miterlimit="10"/>
<path d="M176.726 368.175C193.533 368.175 207.158 354.593 207.158 337.838C207.158 321.083 193.533 307.5 176.726 307.5C159.92 307.5 146.295 321.083 146.295 337.838C146.295 354.593 159.92 368.175 176.726 368.175Z" fill="#0000FF" stroke="white" stroke-width="2" stroke-miterlimit="10"/>
<path d="M171.902 367.256C188.709 367.256 202.334 353.673 202.334 336.918C202.334 320.163 188.709 306.58 171.902 306.58C155.095 306.58 141.471 320.163 141.471 336.918C141.471 353.673 155.095 367.256 171.902 367.256Z" fill="#0000FF" stroke="white" stroke-width="2" stroke-miterlimit="10"/>
<path d="M167.078 366.334C183.885 366.334 197.509 352.751 197.509 335.996C197.509 319.241 183.885 305.658 167.078 305.658C150.271 305.658 136.646 319.241 136.646 335.996C136.646 352.751 150.271 366.334 167.078 366.334Z" fill="#0000FF" stroke="white" stroke-width="2" stroke-miterlimit="10"/>
<path d="M162.254 365.414C179.061 365.414 192.685 351.831 192.685 335.076C192.685 318.321 179.061 304.738 162.254 304.738C145.447 304.738 131.822 318.321 131.822 335.076C131.822 351.831 145.447 365.414 162.254 365.414Z" fill="#0000FF" stroke="white" stroke-width="2" stroke-miterlimit="10"/>
<path d="M157.431 364.492C174.237 364.492 187.862 350.909 187.862 334.154C187.862 317.399 174.237 303.816 157.431 303.816C140.624 303.816 126.999 317.399 126.999 334.154C126.999 350.909 140.624 364.492 157.431 364.492Z" fill="#0000FF" stroke="white" stroke-width="2" stroke-miterlimit="10"/>
<path d="M152.606 363.57C169.413 363.57 183.038 349.987 183.038 333.232C183.038 316.477 169.413 302.895 152.606 302.895C135.799 302.895 122.175 316.477 122.175 333.232C122.175 349.987 135.799 363.57 152.606 363.57Z" fill="#0000FF" stroke="white" stroke-width="2" stroke-miterlimit="10"/>
<path d="M147.782 362.65C164.589 362.65 178.214 349.067 178.214 332.312C178.214 315.557 164.589 301.975 147.782 301.975C130.975 301.975 117.351 315.557 117.351 332.312C117.351 349.067 130.975 362.65 147.782 362.65Z" fill="#0000FF" stroke="white" stroke-width="2" stroke-miterlimit="10"/>
<path d="M142.958 361.728C159.765 361.728 173.389 348.146 173.389 331.39C173.389 314.635 159.765 301.053 142.958 301.053C126.151 301.053 112.526 314.635 112.526 331.39C112.526 348.146 126.151 361.728 142.958 361.728Z" fill="#0000FF" stroke="white" stroke-width="2" stroke-miterlimit="10"/>
<path d="M138.135 360.808C154.941 360.808 168.566 347.226 168.566 330.471C168.566 313.715 154.941 300.133 138.135 300.133C121.328 300.133 107.703 313.715 107.703 330.471C107.703 347.226 121.328 360.808 138.135 360.808Z" fill="#0000FF" stroke="white" stroke-width="2" stroke-miterlimit="10"/>
<path d="M133.31 359.886C150.117 359.886 163.742 346.304 163.742 329.549C163.742 312.794 150.117 299.211 133.31 299.211C116.504 299.211 102.879 312.794 102.879 329.549C102.879 346.304 116.504 359.886 133.31 359.886Z" fill="#0000FF" stroke="white" stroke-width="2" stroke-miterlimit="10"/>
<path d="M128.486 358.967C145.293 358.967 158.918 345.384 158.918 328.629C158.918 311.874 145.293 298.291 128.486 298.291C111.679 298.291 98.0547 311.874 98.0547 328.629C98.0547 345.384 111.679 358.967 128.486 358.967Z" fill="#0000FF" stroke="white" stroke-width="2" stroke-miterlimit="10"/>
<path d="M123.662 358.045C140.469 358.045 154.093 344.462 154.093 327.707C154.093 310.952 140.469 297.369 123.662 297.369C106.855 297.369 93.2305 310.952 93.2305 327.707C93.2305 344.462 106.855 358.045 123.662 358.045Z" fill="#0000FF" stroke="white" stroke-width="2" stroke-miterlimit="10"/>
<path d="M118.838 357.123C135.645 357.123 149.269 343.54 149.269 326.785C149.269 310.03 135.645 296.447 118.838 296.447C102.031 296.447 88.4062 310.03 88.4062 326.785C88.4062 343.54 102.031 357.123 118.838 357.123Z" fill="#0000FF" stroke="white" stroke-width="2" stroke-miterlimit="10"/>
<path d="M114.015 356.203C130.821 356.203 144.446 342.62 144.446 325.865C144.446 309.11 130.821 295.527 114.015 295.527C97.2077 295.527 83.583 309.11 83.583 325.865C83.583 342.62 97.2077 356.203 114.015 356.203Z" fill="#0000FF" stroke="white" stroke-width="2" stroke-miterlimit="10"/>
<path d="M109.19 355.281C125.997 355.281 139.622 341.698 139.622 324.943C139.622 308.188 125.997 294.605 109.19 294.605C92.3834 294.605 78.7588 308.188 78.7588 324.943C78.7588 341.698 92.3834 355.281 109.19 355.281Z" fill="#0000FF" stroke="white" stroke-width="2" stroke-miterlimit="10"/>
<path d="M104.366 354.361C121.173 354.361 134.798 340.778 134.798 324.023C134.798 307.268 121.173 293.686 104.366 293.686C87.5592 293.686 73.9346 307.268 73.9346 324.023C73.9346 340.778 87.5592 354.361 104.366 354.361Z" fill="#0000FF" stroke="white" stroke-width="2" stroke-miterlimit="10"/>
<path d="M99.5419 353.439C116.349 353.439 129.973 339.856 129.973 323.101C129.973 306.346 116.349 292.764 99.5419 292.764C82.735 292.764 69.1104 306.346 69.1104 323.101C69.1104 339.856 82.735 353.439 99.5419 353.439Z" fill="#0000FF" stroke="white" stroke-width="2" stroke-miterlimit="10"/>
<path d="M94.7176 352.517C111.524 352.517 125.149 338.935 125.149 322.18C125.149 305.424 111.524 291.842 94.7176 291.842C77.9108 291.842 64.2861 305.424 64.2861 322.18C64.2861 338.935 77.9108 352.517 94.7176 352.517Z" fill="#0000FF" stroke="white" stroke-width="2" stroke-miterlimit="10"/>
<path d="M89.8944 351.597C106.701 351.597 120.326 338.015 120.326 321.26C120.326 304.505 106.701 290.922 89.8944 290.922C73.0875 290.922 59.4629 304.505 59.4629 321.26C59.4629 338.015 73.0875 351.597 89.8944 351.597Z" fill="#0000FF" stroke="white" stroke-width="2" stroke-miterlimit="10"/>
<path d="M85.0702 350.675C101.877 350.675 115.502 337.093 115.502 320.338C115.502 303.583 101.877 290 85.0702 290C68.2633 290 54.6387 303.583 54.6387 320.338C54.6387 337.093 68.2633 350.675 85.0702 350.675Z" fill="#0000FF" stroke="white" stroke-width="2" stroke-miterlimit="10"/>
<path d="M81.035 346.56C97.8419 346.56 111.467 332.978 111.467 316.223C111.467 299.467 97.8419 285.885 81.035 285.885C64.2282 285.885 50.6035 299.467 50.6035 316.223C50.6035 332.978 64.2282 346.56 81.035 346.56Z" fill="#0000FF" stroke="white" stroke-width="2" stroke-miterlimit="10"/>
<path d="M76.9999 342.443C93.8067 342.443 107.431 328.86 107.431 312.105C107.431 295.35 93.8067 281.768 76.9999 281.768C60.193 281.768 46.5684 295.35 46.5684 312.105C46.5684 328.86 60.193 342.443 76.9999 342.443Z" fill="#0000FF" stroke="white" stroke-width="2" stroke-miterlimit="10"/>
<path d="M72.9647 338.328C89.7716 338.328 103.396 324.745 103.396 307.99C103.396 291.235 89.7716 277.652 72.9647 277.652C56.1578 277.652 42.5332 291.235 42.5332 307.99C42.5332 324.745 56.1578 338.328 72.9647 338.328Z" fill="#0000FF" stroke="white" stroke-width="2" stroke-miterlimit="10"/>
<path d="M68.9295 334.211C85.7364 334.211 99.361 320.628 99.361 303.873C99.361 287.118 85.7364 273.535 68.9295 273.535C52.1227 273.535 38.498 287.118 38.498 303.873C38.498 320.628 52.1227 334.211 68.9295 334.211Z" fill="#0000FF" stroke="white" stroke-width="2" stroke-miterlimit="10"/>
<path d="M64.8944 330.095C81.7012 330.095 95.3259 316.513 95.3259 299.758C95.3259 283.003 81.7012 269.42 64.8944 269.42C48.0875 269.42 34.4629 283.003 34.4629 299.758C34.4629 316.513 48.0875 330.095 64.8944 330.095Z" fill="#0000FF" stroke="white" stroke-width="2" stroke-miterlimit="10"/>
<path d="M60.8592 325.978C77.6661 325.978 91.2907 312.396 91.2907 295.64C91.2907 278.885 77.6661 265.303 60.8592 265.303C44.0524 265.303 30.4277 278.885 30.4277 295.64C30.4277 312.396 44.0524 325.978 60.8592 325.978Z" fill="#0000FF" stroke="white" stroke-width="2" stroke-miterlimit="10"/>
<path d="M56.8251 321.861C73.6319 321.861 87.2566 308.278 87.2566 291.523C87.2566 274.768 73.6319 261.186 56.8251 261.186C40.0182 261.186 26.3936 274.768 26.3936 291.523C26.3936 308.278 40.0182 321.861 56.8251 321.861Z" fill="#0000FF" stroke="white" stroke-width="2" stroke-miterlimit="10"/>
<path d="M52.7899 317.746C69.5968 317.746 83.2214 304.163 83.2214 287.408C83.2214 270.653 69.5968 257.07 52.7899 257.07C35.983 257.07 22.3584 270.653 22.3584 287.408C22.3584 304.163 35.983 317.746 52.7899 317.746Z" fill="#0000FF" stroke="white" stroke-width="2" stroke-miterlimit="10"/>
<path d="M48.7547 313.629C65.5616 313.629 79.1862 300.046 79.1862 283.291C79.1862 266.536 65.5616 252.953 48.7547 252.953C31.9479 252.953 18.3232 266.536 18.3232 283.291C18.3232 300.046 31.9479 313.629 48.7547 313.629Z" fill="#0000FF" stroke="white" stroke-width="2" stroke-miterlimit="10"/>
<path d="M44.7196 309.513C61.5264 309.513 75.1511 295.931 75.1511 279.176C75.1511 262.421 61.5264 248.838 44.7196 248.838C27.9127 248.838 14.2881 262.421 14.2881 279.176C14.2881 295.931 27.9127 309.513 44.7196 309.513Z" fill="#0000FF" stroke="white" stroke-width="2" stroke-miterlimit="10"/>
<path d="M40.6844 305.396C57.4913 305.396 71.1159 291.814 71.1159 275.058C71.1159 258.303 57.4913 244.721 40.6844 244.721C23.8776 244.721 10.2529 258.303 10.2529 275.058C10.2529 291.814 23.8776 305.396 40.6844 305.396Z" fill="#0000FF" stroke="white" stroke-width="2" stroke-miterlimit="10"/>
<path d="M36.6493 301.281C53.4561 301.281 67.0808 287.698 67.0808 270.943C67.0808 254.188 53.4561 240.605 36.6493 240.605C19.8424 240.605 6.21777 254.188 6.21777 270.943C6.21777 287.698 19.8424 301.281 36.6493 301.281Z" fill="#0000FF" stroke="white" stroke-width="2" stroke-miterlimit="10"/>
<path d="M32.6141 297.164C49.421 297.164 63.0456 283.581 63.0456 266.826C63.0456 250.071 49.421 236.488 32.6141 236.488C15.8073 236.488 2.18262 250.071 2.18262 266.826C2.18262 283.581 15.8073 297.164 32.6141 297.164Z" fill="#0000FF" stroke="white" stroke-width="2" stroke-miterlimit="10"/>
<path d="M32.5751 291.779C49.3819 291.779 63.0066 278.196 63.0066 261.441C63.0066 244.686 49.3819 231.104 32.5751 231.104C15.7682 231.104 2.14355 244.686 2.14355 261.441C2.14355 278.196 15.7682 291.779 32.5751 291.779Z" fill="#0000FF" stroke="white" stroke-width="2" stroke-miterlimit="10"/>
<path d="M32.536 286.392C49.3428 286.392 62.9675 272.81 62.9675 256.055C62.9675 239.299 49.3428 225.717 32.536 225.717C15.7291 225.717 2.10449 239.299 2.10449 256.055C2.10449 272.81 15.7291 286.392 32.536 286.392Z" fill="#0000FF" stroke="white" stroke-width="2" stroke-miterlimit="10"/>
<path d="M32.496 281.006C49.3028 281.006 62.9275 267.423 62.9275 250.668C62.9275 233.913 49.3028 220.33 32.496 220.33C15.6891 220.33 2.06445 233.913 2.06445 250.668C2.06445 267.423 15.6891 281.006 32.496 281.006Z" fill="#0000FF" stroke="white" stroke-width="2" stroke-miterlimit="10"/>
<path d="M32.4569 275.621C49.2637 275.621 62.8884 262.038 62.8884 245.283C62.8884 228.528 49.2637 214.945 32.4569 214.945C15.65 214.945 2.02539 228.528 2.02539 245.283C2.02539 262.038 15.65 275.621 32.4569 275.621Z" fill="#0000FF" stroke="white" stroke-width="2" stroke-miterlimit="10"/>
<path d="M32.4178 270.234C49.2247 270.234 62.8493 256.651 62.8493 239.896C62.8493 223.141 49.2247 209.559 32.4178 209.559C15.611 209.559 1.98633 223.141 1.98633 239.896C1.98633 256.651 15.611 270.234 32.4178 270.234Z" fill="#0000FF" stroke="white" stroke-width="2" stroke-miterlimit="10"/>
<path d="M32.3778 264.849C49.1846 264.849 62.8093 251.267 62.8093 234.512C62.8093 217.756 49.1846 204.174 32.3778 204.174C15.5709 204.174 1.94629 217.756 1.94629 234.512C1.94629 251.267 15.5709 264.849 32.3778 264.849Z" fill="#0000FF" stroke="white" stroke-width="2" stroke-miterlimit="10"/>
<path d="M32.3387 259.463C49.1456 259.463 62.7702 245.88 62.7702 229.125C62.7702 212.37 49.1456 198.787 32.3387 198.787C15.5319 198.787 1.90723 212.37 1.90723 229.125C1.90723 245.88 15.5319 259.463 32.3387 259.463Z" fill="#0000FF" stroke="white" stroke-width="2" stroke-miterlimit="10"/>
<path d="M32.2997 254.078C49.1065 254.078 62.7312 240.495 62.7312 223.74C62.7312 206.985 49.1065 193.402 32.2997 193.402C15.4928 193.402 1.86816 206.985 1.86816 223.74C1.86816 240.495 15.4928 254.078 32.2997 254.078Z" fill="#0000FF" stroke="white" stroke-width="2" stroke-miterlimit="10"/>
<path d="M32.2596 248.691C49.0665 248.691 62.6911 235.108 62.6911 218.353C62.6911 201.598 49.0665 188.016 32.2596 188.016C15.4528 188.016 1.82812 201.598 1.82812 218.353C1.82812 235.108 15.4528 248.691 32.2596 248.691Z" fill="#0000FF" stroke="white" stroke-width="2" stroke-miterlimit="10"/>
<path d="M32.2206 243.304C49.0274 243.304 62.6521 229.722 62.6521 212.967C62.6521 196.212 49.0274 182.629 32.2206 182.629C15.4137 182.629 1.78906 196.212 1.78906 212.967C1.78906 229.722 15.4137 243.304 32.2206 243.304Z" fill="#0000FF" stroke="white" stroke-width="2" stroke-miterlimit="10"/>
<path d="M32.1815 237.92C48.9884 237.92 62.613 224.337 62.613 207.582C62.613 190.827 48.9884 177.244 32.1815 177.244C15.3746 177.244 1.75 190.827 1.75 207.582C1.75 224.337 15.3746 237.92 32.1815 237.92Z" fill="#0000FF" stroke="white" stroke-width="2" stroke-miterlimit="10"/>
<path d="M32.1415 232.533C48.9483 232.533 62.573 218.95 62.573 202.195C62.573 185.44 48.9483 171.857 32.1415 171.857C15.3346 171.857 1.70996 185.44 1.70996 202.195C1.70996 218.95 15.3346 232.533 32.1415 232.533Z" fill="#0000FF" stroke="white" stroke-width="2" stroke-miterlimit="10"/>
<path d="M32.1024 227.148C48.9093 227.148 62.5339 213.565 62.5339 196.81C62.5339 180.055 48.9093 166.473 32.1024 166.473C15.2955 166.473 1.6709 180.055 1.6709 196.81C1.6709 213.565 15.2955 227.148 32.1024 227.148Z" fill="#0000FF" stroke="white" stroke-width="2" stroke-miterlimit="10"/>
<path d="M32.0633 221.761C48.8702 221.761 62.4948 208.179 62.4948 191.424C62.4948 174.669 48.8702 161.086 32.0633 161.086C15.2565 161.086 1.63184 174.669 1.63184 191.424C1.63184 208.179 15.2565 221.761 32.0633 221.761Z" fill="#0000FF" stroke="white" stroke-width="2" stroke-miterlimit="10"/>
<path d="M32.0233 216.377C48.8302 216.377 62.4548 202.794 62.4548 186.039C62.4548 169.284 48.8302 155.701 32.0233 155.701C15.2164 155.701 1.5918 169.284 1.5918 186.039C1.5918 202.794 15.2164 216.377 32.0233 216.377Z" fill="#0000FF" stroke="white" stroke-width="2" stroke-miterlimit="10"/>
<path d="M31.9842 210.99C48.7911 210.99 62.4157 197.407 62.4157 180.652C62.4157 163.897 48.7911 150.314 31.9842 150.314C15.1774 150.314 1.55273 163.897 1.55273 180.652C1.55273 197.407 15.1774 210.99 31.9842 210.99Z" fill="#0000FF" stroke="white" stroke-width="2" stroke-miterlimit="10"/>
<path d="M31.9452 205.603C48.752 205.603 62.3767 192.021 62.3767 175.265C62.3767 158.51 48.752 144.928 31.9452 144.928C15.1383 144.928 1.51367 158.51 1.51367 175.265C1.51367 192.021 15.1383 205.603 31.9452 205.603Z" fill="#0000FF" stroke="white" stroke-width="2" stroke-miterlimit="10"/>
<path d="M31.9051 200.218C48.712 200.218 62.3366 186.636 62.3366 169.881C62.3366 153.126 48.712 139.543 31.9051 139.543C15.0983 139.543 1.47363 153.126 1.47363 169.881C1.47363 186.636 15.0983 200.218 31.9051 200.218Z" fill="#0000FF" stroke="white" stroke-width="2" stroke-miterlimit="10"/>
<path d="M31.8661 194.832C48.6729 194.832 62.2976 181.249 62.2976 164.494C62.2976 147.739 48.6729 134.156 31.8661 134.156C15.0592 134.156 1.43457 147.739 1.43457 164.494C1.43457 181.249 15.0592 194.832 31.8661 194.832Z" fill="#0000FF" stroke="white" stroke-width="2" stroke-miterlimit="10"/>
<path d="M31.827 189.447C48.6339 189.447 62.2585 175.864 62.2585 159.109C62.2585 142.354 48.6339 128.771 31.827 128.771C15.0202 128.771 1.39551 142.354 1.39551 159.109C1.39551 175.864 15.0202 189.447 31.827 189.447Z" fill="#0000FF" stroke="white" stroke-width="2" stroke-miterlimit="10"/>
<path d="M31.787 184.06C48.5938 184.06 62.2185 170.478 62.2185 153.723C62.2185 136.967 48.5938 123.385 31.787 123.385C14.9801 123.385 1.35547 136.967 1.35547 153.723C1.35547 170.478 14.9801 184.06 31.787 184.06Z" fill="#0000FF" stroke="white" stroke-width="2" stroke-miterlimit="10"/>
<path d="M31.7479 178.675C48.5548 178.675 62.1794 165.093 62.1794 148.338C62.1794 131.583 48.5548 118 31.7479 118C14.9411 118 1.31641 131.583 1.31641 148.338C1.31641 165.093 14.9411 178.675 31.7479 178.675Z" fill="#0000FF" stroke="white" stroke-width="2" stroke-miterlimit="10"/>
<path d="M31.7088 173.289C48.5157 173.289 62.1403 159.706 62.1403 142.951C62.1403 126.196 48.5157 112.613 31.7088 112.613C14.902 112.613 1.27734 126.196 1.27734 142.951C1.27734 159.706 14.902 173.289 31.7088 173.289Z" fill="#0000FF" stroke="white" stroke-width="2" stroke-miterlimit="10"/>
<path d="M31.6688 167.902C48.4757 167.902 62.1003 154.319 62.1003 137.564C62.1003 120.809 48.4757 107.227 31.6688 107.227C14.862 107.227 1.2373 120.809 1.2373 137.564C1.2373 154.319 14.862 167.902 31.6688 167.902Z" fill="#0000FF" stroke="white" stroke-width="2" stroke-miterlimit="10"/>
<path d="M31.6297 162.517C48.4366 162.517 62.0612 148.935 62.0612 132.18C62.0612 115.424 48.4366 101.842 31.6297 101.842C14.8229 101.842 1.19824 115.424 1.19824 132.18C1.19824 148.935 14.8229 162.517 31.6297 162.517Z" fill="#0000FF" stroke="white" stroke-width="2" stroke-miterlimit="10"/>
<path d="M31.5907 157.131C48.3975 157.131 62.0222 143.548 62.0222 126.793C62.0222 110.038 48.3975 96.4551 31.5907 96.4551C14.7838 96.4551 1.15918 110.038 1.15918 126.793C1.15918 143.548 14.7838 157.131 31.5907 157.131Z" fill="#0000FF" stroke="white" stroke-width="2" stroke-miterlimit="10"/>
<path d="M31.5506 151.746C48.3575 151.746 61.9821 138.163 61.9821 121.408C61.9821 104.653 48.3575 91.0703 31.5506 91.0703C14.7438 91.0703 1.11914 104.653 1.11914 121.408C1.11914 138.163 14.7438 151.746 31.5506 151.746Z" fill="#0000FF" stroke="white" stroke-width="2" stroke-miterlimit="10"/>
<path d="M31.5116 146.359C48.3184 146.359 61.9431 132.776 61.9431 116.021C61.9431 99.2663 48.3184 85.6836 31.5116 85.6836C14.7047 85.6836 1.08008 99.2663 1.08008 116.021C1.08008 132.776 14.7047 146.359 31.5116 146.359Z" fill="#0000FF" stroke="white" stroke-width="2" stroke-miterlimit="10"/>
<path d="M31.4725 140.974C48.2794 140.974 61.904 127.392 61.904 110.637C61.904 93.8815 48.2794 80.2988 31.4725 80.2988C14.6657 80.2988 1.04102 93.8815 1.04102 110.637C1.04102 127.392 14.6657 140.974 31.4725 140.974Z" fill="#0000FF" stroke="white" stroke-width="2" stroke-miterlimit="10"/>
<path d="M31.4325 135.588C48.2393 135.588 61.864 122.005 61.864 105.25C61.864 88.4948 48.2393 74.9121 31.4325 74.9121C14.6256 74.9121 1.00098 88.4948 1.00098 105.25C1.00098 122.005 14.6256 135.588 31.4325 135.588Z" fill="#0000FF" stroke="white" stroke-width="2" stroke-miterlimit="10"/>
<path d="M35.3085 134.814C52.1153 134.814 65.74 121.231 65.74 104.476C65.74 87.7213 52.1153 74.1387 35.3085 74.1387C18.5016 74.1387 4.87695 87.7213 4.87695 104.476C4.87695 121.231 18.5016 134.814 35.3085 134.814Z" fill="#0000FF" stroke="white" stroke-width="2" stroke-miterlimit="10"/>
<path d="M39.1844 134.041C55.9913 134.041 69.6159 120.458 69.6159 103.703C69.6159 86.9479 55.9913 73.3652 39.1844 73.3652C22.3776 73.3652 8.75293 86.9479 8.75293 103.703C8.75293 120.458 22.3776 134.041 39.1844 134.041Z" fill="#0000FF" stroke="white" stroke-width="2" stroke-miterlimit="10"/>
<path d="M43.0604 133.267C59.8673 133.267 73.4919 119.685 73.4919 102.93C73.4919 86.1745 59.8673 72.5918 43.0604 72.5918C26.2536 72.5918 12.6289 86.1745 12.6289 102.93C12.6289 119.685 26.2536 133.267 43.0604 133.267Z" fill="#0000FF" stroke="white" stroke-width="2" stroke-miterlimit="10"/>
<path d="M46.9364 132.494C63.7432 132.494 77.3679 118.911 77.3679 102.156C77.3679 85.401 63.7432 71.8184 46.9364 71.8184C30.1295 71.8184 16.5049 85.401 16.5049 102.156C16.5049 118.911 30.1295 132.494 46.9364 132.494Z" fill="#0000FF" stroke="white" stroke-width="2" stroke-miterlimit="10"/>
<path d="M50.8114 131.72C67.6182 131.72 81.2429 118.138 81.2429 101.383C81.2429 84.6276 67.6182 71.0449 50.8114 71.0449C34.0045 71.0449 20.3799 84.6276 20.3799 101.383C20.3799 118.138 34.0045 131.72 50.8114 131.72Z" fill="#0000FF" stroke="white" stroke-width="2" stroke-miterlimit="10"/>
<path d="M54.6874 130.947C71.4942 130.947 85.1189 117.364 85.1189 100.609C85.1189 83.8542 71.4942 70.2715 54.6874 70.2715C37.8805 70.2715 24.2559 83.8542 24.2559 100.609C24.2559 117.364 37.8805 130.947 54.6874 130.947Z" fill="#0000FF" stroke="white" stroke-width="2" stroke-miterlimit="10"/>
<path d="M58.5633 130.174C75.3702 130.174 88.9948 116.591 88.9948 99.8358C88.9948 83.0807 75.3702 69.498 58.5633 69.498C41.7565 69.498 28.1318 83.0807 28.1318 99.8358C28.1318 116.591 41.7565 130.174 58.5633 130.174Z" fill="#0000FF" stroke="white" stroke-width="2" stroke-miterlimit="10"/>
<path d="M62.4393 129.4C79.2462 129.4 92.8708 115.817 92.8708 99.0624C92.8708 82.3073 79.2462 68.7246 62.4393 68.7246C45.6325 68.7246 32.0078 82.3073 32.0078 99.0624C32.0078 115.817 45.6325 129.4 62.4393 129.4Z" fill="#0000FF" stroke="white" stroke-width="2" stroke-miterlimit="10"/>
<path d="M66.3153 128.627C83.1221 128.627 96.7468 115.044 96.7468 98.2889C96.7468 81.5338 83.1221 67.9512 66.3153 67.9512C49.5084 67.9512 35.8838 81.5338 35.8838 98.2889C35.8838 115.044 49.5084 128.627 66.3153 128.627Z" fill="#0000FF" stroke="white" stroke-width="2" stroke-miterlimit="10"/>
<path d="M70.1913 127.853C86.9981 127.853 100.623 114.271 100.623 97.5155C100.623 80.7604 86.9981 67.1777 70.1913 67.1777C53.3844 67.1777 39.7598 80.7604 39.7598 97.5155C39.7598 114.271 53.3844 127.853 70.1913 127.853Z" fill="#0000FF" stroke="white" stroke-width="2" stroke-miterlimit="10"/>
<path d="M74.0672 127.08C90.8741 127.08 104.499 113.497 104.499 96.742C104.499 79.987 90.8741 66.4043 74.0672 66.4043C57.2604 66.4043 43.6357 79.987 43.6357 96.742C43.6357 113.497 57.2604 127.08 74.0672 127.08Z" fill="#0000FF" stroke="white" stroke-width="2" stroke-miterlimit="10"/>
<path d="M77.9422 126.306C94.7491 126.306 108.374 112.724 108.374 95.9686C108.374 79.2135 94.7491 65.6309 77.9422 65.6309C61.1354 65.6309 47.5107 79.2135 47.5107 95.9686C47.5107 112.724 61.1354 126.306 77.9422 126.306Z" fill="#0000FF" stroke="white" stroke-width="2" stroke-miterlimit="10"/>
<path d="M81.8182 125.533C98.6251 125.533 112.25 111.95 112.25 95.1952C112.25 78.4401 98.6251 64.8574 81.8182 64.8574C65.0114 64.8574 51.3867 78.4401 51.3867 95.1952C51.3867 111.95 65.0114 125.533 81.8182 125.533Z" fill="#0000FF" stroke="white" stroke-width="2" stroke-miterlimit="10"/>
<path d="M85.6942 124.759C102.501 124.759 116.126 111.177 116.126 94.4217C116.126 77.6667 102.501 64.084 85.6942 64.084C68.8873 64.084 55.2627 77.6667 55.2627 94.4217C55.2627 111.177 68.8873 124.759 85.6942 124.759Z" fill="#0000FF" stroke="white" stroke-width="2" stroke-miterlimit="10"/>
<path d="M89.5702 123.986C106.377 123.986 120.002 110.403 120.002 93.6483C120.002 76.8932 106.377 63.3105 89.5702 63.3105C72.7633 63.3105 59.1387 76.8932 59.1387 93.6483C59.1387 110.403 72.7633 123.986 89.5702 123.986Z" fill="#0000FF" stroke="white" stroke-width="2" stroke-miterlimit="10"/>
<path d="M93.4461 123.213C110.253 123.213 123.878 109.63 123.878 92.8749C123.878 76.1198 110.253 62.5371 93.4461 62.5371C76.6393 62.5371 63.0146 76.1198 63.0146 92.8749C63.0146 109.63 76.6393 123.213 93.4461 123.213Z" fill="#0000FF" stroke="white" stroke-width="2" stroke-miterlimit="10"/>
<path d="M97.3221 122.439C114.129 122.439 127.754 108.856 127.754 92.1014C127.754 75.3463 114.129 61.7637 97.3221 61.7637C80.5153 61.7637 66.8906 75.3463 66.8906 92.1014C66.8906 108.856 80.5153 122.439 97.3221 122.439Z" fill="#0000FF" stroke="white" stroke-width="2" stroke-miterlimit="10"/>
<path d="M101.197 121.666C118.004 121.666 131.629 108.083 131.629 91.328C131.629 74.5729 118.004 60.9902 101.197 60.9902C84.3903 60.9902 70.7656 74.5729 70.7656 91.328C70.7656 108.083 84.3903 121.666 101.197 121.666Z" fill="#0000FF" stroke="white" stroke-width="2" stroke-miterlimit="10"/>
<path d="M105.073 120.892C121.88 120.892 135.505 107.31 135.505 90.5545C135.505 73.7995 121.88 60.2168 105.073 60.2168C88.2663 60.2168 74.6416 73.7995 74.6416 90.5545C74.6416 107.31 88.2663 120.892 105.073 120.892Z" fill="#0000FF" stroke="white" stroke-width="2" stroke-miterlimit="10"/>
<path d="M108.949 120.119C125.756 120.119 139.381 106.536 139.381 89.7811C139.381 73.026 125.756 59.4434 108.949 59.4434C92.1422 59.4434 78.5176 73.026 78.5176 89.7811C78.5176 106.536 92.1422 120.119 108.949 120.119Z" fill="#0000FF" stroke="white" stroke-width="2" stroke-miterlimit="10"/>
<path d="M112.825 119.345C129.632 119.345 143.257 105.763 143.257 89.0077C143.257 72.2526 129.632 58.6699 112.825 58.6699C96.0182 58.6699 82.3936 72.2526 82.3936 89.0077C82.3936 105.763 96.0182 119.345 112.825 119.345Z" fill="#0000FF" stroke="white" stroke-width="2" stroke-miterlimit="10"/>
<path d="M116.701 118.572C133.508 118.572 147.133 104.989 147.133 88.2342C147.133 71.4792 133.508 57.8965 116.701 57.8965C99.8942 57.8965 86.2695 71.4792 86.2695 88.2342C86.2695 104.989 99.8942 118.572 116.701 118.572Z" fill="#0000FF" stroke="white" stroke-width="2" stroke-miterlimit="10"/>
<path d="M120.577 117.799C137.384 117.799 151.009 104.216 151.009 87.4608C151.009 70.7057 137.384 57.123 120.577 57.123C103.77 57.123 90.1455 70.7057 90.1455 87.4608C90.1455 104.216 103.77 117.799 120.577 117.799Z" fill="#0000FF" stroke="white" stroke-width="2" stroke-miterlimit="10"/>
<path d="M124.452 117.025C141.259 117.025 154.884 103.442 154.884 86.6874C154.884 69.9323 141.259 56.3496 124.452 56.3496C107.645 56.3496 94.0205 69.9323 94.0205 86.6874C94.0205 103.442 107.645 117.025 124.452 117.025Z" fill="#0000FF" stroke="white" stroke-width="2" stroke-miterlimit="10"/>
<path d="M128.328 116.252C145.135 116.252 158.759 102.669 158.759 85.9139C158.759 69.1588 145.135 55.5762 128.328 55.5762C111.521 55.5762 97.8965 69.1588 97.8965 85.9139C97.8965 102.669 111.521 116.252 128.328 116.252Z" fill="#0000FF" stroke="white" stroke-width="2" stroke-miterlimit="10"/>
<path d="M132.204 115.478C149.011 115.478 162.635 101.896 162.635 85.1405C162.635 68.3854 149.011 54.8027 132.204 54.8027C115.397 54.8027 101.772 68.3854 101.772 85.1405C101.772 101.896 115.397 115.478 132.204 115.478Z" fill="#0000FF" stroke="white" stroke-width="2" stroke-miterlimit="10"/>
<path d="M136.08 114.705C152.887 114.705 166.511 101.122 166.511 84.367C166.511 67.612 152.887 54.0293 136.08 54.0293C119.273 54.0293 105.648 67.612 105.648 84.367C105.648 101.122 119.273 114.705 136.08 114.705Z" fill="#0000FF" stroke="white" stroke-width="2" stroke-miterlimit="10"/>
<path d="M139.956 113.931C156.763 113.931 170.387 100.349 170.387 83.5936C170.387 66.8385 156.763 53.2559 139.956 53.2559C123.149 53.2559 109.524 66.8385 109.524 83.5936C109.524 100.349 123.149 113.931 139.956 113.931Z" fill="#0000FF" stroke="white" stroke-width="2" stroke-miterlimit="10"/>
<path d="M143.832 113.158C160.639 113.158 174.263 99.5752 174.263 82.8202C174.263 66.0651 160.639 52.4824 143.832 52.4824C127.025 52.4824 113.4 66.0651 113.4 82.8202C113.4 99.5752 127.025 113.158 143.832 113.158Z" fill="#0000FF" stroke="white" stroke-width="2" stroke-miterlimit="10"/>
<path d="M147.708 112.384C164.515 112.384 178.139 98.8018 178.139 82.0467C178.139 65.2917 164.515 51.709 147.708 51.709C130.901 51.709 117.276 65.2917 117.276 82.0467C117.276 98.8018 130.901 112.384 147.708 112.384Z" fill="#0000FF" stroke="white" stroke-width="2" stroke-miterlimit="10"/>
<path d="M151.583 111.611C168.39 111.611 182.014 98.0284 182.014 81.2733C182.014 64.5182 168.39 50.9355 151.583 50.9355C134.776 50.9355 121.151 64.5182 121.151 81.2733C121.151 98.0284 134.776 111.611 151.583 111.611Z" fill="#0000FF" stroke="white" stroke-width="2" stroke-miterlimit="10"/>
<path d="M158.09 113.638C174.897 113.638 188.521 100.056 188.521 83.3006C188.521 66.5456 174.897 52.9629 158.09 52.9629C141.283 52.9629 127.658 66.5456 127.658 83.3006C127.658 100.056 141.283 113.638 158.09 113.638Z" fill="#0000FF" stroke="white" stroke-width="2" stroke-miterlimit="10"/>
<path d="M164.596 115.668C181.402 115.668 195.027 102.085 195.027 85.3299C195.027 68.5749 181.402 54.9922 164.596 54.9922C147.789 54.9922 134.164 68.5749 134.164 85.3299C134.164 102.085 147.789 115.668 164.596 115.668Z" fill="#0000FF" stroke="white" stroke-width="2" stroke-miterlimit="10"/>
<path d="M171.101 117.695C187.908 117.695 201.533 104.112 201.533 87.3573C201.533 70.6022 187.908 57.0195 171.101 57.0195C154.295 57.0195 140.67 70.6022 140.67 87.3573C140.67 104.112 154.295 117.695 171.101 117.695Z" fill="#0000FF" stroke="white" stroke-width="2" stroke-miterlimit="10"/>
<path d="M177.608 119.724C194.415 119.724 208.04 106.142 208.04 89.3866C208.04 72.6315 194.415 59.0488 177.608 59.0488C160.801 59.0488 147.177 72.6315 147.177 89.3866C147.177 106.142 160.801 119.724 177.608 119.724Z" fill="#0000FF" stroke="white" stroke-width="2" stroke-miterlimit="10"/>
<path d="M184.114 121.754C200.921 121.754 214.546 108.171 214.546 91.4159C214.546 74.6608 200.921 61.0781 184.114 61.0781C167.307 61.0781 153.683 74.6608 153.683 91.4159C153.683 108.171 167.307 121.754 184.114 121.754Z" fill="#0000FF" stroke="white" stroke-width="2" stroke-miterlimit="10"/>
<path d="M190.62 123.781C207.427 123.781 221.051 110.198 221.051 93.4432C221.051 76.6881 207.427 63.1055 190.62 63.1055C173.813 63.1055 160.188 76.6881 160.188 93.4432C160.188 110.198 173.813 123.781 190.62 123.781Z" fill="#0000FF" stroke="white" stroke-width="2" stroke-miterlimit="10"/>
<path d="M197.127 125.81C213.934 125.81 227.558 112.228 227.558 95.4725C227.558 78.7174 213.934 65.1348 197.127 65.1348C180.32 65.1348 166.695 78.7174 166.695 95.4725C166.695 112.228 180.32 125.81 197.127 125.81Z" fill="#0000FF" stroke="white" stroke-width="2" stroke-miterlimit="10"/>
<path d="M203.633 127.838C220.44 127.838 234.064 114.255 234.064 97.4999C234.064 80.7448 220.44 67.1621 203.633 67.1621C186.826 67.1621 173.201 80.7448 173.201 97.4999C173.201 114.255 186.826 127.838 203.633 127.838Z" fill="#0000FF" stroke="white" stroke-width="2" stroke-miterlimit="10"/>
<path d="M210.14 129.867C226.946 129.867 240.571 116.284 240.571 99.5292C240.571 82.7741 226.946 69.1914 210.14 69.1914C193.333 69.1914 179.708 82.7741 179.708 99.5292C179.708 116.284 193.333 129.867 210.14 129.867Z" fill="#0000FF" stroke="white" stroke-width="2" stroke-miterlimit="10"/>
<path d="M216.645 131.896C233.452 131.896 247.077 118.314 247.077 101.558C247.077 84.8034 233.452 71.2207 216.645 71.2207C199.839 71.2207 186.214 84.8034 186.214 101.558C186.214 118.314 199.839 131.896 216.645 131.896Z" fill="#0000FF" stroke="white" stroke-width="2" stroke-miterlimit="10"/>
<path d="M223.151 133.924C239.958 133.924 253.583 120.341 253.583 103.586C253.583 86.8307 239.958 73.248 223.151 73.248C206.344 73.248 192.72 86.8307 192.72 103.586C192.72 120.341 206.344 133.924 223.151 133.924Z" fill="#0000FF" stroke="white" stroke-width="2" stroke-miterlimit="10"/>
<path d="M229.658 135.953C246.465 135.953 260.09 122.37 260.09 105.615C260.09 88.86 246.465 75.2773 229.658 75.2773C212.851 75.2773 199.227 88.86 199.227 105.615C199.227 122.37 212.851 135.953 229.658 135.953Z" fill="#0000FF" stroke="white" stroke-width="2" stroke-miterlimit="10"/>
<path d="M236.164 137.98C252.971 137.98 266.595 124.398 266.595 107.642C266.595 90.8874 252.971 77.3047 236.164 77.3047C219.357 77.3047 205.732 90.8874 205.732 107.642C205.732 124.398 219.357 137.98 236.164 137.98Z" fill="#0000FF" stroke="white" stroke-width="2" stroke-miterlimit="10"/>
<path d="M242.67 140.009C259.477 140.009 273.101 126.427 273.101 109.672C273.101 92.9167 259.477 79.334 242.67 79.334C225.863 79.334 212.238 92.9167 212.238 109.672C212.238 126.427 225.863 140.009 242.67 140.009Z" fill="#0000FF" stroke="white" stroke-width="2" stroke-miterlimit="10"/>
<path d="M249.177 142.037C265.983 142.037 279.608 128.454 279.608 111.699C279.608 94.944 265.983 81.3613 249.177 81.3613C232.37 81.3613 218.745 94.944 218.745 111.699C218.745 128.454 232.37 142.037 249.177 142.037Z" fill="#0000FF" stroke="white" stroke-width="2" stroke-miterlimit="10"/>
<path d="M255.682 144.066C272.489 144.066 286.114 130.483 286.114 113.728C286.114 96.9733 272.489 83.3906 255.682 83.3906C238.876 83.3906 225.251 96.9733 225.251 113.728C225.251 130.483 238.876 144.066 255.682 144.066Z" fill="#0000FF" stroke="white" stroke-width="2" stroke-miterlimit="10"/>
<path d="M262.188 146.095C278.995 146.095 292.62 132.513 292.62 115.758C292.62 99.0026 278.995 85.4199 262.188 85.4199C245.381 85.4199 231.757 99.0026 231.757 115.758C231.757 132.513 245.381 146.095 262.188 146.095Z" fill="#0000FF" stroke="white" stroke-width="2" stroke-miterlimit="10"/>
<path d="M268.695 148.123C285.502 148.123 299.127 134.54 299.127 117.785C299.127 101.03 285.502 87.4473 268.695 87.4473C251.888 87.4473 238.264 101.03 238.264 117.785C238.264 134.54 251.888 148.123 268.695 148.123Z" fill="#0000FF" stroke="white" stroke-width="2" stroke-miterlimit="10"/>
<path d="M275.201 150.152C292.008 150.152 305.633 136.569 305.633 119.814C305.633 103.059 292.008 89.4766 275.201 89.4766C258.394 89.4766 244.77 103.059 244.77 119.814C244.77 136.569 258.394 150.152 275.201 150.152Z" fill="#0000FF" stroke="white" stroke-width="2" stroke-miterlimit="10"/>
<path d="M281.707 152.181C298.514 152.181 312.138 138.599 312.138 121.844C312.138 105.089 298.514 91.5059 281.707 91.5059C264.9 91.5059 251.275 105.089 251.275 121.844C251.275 138.599 264.9 152.181 281.707 152.181Z" fill="#0000FF" stroke="white" stroke-width="2" stroke-miterlimit="10"/>
<path d="M288.214 154.209C305.021 154.209 318.645 140.626 318.645 123.871C318.645 107.116 305.021 93.5332 288.214 93.5332C271.407 93.5332 257.782 107.116 257.782 123.871C257.782 140.626 271.407 154.209 288.214 154.209Z" fill="#0000FF" stroke="white" stroke-width="2" stroke-miterlimit="10"/>
<path d="M294.72 156.238C311.526 156.238 325.151 142.655 325.151 125.9C325.151 109.145 311.526 95.5625 294.72 95.5625C277.913 95.5625 264.288 109.145 264.288 125.9C264.288 142.655 277.913 156.238 294.72 156.238Z" fill="#0000FF" stroke="white" stroke-width="2" stroke-miterlimit="10"/>
<path d="M301.226 158.265C318.033 158.265 331.658 144.683 331.658 127.928C331.658 111.173 318.033 97.5898 301.226 97.5898C284.42 97.5898 270.795 111.173 270.795 127.928C270.795 144.683 284.42 158.265 301.226 158.265Z" fill="#0000FF" stroke="white" stroke-width="2" stroke-miterlimit="10"/>
<path d="M307.732 160.295C324.539 160.295 338.164 146.712 338.164 129.957C338.164 113.202 324.539 99.6191 307.732 99.6191C290.925 99.6191 277.301 113.202 277.301 129.957C277.301 146.712 290.925 160.295 307.732 160.295Z" fill="#0000FF" stroke="white" stroke-width="2" stroke-miterlimit="10"/>
</g>
<defs>
<clipPath id="clip0_118_567">
<rect width="356" height="381" fill="white" transform="translate(0 0.148438)"/>
</clipPath>
</defs>
</svg>
