<svg width="481" height="171" viewBox="0 0 481 171" fill="none" xmlns="http://www.w3.org/2000/svg">
<mask id="path-1-outside-1_228_2" maskUnits="userSpaceOnUse" x="-12.5752" y="-12.2962" width="505.98" height="195.563" fill="black">
<rect fill="white" x="-12.5752" y="-12.2962" width="505.98" height="195.563"/>
<path d="M4.49338 135.857L0.313696 17.6904L12.1463 17.2719L13.7639 63.0033C20.8889 51.7044 32.8264 45.1983 47.5372 44.678C73.441 43.7617 94.2954 63.0366 95.206 88.7805C96.1335 115.004 77.0016 135.373 50.6181 136.306C36.2271 136.815 23.5343 131.02 15.7943 120.407L16.326 135.438L4.49338 135.857ZM47.1223 55.5795C27.7744 56.2638 13.2868 72.1459 13.9824 91.8136C14.6668 111.161 30.5658 126.129 49.9137 125.444C69.5814 124.749 83.9205 109.192 83.2078 89.0448C82.4952 68.8974 67.2697 54.8668 47.1223 55.5795ZM210.898 88.6909L131.747 91.4905C133.317 108.726 148.834 121.946 166.903 121.306C180.175 120.837 192.204 112.406 196.737 100.239L209.049 99.8031C203.304 118.418 186.636 131.495 167.607 132.168C141.704 133.085 120.678 113.496 119.762 87.5917C118.863 62.1676 138.143 41.4732 163.407 40.5795C180.676 39.9687 196.509 48.5344 204.705 62.9737C208.802 70.1934 210.485 77.0182 210.898 88.6909ZM131.688 80.7659L198.686 78.3961C194.072 61.1084 180.741 50.8532 163.792 51.4527C147.162 52.0409 134.292 63.8633 131.688 80.7659ZM324.243 36.9719L326.782 108.767C327.387 125.876 325.477 135.23 319.843 143.434C312.684 153.773 300.09 159.822 284.9 160.36C262.834 161.14 246.927 150.496 239.807 130.255L251.32 129.848C255.401 136.588 257.416 139.238 260.716 142.003C267.15 147.379 274.761 149.832 284.195 149.498C297.787 149.017 307.977 142.893 312.258 132.655C314.624 127.128 315.391 121.658 315.085 113.023L314.876 107.107C308.475 120.782 297.988 127.557 282.158 128.116C256.414 129.027 235.885 109.901 234.981 84.3168C234.042 57.7734 252.374 37.4327 277.958 36.5277C292.829 36.0017 303.734 41.0594 312.959 52.9007L312.41 37.3904L324.243 36.9719ZM278.183 47.4066C259.794 48.057 246.249 63.4254 246.939 82.9332C247.657 103.241 262.586 117.922 281.774 117.243C300.802 116.57 314.644 100.551 313.926 80.2436C313.23 60.5759 298.01 46.7053 278.183 47.4066ZM358.653 123.329L355.559 35.8642L367.392 35.4456L370.486 122.911L358.653 123.329ZM355.186 25.3108L354.473 5.16337L366.306 4.74483L367.019 24.8922L355.186 25.3108ZM401.857 121.801L398.764 34.336L410.596 33.9174L410.998 45.2703C418.031 35.8959 427.152 31.2505 438.665 30.8433C450.977 30.4078 461.7 34.8315 468.887 43.3828C474.75 50.7002 477.105 58.4617 477.626 73.1725L479.249 119.064L467.416 119.482L465.793 73.5911C465.375 61.7585 463.384 55.2648 458.714 49.9866C453.714 44.3998 446.085 41.4677 437.611 41.7674C428.017 42.1068 419.849 46.5583 415.461 53.7579C412.592 58.6624 411.654 63.8187 411.988 73.2528L413.69 121.383L401.857 121.801Z"/>
</mask>
<path d="M4.49338 135.857L0.313696 17.6904L12.1463 17.2719L13.7639 63.0033C20.8889 51.7044 32.8264 45.1983 47.5372 44.678C73.441 43.7617 94.2954 63.0366 95.206 88.7805C96.1335 115.004 77.0016 135.373 50.6181 136.306C36.2271 136.815 23.5343 131.02 15.7943 120.407L16.326 135.438L4.49338 135.857ZM47.1223 55.5795C27.7744 56.2638 13.2868 72.1459 13.9824 91.8136C14.6668 111.161 30.5658 126.129 49.9137 125.444C69.5814 124.749 83.9205 109.192 83.2078 89.0448C82.4952 68.8974 67.2697 54.8668 47.1223 55.5795ZM210.898 88.6909L131.747 91.4905C133.317 108.726 148.834 121.946 166.903 121.306C180.175 120.837 192.204 112.406 196.737 100.239L209.049 99.8031C203.304 118.418 186.636 131.495 167.607 132.168C141.704 133.085 120.678 113.496 119.762 87.5917C118.863 62.1676 138.143 41.4732 163.407 40.5795C180.676 39.9687 196.509 48.5344 204.705 62.9737C208.802 70.1934 210.485 77.0182 210.898 88.6909ZM131.688 80.7659L198.686 78.3961C194.072 61.1084 180.741 50.8532 163.792 51.4527C147.162 52.0409 134.292 63.8633 131.688 80.7659ZM324.243 36.9719L326.782 108.767C327.387 125.876 325.477 135.23 319.843 143.434C312.684 153.773 300.09 159.822 284.9 160.36C262.834 161.14 246.927 150.496 239.807 130.255L251.32 129.848C255.401 136.588 257.416 139.238 260.716 142.003C267.15 147.379 274.761 149.832 284.195 149.498C297.787 149.017 307.977 142.893 312.258 132.655C314.624 127.128 315.391 121.658 315.085 113.023L314.876 107.107C308.475 120.782 297.988 127.557 282.158 128.116C256.414 129.027 235.885 109.901 234.981 84.3168C234.042 57.7734 252.374 37.4327 277.958 36.5277C292.829 36.0017 303.734 41.0594 312.959 52.9007L312.41 37.3904L324.243 36.9719ZM278.183 47.4066C259.794 48.057 246.249 63.4254 246.939 82.9332C247.657 103.241 262.586 117.922 281.774 117.243C300.802 116.57 314.644 100.551 313.926 80.2436C313.23 60.5759 298.01 46.7053 278.183 47.4066ZM358.653 123.329L355.559 35.8642L367.392 35.4456L370.486 122.911L358.653 123.329ZM355.186 25.3108L354.473 5.16337L366.306 4.74483L367.019 24.8922L355.186 25.3108ZM401.857 121.801L398.764 34.336L410.596 33.9174L410.998 45.2703C418.031 35.8959 427.152 31.2505 438.665 30.8433C450.977 30.4078 461.7 34.8315 468.887 43.3828C474.75 50.7002 477.105 58.4617 477.626 73.1725L479.249 119.064L467.416 119.482L465.793 73.5911C465.375 61.7585 463.384 55.2648 458.714 49.9866C453.714 44.3998 446.085 41.4677 437.611 41.7674C428.017 42.1068 419.849 46.5583 415.461 53.7579C412.592 58.6624 411.654 63.8187 411.988 73.2528L413.69 121.383L401.857 121.801Z" fill="white"/>
<path d="M4.49338 135.857L-7.49912 136.281L-7.07493 148.273L4.91757 147.849L4.49338 135.857ZM0.313696 17.6904L-0.110494 5.69793L-12.103 6.12212L-11.6788 18.1146L0.313696 17.6904ZM12.1463 17.2719L24.1388 16.8477L23.7146 4.85521L11.7221 5.2794L12.1463 17.2719ZM13.7639 63.0033L1.77137 63.4275L3.14761 102.336L23.9142 69.4041L13.7639 63.0033ZM15.7943 120.407L25.4898 113.337L2.4177 81.7002L3.80183 120.832L15.7943 120.407ZM16.326 135.438L16.7502 147.431L28.7427 147.006L28.3185 135.014L16.326 135.438ZM16.4859 135.432L12.3062 17.2662L-11.6788 18.1146L-7.49912 136.281L16.4859 135.432ZM0.737885 29.6829L12.5705 29.2644L11.7221 5.2794L-0.110494 5.69793L0.737885 29.6829ZM0.153798 17.6961L1.77137 63.4275L25.7564 62.5791L24.1388 16.8477L0.153798 17.6961ZM23.9142 69.4041C28.694 61.8243 36.7714 57.0663 47.9614 56.6705L47.113 32.6855C28.8814 33.3304 13.0838 41.5845 3.6135 56.6025L23.9142 69.4041ZM47.9614 56.6705C67.3243 55.9856 82.5401 70.1661 83.2135 89.2047L107.198 88.3563C106.051 55.9071 79.5577 31.5379 47.113 32.6855L47.9614 56.6705ZM83.2135 89.2047C83.9039 108.723 70.0367 123.612 50.1939 124.314L51.0423 148.299C83.9665 147.134 108.363 121.285 107.198 88.3563L83.2135 89.2047ZM50.1939 124.314C39.3327 124.698 30.6285 120.383 25.4898 113.337L6.09882 127.478C16.4402 141.658 33.1215 148.933 51.0423 148.299L50.1939 124.314ZM3.80183 120.832L4.33348 135.862L28.3185 135.014L27.7868 119.983L3.80183 120.832ZM15.9018 123.446L4.06919 123.864L4.91757 147.849L16.7502 147.431L15.9018 123.446ZM46.6981 43.587C20.5106 44.5133 1.06771 66.1653 1.98993 92.2378L25.9749 91.3894C25.5058 78.1265 35.0382 68.0144 47.5465 67.572L46.6981 43.587ZM1.98993 92.2378C2.90601 118.137 24.2948 138.358 50.3379 137.437L49.4895 113.452C36.8368 113.9 26.4276 104.186 25.9749 91.3894L1.98993 92.2378ZM50.3379 137.437C76.8096 136.501 96.1408 115.209 95.2003 88.6206L71.2153 89.469C71.7001 103.175 62.3532 112.997 49.4895 113.452L50.3379 137.437ZM95.2003 88.6206C94.2508 61.7769 73.3955 42.6427 46.6981 43.587L47.5465 67.572C61.1439 67.091 70.7395 76.0179 71.2153 89.469L95.2003 88.6206ZM210.898 88.6909L211.322 100.683L223.314 100.259L222.89 88.2667L210.898 88.6909ZM131.747 91.4905L131.323 79.498L118.646 79.9464L119.797 92.5793L131.747 91.4905ZM196.737 100.239L196.313 88.2461L188.293 88.5298L185.492 96.0497L196.737 100.239ZM209.049 99.8031L220.515 103.342L225.494 87.214L208.625 87.8106L209.049 99.8031ZM204.705 62.9737L194.269 68.8971L194.269 68.8971L204.705 62.9737ZM131.688 80.7659L119.828 78.9386L117.62 93.271L132.112 92.7584L131.688 80.7659ZM198.686 78.3961L199.11 90.3886L214.165 89.8561L210.28 75.3017L198.686 78.3961ZM210.473 76.6984L131.323 79.498L132.171 103.483L211.322 100.683L210.473 76.6984ZM119.797 92.5793C121.981 116.553 143.298 134.149 167.327 133.299L166.479 109.314C154.37 109.742 144.654 100.899 143.698 90.4017L119.797 92.5793ZM167.327 133.299C185.24 132.665 201.681 121.343 207.982 104.428L185.492 96.0497C182.728 103.47 175.109 109.009 166.479 109.314L167.327 133.299ZM197.161 112.231L209.473 111.796L208.625 87.8106L196.313 88.2461L197.161 112.231ZM197.583 96.264C193.284 110.192 180.906 119.69 167.183 120.176L168.032 144.161C192.365 143.3 213.323 126.643 220.515 103.342L197.583 96.264ZM167.183 120.176C147.903 120.858 132.436 106.448 131.754 87.1675L107.769 88.0159C108.92 120.543 135.505 145.311 168.032 144.161L167.183 120.176ZM131.754 87.1675C131.088 68.339 145.218 53.2304 163.831 52.572L162.983 28.587C131.068 29.7159 106.637 55.9962 107.769 88.0159L131.754 87.1675ZM163.831 52.572C176.878 52.1106 188.398 58.5549 194.269 68.8971L215.141 57.0503C204.62 38.5138 184.475 27.8268 162.983 28.587L163.831 52.572ZM194.269 68.8971C197.125 73.9293 198.536 78.6932 198.905 89.115L222.89 88.2667C222.433 75.3431 220.48 66.4574 215.141 57.0503L194.269 68.8971ZM132.112 92.7584L199.11 90.3886L198.262 66.4036L131.264 68.7734L132.112 92.7584ZM210.28 75.3017C204.329 53.0037 186.305 38.6489 163.368 39.4602L164.216 63.4452C175.177 63.0575 183.815 69.2131 187.092 81.4905L210.28 75.3017ZM163.368 39.4602C140.688 40.2624 123.264 56.6357 119.828 78.9386L143.548 82.5931C145.32 71.0908 153.637 63.8194 164.216 63.4452L163.368 39.4602ZM324.243 36.9719L336.235 36.5477L335.811 24.5552L323.819 24.9794L324.243 36.9719ZM319.843 143.434L329.709 150.265L329.723 150.246L329.736 150.227L319.843 143.434ZM239.807 130.255L239.383 118.262L223.071 118.839L228.487 134.237L239.807 130.255ZM251.32 129.848L261.585 123.633L257.937 117.606L250.896 117.855L251.32 129.848ZM260.716 142.003L253.009 151.201L253.015 151.206L253.022 151.212L260.716 142.003ZM312.258 132.655L301.226 127.933L301.206 127.979L301.186 128.026L312.258 132.655ZM314.876 107.107L326.869 106.683L304.008 102.02L314.876 107.107ZM312.959 52.9007L303.492 60.2752L326.261 89.5036L324.951 52.4765L312.959 52.9007ZM312.41 37.3904L311.986 25.3979L299.993 25.8221L300.418 37.8146L312.41 37.3904ZM312.25 37.3961L314.79 109.191L338.775 108.343L336.235 36.5477L312.25 37.3961ZM314.79 109.191C315.361 125.341 313.426 131.581 309.951 136.641L329.736 150.227C337.528 138.879 339.414 126.411 338.775 108.343L314.79 109.191ZM309.977 136.603C305.459 143.128 296.821 147.931 284.476 148.367L285.324 172.352C303.36 171.714 319.909 164.419 329.709 150.265L309.977 136.603ZM284.476 148.367C275.5 148.685 268.594 146.672 263.415 143.212C258.257 139.767 253.957 134.318 251.127 126.273L228.487 134.237C232.778 146.433 239.991 156.427 250.083 163.169C260.153 169.896 272.233 172.815 285.324 172.352L284.476 148.367ZM240.232 142.247L251.744 141.84L250.896 117.855L239.383 118.262L240.232 142.247ZM241.055 136.063C245.311 143.091 248.151 147.13 253.009 151.201L268.423 132.805C266.681 131.346 265.491 130.084 261.585 123.633L241.055 136.063ZM253.022 151.212C261.991 158.706 272.593 161.916 284.62 161.49L283.771 137.505C276.93 137.747 272.309 136.052 268.41 132.794L253.022 151.212ZM284.62 161.49C301.611 160.889 316.793 152.915 323.329 137.285L301.186 128.026C299.161 132.871 293.963 137.145 283.771 137.505L284.62 161.49ZM323.289 137.378C326.598 129.65 327.419 122.24 327.078 112.599L303.093 113.447C303.363 121.075 302.65 124.607 301.226 127.933L323.289 137.378ZM327.078 112.599L326.869 106.683L302.884 107.531L303.093 113.447L327.078 112.599ZM304.008 102.02C301.576 107.215 298.717 110.408 295.562 112.437C292.374 114.487 288.02 115.902 281.734 116.124L282.583 140.109C292.126 139.771 300.931 137.519 308.544 132.623C316.191 127.705 321.776 120.673 325.744 112.194L304.008 102.02ZM281.734 116.124C262.586 116.801 247.643 102.826 246.973 83.8926L222.988 84.741C224.128 116.976 250.243 141.253 282.583 140.109L281.734 116.124ZM246.973 83.8926C246.255 63.5783 259.809 49.1772 278.382 48.5202L277.534 24.5352C244.939 25.6881 221.829 51.9685 222.988 84.741L246.973 83.8926ZM278.382 48.5202C284.317 48.3103 288.807 49.2259 292.5 50.95C296.193 52.6742 299.804 55.5402 303.492 60.2752L322.425 45.5262C316.89 38.4199 310.435 32.8364 302.652 29.203C294.868 25.5694 286.47 24.2192 277.534 24.5352L278.382 48.5202ZM324.951 52.4765L324.403 36.9662L300.418 37.8146L300.966 53.3249L324.951 52.4765ZM312.834 49.3829L324.667 48.9644L323.819 24.9794L311.986 25.3979L312.834 49.3829ZM277.759 35.4141C252.114 36.3211 234.045 57.877 234.947 83.3574L258.932 82.509C258.453 68.9739 267.474 59.7929 278.607 59.3991L277.759 35.4141ZM234.947 83.3574C235.877 109.657 255.772 130.17 282.198 129.236L281.35 105.251C269.399 105.673 259.438 96.8245 258.932 82.509L234.947 83.3574ZM282.198 129.236C308.637 128.301 326.842 105.934 325.918 79.8194L301.933 80.6678C302.446 95.168 292.967 104.84 281.35 105.251L282.198 129.236ZM325.918 79.8194C324.982 53.3442 304.024 34.4851 277.759 35.4141L278.607 59.3991C291.997 58.9255 301.479 67.8077 301.933 80.6678L325.918 79.8194ZM358.653 123.329L346.661 123.754L347.085 135.746L359.077 135.322L358.653 123.329ZM355.559 35.8642L355.135 23.8717L343.143 24.2959L343.567 36.2884L355.559 35.8642ZM367.392 35.4456L379.385 35.0214L378.96 23.0289L366.968 23.4531L367.392 35.4456ZM370.486 122.911L370.91 134.903L382.902 134.479L382.478 122.487L370.486 122.911ZM355.186 25.3108L343.194 25.735L343.618 37.7275L355.61 37.3033L355.186 25.3108ZM354.473 5.16336L354.049 -6.82914L342.057 -6.40495L342.481 5.58755L354.473 5.16336ZM366.306 4.74483L378.299 4.32064L377.874 -7.67186L365.882 -7.24767L366.306 4.74483ZM367.019 24.8922L367.443 36.8847L379.435 36.4605L379.011 24.468L367.019 24.8922ZM370.646 122.905L367.552 35.44L343.567 36.2884L346.661 123.754L370.646 122.905ZM355.984 47.8567L367.816 47.4381L366.968 23.4531L355.135 23.8717L355.984 47.8567ZM355.4 35.8698L358.493 123.335L382.478 122.487L379.385 35.0214L355.4 35.8698ZM370.062 110.918L358.229 111.337L359.077 135.322L370.91 134.903L370.062 110.918ZM367.179 24.8866L366.466 4.73917L342.481 5.58755L343.194 25.735L367.179 24.8866ZM354.898 17.1559L366.73 16.7373L365.882 -7.24767L354.049 -6.82914L354.898 17.1559ZM354.314 5.16902L355.026 25.3164L379.011 24.468L378.299 4.32064L354.314 5.16902ZM366.595 12.8997L354.762 13.3183L355.61 37.3033L367.443 36.8847L366.595 12.8997ZM401.857 121.801L389.865 122.225L390.289 134.218L402.282 133.794L401.857 121.801ZM398.764 34.336L398.339 22.3435L386.347 22.7677L386.771 34.7602L398.764 34.336ZM410.596 33.9174L422.589 33.4933L422.165 21.5008L410.172 21.9249L410.596 33.9174ZM410.998 45.2703L399.005 45.6945L400.206 79.6506L420.597 52.4718L410.998 45.2703ZM468.887 43.3828L478.252 35.8799L478.164 35.77L478.074 35.6622L468.887 43.3828ZM479.249 119.064L479.673 131.056L491.666 130.632L491.241 118.64L479.249 119.064ZM467.416 119.482L455.424 119.907L455.848 131.899L467.841 131.475L467.416 119.482ZM458.714 49.9866L467.702 42.0354L467.679 42.0093L467.656 41.9833L458.714 49.9866ZM415.461 53.7579L405.214 47.5124L405.157 47.6055L405.102 47.6996L415.461 53.7579ZM413.69 121.383L414.114 133.375L426.107 132.951L425.682 120.959L413.69 121.383ZM413.85 121.377L410.756 33.9118L386.771 34.7602L389.865 122.225L413.85 121.377ZM399.188 46.3285L411.02 45.9099L410.172 21.9249L398.339 22.3435L399.188 46.3285ZM398.604 34.3416L399.005 45.6945L422.99 44.8462L422.589 33.4933L398.604 34.3416ZM420.597 52.4718C425.421 46.041 431.149 43.1167 439.089 42.8358L438.241 18.8508C423.156 19.3844 410.64 25.7508 401.399 38.0689L420.597 52.4718ZM439.089 42.8358C448.177 42.5144 455.174 45.7173 459.701 51.1034L478.074 35.6622C468.227 23.9458 453.778 18.3013 438.241 18.8508L439.089 42.8358ZM459.522 50.8858C463.126 55.3842 465.159 60.2021 465.633 73.5967L489.618 72.7484C489.051 56.7214 486.373 46.0161 478.252 35.8799L459.522 50.8858ZM465.633 73.5967L467.256 119.488L491.241 118.64L489.618 72.7484L465.633 73.5967ZM478.825 107.071L466.992 107.49L467.841 131.475L479.673 131.056L478.825 107.071ZM479.409 119.058L477.786 73.1669L453.801 74.0153L455.424 119.907L479.409 119.058ZM477.786 73.1669C477.327 60.2108 475.077 50.3716 467.702 42.0354L449.727 57.9377C451.691 60.158 453.422 63.3061 453.801 74.0153L477.786 73.1669ZM467.656 41.9833C459.911 33.3305 448.627 29.3702 437.186 29.7749L438.035 53.7599C443.543 53.5651 447.517 55.4691 449.773 57.9898L467.656 41.9833ZM437.186 29.7749C424.167 30.2354 412 36.3793 405.214 47.5124L425.707 60.0033C427.698 56.7372 431.866 53.9781 438.035 53.7599L437.186 29.7749ZM405.102 47.6996C400.57 55.4493 399.627 63.273 399.995 73.677L423.98 72.8287C423.681 64.3645 424.615 61.8754 425.819 59.8161L405.102 47.6996ZM399.995 73.677L401.697 121.807L425.682 120.959L423.98 72.8287L399.995 73.677ZM413.266 109.39L401.433 109.809L402.282 133.794L414.114 133.375L413.266 109.39Z" fill="#0000FF" mask="url(#path-1-outside-1_228_2)"/>
</svg>
