<svg width="326" height="349" viewBox="0 0 326 349" fill="none" xmlns="http://www.w3.org/2000/svg">
<g clip-path="url(#clip0_118_181)">
<path d="M313.628 114.352L323.88 103.025L323.869 102.743C314.09 93.4776 313.331 78.2281 321.995 68.0475L310.039 57.2617C300.642 66.4526 285.696 66.9222 275.736 58.2865L265.107 70.0301C275.166 79.4447 275.82 95.1468 266.638 105.361L277.815 115.444C287.358 105.458 303.192 104.95 313.356 114.362L313.628 114.352Z" fill="#0000FF" stroke="white" stroke-width="4" stroke-miterlimit="10"/>
<path d="M309.041 110.44L319.293 99.1125L319.282 98.831C309.503 89.5655 308.744 74.316 317.408 64.1354L305.452 53.3496C296.055 62.5405 281.109 63.0101 271.149 54.3744L260.521 66.118C270.58 75.5326 271.233 91.2347 262.051 101.448L273.228 111.532C282.771 101.545 298.605 101.038 308.769 110.45L309.041 110.44Z" fill="#0000FF" stroke="white" stroke-width="4" stroke-miterlimit="10"/>
<path d="M304.454 106.528L314.706 95.2004L314.695 94.9189C304.916 85.6534 304.157 70.4039 312.821 60.2233L300.865 49.4375C291.468 58.6284 276.522 59.098 266.562 50.4623L255.934 62.2059C265.993 71.6205 266.646 87.3226 257.464 97.5363L268.641 107.62C278.184 97.6333 294.018 97.1261 304.182 106.538L304.454 106.528Z" fill="#0000FF" stroke="white" stroke-width="4" stroke-miterlimit="10"/>
<path d="M299.867 102.616L310.119 91.2883L310.108 91.0068C300.329 81.7413 299.57 66.4918 308.234 56.3112L296.278 45.5254C286.881 54.7163 271.935 55.1859 261.975 46.5502L251.347 58.2938C261.406 67.7084 262.059 83.4105 252.877 93.6242L264.054 103.707C273.597 93.7212 289.431 93.2139 299.595 102.626L299.867 102.616Z" fill="#0000FF" stroke="white" stroke-width="4" stroke-miterlimit="10"/>
<path d="M295.28 98.7037L305.532 87.3762L305.522 87.0947C295.742 77.8292 294.983 62.5797 303.647 52.3991L291.691 41.6133C282.294 50.8041 267.348 51.2738 257.388 42.6381L246.76 54.3817C256.819 63.7963 257.472 79.4984 248.29 89.7121L259.467 99.7954C269.01 89.8091 284.845 89.3018 295.008 98.7136L295.28 98.7037Z" fill="#0000FF" stroke="white" stroke-width="4" stroke-miterlimit="10"/>
<path d="M290.693 94.7916L300.945 83.4641L300.935 83.1825C291.155 73.9171 290.396 58.6676 299.06 48.487L287.104 37.7012C277.707 46.892 262.761 47.3617 252.801 38.726L242.173 50.4696C252.232 59.8842 252.885 75.5862 243.703 85.8L254.88 95.8833C264.423 85.897 280.258 85.3897 290.422 94.8015L290.693 94.7916Z" fill="#0000FF" stroke="white" stroke-width="4" stroke-miterlimit="10"/>
<path d="M286.106 90.8795L296.358 79.552L296.348 79.2704C286.568 70.005 285.809 54.7555 294.473 44.5749L282.517 33.7891C273.12 42.9799 258.174 43.4496 248.214 34.8139L237.586 46.5575C247.645 55.9721 248.299 71.6741 239.117 81.8879L250.293 91.9712C259.837 81.9849 275.671 81.4776 285.835 90.8894L286.106 90.8795Z" fill="#0000FF" stroke="white" stroke-width="4" stroke-miterlimit="10"/>
<path d="M281.52 86.9673L291.772 75.6399L291.762 75.3583C281.982 66.0929 281.224 50.8434 289.887 40.6628L277.932 29.877C268.535 39.0678 253.588 39.5374 243.628 30.9018L233 42.6454C243.059 52.06 243.713 67.762 234.531 77.9758L245.707 88.059C255.251 78.0728 271.085 77.5655 281.249 86.9773L281.52 86.9673Z" fill="#0000FF" stroke="white" stroke-width="4" stroke-miterlimit="10"/>
<path d="M276.934 83.0552L287.185 71.7278L287.175 71.4462C277.395 62.1808 276.637 46.9313 285.3 36.7507L273.345 25.9648C263.948 35.1557 249.001 35.6253 239.041 26.9896L228.413 38.7332C238.472 48.1479 239.126 63.8499 229.944 74.0637L241.121 84.1469C250.664 74.1607 266.498 73.6534 276.662 83.0652L276.934 83.0552Z" fill="#0000FF" stroke="white" stroke-width="4" stroke-miterlimit="10"/>
<path d="M272.347 79.1431L282.598 67.8157L282.588 67.5341C272.808 58.2686 272.05 43.0191 280.713 32.8386L268.758 22.0527C259.361 31.2436 244.414 31.7132 234.454 23.0775L223.826 34.8211C233.885 44.2358 234.539 59.9378 225.357 70.1515L236.534 80.2348C246.077 70.2486 261.911 69.7413 272.075 79.153L272.347 79.1431Z" fill="#0000FF" stroke="white" stroke-width="4" stroke-miterlimit="10"/>
<path d="M267.76 75.231L278.011 63.9035L278.001 63.622C268.221 54.3565 267.463 39.107 276.126 28.9265L264.171 18.1406C254.774 27.3315 239.827 27.8011 229.867 19.1654L219.239 30.909C229.298 40.3236 229.952 56.0257 220.77 66.2394L231.947 76.3227C241.49 66.3365 257.324 65.8292 267.488 75.241L267.76 75.231Z" fill="#0000FF" stroke="white" stroke-width="4" stroke-miterlimit="10"/>
<path d="M263.173 71.3189L273.424 59.9914L273.414 59.7099C263.635 50.4444 262.876 35.1949 271.539 25.0143L259.584 14.2285C250.187 23.4194 235.241 23.889 225.281 15.2533L214.652 26.9969C224.711 36.4115 225.365 52.1136 216.183 62.3273L227.36 72.4106C236.903 62.4243 252.737 61.9171 262.901 71.3288L263.173 71.3189Z" fill="#0000FF" stroke="white" stroke-width="4" stroke-miterlimit="10"/>
<path d="M258.586 67.4068L268.838 56.0793L268.827 55.7978C259.048 46.5323 258.289 31.2828 266.953 21.1022L254.997 10.3164C245.6 19.5073 230.654 19.9769 220.694 11.3412L210.065 23.0848C220.124 32.4994 220.778 48.2015 211.596 58.4152L222.773 68.4985C232.316 58.5122 248.15 58.005 258.314 67.4167L258.586 67.4068Z" fill="#0000FF" stroke="white" stroke-width="4" stroke-miterlimit="10"/>
<path d="M254 63.4947L264.252 52.1672L264.241 51.8857C254.462 42.6202 253.703 27.3707 262.367 17.1901L250.411 6.4043C241.014 15.5952 226.068 16.0648 216.108 7.4291L205.479 19.1727C215.539 28.5873 216.192 44.2894 207.01 54.5031L218.187 64.5864C227.73 54.6001 243.564 54.0928 253.728 63.5046L254 63.4947Z" fill="#0000FF" stroke="white" stroke-width="4" stroke-miterlimit="10"/>
<path d="M249.413 59.5826L259.665 48.2551L259.654 47.9736C249.875 38.7081 249.116 23.4586 257.78 13.278L245.824 2.49219C236.427 11.6831 221.481 12.1527 211.521 3.51699L200.893 15.2606C210.952 24.6752 211.605 40.3773 202.423 50.591L213.6 60.6743C223.143 50.688 238.977 50.1807 249.141 59.5925L249.413 59.5826Z" fill="#0000FF" stroke="white" stroke-width="4" stroke-miterlimit="10"/>
<path d="M242.961 61.7877L253.213 50.4602L253.202 50.1786C243.423 40.9132 242.664 25.6637 251.328 15.4831L239.372 4.69727C229.975 13.8881 215.029 14.3578 205.069 5.72207L194.44 17.4657C204.499 26.8803 205.153 42.5823 195.971 52.7961L207.148 62.8794C216.691 52.8931 232.525 52.3858 242.689 61.7976L242.961 61.7877Z" fill="#0000FF" stroke="white" stroke-width="4" stroke-miterlimit="10"/>
<path d="M236.509 63.9947L246.76 52.6672L246.75 52.3857C236.97 43.1202 236.212 27.8707 244.875 17.6901L232.92 6.9043C223.523 16.0952 208.577 16.5648 198.616 7.9291L187.988 19.6727C198.047 29.0873 198.701 44.7894 189.519 55.0031L200.696 65.0864C210.239 55.1001 226.073 54.5928 236.237 64.0046L236.509 63.9947Z" fill="#0000FF" stroke="white" stroke-width="4" stroke-miterlimit="10"/>
<path d="M230.056 66.1998L240.307 54.8723L240.297 54.5908C230.517 45.3253 229.759 30.0758 238.422 19.8952L226.467 9.10938C217.07 18.3002 202.123 18.7699 192.163 10.1342L181.535 21.8778C191.594 31.2924 192.248 46.9944 183.066 57.2082L194.243 67.2915C203.786 57.3052 219.62 56.7979 229.784 66.2097L230.056 66.1998Z" fill="#0000FF" stroke="white" stroke-width="4" stroke-miterlimit="10"/>
<path d="M223.603 68.4068L233.855 57.0793L233.845 56.7978C224.065 47.5323 223.307 32.2828 231.97 22.1022L220.015 11.3164C210.618 20.5073 195.671 20.9769 185.711 12.3412L175.083 24.0848C185.142 33.4994 185.796 49.2015 176.614 59.4152L187.79 69.4985C197.334 59.5122 213.168 59.005 223.332 68.4167L223.603 68.4068Z" fill="#0000FF" stroke="white" stroke-width="4" stroke-miterlimit="10"/>
<path d="M217.151 70.6119L227.403 59.2844L227.393 59.0029C217.613 49.7374 216.854 34.4879 225.518 24.3073L213.562 13.5215C204.165 22.7124 189.219 23.182 179.259 14.5463L168.631 26.2899C178.69 35.7045 179.343 51.4066 170.161 61.6203L181.338 71.7036C190.882 61.7173 206.716 61.21 216.88 70.6218L217.151 70.6119Z" fill="#0000FF" stroke="white" stroke-width="4" stroke-miterlimit="10"/>
<path d="M210.699 72.817L220.951 61.4895L220.941 61.2079C211.161 51.9425 210.402 36.693 219.066 26.5124L207.11 15.7266C197.713 24.9174 182.767 25.3871 172.807 16.7514L162.179 28.495C172.238 37.9096 172.891 53.6116 163.709 63.8254L174.886 73.9087C184.429 63.9224 200.263 63.4151 210.427 72.8269L210.699 72.817Z" fill="#0000FF" stroke="white" stroke-width="4" stroke-miterlimit="10"/>
<path d="M204.247 75.024L214.499 63.6965L214.488 63.415C204.709 54.1495 203.95 38.9 212.614 28.7194L200.658 17.9336C191.261 27.1245 176.315 27.5941 166.355 18.9584L155.727 30.702C165.786 40.1166 166.439 55.8187 157.257 66.0324L168.434 76.1157C177.977 66.1294 193.811 65.6222 203.975 75.0339L204.247 75.024Z" fill="#0000FF" stroke="white" stroke-width="4" stroke-miterlimit="10"/>
<path d="M197.795 77.2291L208.047 65.9016L208.036 65.62C198.257 56.3546 197.498 41.1051 206.162 30.9245L194.206 20.1387C184.809 29.3295 169.863 29.7992 159.903 21.1635L149.274 32.9071C159.333 42.3217 159.987 58.0237 150.805 68.2375L161.982 78.3208C171.525 68.3345 187.359 67.8272 197.523 77.239L197.795 77.2291Z" fill="#0000FF" stroke="white" stroke-width="4" stroke-miterlimit="10"/>
<path d="M191.343 79.4361L201.594 68.1086L201.584 67.8271C191.804 58.5616 191.046 43.3121 199.709 33.1315L187.754 22.3457C178.357 31.5366 163.41 32.0062 153.45 23.3705L142.822 35.1141C152.881 44.5287 153.535 60.2308 144.353 70.4445L155.53 80.5278C165.073 70.5415 180.907 70.0343 191.071 79.446L191.343 79.4361Z" fill="#0000FF" stroke="white" stroke-width="4" stroke-miterlimit="10"/>
<path d="M184.891 81.6412L195.142 70.3137L195.132 70.0322C185.352 60.7667 184.594 45.5172 193.257 35.3366L181.302 24.5508C171.905 33.7416 156.958 34.2113 146.998 25.5756L136.37 37.3192C146.429 46.7338 147.083 62.4359 137.901 72.6496L149.078 82.7329C158.621 72.7466 174.455 72.2393 184.619 81.6511L184.891 81.6412Z" fill="#0000FF" stroke="white" stroke-width="4" stroke-miterlimit="10"/>
<path d="M178.437 83.8463L188.689 72.5188L188.679 72.2372C178.899 62.9718 178.141 47.7223 186.804 37.5417L174.849 26.7559C165.452 35.9467 150.505 36.4164 140.545 27.7807L129.917 39.5243C139.976 48.9389 140.63 64.6409 131.448 74.8547L142.624 84.938C152.168 74.9517 168.002 74.4444 178.166 83.8562L178.437 83.8463Z" fill="#0000FF" stroke="white" stroke-width="4" stroke-miterlimit="10"/>
<path d="M171.985 86.0533L182.237 74.7258L182.227 74.4443C172.447 65.1788 171.688 49.9293 180.352 39.7487L168.396 28.9629C158.999 38.1538 144.053 38.6234 134.093 29.9877L123.465 41.7313C133.524 51.1459 134.177 66.848 124.995 77.0617L136.172 87.145C145.715 77.1587 161.55 76.6514 171.714 86.0632L171.985 86.0533Z" fill="#0000FF" stroke="white" stroke-width="4" stroke-miterlimit="10"/>
<path d="M165.533 88.2584L175.785 76.9309L175.775 76.6494C165.995 67.3839 165.236 52.1344 173.9 41.9538L161.944 31.168C152.547 40.3588 137.601 40.8285 127.641 32.1928L117.013 43.9364C127.072 53.351 127.725 69.0531 118.543 79.2668L129.72 89.3501C139.263 79.3638 155.097 78.8565 165.261 88.2683L165.533 88.2584Z" fill="#0000FF" stroke="white" stroke-width="4" stroke-miterlimit="10"/>
<path d="M159.081 90.4654L169.333 79.1379L169.322 78.8564C159.543 69.5909 158.784 54.3414 167.448 44.1608L155.492 33.375C146.095 42.5659 131.149 43.0355 121.189 34.3998L110.561 46.1434C120.62 55.558 121.273 71.2601 112.091 81.4738L123.268 91.5571C132.811 81.5708 148.645 81.0636 158.809 90.4753L159.081 90.4654Z" fill="#0000FF" stroke="white" stroke-width="4" stroke-miterlimit="10"/>
<path d="M152.629 92.6705L162.881 81.343L162.87 81.0615C153.091 71.796 152.332 56.5465 160.996 46.3659L149.04 35.5801C139.643 44.7709 124.697 45.2406 114.737 36.6049L104.108 48.3485C114.167 57.7631 114.821 73.4652 105.639 83.6789L116.816 93.7622C126.359 83.7759 142.193 83.2686 152.357 92.6804L152.629 92.6705Z" fill="#0000FF" stroke="white" stroke-width="4" stroke-miterlimit="10"/>
<path d="M146.177 94.8775L156.428 83.55L156.418 83.2685C146.638 74.003 145.88 58.7535 154.543 48.5729L142.588 37.7871C133.191 46.978 118.244 47.4476 108.284 38.8119L97.6562 50.5555C107.715 59.9701 108.369 75.6722 99.1868 85.8859L110.364 95.9692C119.907 85.9829 135.741 85.4757 145.905 94.8874L146.177 94.8775Z" fill="#0000FF" stroke="white" stroke-width="4" stroke-miterlimit="10"/>
<path d="M139.725 97.0826L149.976 85.7551L149.966 85.4736C140.186 76.2081 139.428 60.9586 148.091 50.778L136.136 39.9922C126.739 49.1831 111.792 49.6527 101.832 41.017L91.2041 52.7606C101.263 62.1752 101.917 77.8773 92.7347 88.091L103.912 98.1743C113.455 88.188 129.289 87.6807 139.453 97.0925L139.725 97.0826Z" fill="#0000FF" stroke="white" stroke-width="4" stroke-miterlimit="10"/>
<path d="M133.272 99.2896L143.524 87.9621L143.514 87.6806C133.734 78.4151 132.975 63.1656 141.639 52.985L129.683 42.1992C120.286 51.3901 105.34 51.8597 95.3802 43.224L84.752 54.9676C94.811 64.3822 95.4645 80.0843 86.2825 90.298L97.4594 100.381C107.003 90.395 122.837 89.8878 133.001 99.2995L133.272 99.2896Z" fill="#0000FF" stroke="white" stroke-width="4" stroke-miterlimit="10"/>
<path d="M126.819 101.495L137.071 90.1672L137.061 89.8857C127.281 80.6202 126.522 65.3707 135.186 55.1901L123.23 44.4043C113.833 53.5952 98.8871 54.0648 88.927 45.4291L78.2988 57.1727C88.3579 66.5873 89.0114 82.2894 79.8294 92.5031L91.0062 102.586C100.549 92.6001 116.384 92.0928 126.548 101.505L126.819 101.495Z" fill="#0000FF" stroke="white" stroke-width="4" stroke-miterlimit="10"/>
<path d="M120.367 103.7L130.619 92.3723L130.608 92.0908C120.829 82.8253 120.07 67.5758 128.734 57.3952L116.778 46.6094C107.381 55.8002 92.4349 56.2699 82.4749 47.6342L71.8467 59.3778C81.9057 68.7924 82.5593 84.4944 73.3773 94.7082L84.5541 104.791C94.0973 94.8052 109.931 94.2979 120.095 103.71L120.367 103.7Z" fill="#0000FF" stroke="white" stroke-width="4" stroke-miterlimit="10"/>
<path d="M113.915 105.907L124.167 94.5793L124.156 94.2978C114.377 85.0323 113.618 69.7828 122.282 59.6022L110.326 48.8164C100.929 58.0073 85.9828 58.4769 76.0227 49.8412L65.3945 61.5848C75.4536 70.9994 76.1071 86.7015 66.9251 96.9152L78.1019 106.999C87.6452 97.0122 103.479 96.505 113.643 105.917L113.915 105.907Z" fill="#0000FF" stroke="white" stroke-width="4" stroke-miterlimit="10"/>
<path d="M107.463 108.112L117.714 96.7844L117.704 96.5029C107.925 87.2374 107.166 71.9879 115.83 61.8073L103.874 51.0215C94.4769 60.2124 79.5306 60.682 69.5706 52.0463L58.9424 63.7899C69.0014 73.2045 69.655 88.9066 60.473 99.1203L71.6498 109.204C81.193 99.2173 97.0271 98.71 107.191 108.122L107.463 108.112Z" fill="#0000FF" stroke="white" stroke-width="4" stroke-miterlimit="10"/>
<path d="M101.011 110.319L111.262 98.9914L111.252 98.7099C101.472 89.4444 100.714 74.1949 109.377 64.0143L97.4218 53.2285C88.0248 62.4194 73.0785 62.889 63.1184 54.2533L52.4902 65.9969C62.5493 75.4115 63.2028 91.1136 54.0208 101.327L65.1976 111.411C74.7409 101.424 90.575 100.917 100.739 110.329L101.011 110.319Z" fill="#0000FF" stroke="white" stroke-width="4" stroke-miterlimit="10"/>
<path d="M98.9736 112.938L109.225 101.611L109.215 101.329C99.4353 92.0636 98.6766 76.8141 107.34 66.6335L95.3847 55.8477C85.9877 65.0385 71.0414 65.5081 61.0813 56.8725L50.4531 68.6161C60.5122 78.0307 61.1657 93.7327 51.9837 103.946L63.1605 114.03C72.7038 104.043 88.5379 103.536 98.7019 112.948L98.9736 112.938Z" fill="#0000FF" stroke="white" stroke-width="4" stroke-miterlimit="10"/>
<path d="M96.9375 115.559L107.189 104.232L107.179 103.95C97.3992 94.6847 96.6405 79.4352 105.304 69.2546L93.3485 58.4688C83.9515 67.6596 69.0052 68.1292 59.0452 59.4936L48.417 71.2372C58.476 80.6518 59.1296 96.3538 49.9476 106.568L61.1244 116.651C70.6676 106.665 86.5017 106.157 96.6657 115.569L96.9375 115.559Z" fill="#0000FF" stroke="white" stroke-width="4" stroke-miterlimit="10"/>
<path d="M94.9014 118.178L105.153 106.851L105.143 106.569C95.363 97.3038 94.6044 82.0543 103.268 71.8737L91.3124 61.0879C81.9154 70.2788 66.9691 70.7484 57.0091 62.1127L46.3809 73.8563C56.4399 83.2709 57.0934 98.973 47.9114 109.187L59.0883 119.27C68.6315 109.284 84.4656 108.776 94.6296 118.188L94.9014 118.178Z" fill="#0000FF" stroke="white" stroke-width="4" stroke-miterlimit="10"/>
<path d="M92.8642 120.797L103.116 109.47L103.106 109.188C93.3259 99.9229 92.5673 84.6734 101.231 74.4929L89.2753 63.707C79.8783 72.8979 64.932 73.3675 54.972 64.7318L44.3438 76.4754C54.4028 85.8901 55.0563 101.592 45.8743 111.806L57.0512 121.889C66.5944 111.903 82.4285 111.396 92.5925 120.807L92.8642 120.797Z" fill="#0000FF" stroke="white" stroke-width="4" stroke-miterlimit="10"/>
<path d="M90.8281 123.419L101.08 112.091L101.069 111.81C91.2898 102.544 90.5311 87.2945 99.1947 77.114L87.2391 66.3281C77.8421 75.519 62.8958 75.9886 52.9358 67.3529L42.3076 79.0965C52.3666 88.5111 53.0202 104.213 43.8382 114.427L55.015 124.51C64.5583 114.524 80.3924 114.017 90.5564 123.428L90.8281 123.419Z" fill="#0000FF" stroke="white" stroke-width="4" stroke-miterlimit="10"/>
<path d="M88.791 126.038L99.0426 114.71L99.0323 114.429C89.2527 105.163 88.494 89.9137 97.1576 79.7331L85.202 68.9473C75.805 78.1381 60.8587 78.6078 50.8987 69.9721L40.2705 81.7157C50.3295 91.1303 50.9831 106.832 41.8011 117.046L52.9779 127.129C62.5212 117.143 78.3553 116.636 88.5192 126.048L88.791 126.038Z" fill="#0000FF" stroke="white" stroke-width="4" stroke-miterlimit="10"/>
<path d="M86.7549 128.657L97.0065 117.329L96.9962 117.048C87.2166 107.782 86.4579 92.5328 95.1215 82.3522L83.1659 71.5664C73.7689 80.7573 58.8226 81.2269 48.8626 72.5912L38.2344 84.3348C48.2934 93.7494 48.9469 109.451 39.765 119.665L50.9418 129.749C60.485 119.762 76.3191 119.255 86.4831 128.667L86.7549 128.657Z" fill="#0000FF" stroke="white" stroke-width="4" stroke-miterlimit="10"/>
<path d="M84.7178 131.278L94.9694 119.95L94.9591 119.669C85.1794 110.403 84.4208 95.1539 93.0844 84.9733L81.1288 74.1875C71.7318 83.3784 56.7855 83.848 46.8255 75.2123L36.1973 86.9559C46.2563 96.3705 46.9098 112.073 37.7278 122.286L48.9047 132.37C58.4479 122.383 74.282 121.876 84.446 131.288L84.7178 131.278Z" fill="#0000FF" stroke="white" stroke-width="4" stroke-miterlimit="10"/>
<path d="M82.6816 133.897L92.9332 122.57L92.9229 122.288C83.1433 113.023 82.3846 97.7731 91.0483 87.5925L79.0927 76.8066C69.6957 85.9975 54.7494 86.4671 44.7893 77.8314L34.1611 89.575C44.2202 98.9897 44.8737 114.692 35.6917 124.905L46.8685 134.989C56.4118 125.002 72.2459 124.495 82.4099 133.907L82.6816 133.897Z" fill="#0000FF" stroke="white" stroke-width="4" stroke-miterlimit="10"/>
<path d="M80.6445 136.518L90.8961 125.191L90.8858 124.909C81.1062 115.644 80.3475 100.394 89.0112 90.2136L77.0556 79.4277C67.6586 88.6186 52.7122 89.0882 42.7522 80.4525L32.124 92.1961C42.1831 101.611 42.8366 117.313 33.6546 127.527L44.8314 137.61C54.3747 127.624 70.2088 127.116 80.3728 136.528L80.6445 136.518Z" fill="#0000FF" stroke="white" stroke-width="4" stroke-miterlimit="10"/>
<path d="M78.6084 139.137L88.86 127.81L88.8497 127.528C79.0701 118.263 78.3114 103.013 86.975 92.8327L75.0194 82.0469C65.6224 91.2377 50.6761 91.7074 40.7161 83.0717L30.0879 94.8153C40.1469 104.23 40.8005 119.932 31.6185 130.146L42.7953 140.229C52.3385 130.243 68.1726 129.735 78.3366 139.147L78.6084 139.137Z" fill="#0000FF" stroke="white" stroke-width="4" stroke-miterlimit="10"/>
<path d="M76.5713 141.756L86.8229 130.429L86.8126 130.147C77.033 120.882 76.2743 105.632 84.9379 95.4518L72.9823 84.666C63.5853 93.8569 48.639 94.3265 38.679 85.6908L28.0508 97.4344C38.1098 106.849 38.7634 122.551 29.5814 132.765L40.7582 142.848C50.3014 132.862 66.1355 132.355 76.2995 141.766L76.5713 141.756Z" fill="#0000FF" stroke="white" stroke-width="4" stroke-miterlimit="10"/>
<path d="M74.5351 144.378L84.7868 133.05L84.7765 132.768C74.9968 123.503 74.2382 108.254 82.9018 98.0729L70.9462 87.2871C61.5492 96.478 46.6029 96.9476 36.6429 88.3119L26.0146 100.056C36.0737 109.47 36.7272 125.172 27.5452 135.386L38.7221 145.469C48.2653 135.483 64.0994 134.976 74.2634 144.387L74.5351 144.378Z" fill="#0000FF" stroke="white" stroke-width="4" stroke-miterlimit="10"/>
<path d="M72.498 146.997L82.7496 135.669L82.7393 135.388C72.9597 126.122 72.201 110.873 80.8647 100.692L68.9091 89.9062C59.5121 99.0971 44.5658 99.5667 34.6057 90.9311L23.9775 102.675C34.0366 112.089 34.6901 127.791 25.5081 138.005L36.685 148.088C46.2282 138.102 62.0623 137.595 72.2263 147.007L72.498 146.997Z" fill="#0000FF" stroke="white" stroke-width="4" stroke-miterlimit="10"/>
<path d="M70.4619 149.618L80.7135 138.29L80.7032 138.009C70.9236 128.743 70.1649 113.494 78.8285 103.313L66.8729 92.5273C57.4759 101.718 42.5296 102.188 32.5696 93.5521L21.9414 105.296C32.0004 114.71 32.654 130.412 23.472 140.626L34.6488 150.709C44.192 140.723 60.0262 140.216 70.1901 149.628L70.4619 149.618Z" fill="#0000FF" stroke="white" stroke-width="4" stroke-miterlimit="10"/>
<path d="M68.4258 152.237L78.6774 140.909L78.6671 140.628C68.8875 131.362 68.1288 116.113 76.7924 105.932L64.8368 95.1465C55.4398 104.337 40.4935 104.807 30.5335 96.1713L19.9053 107.915C29.9643 117.33 30.6178 133.032 21.4359 143.245L32.6127 153.329C42.1559 143.342 57.99 142.835 68.154 152.247L68.4258 152.237Z" fill="#0000FF" stroke="white" stroke-width="4" stroke-miterlimit="10"/>
<path d="M66.3886 154.856L76.6403 143.529L76.63 143.247C66.8503 133.982 66.0917 118.732 74.7553 108.551L62.7997 97.7656C53.4027 106.956 38.4564 107.426 28.4964 98.7904L17.8682 110.534C27.9272 119.949 28.5807 135.651 19.3987 145.864L30.5756 155.948C40.1188 145.961 55.9529 145.454 66.1169 154.866L66.3886 154.856Z" fill="#0000FF" stroke="white" stroke-width="4" stroke-miterlimit="10"/>
<path d="M64.3525 157.477L74.6041 146.15L74.5938 145.868C64.8142 136.603 64.0555 121.353 72.7192 111.173L60.7636 100.387C51.3666 109.578 36.4203 110.047 26.4602 101.412L15.832 113.155C25.8911 122.57 26.5446 138.272 17.3626 148.486L28.5394 158.569C38.0827 148.583 53.9168 148.075 64.0808 157.487L64.3525 157.477Z" fill="#0000FF" stroke="white" stroke-width="4" stroke-miterlimit="10"/>
<path d="M62.3154 160.096L72.567 148.769L72.5567 148.487C62.7771 139.222 62.0184 123.972 70.682 113.792L58.7265 103.006C49.3295 112.197 34.3831 112.666 24.4231 104.031L13.7949 115.774C23.854 125.189 24.5075 140.891 15.3255 151.105L26.5023 161.188C36.0456 151.202 51.8797 150.694 62.0437 160.106L62.3154 160.096Z" fill="#0000FF" stroke="white" stroke-width="4" stroke-miterlimit="10"/>
<path d="M60.2793 162.715L70.5309 151.388L70.5206 151.106C60.741 141.841 59.9823 126.591 68.6459 116.411L56.6903 105.625C47.2933 114.816 32.347 115.285 22.387 106.65L11.7588 118.393C21.8178 127.808 22.4714 143.51 13.2894 153.724L24.4662 163.807C34.0094 153.821 49.8435 153.314 60.0075 162.725L60.2793 162.715Z" fill="#0000FF" stroke="white" stroke-width="4" stroke-miterlimit="10"/>
<path d="M58.2422 165.336L68.4938 154.009L68.4835 153.727C58.7039 144.462 57.9452 129.212 66.6088 119.032L54.6532 108.246C45.2562 117.437 30.3099 117.907 20.3499 109.271L9.72168 121.014C19.7807 130.429 20.4343 146.131 11.2523 156.345L22.4291 166.428C31.9723 156.442 47.8064 155.935 57.9704 165.346L58.2422 165.336Z" fill="#0000FF" stroke="white" stroke-width="4" stroke-miterlimit="10"/>
<path d="M56.206 167.956L66.4577 156.628L66.4474 156.347C56.6677 147.081 55.9091 131.832 64.5727 121.651L52.6171 110.865C43.2201 120.056 28.2738 120.526 18.3138 111.89L7.68555 123.634C17.7446 133.048 18.3981 148.75 9.21613 158.964L20.393 169.047C29.9362 159.061 45.7703 158.554 55.9343 167.966L56.206 167.956Z" fill="#0000FF" stroke="white" stroke-width="4" stroke-miterlimit="10"/>
<path d="M54.1689 170.577L64.4205 159.249L64.4103 158.968C54.6306 149.702 53.872 134.453 62.5356 124.272L50.58 113.486C41.183 122.677 26.2367 123.147 16.2766 114.511L5.64844 126.255C15.7075 135.669 16.361 151.371 7.17902 161.585L18.3559 171.668C27.8991 161.682 43.7332 161.175 53.8972 170.587L54.1689 170.577Z" fill="#0000FF" stroke="white" stroke-width="4" stroke-miterlimit="10"/>
<path d="M52.1328 173.196L62.3844 161.868L62.3741 161.587C52.5945 152.321 51.8358 137.072 60.4994 126.891L48.5438 116.105C39.1468 125.296 24.2005 125.766 14.2405 117.13L3.6123 128.874C13.6713 138.288 14.3249 153.991 5.14289 164.204L16.3197 174.288C25.8629 164.301 41.6971 163.794 51.861 173.206L52.1328 173.196Z" fill="#0000FF" stroke="white" stroke-width="4" stroke-miterlimit="10"/>
<path d="M50.0957 175.815L60.3473 164.488L60.337 164.206C50.5574 154.941 49.7987 139.691 58.4623 129.51L46.5067 118.725C37.1097 127.915 22.1634 128.385 12.2034 119.749L1.5752 131.493C11.6342 140.908 12.2878 156.61 3.10578 166.823L14.2826 176.907C23.8258 166.92 39.66 166.413 49.8239 175.825L50.0957 175.815Z" fill="#0000FF" stroke="white" stroke-width="4" stroke-miterlimit="10"/>
<path d="M50.0957 181.329L60.3473 170.001L60.337 169.72C50.5574 160.454 49.7987 145.205 58.4623 135.024L46.5067 124.238C37.1097 133.429 22.1634 133.899 12.2034 125.263L1.5752 137.007C11.6342 146.421 12.2878 162.123 3.10578 172.337L14.2826 182.42C23.8258 172.434 39.66 171.927 49.8239 181.339L50.0957 181.329Z" fill="#0000FF" stroke="white" stroke-width="4" stroke-miterlimit="10"/>
<path d="M50.0957 186.84L60.3473 175.513L60.337 175.231C50.5574 165.966 49.7987 150.716 58.4623 140.536L46.5067 129.75C37.1097 138.941 22.1634 139.41 12.2034 130.775L1.5752 142.518C11.6342 151.933 12.2878 167.635 3.10578 177.849L14.2826 187.932C23.8258 177.946 39.66 177.439 49.8239 186.85L50.0957 186.84Z" fill="#0000FF" stroke="white" stroke-width="4" stroke-miterlimit="10"/>
<path d="M50.0957 192.352L60.3473 181.025L60.337 180.743C50.5574 171.478 49.7987 156.228 58.4623 146.048L46.5067 135.262C37.1097 144.453 22.1634 144.922 12.2034 136.287L1.5752 148.03C11.6342 157.445 12.2878 173.147 3.10578 183.361L14.2826 193.444C23.8258 183.458 39.66 182.95 49.8239 192.362L50.0957 192.352Z" fill="#0000FF" stroke="white" stroke-width="4" stroke-miterlimit="10"/>
<path d="M50.0957 197.864L60.3473 186.536L60.337 186.255C50.5574 176.989 49.7987 161.74 58.4623 151.559L46.5067 140.773C37.1097 149.964 22.1634 150.434 12.2034 141.798L1.5752 153.542C11.6342 162.956 12.2878 178.659 3.10578 188.872L14.2826 198.956C23.8258 188.969 39.66 188.462 49.8239 197.874L50.0957 197.864Z" fill="#0000FF" stroke="white" stroke-width="4" stroke-miterlimit="10"/>
<path d="M50.0957 203.376L60.3473 192.048L60.337 191.767C50.5574 182.501 49.7987 167.252 58.4623 157.071L46.5067 146.285C37.1097 155.476 22.1634 155.946 12.2034 147.31L1.5752 159.054C11.6342 168.468 12.2878 184.17 3.10578 194.384L14.2826 204.467C23.8258 194.481 39.66 193.974 49.8239 203.385L50.0957 203.376Z" fill="#0000FF" stroke="white" stroke-width="4" stroke-miterlimit="10"/>
<path d="M50.0957 208.887L60.3473 197.56L60.337 197.278C50.5574 188.013 49.7987 172.763 58.4623 162.583L46.5067 151.797C37.1097 160.988 22.1634 161.457 12.2034 152.822L1.5752 164.565C11.6342 173.98 12.2878 189.682 3.10578 199.896L14.2826 209.979C23.8258 199.993 39.66 199.485 49.8239 208.897L50.0957 208.887Z" fill="#0000FF" stroke="white" stroke-width="4" stroke-miterlimit="10"/>
<path d="M50.0957 214.401L60.3473 203.073L60.337 202.792C50.5574 193.526 49.7987 178.277 58.4623 168.096L46.5067 157.311C37.1097 166.501 22.1634 166.971 12.2034 158.335L1.5752 170.079C11.6342 179.494 12.2878 195.196 3.10578 205.409L14.2826 215.493C23.8258 205.506 39.66 204.999 49.8239 214.411L50.0957 214.401Z" fill="#0000FF" stroke="white" stroke-width="4" stroke-miterlimit="10"/>
<path d="M50.0957 219.913L60.3473 208.585L60.337 208.304C50.5574 199.038 49.7987 183.789 58.4623 173.608L46.5067 162.822C37.1097 172.013 22.1634 172.483 12.2034 163.847L1.5752 175.591C11.6342 185.005 12.2878 200.707 3.10578 210.921L14.2826 221.004C23.8258 211.018 39.66 210.511 49.8239 219.923L50.0957 219.913Z" fill="#0000FF" stroke="white" stroke-width="4" stroke-miterlimit="10"/>
<path d="M50.0957 225.424L60.3473 214.097L60.337 213.815C50.5574 204.55 49.7987 189.3 58.4623 179.12L46.5067 168.334C37.1097 177.525 22.1634 177.994 12.2034 169.359L1.5752 181.102C11.6342 190.517 12.2878 206.219 3.10578 216.433L14.2826 226.516C23.8258 216.53 39.66 216.023 49.8239 225.434L50.0957 225.424Z" fill="#0000FF" stroke="white" stroke-width="4" stroke-miterlimit="10"/>
<path d="M50.0957 230.936L60.3473 219.609L60.337 219.327C50.5574 210.062 49.7987 194.812 58.4623 184.632L46.5067 173.846C37.1097 183.037 22.1634 183.506 12.2034 174.87L1.5752 186.614C11.6342 196.029 12.2878 211.731 3.10578 221.945L14.2826 232.028C23.8258 222.042 39.66 221.534 49.8239 230.946L50.0957 230.936Z" fill="#0000FF" stroke="white" stroke-width="4" stroke-miterlimit="10"/>
<path d="M50.0957 236.448L60.3473 225.12L60.337 224.839C50.5574 215.573 49.7987 200.324 58.4623 190.143L46.5067 179.357C37.1097 188.548 22.1634 189.018 12.2034 180.382L1.5752 192.126C11.6342 201.54 12.2878 217.243 3.10578 227.456L14.2826 237.54C23.8258 227.553 39.66 227.046 49.8239 236.458L50.0957 236.448Z" fill="#0000FF" stroke="white" stroke-width="4" stroke-miterlimit="10"/>
<path d="M50.0957 241.96L60.3473 230.632L60.337 230.351C50.5574 221.085 49.7987 205.836 58.4623 195.655L46.5067 184.869C37.1097 194.06 22.1634 194.53 12.2034 185.894L1.5752 197.638C11.6342 207.052 12.2878 222.754 3.10578 232.968L14.2826 243.051C23.8258 233.065 39.66 232.558 49.8239 241.969L50.0957 241.96Z" fill="#0000FF" stroke="white" stroke-width="4" stroke-miterlimit="10"/>
<path d="M50.0957 247.473L60.3473 236.146L60.337 235.864C50.5574 226.599 49.7987 211.349 58.4623 201.169L46.5067 190.383C37.1097 199.574 22.1634 200.043 12.2034 191.408L1.5752 203.151C11.6342 212.566 12.2878 228.268 3.10578 238.482L14.2826 248.565C23.8258 238.579 39.66 238.071 49.8239 247.483L50.0957 247.473Z" fill="#0000FF" stroke="white" stroke-width="4" stroke-miterlimit="10"/>
<path d="M50.0957 252.985L60.3473 241.657L60.337 241.376C50.5574 232.11 49.7987 216.861 58.4623 206.68L46.5067 195.895C37.1097 205.085 22.1634 205.555 12.2034 196.919L1.5752 208.663C11.6342 218.078 12.2878 233.78 3.10578 243.993L14.2826 254.077C23.8258 244.09 39.66 243.583 49.8239 252.995L50.0957 252.985Z" fill="#0000FF" stroke="white" stroke-width="4" stroke-miterlimit="10"/>
<path d="M50.0957 258.497L60.3473 247.169L60.337 246.888C50.5574 237.622 49.7987 222.373 58.4623 212.192L46.5067 201.406C37.1097 210.597 22.1634 211.067 12.2034 202.431L1.5752 214.175C11.6342 223.589 12.2878 239.291 3.10578 249.505L14.2826 259.588C23.8258 249.602 39.66 249.095 49.8239 258.507L50.0957 258.497Z" fill="#0000FF" stroke="white" stroke-width="4" stroke-miterlimit="10"/>
<path d="M50.0957 264.008L60.3473 252.681L60.337 252.399C50.5574 243.134 49.7987 227.884 58.4623 217.704L46.5067 206.918C37.1097 216.109 22.1634 216.578 12.2034 207.943L1.5752 219.686C11.6342 229.101 12.2878 244.803 3.10578 255.017L14.2826 265.1C23.8258 255.114 39.66 254.607 49.8239 264.018L50.0957 264.008Z" fill="#0000FF" stroke="white" stroke-width="4" stroke-miterlimit="10"/>
<path d="M50.0957 269.52L60.3473 258.193L60.337 257.911C50.5574 248.646 49.7987 233.396 58.4623 223.216L46.5067 212.43C37.1097 221.621 22.1634 222.09 12.2034 213.454L1.5752 225.198C11.6342 234.613 12.2878 250.315 3.10578 260.529L14.2826 270.612C23.8258 260.626 39.66 260.118 49.8239 269.53L50.0957 269.52Z" fill="#0000FF" stroke="white" stroke-width="4" stroke-miterlimit="10"/>
<path d="M50.0957 275.034L60.3473 263.706L60.337 263.425C50.5574 254.159 49.7987 238.91 58.4623 228.729L46.5067 217.943C37.1097 227.134 22.1634 227.604 12.2034 218.968L1.5752 230.712C11.6342 240.126 12.2878 255.828 3.10578 266.042L14.2826 276.125C23.8258 266.139 39.66 265.632 49.8239 275.044L50.0957 275.034Z" fill="#0000FF" stroke="white" stroke-width="4" stroke-miterlimit="10"/>
<path d="M50.0957 280.545L60.3473 269.218L60.337 268.936C50.5574 259.671 49.7987 244.421 58.4623 234.241L46.5067 223.455C37.1097 232.646 22.1634 233.116 12.2034 224.48L1.5752 236.223C11.6342 245.638 12.2878 261.34 3.10578 271.554L14.2826 281.637C23.8258 271.651 39.66 271.144 49.8239 280.555L50.0957 280.545Z" fill="#0000FF" stroke="white" stroke-width="4" stroke-miterlimit="10"/>
<path d="M50.0957 286.057L60.3473 274.73L60.337 274.448C50.5574 265.183 49.7987 249.933 58.4623 239.753L46.5067 228.967C37.1097 238.158 22.1634 238.627 12.2034 229.992L1.5752 241.735C11.6342 251.15 12.2878 266.852 3.10578 277.066L14.2826 287.149C23.8258 277.163 39.66 276.655 49.8239 286.067L50.0957 286.057Z" fill="#0000FF" stroke="white" stroke-width="4" stroke-miterlimit="10"/>
<path d="M54.1689 288.676L64.4205 277.349L64.4103 277.067C54.6306 267.802 53.872 252.552 62.5356 242.372L50.58 231.586C41.183 240.777 26.2367 241.246 16.2766 232.611L5.64844 244.354C15.7075 253.769 16.361 269.471 7.17902 279.685L18.3559 289.768C27.8991 279.782 43.7332 279.275 53.8972 288.686L54.1689 288.676Z" fill="#0000FF" stroke="white" stroke-width="4" stroke-miterlimit="10"/>
<path d="M58.2422 291.297L68.4938 279.97L68.4835 279.688C58.7039 270.423 57.9452 255.173 66.6088 244.993L54.6532 234.207C45.2562 243.398 30.3099 243.868 20.3499 235.232L9.72168 246.975C19.7807 256.39 20.4343 272.092 11.2523 282.306L22.4291 292.389C31.9723 282.403 47.8064 281.896 57.9704 291.307L58.2422 291.297Z" fill="#0000FF" stroke="white" stroke-width="4" stroke-miterlimit="10"/>
<path d="M62.3154 293.917L72.567 282.589L72.5567 282.308C62.7771 273.042 62.0184 257.793 70.682 247.612L58.7265 236.826C49.3295 246.017 34.3831 246.487 24.4231 237.851L13.7949 249.595C23.854 259.009 24.5075 274.711 15.3255 284.925L26.5023 295.008C36.0456 285.022 51.8797 284.515 62.0437 293.927L62.3154 293.917Z" fill="#0000FF" stroke="white" stroke-width="4" stroke-miterlimit="10"/>
<path d="M66.3886 296.536L76.6403 285.208L76.63 284.927C66.8503 275.661 66.0917 260.412 74.7553 250.231L62.7997 239.445C53.4027 248.636 38.4564 249.106 28.4964 240.47L17.8682 252.214C27.9272 261.628 28.5807 277.33 19.3987 287.544L30.5756 297.627C40.1188 287.641 55.9529 287.134 66.1169 296.546L66.3886 296.536Z" fill="#0000FF" stroke="white" stroke-width="4" stroke-miterlimit="10"/>
<path d="M70.4619 299.157L80.7135 287.829L80.7032 287.548C70.9236 278.282 70.1649 263.033 78.8285 252.852L66.8729 242.066C57.4759 251.257 42.5296 251.727 32.5696 243.091L21.9414 254.835C32.0004 264.249 32.654 279.951 23.472 290.165L34.6488 300.248C44.192 290.262 60.0262 289.755 70.1901 299.167L70.4619 299.157Z" fill="#0000FF" stroke="white" stroke-width="4" stroke-miterlimit="10"/>
<path d="M74.5351 301.776L84.7868 290.448L84.7765 290.167C74.9968 280.901 74.2382 265.652 82.9018 255.471L70.9462 244.686C61.5492 253.876 46.6029 254.346 36.6429 245.71L26.0146 257.454C36.0737 266.869 36.7272 282.571 27.5452 292.784L38.7221 302.868C48.2653 292.881 64.0994 292.374 74.2634 301.786L74.5351 301.776Z" fill="#0000FF" stroke="white" stroke-width="4" stroke-miterlimit="10"/>
<path d="M78.6084 304.395L88.86 293.068L88.8497 292.786C79.0701 283.521 78.3114 268.271 86.975 258.091L75.0194 247.305C65.6224 256.496 50.6761 256.965 40.7161 248.329L30.0879 260.073C40.1469 269.488 40.8005 285.19 31.6185 295.404L42.7953 305.487C52.3385 295.5 68.1726 294.993 78.3366 304.405L78.6084 304.395Z" fill="#0000FF" stroke="white" stroke-width="4" stroke-miterlimit="10"/>
<path d="M82.6816 307.016L92.9332 295.689L92.9229 295.407C83.1433 286.142 82.3846 270.892 91.0483 260.712L79.0927 249.926C69.6957 259.117 54.7494 259.586 44.7893 250.951L34.1611 262.694C44.2202 272.109 44.8737 287.811 35.6917 298.025L46.8685 308.108C56.4118 298.122 72.2459 297.614 82.4099 307.026L82.6816 307.016Z" fill="#0000FF" stroke="white" stroke-width="4" stroke-miterlimit="10"/>
<path d="M86.7549 309.635L97.0065 298.308L96.9962 298.026C87.2166 288.761 86.4579 273.511 95.1215 263.331L83.1659 252.545C73.7689 261.736 58.8226 262.205 48.8626 253.57L38.2344 265.313C48.2934 274.728 48.9469 290.43 39.765 300.644L50.9418 310.727C60.485 300.741 76.3191 300.233 86.4831 309.645L86.7549 309.635Z" fill="#0000FF" stroke="white" stroke-width="4" stroke-miterlimit="10"/>
<path d="M90.8281 312.256L101.08 300.929L101.069 300.647C91.2898 291.382 90.5311 276.132 99.1947 265.952L87.2391 255.166C77.8421 264.357 62.8958 264.827 52.9358 256.191L42.3076 267.934C52.3666 277.349 53.0202 293.051 43.8382 303.265L55.015 313.348C64.5583 303.362 80.3924 302.855 90.5564 312.266L90.8281 312.256Z" fill="#0000FF" stroke="white" stroke-width="4" stroke-miterlimit="10"/>
<path d="M94.9014 314.876L105.153 303.548L105.143 303.267C95.363 294.001 94.6044 278.752 103.268 268.571L91.3124 257.785C81.9154 266.976 66.9691 267.446 57.0091 258.81L46.3809 270.554C56.4399 279.968 57.0934 295.67 47.9114 305.884L59.0883 315.967C68.6315 305.981 84.4656 305.474 94.6296 314.885L94.9014 314.876Z" fill="#0000FF" stroke="white" stroke-width="4" stroke-miterlimit="10"/>
<path d="M98.9736 317.495L109.225 306.167L109.215 305.886C99.4353 296.62 98.6766 281.371 107.34 271.19L95.3847 260.404C85.9877 269.595 71.0414 270.065 61.0813 261.429L50.4531 273.173C60.5122 282.587 61.1657 298.289 51.9837 308.503L63.1605 318.586C72.7038 308.6 88.5379 308.093 98.7019 317.505L98.9736 317.495Z" fill="#0000FF" stroke="white" stroke-width="4" stroke-miterlimit="10"/>
<path d="M103.047 320.116L113.298 308.788L113.288 308.507C103.509 299.241 102.75 283.992 111.414 273.811L99.4579 263.025C90.0609 272.216 75.1146 272.686 65.1546 264.05L54.5264 275.794C64.5854 285.208 65.2389 300.91 56.057 311.124L67.2338 321.208C76.777 311.221 92.6111 310.714 102.775 320.126L103.047 320.116Z" fill="#0000FF" stroke="white" stroke-width="4" stroke-miterlimit="10"/>
<path d="M107.12 322.735L117.372 311.407L117.361 311.126C107.582 301.86 106.823 286.611 115.487 276.43L103.531 265.645C94.1341 274.835 79.1878 275.305 69.2278 266.669L58.5996 278.413C68.6586 287.828 69.3122 303.53 60.1302 313.743L71.307 323.827C80.8503 313.84 96.6844 313.333 106.848 322.745L107.12 322.735Z" fill="#0000FF" stroke="white" stroke-width="4" stroke-miterlimit="10"/>
<path d="M111.193 325.356L121.445 314.029L121.435 313.747C111.655 304.482 110.896 289.232 119.56 279.051L107.604 268.266C98.2074 277.456 83.2611 277.926 73.3011 269.29L62.6729 281.034C72.7319 290.449 73.3854 306.151 64.2034 316.364L75.3803 326.448C84.9235 316.461 100.758 315.954 110.922 325.366L111.193 325.356Z" fill="#0000FF" stroke="white" stroke-width="4" stroke-miterlimit="10"/>
<path d="M115.267 327.975L125.518 316.648L125.508 316.366C115.728 307.101 114.97 291.851 123.633 281.671L111.678 270.885C102.281 280.076 87.3343 280.545 77.3743 271.91L66.7461 283.653C76.8051 293.068 77.4587 308.77 68.2767 318.984L79.4535 329.067C88.9967 319.081 104.831 318.573 114.995 327.985L115.267 327.975Z" fill="#0000FF" stroke="white" stroke-width="4" stroke-miterlimit="10"/>
<path d="M119.34 330.594L129.591 319.267L129.581 318.985C119.801 309.72 119.043 294.47 127.706 284.29L115.751 273.504C106.354 282.695 91.4076 283.164 81.4475 274.529L70.8193 286.272C80.8784 295.687 81.5319 311.389 72.3499 321.603L83.5267 331.686C93.07 321.7 108.904 321.192 119.068 330.604L119.34 330.594Z" fill="#0000FF" stroke="white" stroke-width="4" stroke-miterlimit="10"/>
<path d="M123.413 333.215L133.665 321.888L133.654 321.606C123.875 312.341 123.116 297.091 131.78 286.911L119.824 276.125C110.427 285.316 95.4808 285.785 85.5208 277.15L74.8926 288.893C84.9516 298.308 85.6051 314.01 76.4232 324.224L87.6 334.307C97.1432 324.321 112.977 323.814 123.141 333.225L123.413 333.215Z" fill="#0000FF" stroke="white" stroke-width="4" stroke-miterlimit="10"/>
<path d="M127.486 335.835L137.738 324.507L137.728 324.226C127.948 314.96 127.189 299.711 135.853 289.53L123.897 278.744C114.5 287.935 99.554 288.405 89.594 279.769L78.9658 291.513C89.0248 300.927 89.6784 316.629 80.4964 326.843L91.6732 336.926C101.216 326.94 117.051 326.433 127.215 335.844L127.486 335.835Z" fill="#0000FF" stroke="white" stroke-width="4" stroke-miterlimit="10"/>
<path d="M131.56 338.454L141.811 327.126L141.801 326.845C132.021 317.579 131.263 302.33 139.926 292.149L127.971 281.363C118.574 290.554 103.627 291.024 93.6673 282.388L83.0391 294.132C93.0981 303.546 93.7516 319.248 84.5696 329.462L95.7465 339.545C105.29 329.559 121.124 329.052 131.288 338.464L131.56 338.454Z" fill="#0000FF" stroke="white" stroke-width="4" stroke-miterlimit="10"/>
<path d="M135.633 341.075L145.884 329.747L145.874 329.466C136.094 320.2 135.336 304.951 143.999 294.77L132.044 283.984C122.647 293.175 107.701 293.645 97.7405 285.009L87.1123 296.753C97.1713 306.167 97.8249 321.869 88.6429 332.083L99.8197 342.166C109.363 332.18 125.197 331.673 135.361 341.085L135.633 341.075Z" fill="#0000FF" stroke="white" stroke-width="4" stroke-miterlimit="10"/>
<path d="M139.706 343.694L149.958 332.366L149.947 332.085C140.168 322.819 139.409 307.57 148.073 297.389L136.117 286.604C126.72 295.794 111.774 296.264 101.814 287.628L91.1855 299.372C101.245 308.787 101.898 324.489 92.7161 334.702L103.893 344.786C113.436 334.799 129.27 334.292 139.434 343.704L139.706 343.694Z" fill="#0000FF" stroke="white" stroke-width="4" stroke-miterlimit="10"/>
<path d="M143.779 346.315L154.031 334.988L154.021 334.706C144.241 325.441 143.482 310.191 152.146 300.01L140.19 289.225C130.793 298.415 115.847 298.885 105.887 290.249L95.2588 301.993C105.318 311.408 105.971 327.11 96.7894 337.323L107.966 347.407C117.509 337.42 133.344 336.913 143.508 346.325L143.779 346.315Z" fill="#0000FF" stroke="white" stroke-width="4" stroke-miterlimit="10"/>
<path d="M152.629 346.315L162.881 334.988L162.87 334.706C153.091 325.441 152.332 310.191 160.996 300.01L149.04 289.225C139.643 298.415 124.697 298.885 114.737 290.249L104.108 301.993C114.167 311.408 114.821 327.11 105.639 337.323L116.816 347.407C126.359 337.42 142.193 336.913 152.357 346.325L152.629 346.315Z" fill="#0000FF" stroke="white" stroke-width="4" stroke-miterlimit="10"/>
<path d="M161.479 346.315L171.73 334.988L171.72 334.706C161.94 325.441 161.182 310.191 169.845 300.01L157.89 289.225C148.493 298.415 133.546 298.885 123.586 290.249L112.958 301.993C123.017 311.408 123.671 327.11 114.489 337.323L125.665 347.407C135.209 337.42 151.043 336.913 161.207 346.325L161.479 346.315Z" fill="#0000FF" stroke="white" stroke-width="4" stroke-miterlimit="10"/>
<path d="M170.329 346.315L180.581 334.988L180.57 334.706C170.791 325.441 170.032 310.191 178.696 300.01L166.74 289.225C157.343 298.415 142.397 298.885 132.437 290.249L121.809 301.993C131.868 311.408 132.521 327.11 123.339 337.323L134.516 347.407C144.059 337.42 159.893 336.913 170.057 346.325L170.329 346.315Z" fill="#0000FF" stroke="white" stroke-width="4" stroke-miterlimit="10"/>
<path d="M179.179 346.315L189.43 334.988L189.42 334.706C179.64 325.441 178.882 310.191 187.545 300.01L175.59 289.225C166.193 298.415 151.246 298.885 141.286 290.249L130.658 301.993C140.717 311.408 141.371 327.11 132.189 337.323L143.366 347.407C152.909 337.42 168.743 336.913 178.907 346.325L179.179 346.315Z" fill="#0000FF" stroke="white" stroke-width="4" stroke-miterlimit="10"/>
<path d="M188.028 346.315L198.28 334.988L198.27 334.706C188.49 325.441 187.731 310.191 196.395 300.01L184.439 289.225C175.042 298.415 160.096 298.885 150.136 290.249L139.508 301.993C149.567 311.408 150.22 327.11 141.038 337.323L152.215 347.407C161.758 337.42 177.593 336.913 187.757 346.325L188.028 346.315Z" fill="#0000FF" stroke="white" stroke-width="4" stroke-miterlimit="10"/>
<path d="M196.879 346.315L207.131 334.988L207.12 334.706C197.341 325.441 196.582 310.191 205.246 300.01L193.29 289.225C183.893 298.415 168.947 298.885 158.987 290.249L148.358 301.993C158.417 311.408 159.071 327.11 149.889 337.323L161.066 347.407C170.609 337.42 186.443 336.913 196.607 346.325L196.879 346.315Z" fill="#0000FF" stroke="white" stroke-width="4" stroke-miterlimit="10"/>
<path d="M205.728 346.315L215.98 334.988L215.97 334.706C206.19 325.441 205.432 310.191 214.095 300.01L202.14 289.225C192.743 298.415 177.796 298.885 167.836 290.249L157.208 301.993C167.267 311.408 167.921 327.11 158.739 337.323L169.915 347.407C179.459 337.42 195.293 336.913 205.457 346.325L205.728 346.315Z" fill="#0000FF" stroke="white" stroke-width="4" stroke-miterlimit="10"/>
<path d="M214.578 346.315L224.83 334.988L224.819 334.706C215.04 325.441 214.281 310.191 222.945 300.01L210.989 289.225C201.592 298.415 186.646 298.885 176.686 290.249L166.058 301.993C176.117 311.408 176.77 327.11 167.588 337.323L178.765 347.407C188.308 337.42 204.142 336.913 214.306 346.325L214.578 346.315Z" fill="#0000FF" stroke="white" stroke-width="4" stroke-miterlimit="10"/>
<path d="M223.428 346.315L233.679 334.988L233.669 334.706C223.889 325.441 223.131 310.191 231.794 300.01L219.839 289.225C210.442 298.415 195.495 298.885 185.535 290.249L174.907 301.993C184.966 311.408 185.62 327.11 176.438 337.323L187.615 347.407C197.158 337.42 212.992 336.913 223.156 346.325L223.428 346.315Z" fill="#0000FF" stroke="white" stroke-width="4" stroke-miterlimit="10"/>
<path d="M232.278 346.315L242.53 334.988L242.52 334.706C232.74 325.441 231.981 310.191 240.645 300.01L228.689 289.225C219.292 298.415 204.346 298.885 194.386 290.249L183.758 301.993C193.817 311.408 194.47 327.11 185.288 337.323L196.465 347.407C206.008 337.42 221.843 336.913 232.007 346.325L232.278 346.315Z" fill="#0000FF" stroke="white" stroke-width="4" stroke-miterlimit="10"/>
<path d="M241.128 346.315L251.38 334.988L251.369 334.706C241.59 325.441 240.831 310.191 249.495 300.01L237.539 289.225C228.142 298.415 213.196 298.885 203.236 290.249L192.607 301.993C202.666 311.408 203.32 327.11 194.138 337.323L205.315 347.407C214.858 337.42 230.692 336.913 240.856 346.325L241.128 346.315Z" fill="#0000FF" stroke="white" stroke-width="4" stroke-miterlimit="10"/>
<path d="M249.978 346.315L260.229 334.988L260.219 334.706C250.439 325.441 249.681 310.191 258.344 300.01L246.389 289.225C236.992 298.415 222.045 298.885 212.085 290.249L201.457 301.993C211.516 311.408 212.17 327.11 202.988 337.323L214.164 347.407C223.708 337.42 239.542 336.913 249.706 346.325L249.978 346.315Z" fill="#0000FF" stroke="white" stroke-width="4" stroke-miterlimit="10"/>
<path d="M258.828 346.315L269.08 334.988L269.069 334.706C259.29 325.441 258.531 310.191 267.195 300.01L255.239 289.225C245.842 298.415 230.896 298.885 220.936 290.249L210.308 301.993C220.367 311.408 221.02 327.11 211.838 337.323L223.015 347.407C232.558 337.42 248.392 336.913 258.556 346.325L258.828 346.315Z" fill="#0000FF" stroke="white" stroke-width="4" stroke-miterlimit="10"/>
<path d="M267.678 346.315L277.929 334.988L277.919 334.706C268.139 325.441 267.381 310.191 276.044 300.01L264.089 289.225C254.692 298.415 239.745 298.885 229.785 290.249L219.157 301.993C229.216 311.408 229.87 327.11 220.688 337.323L231.865 347.407C241.408 337.42 257.242 336.913 267.406 346.325L267.678 346.315Z" fill="#0000FF" stroke="white" stroke-width="4" stroke-miterlimit="10"/>
<path d="M276.527 346.315L286.779 334.988L286.769 334.706C276.989 325.441 276.23 310.191 284.894 300.01L272.938 289.225C263.541 298.415 248.595 298.885 238.635 290.249L228.007 301.993C238.066 311.408 238.719 327.11 229.537 337.323L240.714 347.407C250.257 337.42 266.092 336.913 276.256 346.325L276.527 346.315Z" fill="#0000FF" stroke="white" stroke-width="4" stroke-miterlimit="10"/>
<path d="M285.378 346.315L295.63 334.988L295.619 334.706C285.84 325.441 285.081 310.191 293.745 300.01L281.789 289.225C272.392 298.415 257.446 298.885 247.486 290.249L236.857 301.993C246.916 311.408 247.57 327.11 238.388 337.323L249.565 347.407C259.108 337.42 274.942 336.913 285.106 346.325L285.378 346.315Z" fill="#0000FF" stroke="white" stroke-width="4" stroke-miterlimit="10"/>
<path d="M288.214 341.075L298.465 329.747L298.455 329.466C288.676 320.2 287.917 304.951 296.58 294.77L284.625 283.984C275.228 293.175 260.282 293.645 250.322 285.009L239.693 296.753C249.752 306.167 250.406 321.869 241.224 332.083L252.401 342.166C261.944 332.18 277.778 331.673 287.942 341.085L288.214 341.075Z" fill="#0000FF" stroke="white" stroke-width="4" stroke-miterlimit="10"/>
<path d="M291.05 335.835L301.301 324.507L301.291 324.226C291.511 314.96 290.753 299.711 299.416 289.53L287.461 278.744C278.064 287.935 263.118 288.405 253.157 279.769L242.529 291.513C252.588 300.927 253.242 316.629 244.06 326.843L255.237 336.926C264.78 326.94 280.614 326.433 290.778 335.844L291.05 335.835Z" fill="#0000FF" stroke="white" stroke-width="4" stroke-miterlimit="10"/>
<path d="M293.887 330.594L304.138 319.267L304.128 318.985C294.348 309.72 293.59 294.47 302.253 284.29L290.298 273.504C280.901 282.695 265.954 283.164 255.994 274.529L245.366 286.272C255.425 295.687 256.079 311.389 246.897 321.603L258.074 331.686C267.617 321.7 283.451 321.192 293.615 330.604L293.887 330.594Z" fill="#0000FF" stroke="white" stroke-width="4" stroke-miterlimit="10"/>
<path d="M296.723 325.356L306.974 314.029L306.964 313.747C297.184 304.482 296.426 289.232 305.089 279.051L293.134 268.266C283.737 277.456 268.79 277.926 258.83 269.29L248.202 281.034C258.261 290.449 258.915 306.151 249.733 316.364L260.91 326.448C270.453 316.461 286.287 315.954 296.451 325.366L296.723 325.356Z" fill="#0000FF" stroke="white" stroke-width="4" stroke-miterlimit="10"/>
<path d="M299.56 320.116L309.811 308.788L309.801 308.507C300.021 299.241 299.263 283.992 307.926 273.811L295.971 263.025C286.574 272.216 271.627 272.686 261.667 264.05L251.039 275.794C261.098 285.208 261.752 300.91 252.57 311.124L263.746 321.208C273.29 311.221 289.124 310.714 299.288 320.126L299.56 320.116Z" fill="#0000FF" stroke="white" stroke-width="4" stroke-miterlimit="10"/>
<path d="M302.395 314.876L312.647 303.548L312.637 303.267C302.857 294.001 302.099 278.752 310.762 268.571L298.807 257.785C289.41 266.976 274.463 267.446 264.503 258.81L253.875 270.554C263.934 279.968 264.588 295.67 255.406 305.884L266.582 315.967C276.126 305.981 291.96 305.474 302.124 314.885L302.395 314.876Z" fill="#0000FF" stroke="white" stroke-width="4" stroke-miterlimit="10"/>
<path d="M305.231 309.635L315.483 298.308L315.473 298.026C305.693 288.761 304.934 273.511 313.598 263.331L301.642 252.545C292.245 261.736 277.299 262.205 267.339 253.57L256.711 265.313C266.77 274.728 267.424 290.43 258.242 300.644L269.418 310.727C278.962 300.741 294.796 300.233 304.96 309.645L305.231 309.635Z" fill="#0000FF" stroke="white" stroke-width="4" stroke-miterlimit="10"/>
<path d="M308.068 304.395L318.32 293.068L318.31 292.786C308.53 283.521 307.771 268.271 316.435 258.091L304.479 247.305C295.082 256.496 280.136 256.965 270.176 248.329L259.548 260.073C269.607 269.488 270.26 285.19 261.078 295.404L272.255 305.487C281.798 295.5 297.633 294.993 307.797 304.405L308.068 304.395Z" fill="#0000FF" stroke="white" stroke-width="4" stroke-miterlimit="10"/>
</g>
<defs>
<clipPath id="clip0_118_181">
<rect width="325" height="348" fill="white" transform="translate(0.0117188 0.960938)"/>
</clipPath>
</defs>
</svg>
