<svg width="375" height="429" viewBox="0 0 375 429" fill="none" xmlns="http://www.w3.org/2000/svg">
<g clip-path="url(#clip0_118_1042)">
<path d="M64.4542 71.0062C80.5099 71.0062 93.5257 58.0617 93.5257 42.0939C93.5257 26.1261 80.5099 13.1816 64.4542 13.1816C48.3985 13.1816 35.3828 26.1261 35.3828 42.0939C35.3828 58.0617 48.3985 71.0062 64.4542 71.0062Z" fill="#0000FF" stroke="white" stroke-miterlimit="10"/>
<path d="M64.4542 80.4027C80.5099 80.4027 93.5257 67.4582 93.5257 51.4904C93.5257 35.5226 80.5099 22.5781 64.4542 22.5781C48.3985 22.5781 35.3828 35.5226 35.3828 51.4904C35.3828 67.4582 48.3985 80.4027 64.4542 80.4027Z" fill="#0000FF" stroke="white" stroke-miterlimit="10"/>
<path d="M64.4542 89.7992C80.5099 89.7992 93.5257 76.8547 93.5257 60.8869C93.5257 44.9191 80.5099 31.9746 64.4542 31.9746C48.3985 31.9746 35.3828 44.9191 35.3828 60.8869C35.3828 76.8547 48.3985 89.7992 64.4542 89.7992Z" fill="#0000FF" stroke="white" stroke-miterlimit="10"/>
<path d="M64.4542 99.1956C80.5099 99.1956 93.5257 86.2512 93.5257 70.2834C93.5257 54.3156 80.5099 41.3711 64.4542 41.3711C48.3985 41.3711 35.3828 54.3156 35.3828 70.2834C35.3828 86.2512 48.3985 99.1956 64.4542 99.1956Z" fill="#0000FF" stroke="white" stroke-miterlimit="10"/>
<path d="M64.4542 108.592C80.5099 108.592 93.5257 95.6477 93.5257 79.6799C93.5257 63.712 80.5099 50.7676 64.4542 50.7676C48.3985 50.7676 35.3828 63.712 35.3828 79.6799C35.3828 95.6477 48.3985 108.592 64.4542 108.592Z" fill="#0000FF" stroke="white" stroke-miterlimit="10"/>
<path d="M64.4542 117.989C80.5099 117.989 93.5257 105.044 93.5257 89.0763C93.5257 73.1085 80.5099 60.1641 64.4542 60.1641C48.3985 60.1641 35.3828 73.1085 35.3828 89.0763C35.3828 105.044 48.3985 117.989 64.4542 117.989Z" fill="#0000FF" stroke="white" stroke-miterlimit="10"/>
<path d="M64.4542 127.385C80.5099 127.385 93.5257 114.441 93.5257 98.4728C93.5257 82.505 80.5099 69.5605 64.4542 69.5605C48.3985 69.5605 35.3828 82.505 35.3828 98.4728C35.3828 114.441 48.3985 127.385 64.4542 127.385Z" fill="#0000FF" stroke="white" stroke-miterlimit="10"/>
<path d="M64.4542 136.782C80.5099 136.782 93.5257 123.837 93.5257 107.869C93.5257 91.9015 80.5099 78.957 64.4542 78.957C48.3985 78.957 35.3828 91.9015 35.3828 107.869C35.3828 123.837 48.3985 136.782 64.4542 136.782Z" fill="#0000FF" stroke="white" stroke-miterlimit="10"/>
<path d="M64.4542 146.178C80.5099 146.178 93.5257 133.234 93.5257 117.266C93.5257 101.298 80.5099 88.3535 64.4542 88.3535C48.3985 88.3535 35.3828 101.298 35.3828 117.266C35.3828 133.234 48.3985 146.178 64.4542 146.178Z" fill="#0000FF" stroke="white" stroke-miterlimit="10"/>
<path d="M64.4542 155.575C80.5099 155.575 93.5257 142.63 93.5257 126.662C93.5257 110.694 80.5099 97.75 64.4542 97.75C48.3985 97.75 35.3828 110.694 35.3828 126.662C35.3828 142.63 48.3985 155.575 64.4542 155.575Z" fill="#0000FF" stroke="white" stroke-miterlimit="10"/>
<path d="M64.4542 164.971C80.5099 164.971 93.5257 152.027 93.5257 136.059C93.5257 120.091 80.5099 107.146 64.4542 107.146C48.3985 107.146 35.3828 120.091 35.3828 136.059C35.3828 152.027 48.3985 164.971 64.4542 164.971Z" fill="#0000FF" stroke="white" stroke-miterlimit="10"/>
<path d="M64.4542 174.368C80.5099 174.368 93.5257 161.423 93.5257 145.455C93.5257 129.487 80.5099 116.543 64.4542 116.543C48.3985 116.543 35.3828 129.487 35.3828 145.455C35.3828 161.423 48.3985 174.368 64.4542 174.368Z" fill="#0000FF" stroke="white" stroke-miterlimit="10"/>
<path d="M64.4542 183.764C80.5099 183.764 93.5257 170.82 93.5257 154.852C93.5257 138.884 80.5099 125.939 64.4542 125.939C48.3985 125.939 35.3828 138.884 35.3828 154.852C35.3828 170.82 48.3985 183.764 64.4542 183.764Z" fill="#0000FF" stroke="white" stroke-miterlimit="10"/>
<path d="M64.4542 193.16C80.5099 193.16 93.5257 180.216 93.5257 164.248C93.5257 148.28 80.5099 135.336 64.4542 135.336C48.3985 135.336 35.3828 148.28 35.3828 164.248C35.3828 180.216 48.3985 193.16 64.4542 193.16Z" fill="#0000FF" stroke="white" stroke-miterlimit="10"/>
<path d="M64.4542 202.557C80.5099 202.557 93.5257 189.612 93.5257 173.645C93.5257 157.677 80.5099 144.732 64.4542 144.732C48.3985 144.732 35.3828 157.677 35.3828 173.645C35.3828 189.612 48.3985 202.557 64.4542 202.557Z" fill="#0000FF" stroke="white" stroke-miterlimit="10"/>
<path d="M64.4542 211.955C80.5099 211.955 93.5257 199.011 93.5257 183.043C93.5257 167.075 80.5099 154.131 64.4542 154.131C48.3985 154.131 35.3828 167.075 35.3828 183.043C35.3828 199.011 48.3985 211.955 64.4542 211.955Z" fill="#0000FF" stroke="white" stroke-miterlimit="10"/>
<path d="M64.4542 221.352C80.5099 221.352 93.5257 208.407 93.5257 192.44C93.5257 176.472 80.5099 163.527 64.4542 163.527C48.3985 163.527 35.3828 176.472 35.3828 192.44C35.3828 208.407 48.3985 221.352 64.4542 221.352Z" fill="#0000FF" stroke="white" stroke-miterlimit="10"/>
<path d="M64.4542 230.748C80.5099 230.748 93.5257 217.804 93.5257 201.836C93.5257 185.868 80.5099 172.924 64.4542 172.924C48.3985 172.924 35.3828 185.868 35.3828 201.836C35.3828 217.804 48.3985 230.748 64.4542 230.748Z" fill="#0000FF" stroke="white" stroke-miterlimit="10"/>
<path d="M64.4542 240.145C80.5099 240.145 93.5257 227.2 93.5257 211.233C93.5257 195.265 80.5099 182.32 64.4542 182.32C48.3985 182.32 35.3828 195.265 35.3828 211.233C35.3828 227.2 48.3985 240.145 64.4542 240.145Z" fill="#0000FF" stroke="white" stroke-miterlimit="10"/>
<path d="M64.4542 249.541C80.5099 249.541 93.5257 236.597 93.5257 220.629C93.5257 204.661 80.5099 191.717 64.4542 191.717C48.3985 191.717 35.3828 204.661 35.3828 220.629C35.3828 236.597 48.3985 249.541 64.4542 249.541Z" fill="#0000FF" stroke="white" stroke-miterlimit="10"/>
<path d="M64.4542 258.938C80.5099 258.938 93.5257 245.993 93.5257 230.026C93.5257 214.058 80.5099 201.113 64.4542 201.113C48.3985 201.113 35.3828 214.058 35.3828 230.026C35.3828 245.993 48.3985 258.938 64.4542 258.938Z" fill="#0000FF" stroke="white" stroke-miterlimit="10"/>
<path d="M64.4542 268.334C80.5099 268.334 93.5257 255.39 93.5257 239.422C93.5257 223.454 80.5099 210.51 64.4542 210.51C48.3985 210.51 35.3828 223.454 35.3828 239.422C35.3828 255.39 48.3985 268.334 64.4542 268.334Z" fill="#0000FF" stroke="white" stroke-miterlimit="10"/>
<path d="M64.4542 277.731C80.5099 277.731 93.5257 264.786 93.5257 248.819C93.5257 232.851 80.5099 219.906 64.4542 219.906C48.3985 219.906 35.3828 232.851 35.3828 248.819C35.3828 264.786 48.3985 277.731 64.4542 277.731Z" fill="#0000FF" stroke="white" stroke-miterlimit="10"/>
<path d="M64.4542 287.127C80.5099 287.127 93.5257 274.183 93.5257 258.215C93.5257 242.247 80.5099 229.303 64.4542 229.303C48.3985 229.303 35.3828 242.247 35.3828 258.215C35.3828 274.183 48.3985 287.127 64.4542 287.127Z" fill="#0000FF" stroke="white" stroke-miterlimit="10"/>
<path d="M64.4542 296.524C80.5099 296.524 93.5257 283.579 93.5257 267.611C93.5257 251.644 80.5099 238.699 64.4542 238.699C48.3985 238.699 35.3828 251.644 35.3828 267.611C35.3828 283.579 48.3985 296.524 64.4542 296.524Z" fill="#0000FF" stroke="white" stroke-miterlimit="10"/>
<path d="M64.4542 305.92C80.5099 305.92 93.5257 292.976 93.5257 277.008C93.5257 261.04 80.5099 248.096 64.4542 248.096C48.3985 248.096 35.3828 261.04 35.3828 277.008C35.3828 292.976 48.3985 305.92 64.4542 305.92Z" fill="#0000FF" stroke="white" stroke-miterlimit="10"/>
<path d="M64.4542 315.317C80.5099 315.317 93.5257 302.372 93.5257 286.404C93.5257 270.437 80.5099 257.492 64.4542 257.492C48.3985 257.492 35.3828 270.437 35.3828 286.404C35.3828 302.372 48.3985 315.317 64.4542 315.317Z" fill="#0000FF" stroke="white" stroke-miterlimit="10"/>
<path d="M64.4542 324.713C80.5099 324.713 93.5257 311.769 93.5257 295.801C93.5257 279.833 80.5099 266.889 64.4542 266.889C48.3985 266.889 35.3828 279.833 35.3828 295.801C35.3828 311.769 48.3985 324.713 64.4542 324.713Z" fill="#0000FF" stroke="white" stroke-miterlimit="10"/>
<path d="M64.4542 334.11C80.5099 334.11 93.5257 321.165 93.5257 305.197C93.5257 289.23 80.5099 276.285 64.4542 276.285C48.3985 276.285 35.3828 289.23 35.3828 305.197C35.3828 321.165 48.3985 334.11 64.4542 334.11Z" fill="#0000FF" stroke="white" stroke-miterlimit="10"/>
<path d="M64.4542 343.506C80.5099 343.506 93.5257 330.562 93.5257 314.594C93.5257 298.626 80.5099 285.682 64.4542 285.682C48.3985 285.682 35.3828 298.626 35.3828 314.594C35.3828 330.562 48.3985 343.506 64.4542 343.506Z" fill="#0000FF" stroke="white" stroke-miterlimit="10"/>
<path d="M64.4542 352.903C80.5099 352.903 93.5257 339.958 93.5257 323.99C93.5257 308.023 80.5099 295.078 64.4542 295.078C48.3985 295.078 35.3828 308.023 35.3828 323.99C35.3828 339.958 48.3985 352.903 64.4542 352.903Z" fill="#0000FF" stroke="white" stroke-miterlimit="10"/>
<path d="M64.4542 362.301C80.5099 362.301 93.5257 349.357 93.5257 333.389C93.5257 317.421 80.5099 304.477 64.4542 304.477C48.3985 304.477 35.3828 317.421 35.3828 333.389C35.3828 349.357 48.3985 362.301 64.4542 362.301Z" fill="#0000FF" stroke="white" stroke-miterlimit="10"/>
<path d="M64.4542 371.698C80.5099 371.698 93.5257 358.753 93.5257 342.785C93.5257 326.818 80.5099 313.873 64.4542 313.873C48.3985 313.873 35.3828 326.818 35.3828 342.785C35.3828 358.753 48.3985 371.698 64.4542 371.698Z" fill="#0000FF" stroke="white" stroke-miterlimit="10"/>
<path d="M64.4542 381.094C80.5099 381.094 93.5257 368.15 93.5257 352.182C93.5257 336.214 80.5099 323.27 64.4542 323.27C48.3985 323.27 35.3828 336.214 35.3828 352.182C35.3828 368.15 48.3985 381.094 64.4542 381.094Z" fill="#0000FF" stroke="white" stroke-miterlimit="10"/>
<path d="M64.4542 390.491C80.5099 390.491 93.5257 377.546 93.5257 361.578C93.5257 345.61 80.5099 332.666 64.4542 332.666C48.3985 332.666 35.3828 345.61 35.3828 361.578C35.3828 377.546 48.3985 390.491 64.4542 390.491Z" fill="#0000FF" stroke="white" stroke-miterlimit="10"/>
<path d="M64.4542 399.887C80.5099 399.887 93.5257 386.943 93.5257 370.975C93.5257 355.007 80.5099 342.062 64.4542 342.062C48.3985 342.062 35.3828 355.007 35.3828 370.975C35.3828 386.943 48.3985 399.887 64.4542 399.887Z" fill="#0000FF" stroke="white" stroke-miterlimit="10"/>
<path d="M64.4542 409.284C80.5099 409.284 93.5257 396.339 93.5257 380.371C93.5257 364.403 80.5099 351.459 64.4542 351.459C48.3985 351.459 35.3828 364.403 35.3828 380.371C35.3828 396.339 48.3985 409.284 64.4542 409.284Z" fill="#0000FF" stroke="white" stroke-miterlimit="10"/>
<path d="M64.4542 418.68C80.5099 418.68 93.5257 405.736 93.5257 389.768C93.5257 373.8 80.5099 360.855 64.4542 360.855C48.3985 360.855 35.3828 373.8 35.3828 389.768C35.3828 405.736 48.3985 418.68 64.4542 418.68Z" fill="#0000FF" stroke="white" stroke-miterlimit="10"/>
<path d="M64.4542 428.076C80.5099 428.076 93.5257 415.132 93.5257 399.164C93.5257 383.196 80.5099 370.252 64.4542 370.252C48.3985 370.252 35.3828 383.196 35.3828 399.164C35.3828 415.132 48.3985 428.076 64.4542 428.076Z" fill="#0000FF" stroke="white" stroke-miterlimit="10"/>
<path d="M73.2267 427.252C89.2824 427.252 102.298 414.308 102.298 398.34C102.298 382.372 89.2824 369.428 73.2267 369.428C57.171 369.428 44.1553 382.372 44.1553 398.34C44.1553 414.308 57.171 427.252 73.2267 427.252Z" fill="#0000FF" stroke="white" stroke-miterlimit="10"/>
<path d="M81.9992 426.426C98.0549 426.426 111.071 413.482 111.071 397.514C111.071 381.546 98.0549 368.602 81.9992 368.602C65.9435 368.602 52.9277 381.546 52.9277 397.514C52.9277 413.482 65.9435 426.426 81.9992 426.426Z" fill="#0000FF" stroke="white" stroke-miterlimit="10"/>
<path d="M90.7716 425.602C106.827 425.602 119.843 412.657 119.843 396.69C119.843 380.722 106.827 367.777 90.7716 367.777C74.7159 367.777 61.7002 380.722 61.7002 396.69C61.7002 412.657 74.7159 425.602 90.7716 425.602Z" fill="#0000FF" stroke="white" stroke-miterlimit="10"/>
<path d="M99.5451 424.778C115.601 424.778 128.616 411.833 128.616 395.865C128.616 379.898 115.601 366.953 99.5451 366.953C83.4894 366.953 70.4736 379.898 70.4736 395.865C70.4736 411.833 83.4894 424.778 99.5451 424.778Z" fill="#0000FF" stroke="white" stroke-miterlimit="10"/>
<path d="M108.318 423.953C124.373 423.953 137.389 411.009 137.389 395.041C137.389 379.073 124.373 366.129 108.318 366.129C92.2618 366.129 79.2461 379.073 79.2461 395.041C79.2461 411.009 92.2618 423.953 108.318 423.953Z" fill="#0000FF" stroke="white" stroke-miterlimit="10"/>
<path d="M117.09 423.127C133.146 423.127 146.161 410.183 146.161 394.215C146.161 378.247 133.146 365.303 117.09 365.303C101.034 365.303 88.0186 378.247 88.0186 394.215C88.0186 410.183 101.034 423.127 117.09 423.127Z" fill="#0000FF" stroke="white" stroke-miterlimit="10"/>
<path d="M125.862 422.303C141.918 422.303 154.934 409.359 154.934 393.391C154.934 377.423 141.918 364.479 125.862 364.479C109.807 364.479 96.791 377.423 96.791 393.391C96.791 409.359 109.807 422.303 125.862 422.303Z" fill="#0000FF" stroke="white" stroke-miterlimit="10"/>
<path d="M134.636 421.479C150.692 421.479 163.707 408.534 163.707 392.567C163.707 376.599 150.692 363.654 134.636 363.654C118.58 363.654 105.564 376.599 105.564 392.567C105.564 408.534 118.58 421.479 134.636 421.479Z" fill="#0000FF" stroke="white" stroke-miterlimit="10"/>
<path d="M143.408 420.655C159.464 420.655 172.48 407.71 172.48 391.742C172.48 375.775 159.464 362.83 143.408 362.83C127.353 362.83 114.337 375.775 114.337 391.742C114.337 407.71 127.353 420.655 143.408 420.655Z" fill="#0000FF" stroke="white" stroke-miterlimit="10"/>
<path d="M152.181 419.828C168.237 419.828 181.252 406.884 181.252 390.916C181.252 374.948 168.237 362.004 152.181 362.004C136.125 362.004 123.109 374.948 123.109 390.916C123.109 406.884 136.125 419.828 152.181 419.828Z" fill="#0000FF" stroke="white" stroke-miterlimit="10"/>
<path d="M160.953 419.004C177.009 419.004 190.025 406.06 190.025 390.092C190.025 374.124 177.009 361.18 160.953 361.18C144.898 361.18 131.882 374.124 131.882 390.092C131.882 406.06 144.898 419.004 160.953 419.004Z" fill="#0000FF" stroke="white" stroke-miterlimit="10"/>
<path d="M169.727 418.18C185.782 418.18 198.798 405.236 198.798 389.268C198.798 373.3 185.782 360.355 169.727 360.355C153.671 360.355 140.655 373.3 140.655 389.268C140.655 405.236 153.671 418.18 169.727 418.18Z" fill="#0000FF" stroke="white" stroke-miterlimit="10"/>
<path d="M178.499 417.354C194.555 417.354 207.571 404.409 207.571 388.442C207.571 372.474 194.555 359.529 178.499 359.529C162.443 359.529 149.428 372.474 149.428 388.442C149.428 404.409 162.443 417.354 178.499 417.354Z" fill="#0000FF" stroke="white" stroke-miterlimit="10"/>
<path d="M187.272 416.53C203.327 416.53 216.343 403.585 216.343 387.617C216.343 371.65 203.327 358.705 187.272 358.705C171.216 358.705 158.2 371.65 158.2 387.617C158.2 403.585 171.216 416.53 187.272 416.53Z" fill="#0000FF" stroke="white" stroke-miterlimit="10"/>
<path d="M196.044 415.705C212.1 415.705 225.116 402.761 225.116 386.793C225.116 370.825 212.1 357.881 196.044 357.881C179.988 357.881 166.973 370.825 166.973 386.793C166.973 402.761 179.988 415.705 196.044 415.705Z" fill="#0000FF" stroke="white" stroke-miterlimit="10"/>
<path d="M204.817 414.881C220.872 414.881 233.888 401.937 233.888 385.969C233.888 370.001 220.872 357.057 204.817 357.057C188.761 357.057 175.745 370.001 175.745 385.969C175.745 401.937 188.761 414.881 204.817 414.881Z" fill="#0000FF" stroke="white" stroke-miterlimit="10"/>
<path d="M213.59 414.055C229.646 414.055 242.661 401.111 242.661 385.143C242.661 369.175 229.646 356.23 213.59 356.23C197.534 356.23 184.519 369.175 184.519 385.143C184.519 401.111 197.534 414.055 213.59 414.055Z" fill="#0000FF" stroke="white" stroke-miterlimit="10"/>
<path d="M222.362 413.231C238.418 413.231 251.434 400.286 251.434 384.318C251.434 368.351 238.418 355.406 222.362 355.406C206.307 355.406 193.291 368.351 193.291 384.318C193.291 400.286 206.307 413.231 222.362 413.231Z" fill="#0000FF" stroke="white" stroke-miterlimit="10"/>
<path d="M231.135 412.407C247.191 412.407 260.206 399.462 260.206 383.494C260.206 367.526 247.191 354.582 231.135 354.582C215.079 354.582 202.063 367.526 202.063 383.494C202.063 399.462 215.079 412.407 231.135 412.407Z" fill="#0000FF" stroke="white" stroke-miterlimit="10"/>
<path d="M239.907 411.58C255.963 411.58 268.979 398.636 268.979 382.668C268.979 366.7 255.963 353.756 239.907 353.756C223.852 353.756 210.836 366.7 210.836 382.668C210.836 398.636 223.852 411.58 239.907 411.58Z" fill="#0000FF" stroke="white" stroke-miterlimit="10"/>
<path d="M248.681 410.756C264.737 410.756 277.752 397.812 277.752 381.844C277.752 365.876 264.737 352.932 248.681 352.932C232.625 352.932 219.609 365.876 219.609 381.844C219.609 397.812 232.625 410.756 248.681 410.756Z" fill="#0000FF" stroke="white" stroke-miterlimit="10"/>
<path d="M257.453 409.932C273.509 409.932 286.525 396.987 286.525 381.02C286.525 365.052 273.509 352.107 257.453 352.107C241.398 352.107 228.382 365.052 228.382 381.02C228.382 396.987 241.398 409.932 257.453 409.932Z" fill="#0000FF" stroke="white" stroke-miterlimit="10"/>
<path d="M266.224 402.662C282.279 402.662 295.295 389.718 295.295 373.75C295.295 357.782 282.279 344.838 266.224 344.838C250.168 344.838 237.152 357.782 237.152 373.75C237.152 389.718 250.168 402.662 266.224 402.662Z" fill="#0000FF" stroke="white" stroke-miterlimit="10"/>
<path d="M274.994 395.391C291.05 395.391 304.066 382.446 304.066 366.479C304.066 350.511 291.05 337.566 274.994 337.566C258.939 337.566 245.923 350.511 245.923 366.479C245.923 382.446 258.939 395.391 274.994 395.391Z" fill="#0000FF" stroke="white" stroke-miterlimit="10"/>
<path d="M283.765 388.121C299.82 388.121 312.836 375.177 312.836 359.209C312.836 343.241 299.82 330.297 283.765 330.297C267.709 330.297 254.693 343.241 254.693 359.209C254.693 375.177 267.709 388.121 283.765 388.121Z" fill="#0000FF" stroke="white" stroke-miterlimit="10"/>
<path d="M292.534 380.852C308.59 380.852 321.606 367.907 321.606 351.94C321.606 335.972 308.59 323.027 292.534 323.027C276.479 323.027 263.463 335.972 263.463 351.94C263.463 367.907 276.479 380.852 292.534 380.852Z" fill="#0000FF" stroke="white" stroke-miterlimit="10"/>
<path d="M301.305 373.58C317.361 373.58 330.376 360.636 330.376 344.668C330.376 328.7 317.361 315.756 301.305 315.756C285.249 315.756 272.233 328.7 272.233 344.668C272.233 360.636 285.249 373.58 301.305 373.58Z" fill="#0000FF" stroke="white" stroke-miterlimit="10"/>
<path d="M310.075 366.311C326.131 366.311 339.147 353.366 339.147 337.399C339.147 321.431 326.131 308.486 310.075 308.486C294.02 308.486 281.004 321.431 281.004 337.399C281.004 353.366 294.02 366.311 310.075 366.311Z" fill="#0000FF" stroke="white" stroke-miterlimit="10"/>
<path d="M318.846 359.039C334.902 359.039 347.917 346.095 347.917 330.127C347.917 314.159 334.902 301.215 318.846 301.215C302.79 301.215 289.774 314.159 289.774 330.127C289.774 346.095 302.79 359.039 318.846 359.039Z" fill="#0000FF" stroke="white" stroke-miterlimit="10"/>
<path d="M327.616 351.77C343.672 351.77 356.688 338.825 356.688 322.858C356.688 306.89 343.672 293.945 327.616 293.945C311.561 293.945 298.545 306.89 298.545 322.858C298.545 338.825 311.561 351.77 327.616 351.77Z" fill="#0000FF" stroke="white" stroke-miterlimit="10"/>
<path d="M336.387 344.5C352.443 344.5 365.458 331.556 365.458 315.588C365.458 299.62 352.443 286.676 336.387 286.676C320.331 286.676 307.315 299.62 307.315 315.588C307.315 331.556 320.331 344.5 336.387 344.5Z" fill="#0000FF" stroke="white" stroke-miterlimit="10"/>
<path d="M345.157 337.229C361.213 337.229 374.229 324.284 374.229 308.317C374.229 292.349 361.213 279.404 345.157 279.404C329.102 279.404 316.086 292.349 316.086 308.317C316.086 324.284 329.102 337.229 345.157 337.229Z" fill="#0000FF" stroke="white" stroke-miterlimit="10"/>
<path d="M345.157 329.485C361.213 329.485 374.229 316.54 374.229 300.572C374.229 284.605 361.213 271.66 345.157 271.66C329.102 271.66 316.086 284.605 316.086 300.572C316.086 316.54 329.102 329.485 345.157 329.485Z" fill="#0000FF" stroke="white" stroke-miterlimit="10"/>
<path d="M345.157 321.741C361.213 321.741 374.229 308.796 374.229 292.828C374.229 276.86 361.213 263.916 345.157 263.916C329.102 263.916 316.086 276.86 316.086 292.828C316.086 308.796 329.102 321.741 345.157 321.741Z" fill="#0000FF" stroke="white" stroke-miterlimit="10"/>
<path d="M345.157 313.994C361.213 313.994 374.229 301.05 374.229 285.082C374.229 269.114 361.213 256.17 345.157 256.17C329.102 256.17 316.086 269.114 316.086 285.082C316.086 301.05 329.102 313.994 345.157 313.994Z" fill="#0000FF" stroke="white" stroke-miterlimit="10"/>
<path d="M345.157 306.25C361.213 306.25 374.229 293.306 374.229 277.338C374.229 261.37 361.213 248.426 345.157 248.426C329.102 248.426 316.086 261.37 316.086 277.338C316.086 293.306 329.102 306.25 345.157 306.25Z" fill="#0000FF" stroke="white" stroke-miterlimit="10"/>
<path d="M345.157 298.506C361.213 298.506 374.229 285.562 374.229 269.594C374.229 253.626 361.213 240.682 345.157 240.682C329.102 240.682 316.086 253.626 316.086 269.594C316.086 285.562 329.102 298.506 345.157 298.506Z" fill="#0000FF" stroke="white" stroke-miterlimit="10"/>
<path d="M345.157 290.762C361.213 290.762 374.229 277.818 374.229 261.85C374.229 245.882 361.213 232.938 345.157 232.938C329.102 232.938 316.086 245.882 316.086 261.85C316.086 277.818 329.102 290.762 345.157 290.762Z" fill="#0000FF" stroke="white" stroke-miterlimit="10"/>
<path d="M345.157 283.016C361.213 283.016 374.229 270.071 374.229 254.104C374.229 238.136 361.213 225.191 345.157 225.191C329.102 225.191 316.086 238.136 316.086 254.104C316.086 270.071 329.102 283.016 345.157 283.016Z" fill="#0000FF" stroke="white" stroke-miterlimit="10"/>
<path d="M345.157 275.272C361.213 275.272 374.229 262.327 374.229 246.36C374.229 230.392 361.213 217.447 345.157 217.447C329.102 217.447 316.086 230.392 316.086 246.36C316.086 262.327 329.102 275.272 345.157 275.272Z" fill="#0000FF" stroke="white" stroke-miterlimit="10"/>
<path d="M345.157 267.528C361.213 267.528 374.229 254.583 374.229 238.615C374.229 222.648 361.213 209.703 345.157 209.703C329.102 209.703 316.086 222.648 316.086 238.615C316.086 254.583 329.102 267.528 345.157 267.528Z" fill="#0000FF" stroke="white" stroke-miterlimit="10"/>
<path d="M345.157 259.782C361.213 259.782 374.229 246.837 374.229 230.869C374.229 214.902 361.213 201.957 345.157 201.957C329.102 201.957 316.086 214.902 316.086 230.869C316.086 246.837 329.102 259.782 345.157 259.782Z" fill="#0000FF" stroke="white" stroke-miterlimit="10"/>
<path d="M345.157 252.037C361.213 252.037 374.229 239.093 374.229 223.125C374.229 207.157 361.213 194.213 345.157 194.213C329.102 194.213 316.086 207.157 316.086 223.125C316.086 239.093 329.102 252.037 345.157 252.037Z" fill="#0000FF" stroke="white" stroke-miterlimit="10"/>
<path d="M345.157 244.293C361.213 244.293 374.229 231.349 374.229 215.381C374.229 199.413 361.213 186.469 345.157 186.469C329.102 186.469 316.086 199.413 316.086 215.381C316.086 231.349 329.102 244.293 345.157 244.293Z" fill="#0000FF" stroke="white" stroke-miterlimit="10"/>
<path d="M345.157 236.547C361.213 236.547 374.229 223.603 374.229 207.635C374.229 191.667 361.213 178.723 345.157 178.723C329.102 178.723 316.086 191.667 316.086 207.635C316.086 223.603 329.102 236.547 345.157 236.547Z" fill="#0000FF" stroke="white" stroke-miterlimit="10"/>
<path d="M345.157 228.803C361.213 228.803 374.229 215.859 374.229 199.891C374.229 183.923 361.213 170.979 345.157 170.979C329.102 170.979 316.086 183.923 316.086 199.891C316.086 215.859 329.102 228.803 345.157 228.803Z" fill="#0000FF" stroke="white" stroke-miterlimit="10"/>
<path d="M345.157 221.059C361.213 221.059 374.229 208.114 374.229 192.147C374.229 176.179 361.213 163.234 345.157 163.234C329.102 163.234 316.086 176.179 316.086 192.147C316.086 208.114 329.102 221.059 345.157 221.059Z" fill="#0000FF" stroke="white" stroke-miterlimit="10"/>
<path d="M345.157 213.313C361.213 213.313 374.229 200.368 374.229 184.401C374.229 168.433 361.213 155.488 345.157 155.488C329.102 155.488 316.086 168.433 316.086 184.401C316.086 200.368 329.102 213.313 345.157 213.313Z" fill="#0000FF" stroke="white" stroke-miterlimit="10"/>
<path d="M341.382 203.971C357.438 203.971 370.453 191.027 370.453 175.059C370.453 159.091 357.438 146.146 341.382 146.146C325.326 146.146 312.311 159.091 312.311 175.059C312.311 191.027 325.326 203.971 341.382 203.971Z" fill="#0000FF" stroke="white" stroke-miterlimit="10"/>
<path d="M337.607 194.627C353.662 194.627 366.678 181.683 366.678 165.715C366.678 149.747 353.662 136.803 337.607 136.803C321.551 136.803 308.535 149.747 308.535 165.715C308.535 181.683 321.551 194.627 337.607 194.627Z" fill="#0000FF" stroke="white" stroke-miterlimit="10"/>
<path d="M333.831 185.284C349.887 185.284 362.903 172.339 362.903 156.371C362.903 140.403 349.887 127.459 333.831 127.459C317.775 127.459 304.76 140.403 304.76 156.371C304.76 172.339 317.775 185.284 333.831 185.284Z" fill="#0000FF" stroke="white" stroke-miterlimit="10"/>
<path d="M330.056 175.94C346.112 175.94 359.127 162.995 359.127 147.028C359.127 131.06 346.112 118.115 330.056 118.115C314 118.115 300.984 131.06 300.984 147.028C300.984 162.995 314 175.94 330.056 175.94Z" fill="#0000FF" stroke="white" stroke-miterlimit="10"/>
<path d="M326.28 166.596C342.336 166.596 355.352 153.652 355.352 137.684C355.352 121.716 342.336 108.771 326.28 108.771C310.225 108.771 297.209 121.716 297.209 137.684C297.209 153.652 310.225 166.596 326.28 166.596Z" fill="#0000FF" stroke="white" stroke-miterlimit="10"/>
<path d="M322.505 157.252C338.561 157.252 351.576 144.308 351.576 128.34C351.576 112.372 338.561 99.4277 322.505 99.4277C306.449 99.4277 293.434 112.372 293.434 128.34C293.434 144.308 306.449 157.252 322.505 157.252Z" fill="#0000FF" stroke="white" stroke-miterlimit="10"/>
<path d="M318.73 147.909C334.785 147.909 347.801 134.964 347.801 118.996C347.801 103.028 334.785 90.084 318.73 90.084C302.674 90.084 289.658 103.028 289.658 118.996C289.658 134.964 302.674 147.909 318.73 147.909Z" fill="#0000FF" stroke="white" stroke-miterlimit="10"/>
<path d="M314.954 138.565C331.01 138.565 344.026 125.62 344.026 109.652C344.026 93.6847 331.01 80.7402 314.954 80.7402C298.899 80.7402 285.883 93.6847 285.883 109.652C285.883 125.62 298.899 138.565 314.954 138.565Z" fill="#0000FF" stroke="white" stroke-miterlimit="10"/>
<path d="M311.179 129.221C327.235 129.221 340.25 116.277 340.25 100.309C340.25 84.341 327.235 71.3965 311.179 71.3965C295.123 71.3965 282.107 84.341 282.107 100.309C282.107 116.277 295.123 129.221 311.179 129.221Z" fill="#0000FF" stroke="white" stroke-miterlimit="10"/>
<path d="M307.403 119.877C323.459 119.877 336.475 106.933 336.475 90.965C336.475 74.9972 323.459 62.0527 307.403 62.0527C291.348 62.0527 278.332 74.9972 278.332 90.965C278.332 106.933 291.348 119.877 307.403 119.877Z" fill="#0000FF" stroke="white" stroke-miterlimit="10"/>
<path d="M303.628 110.534C319.684 110.534 332.7 97.5891 332.7 81.6213C332.7 65.6535 319.684 52.709 303.628 52.709C287.572 52.709 274.557 65.6535 274.557 81.6213C274.557 97.5891 287.572 110.534 303.628 110.534Z" fill="#0000FF" stroke="white" stroke-miterlimit="10"/>
<path d="M299.853 101.19C315.908 101.19 328.924 88.2453 328.924 72.2775C328.924 56.3097 315.908 43.3652 299.853 43.3652C283.797 43.3652 270.781 56.3097 270.781 72.2775C270.781 88.2453 283.797 101.19 299.853 101.19Z" fill="#0000FF" stroke="white" stroke-miterlimit="10"/>
<path d="M296.077 91.846C312.133 91.846 325.149 78.9016 325.149 62.9338C325.149 46.966 312.133 34.0215 296.077 34.0215C280.022 34.0215 267.006 46.966 267.006 62.9338C267.006 78.9016 280.022 91.846 296.077 91.846Z" fill="#0000FF" stroke="white" stroke-miterlimit="10"/>
<path d="M292.302 82.5023C308.358 82.5023 321.373 69.5578 321.373 53.59C321.373 37.6222 308.358 24.6777 292.302 24.6777C276.246 24.6777 263.23 37.6222 263.23 53.59C263.23 69.5578 276.246 82.5023 292.302 82.5023Z" fill="#0000FF" stroke="white" stroke-miterlimit="10"/>
<path d="M281.002 80.4027C297.058 80.4027 310.074 67.4582 310.074 51.4904C310.074 35.5226 297.058 22.5781 281.002 22.5781C264.946 22.5781 251.931 35.5226 251.931 51.4904C251.931 67.4582 264.946 80.4027 281.002 80.4027Z" fill="#0000FF" stroke="white" stroke-miterlimit="10"/>
<path d="M269.701 78.3011C285.757 78.3011 298.773 65.3566 298.773 49.3888C298.773 33.421 285.757 20.4766 269.701 20.4766C253.646 20.4766 240.63 33.421 240.63 49.3888C240.63 65.3566 253.646 78.3011 269.701 78.3011Z" fill="#0000FF" stroke="white" stroke-miterlimit="10"/>
<path d="M258.401 76.1995C274.456 76.1995 287.472 63.2551 287.472 47.2873C287.472 31.3195 274.456 18.375 258.401 18.375C242.345 18.375 229.329 31.3195 229.329 47.2873C229.329 63.2551 242.345 76.1995 258.401 76.1995Z" fill="#0000FF" stroke="white" stroke-miterlimit="10"/>
<path d="M247.101 74.0999C263.156 74.0999 276.172 61.1555 276.172 45.1877C276.172 29.2199 263.156 16.2754 247.101 16.2754C231.045 16.2754 218.029 29.2199 218.029 45.1877C218.029 61.1555 231.045 74.0999 247.101 74.0999Z" fill="#0000FF" stroke="white" stroke-miterlimit="10"/>
<path d="M235.8 71.9984C251.856 71.9984 264.871 59.0539 264.871 43.0861C264.871 27.1183 251.856 14.1738 235.8 14.1738C219.744 14.1738 206.729 27.1183 206.729 43.0861C206.729 59.0539 219.744 71.9984 235.8 71.9984Z" fill="#0000FF" stroke="white" stroke-miterlimit="10"/>
<path d="M224.5 69.8968C240.556 69.8968 253.572 56.9523 253.572 40.9845C253.572 25.0167 240.556 12.0723 224.5 12.0723C208.444 12.0723 195.429 25.0167 195.429 40.9845C195.429 56.9523 208.444 69.8968 224.5 69.8968Z" fill="#0000FF" stroke="white" stroke-miterlimit="10"/>
<path d="M213.199 67.7972C229.255 67.7972 242.271 54.8527 242.271 38.8849C242.271 22.9171 229.255 9.97266 213.199 9.97266C197.144 9.97266 184.128 22.9171 184.128 38.8849C184.128 54.8527 197.144 67.7972 213.199 67.7972Z" fill="#0000FF" stroke="white" stroke-miterlimit="10"/>
<path d="M201.899 65.6956C217.954 65.6956 230.97 52.7512 230.97 36.7834C230.97 20.8156 217.954 7.87109 201.899 7.87109C185.843 7.87109 172.827 20.8156 172.827 36.7834C172.827 52.7512 185.843 65.6956 201.899 65.6956Z" fill="#0000FF" stroke="white" stroke-miterlimit="10"/>
<path d="M190.599 63.5941C206.654 63.5941 219.67 50.6496 219.67 34.6818C219.67 18.714 206.654 5.76953 190.599 5.76953C174.543 5.76953 161.527 18.714 161.527 34.6818C161.527 50.6496 174.543 63.5941 190.599 63.5941Z" fill="#0000FF" stroke="white" stroke-miterlimit="10"/>
<path d="M179.298 61.4925C195.354 61.4925 208.369 48.548 208.369 32.5802C208.369 16.6124 195.354 3.66797 179.298 3.66797C163.242 3.66797 150.227 16.6124 150.227 32.5802C150.227 48.548 163.242 61.4925 179.298 61.4925Z" fill="#0000FF" stroke="white" stroke-miterlimit="10"/>
<path d="M167.998 59.3929C184.054 59.3929 197.07 46.4484 197.07 30.4806C197.07 14.5128 184.054 1.56836 167.998 1.56836C151.942 1.56836 138.927 14.5128 138.927 30.4806C138.927 46.4484 151.942 59.3929 167.998 59.3929Z" fill="#0000FF" stroke="white" stroke-miterlimit="10"/>
<path d="M158.198 62.932C174.254 62.932 187.27 49.9875 187.27 34.0197C187.27 18.0519 174.254 5.10742 158.198 5.10742C142.143 5.10742 129.127 18.0519 129.127 34.0197C129.127 49.9875 142.143 62.932 158.198 62.932Z" fill="#0000FF" stroke="white" stroke-miterlimit="10"/>
<path d="M148.399 66.471C164.454 66.471 177.47 53.5266 177.47 37.5588C177.47 21.591 164.454 8.64648 148.399 8.64648C132.343 8.64648 119.327 21.591 119.327 37.5588C119.327 53.5266 132.343 66.471 148.399 66.471Z" fill="#0000FF" stroke="white" stroke-miterlimit="10"/>
<path d="M138.598 70.0101C154.654 70.0101 167.669 57.0656 167.669 41.0978C167.669 25.13 154.654 12.1855 138.598 12.1855C122.542 12.1855 109.526 25.13 109.526 41.0978C109.526 57.0656 122.542 70.0101 138.598 70.0101Z" fill="#0000FF" stroke="white" stroke-miterlimit="10"/>
<path d="M128.798 73.5511C144.854 73.5511 157.869 60.6066 157.869 44.6388C157.869 28.671 144.854 15.7266 128.798 15.7266C112.742 15.7266 99.7266 28.671 99.7266 44.6388C99.7266 60.6066 112.742 73.5511 128.798 73.5511Z" fill="#0000FF" stroke="white" stroke-miterlimit="10"/>
<path d="M118.998 77.0902C135.054 77.0902 148.07 64.1457 148.07 48.1779C148.07 32.2101 135.054 19.2656 118.998 19.2656C102.942 19.2656 89.9268 32.2101 89.9268 48.1779C89.9268 64.1457 102.942 77.0902 118.998 77.0902Z" fill="#0000FF" stroke="white" stroke-miterlimit="10"/>
<path d="M109.198 80.6292C125.254 80.6292 138.27 67.6848 138.27 51.717C138.27 35.7492 125.254 22.8047 109.198 22.8047C93.1427 22.8047 80.127 35.7492 80.127 51.717C80.127 67.6848 93.1427 80.6292 109.198 80.6292Z" fill="#0000FF" stroke="white" stroke-miterlimit="10"/>
<path d="M99.3986 84.1683C115.454 84.1683 128.47 71.2238 128.47 55.256C128.47 39.2882 115.454 26.3438 99.3986 26.3438C83.3429 26.3438 70.3271 39.2882 70.3271 55.256C70.3271 71.2238 83.3429 84.1683 99.3986 84.1683Z" fill="#0000FF" stroke="white" stroke-miterlimit="10"/>
<path d="M89.5988 87.7074C105.654 87.7074 118.67 74.7629 118.67 58.7951C118.67 42.8273 105.654 29.8828 89.5988 29.8828C73.5431 29.8828 60.5273 42.8273 60.5273 58.7951C60.5273 74.7629 73.5431 87.7074 89.5988 87.7074Z" fill="#0000FF" stroke="white" stroke-miterlimit="10"/>
<path d="M79.799 91.2484C95.8547 91.2484 108.87 78.3039 108.87 62.3361C108.87 46.3683 95.8547 33.4238 79.799 33.4238C63.7433 33.4238 50.7275 46.3683 50.7275 62.3361C50.7275 78.3039 63.7433 91.2484 79.799 91.2484Z" fill="#0000FF" stroke="white" stroke-miterlimit="10"/>
<path d="M69.9992 94.7874C86.0549 94.7874 99.0706 81.843 99.0706 65.8752C99.0706 49.9074 86.0549 36.9629 69.9992 36.9629C53.9435 36.9629 40.9277 49.9074 40.9277 65.8752C40.9277 81.843 53.9435 94.7874 69.9992 94.7874Z" fill="#0000FF" stroke="white" stroke-miterlimit="10"/>
<path d="M60.1994 98.3265C76.2551 98.3265 89.2708 85.382 89.2708 69.4142C89.2708 53.4464 76.2551 40.502 60.1994 40.502C44.1437 40.502 31.1279 53.4464 31.1279 69.4142C31.1279 85.382 44.1437 98.3265 60.1994 98.3265Z" fill="#0000FF" stroke="white" stroke-miterlimit="10"/>
<path d="M50.3996 101.866C66.4553 101.866 79.471 88.9211 79.471 72.9533C79.471 56.9855 66.4553 44.041 50.3996 44.041C34.3439 44.041 21.3281 56.9855 21.3281 72.9533C21.3281 88.9211 34.3439 101.866 50.3996 101.866Z" fill="#0000FF" stroke="white" stroke-miterlimit="10"/>
<path d="M40.5998 105.405C56.6555 105.405 69.6712 92.4602 69.6712 76.4924C69.6712 60.5245 56.6555 47.5801 40.5998 47.5801C24.544 47.5801 11.5283 60.5245 11.5283 76.4924C11.5283 92.4602 24.544 105.405 40.5998 105.405Z" fill="#0000FF" stroke="white" stroke-miterlimit="10"/>
<path d="M30.7999 108.946C46.8557 108.946 59.8714 96.0012 59.8714 80.0334C59.8714 64.0656 46.8557 51.1211 30.7999 51.1211C14.7442 51.1211 1.72852 64.0656 1.72852 80.0334C1.72852 96.0012 14.7442 108.946 30.7999 108.946Z" fill="#0000FF" stroke="white" stroke-miterlimit="10"/>
</g>
<defs>
<clipPath id="clip0_118_1042">
<rect width="374" height="428" fill="white" transform="translate(0.978516 0.822266)"/>
</clipPath>
</defs>
</svg>
