<svg width="342" height="408" viewBox="0 0 342 408" fill="none" xmlns="http://www.w3.org/2000/svg">
<g clip-path="url(#clip0_118_9)">
<path d="M79.7295 224.969L90.687 212.882L90.676 212.582C80.223 202.695 79.4121 186.423 88.6723 175.56L75.8935 164.051C65.8494 173.858 49.874 174.359 39.2282 165.144L27.8682 177.675C38.6198 187.721 39.3184 204.476 29.5041 215.375L41.4506 226.134C51.6509 215.478 68.5753 214.937 79.4391 224.98L79.7295 224.969Z" fill="#0000FF" stroke="white" stroke-width="5" stroke-miterlimit="10"/>
<path d="M85.3936 227.346L96.3511 215.259L96.3401 214.959C85.8871 205.072 85.0762 188.8 94.3363 177.937L81.5575 166.428C71.5135 176.235 55.5381 176.736 44.8922 167.521L33.5322 180.052C44.2839 190.098 44.9824 206.853 35.1682 217.752L47.1146 228.511C57.3149 217.855 74.2393 217.314 85.1031 227.357L85.3936 227.346Z" fill="#0000FF" stroke="white" stroke-width="5" stroke-miterlimit="10"/>
<path d="M91.0577 229.723L102.015 217.636L102.004 217.336C91.5511 207.449 90.7403 191.177 100 180.314L87.2216 168.805C77.1776 178.612 61.2021 179.113 50.5563 169.898L39.1963 182.429C49.9479 192.475 50.6465 209.23 40.8323 220.129L52.7787 230.888C62.979 220.232 79.9034 219.691 90.7672 229.734L91.0577 229.723Z" fill="#0000FF" stroke="white" stroke-width="5" stroke-miterlimit="10"/>
<path d="M96.7217 232.1L107.679 220.013L107.668 219.713C97.2152 209.826 96.4043 193.554 105.664 182.691L92.8857 171.182C82.8416 180.989 66.8662 181.49 56.2204 172.275L44.8604 184.806C55.612 194.852 56.3105 211.607 46.4963 222.506L58.4427 233.265C68.6431 222.609 85.5675 222.068 96.4313 232.111L96.7217 232.1Z" fill="#0000FF" stroke="white" stroke-width="5" stroke-miterlimit="10"/>
<path d="M102.387 234.477L113.344 222.39L113.333 222.09C102.88 212.203 102.069 195.931 111.33 185.068L98.5507 173.559C88.5067 183.366 72.5312 183.867 61.8854 174.652L50.5254 187.183C61.277 197.229 61.9756 213.984 52.1614 224.883L64.1078 235.642C74.3081 224.986 91.2325 224.445 102.096 234.488L102.387 234.477Z" fill="#0000FF" stroke="white" stroke-width="5" stroke-miterlimit="10"/>
<path d="M108.051 236.854L119.008 224.767L118.997 224.467C108.544 214.58 107.733 198.308 116.994 187.445L104.215 175.936C94.1707 185.743 78.1953 186.244 67.5495 177.029L56.1895 189.56C66.9411 199.606 67.6396 216.361 57.8254 227.26L69.7718 238.019C79.9722 227.363 96.8965 226.822 107.76 236.865L108.051 236.854Z" fill="#0000FF" stroke="white" stroke-width="5" stroke-miterlimit="10"/>
<path d="M113.715 239.231L124.672 227.144L124.661 226.844C114.208 216.957 113.397 200.685 122.658 189.822L109.879 178.312C99.8348 188.12 83.8593 188.621 73.2135 179.406L61.8535 191.937C72.6052 201.983 73.3037 218.738 63.4895 229.637L75.4359 240.396C85.6362 229.74 102.561 229.199 113.424 239.242L113.715 239.231Z" fill="#0000FF" stroke="white" stroke-width="5" stroke-miterlimit="10"/>
<path d="M119.379 241.608L130.336 229.521L130.325 229.221C119.872 219.334 119.062 203.062 128.322 192.199L115.543 180.689C105.499 190.497 89.5234 190.998 78.8776 181.783L67.5176 194.314C78.2692 204.36 78.9678 221.115 69.1536 232.014L81.1 242.773C91.3003 232.117 108.225 231.576 119.089 241.619L119.379 241.608Z" fill="#0000FF" stroke="white" stroke-width="5" stroke-miterlimit="10"/>
<path d="M125.043 243.985L136.001 231.898L135.99 231.598C125.537 221.711 124.726 205.439 133.986 194.575L121.207 183.066C111.163 192.874 95.1875 193.375 84.5417 184.16L73.1816 196.691C83.9333 206.737 84.6318 223.492 74.8176 234.39L86.764 245.15C96.9644 234.494 113.889 233.953 124.753 243.996L125.043 243.985Z" fill="#0000FF" stroke="white" stroke-width="5" stroke-miterlimit="10"/>
<path d="M130.707 246.36L141.665 234.273L141.654 233.973C131.201 224.086 130.39 207.814 139.65 196.95L126.871 185.441C116.827 195.249 100.852 195.75 90.2057 186.535L78.8457 199.066C89.5974 209.112 90.2959 225.867 80.4817 236.766L92.4281 247.525C102.628 236.869 119.553 236.328 130.417 246.371L130.707 246.36Z" fill="#0000FF" stroke="white" stroke-width="5" stroke-miterlimit="10"/>
<path d="M136.372 248.737L147.33 236.65L147.319 236.35C136.866 226.463 136.055 210.191 145.315 199.327L132.536 187.818C122.492 197.626 106.517 198.127 95.8708 188.912L84.5107 201.443C95.2624 211.489 95.9609 228.244 86.1467 239.142L98.0931 249.902C108.293 239.246 125.218 238.705 136.082 248.748L136.372 248.737Z" fill="#0000FF" stroke="white" stroke-width="5" stroke-miterlimit="10"/>
<path d="M142.036 251.114L152.994 239.027L152.983 238.726C142.53 228.84 141.719 212.568 150.979 201.704L138.2 190.195C128.156 200.002 112.181 200.504 101.535 191.289L90.1748 203.82C100.926 213.866 101.625 230.621 91.8108 241.519L103.757 252.279C113.958 241.623 130.882 241.082 141.746 251.125L142.036 251.114Z" fill="#0000FF" stroke="white" stroke-width="5" stroke-miterlimit="10"/>
<path d="M147.7 253.491L158.658 241.404L158.647 241.103C148.194 231.217 147.383 214.945 156.643 204.081L143.864 192.572C133.82 202.379 117.845 202.881 107.199 193.666L95.8389 206.197C106.591 216.243 107.289 232.998 97.4748 243.896L109.421 254.656C119.622 244 136.546 243.459 147.41 253.501L147.7 253.491Z" fill="#0000FF" stroke="white" stroke-width="5" stroke-miterlimit="10"/>
<path d="M153.364 255.868L164.322 243.781L164.311 243.48C153.858 233.594 153.047 217.322 162.307 206.458L149.528 194.949C139.484 204.756 123.509 205.257 112.863 196.043L101.503 208.574C112.255 218.62 112.953 235.375 103.139 246.273L115.085 257.033C125.286 246.377 142.21 245.836 153.074 255.878L153.364 255.868Z" fill="#0000FF" stroke="white" stroke-width="5" stroke-miterlimit="10"/>
<path d="M159.028 258.245L169.986 246.158L169.975 245.857C159.522 235.971 158.711 219.698 167.971 208.835L155.192 197.326C145.148 207.133 129.173 207.634 118.527 198.42L107.167 210.951C117.919 220.997 118.617 237.752 108.803 248.65L120.749 259.41C130.95 248.754 147.874 248.213 158.738 258.255L159.028 258.245Z" fill="#0000FF" stroke="white" stroke-width="5" stroke-miterlimit="10"/>
<path d="M164.692 260.622L175.65 248.535L175.639 248.234C165.186 238.348 164.375 222.075 173.635 211.212L160.856 199.703C150.812 209.51 134.837 210.011 124.191 200.797L112.831 213.328C123.583 223.374 124.281 240.129 114.467 251.027L126.413 261.787C136.614 251.131 153.538 250.589 164.402 260.632L164.692 260.622Z" fill="#0000FF" stroke="white" stroke-width="5" stroke-miterlimit="10"/>
<path d="M170.357 262.999L181.315 250.912L181.304 250.611C170.851 240.724 170.04 224.452 179.3 213.589L166.521 202.08C156.477 211.887 140.502 212.388 129.856 203.174L118.496 215.705C129.248 225.751 129.946 242.506 120.132 253.404L132.078 264.164C142.279 253.508 159.203 252.966 170.067 263.009L170.357 262.999Z" fill="#0000FF" stroke="white" stroke-width="5" stroke-miterlimit="10"/>
<path d="M176.022 265.376L186.979 253.289L186.968 252.988C176.515 243.101 175.704 226.829 184.964 215.966L172.185 204.457C162.141 214.264 146.166 214.765 135.52 205.551L124.16 218.082C134.912 228.128 135.61 244.882 125.796 255.781L137.743 266.541C147.943 255.885 164.867 255.343 175.731 265.386L176.022 265.376Z" fill="#0000FF" stroke="white" stroke-width="5" stroke-miterlimit="10"/>
<path d="M181.686 267.753L192.643 255.666L192.632 255.365C182.179 245.478 181.368 229.206 190.628 218.343L177.85 206.834C167.805 216.641 151.83 217.142 141.184 207.928L129.824 220.459C140.576 230.504 141.274 247.259 131.46 258.158L143.407 268.918C153.607 258.262 170.531 257.72 181.395 267.763L181.686 267.753Z" fill="#0000FF" stroke="white" stroke-width="5" stroke-miterlimit="10"/>
<path d="M187.35 270.13L198.307 258.043L198.296 257.742C187.843 247.855 187.032 231.583 196.292 220.72L183.514 209.211C173.47 219.018 157.494 219.519 146.848 210.304L135.488 222.836C146.24 232.881 146.938 249.636 137.124 260.535L149.071 271.294C159.271 260.639 176.195 260.097 187.059 270.14L187.35 270.13Z" fill="#0000FF" stroke="white" stroke-width="5" stroke-miterlimit="10"/>
<path d="M193.014 272.507L203.971 260.419L203.96 260.119C193.507 250.232 192.696 233.96 201.956 223.097L189.178 211.588C179.134 221.395 163.158 221.896 152.512 212.681L141.152 225.212C151.904 235.258 152.603 252.013 142.788 262.912L154.735 273.671C164.935 263.015 181.859 262.474 192.723 272.517L193.014 272.507Z" fill="#0000FF" stroke="white" stroke-width="5" stroke-miterlimit="10"/>
<path d="M198.678 274.883L209.635 262.796L209.624 262.496C199.171 252.609 198.36 236.337 207.621 225.474L194.842 213.965C184.798 223.772 168.822 224.273 158.176 215.058L146.816 227.589C157.568 237.635 158.267 254.39 148.452 265.289L160.399 276.048C170.599 265.392 187.524 264.851 198.387 274.894L198.678 274.883Z" fill="#0000FF" stroke="white" stroke-width="5" stroke-miterlimit="10"/>
<path d="M204.342 277.26L215.299 265.173L215.288 264.873C204.835 254.986 204.024 238.714 213.285 227.851L200.506 216.342C190.462 226.149 174.486 226.65 163.84 217.435L152.48 229.966C163.232 240.012 163.931 256.767 154.116 267.666L166.063 278.425C176.263 267.769 193.188 267.228 204.051 277.271L204.342 277.26Z" fill="#0000FF" stroke="white" stroke-width="5" stroke-miterlimit="10"/>
<path d="M210.007 279.637L220.964 267.55L220.953 267.25C210.5 257.363 209.689 241.091 218.95 230.228L206.171 218.719C196.127 228.526 180.151 229.027 169.506 219.812L158.146 232.343C168.897 242.389 169.596 259.144 159.781 270.043L171.728 280.802C181.928 270.146 198.853 269.605 209.716 279.648L210.007 279.637Z" fill="#0000FF" stroke="white" stroke-width="5" stroke-miterlimit="10"/>
<path d="M215.671 282.012L226.628 269.925L226.617 269.625C216.164 259.738 215.354 243.466 224.614 232.603L211.835 221.094C201.791 230.901 185.815 231.402 175.17 222.187L163.81 234.718C174.561 244.764 175.26 261.519 165.446 272.418L177.392 283.177C187.592 272.521 204.517 271.98 215.38 282.023L215.671 282.012Z" fill="#0000FF" stroke="white" stroke-width="5" stroke-miterlimit="10"/>
<path d="M221.335 284.389L232.293 272.302L232.282 272.002C221.828 262.115 221.018 245.843 230.278 234.98L217.499 223.471C207.455 233.278 191.479 233.779 180.834 224.564L169.474 237.095C180.225 247.141 180.924 263.896 171.11 274.795L183.056 285.554C193.256 274.898 210.181 274.357 221.045 284.4L221.335 284.389Z" fill="#0000FF" stroke="white" stroke-width="5" stroke-miterlimit="10"/>
<path d="M226.999 286.766L237.957 274.679L237.946 274.379C227.493 264.492 226.682 248.22 235.942 237.357L223.163 225.848C213.119 235.655 197.144 236.156 186.498 226.941L175.138 239.472C185.889 249.518 186.588 266.273 176.774 277.172L188.72 287.931C198.92 277.275 215.845 276.734 226.709 286.777L226.999 286.766Z" fill="#0000FF" stroke="white" stroke-width="5" stroke-miterlimit="10"/>
<path d="M232.663 283.403L243.621 271.316L243.61 271.016C233.157 261.129 232.346 244.857 241.606 233.993L228.827 222.484C218.783 232.292 202.808 232.793 192.162 223.578L180.802 236.109C191.553 246.155 192.252 262.91 182.438 273.808L194.384 284.568C204.584 273.912 221.509 273.371 232.373 283.414L232.663 283.403Z" fill="#0000FF" stroke="white" stroke-width="5" stroke-miterlimit="10"/>
<path d="M238.327 280.04L249.285 267.953L249.274 267.652C238.821 257.765 238.01 241.493 247.27 230.63L234.491 219.121C224.447 228.928 208.472 229.429 197.826 220.215L186.466 232.746C197.217 242.792 197.916 259.547 188.102 270.445L200.048 281.205C210.249 270.549 227.173 270.007 238.037 280.05L238.327 280.04Z" fill="#0000FF" stroke="white" stroke-width="5" stroke-miterlimit="10"/>
<path d="M243.992 276.676L254.95 264.589L254.939 264.289C244.486 254.402 243.675 238.13 252.935 227.267L240.156 215.758C230.112 225.565 214.137 226.066 203.491 216.851L192.131 229.382C202.883 239.428 203.581 256.183 193.767 267.082L205.713 277.841C215.914 267.185 232.838 266.644 243.702 276.687L243.992 276.676Z" fill="#0000FF" stroke="white" stroke-width="5" stroke-miterlimit="10"/>
<path d="M249.656 273.311L260.614 261.224L260.603 260.924C250.15 251.037 249.339 234.765 258.599 223.902L245.82 212.393C235.776 222.2 219.801 222.701 209.155 213.486L197.795 226.017C208.547 236.063 209.245 252.818 199.431 263.717L211.377 274.476C221.578 263.82 238.502 263.279 249.366 273.322L249.656 273.311Z" fill="#0000FF" stroke="white" stroke-width="5" stroke-miterlimit="10"/>
<path d="M255.32 269.948L266.278 257.861L266.267 257.56C255.814 247.674 255.003 231.402 264.263 220.538L251.484 209.029C241.44 218.836 225.465 219.338 214.819 210.123L203.459 222.654C214.211 232.7 214.909 249.455 205.095 260.353L217.041 271.113C227.242 260.457 244.166 259.916 255.03 269.958L255.32 269.948Z" fill="#0000FF" stroke="white" stroke-width="5" stroke-miterlimit="10"/>
<path d="M260.984 266.585L271.942 254.498L271.931 254.197C261.478 244.31 260.667 228.038 269.927 217.175L257.148 205.666C247.104 215.473 231.129 215.974 220.483 206.76L209.123 219.291C219.875 229.337 220.573 246.091 210.759 256.99L222.705 267.75C232.906 257.094 249.83 256.552 260.694 266.595L260.984 266.585Z" fill="#0000FF" stroke="white" stroke-width="5" stroke-miterlimit="10"/>
<path d="M266.648 263.221L277.606 251.134L277.595 250.834C267.142 240.947 266.331 224.675 275.591 213.812L262.812 202.303C252.768 212.11 236.793 212.611 226.147 203.396L214.787 215.927C225.539 225.973 226.237 242.728 216.423 253.627L228.369 264.386C238.57 253.73 255.494 253.189 266.358 263.232L266.648 263.221Z" fill="#0000FF" stroke="white" stroke-width="5" stroke-miterlimit="10"/>
<path d="M272.313 259.856L283.27 247.769L283.259 247.469C272.806 237.582 271.995 221.31 281.255 210.447L268.476 198.938C258.432 208.745 242.457 209.246 231.811 200.031L220.451 212.562C231.203 222.608 231.901 239.363 222.087 250.262L234.034 261.021C244.234 250.365 261.158 249.824 272.022 259.867L272.313 259.856Z" fill="#0000FF" stroke="white" stroke-width="5" stroke-miterlimit="10"/>
<path d="M277.978 256.493L288.935 244.406L288.924 244.105C278.471 234.219 277.66 217.947 286.92 207.083L274.142 195.574C264.098 205.381 248.122 205.883 237.476 196.668L226.116 209.199C236.868 219.245 237.566 236 227.752 246.898L239.699 257.658C249.899 247.002 266.823 246.461 277.687 256.503L277.978 256.493Z" fill="#0000FF" stroke="white" stroke-width="5" stroke-miterlimit="10"/>
<path d="M283.642 253.13L294.599 241.043L294.588 240.742C284.135 230.855 283.324 214.583 292.584 203.72L279.806 192.211C269.762 202.018 253.786 202.519 243.14 193.304L231.78 205.836C242.532 215.881 243.23 232.636 233.416 243.535L245.363 254.294C255.563 243.639 272.487 243.097 283.351 253.14L283.642 253.13Z" fill="#0000FF" stroke="white" stroke-width="5" stroke-miterlimit="10"/>
<path d="M289.306 249.766L300.263 237.679L300.252 237.379C289.799 227.492 288.988 211.22 298.248 200.357L285.47 188.848C275.426 198.655 259.45 199.156 248.804 189.941L237.444 202.472C248.196 212.518 248.895 229.273 239.08 240.172L251.027 250.931C261.227 240.275 278.151 239.734 289.015 249.777L289.306 249.766Z" fill="#0000FF" stroke="white" stroke-width="5" stroke-miterlimit="10"/>
<path d="M294.97 246.401L305.927 234.314L305.916 234.014C295.463 224.127 294.652 207.855 303.913 196.991L291.134 185.482C281.09 195.29 265.114 195.791 254.468 186.576L243.108 199.107C253.86 209.153 254.559 225.908 244.744 236.807L256.691 247.566C266.891 236.91 283.815 236.369 294.679 246.412L294.97 246.401Z" fill="#0000FF" stroke="white" stroke-width="5" stroke-miterlimit="10"/>
<path d="M300.634 243.038L311.591 230.951L311.58 230.65C301.127 220.764 300.316 204.491 309.577 193.628L296.798 182.119C286.754 191.926 270.778 192.427 260.132 183.213L248.772 195.744C259.524 205.79 260.223 222.545 250.408 233.443L262.355 244.203C272.555 233.547 289.48 233.005 300.343 243.048L300.634 243.038Z" fill="#0000FF" stroke="white" stroke-width="5" stroke-miterlimit="10"/>
<path d="M306.298 239.674L317.255 227.587L317.244 227.287C306.791 217.4 305.98 201.128 315.241 190.265L302.462 178.756C292.418 188.563 276.442 189.064 265.797 179.849L254.437 192.38C265.188 202.426 265.887 219.181 256.073 230.08L268.019 240.839C278.219 230.183 295.144 229.642 306.007 239.685L306.298 239.674Z" fill="#0000FF" stroke="white" stroke-width="5" stroke-miterlimit="10"/>
<path d="M311.963 236.311L322.92 224.224L322.909 223.924C312.456 214.037 311.646 197.765 320.906 186.902L308.127 175.393C298.083 185.2 282.107 185.701 271.462 176.486L260.102 189.017C270.853 199.063 271.552 215.818 261.738 226.717L273.684 237.476C283.884 226.82 300.809 226.279 311.672 236.322L311.963 236.311Z" fill="#0000FF" stroke="white" stroke-width="5" stroke-miterlimit="10"/>
<path d="M317.627 232.946L328.585 220.859L328.574 220.559C318.12 210.672 317.31 194.4 326.57 183.536L313.791 172.027C303.747 181.835 287.771 182.336 277.126 173.121L265.766 185.652C276.517 195.698 277.216 212.453 267.402 223.351L279.348 234.111C289.548 223.455 306.473 222.914 317.337 232.957L317.627 232.946Z" fill="#0000FF" stroke="white" stroke-width="5" stroke-miterlimit="10"/>
<path d="M323.291 229.583L334.249 217.496L334.238 217.195C323.785 207.308 322.974 191.036 332.234 180.173L319.455 168.664C309.411 178.471 293.436 178.972 282.79 169.758L271.43 182.289C282.181 192.335 282.88 209.09 273.066 219.988L285.012 230.748C295.212 220.092 312.137 219.55 323.001 229.593L323.291 229.583Z" fill="#0000FF" stroke="white" stroke-width="5" stroke-miterlimit="10"/>
<path d="M328.955 226.219L339.913 214.132L339.902 213.832C329.449 203.945 328.638 187.673 337.898 176.81L325.119 165.301C315.075 175.108 299.1 175.609 288.454 166.394L277.094 178.925C287.845 188.971 288.544 205.726 278.73 216.625L290.676 227.384C300.876 216.728 317.801 216.187 328.665 226.23L328.955 226.219Z" fill="#0000FF" stroke="white" stroke-width="5" stroke-miterlimit="10"/>
<path d="M326.379 220.073L337.336 207.986L337.325 207.685C326.872 197.799 326.062 181.527 335.322 170.663L322.543 159.154C312.499 168.961 296.523 169.463 285.878 160.248L274.518 172.779C285.269 182.825 285.968 199.58 276.154 210.478L288.1 221.238C298.3 210.582 315.225 210.041 326.088 220.083L326.379 220.073Z" fill="#0000FF" stroke="white" stroke-width="5" stroke-miterlimit="10"/>
<path d="M323.804 213.926L334.761 201.839L334.75 201.539C324.297 191.652 323.486 175.38 332.747 164.517L319.968 153.008C309.924 162.815 293.948 163.316 283.302 154.101L271.942 166.632C282.694 176.678 283.393 193.433 273.578 204.332L285.525 215.091C295.725 204.435 312.649 203.894 323.513 213.937L323.804 213.926Z" fill="#0000FF" stroke="white" stroke-width="5" stroke-miterlimit="10"/>
<path d="M321.228 207.782L332.185 195.695L332.174 195.394C321.721 185.508 320.91 169.236 330.17 158.372L317.392 146.863C307.348 156.67 291.372 157.172 280.726 147.957L269.366 160.488C280.118 170.534 280.816 187.289 271.002 198.187L282.949 208.947C293.149 198.291 310.073 197.75 320.937 207.792L321.228 207.782Z" fill="#0000FF" stroke="white" stroke-width="5" stroke-miterlimit="10"/>
<path d="M318.651 201.635L329.609 189.548L329.598 189.248C319.145 179.361 318.334 163.089 327.594 152.226L314.815 140.717C304.771 150.524 288.796 151.025 278.15 141.81L266.79 154.341C277.542 164.387 278.24 181.142 268.426 192.041L280.372 202.8C290.573 192.144 307.497 191.603 318.361 201.646L318.651 201.635Z" fill="#0000FF" stroke="white" stroke-width="5" stroke-miterlimit="10"/>
<path d="M316.075 195.489L327.033 183.402L327.022 183.101C316.569 173.215 315.758 156.943 325.018 146.079L312.239 134.57C302.195 144.377 286.22 144.879 275.574 135.664L264.214 148.195C274.966 158.241 275.664 174.996 265.85 185.894L277.796 196.654C287.997 185.998 304.921 185.457 315.785 195.5L316.075 195.489Z" fill="#0000FF" stroke="white" stroke-width="5" stroke-miterlimit="10"/>
<path d="M313.5 189.342L324.458 177.255L324.447 176.955C313.994 167.068 313.183 150.796 322.443 139.933L309.664 128.424C299.62 138.231 283.645 138.732 272.999 129.517L261.639 142.048C272.39 152.094 273.089 168.849 263.275 179.748L275.221 190.507C285.421 179.851 302.346 179.31 313.21 189.353L313.5 189.342Z" fill="#0000FF" stroke="white" stroke-width="5" stroke-miterlimit="10"/>
<path d="M310.924 183.198L321.881 171.111L321.87 170.81C311.417 160.924 310.606 144.652 319.867 133.788L307.088 122.279C297.044 132.086 281.068 132.588 270.423 123.373L259.062 135.904C269.814 145.95 270.513 162.705 260.698 173.603L272.645 184.363C282.845 173.707 299.77 173.166 310.633 183.208L310.924 183.198Z" fill="#0000FF" stroke="white" stroke-width="5" stroke-miterlimit="10"/>
<path d="M308.348 177.051L319.305 164.964L319.294 164.664C308.841 154.777 308.03 138.505 317.29 127.642L304.512 116.133C294.468 125.94 278.492 126.441 267.846 117.226L256.486 129.757C267.238 139.803 267.937 156.558 258.122 167.457L270.069 178.216C280.269 167.56 297.193 167.019 308.057 177.062L308.348 177.051Z" fill="#0000FF" stroke="white" stroke-width="5" stroke-miterlimit="10"/>
<path d="M305.773 170.905L316.73 158.818L316.719 158.517C306.266 148.631 305.455 132.359 314.715 121.495L301.936 109.986C291.892 119.793 275.917 120.295 265.271 111.08L253.911 123.611C264.663 133.657 265.361 150.412 255.547 161.31L267.494 172.07C277.694 161.414 294.618 160.873 305.482 170.916L305.773 170.905Z" fill="#0000FF" stroke="white" stroke-width="5" stroke-miterlimit="10"/>
<path d="M303.196 164.758L314.154 152.671L314.143 152.371C303.69 142.484 302.879 126.212 312.139 115.349L299.36 103.84C289.316 113.647 273.341 114.148 262.695 104.933L251.335 117.464C262.087 127.51 262.785 144.265 252.971 155.164L264.917 165.923C275.118 155.267 292.042 154.726 302.906 164.769L303.196 164.758Z" fill="#0000FF" stroke="white" stroke-width="5" stroke-miterlimit="10"/>
<path d="M294.97 159.073L305.927 146.986L305.916 146.685C295.463 136.799 294.652 120.527 303.913 109.663L291.134 98.1543C281.09 107.961 265.114 108.463 254.468 99.2478L243.108 111.779C253.86 121.825 254.559 138.58 244.744 149.478L256.691 160.238C266.891 149.582 283.815 149.041 294.679 159.084L294.97 159.073Z" fill="#0000FF" stroke="white" stroke-width="5" stroke-miterlimit="10"/>
<path d="M286.743 153.387L297.701 141.3L297.69 141C287.237 131.113 286.426 114.841 295.686 103.978L282.907 92.4688C272.863 102.276 256.888 102.777 246.242 93.5623L234.882 106.093C245.633 116.139 246.332 132.894 236.518 143.793L248.464 154.552C258.665 143.896 275.589 143.355 286.453 153.398L286.743 153.387Z" fill="#0000FF" stroke="white" stroke-width="5" stroke-miterlimit="10"/>
<path d="M278.517 147.7L289.474 135.613L289.463 135.312C279.01 125.426 278.199 109.154 287.459 98.2903L274.681 86.7812C264.637 96.5884 248.661 97.0895 238.015 87.8748L226.655 100.406C237.407 110.452 238.105 127.207 228.291 138.105L240.238 148.865C250.438 138.209 267.362 137.668 278.226 147.71L278.517 147.7Z" fill="#0000FF" stroke="white" stroke-width="5" stroke-miterlimit="10"/>
<path d="M270.29 142.014L281.248 129.927L281.237 129.627C270.784 119.74 269.973 103.468 279.233 92.6048L266.454 81.0957C256.41 90.9029 240.435 91.404 229.789 82.1892L218.429 94.7203C229.18 104.766 229.879 121.521 220.065 132.42L232.011 143.179C242.211 132.523 259.136 131.982 270 142.025L270.29 142.014Z" fill="#0000FF" stroke="white" stroke-width="5" stroke-miterlimit="10"/>
<path d="M262.064 136.329L273.021 124.242L273.01 123.941C262.557 114.055 261.746 97.7825 271.006 86.9192L258.227 75.4102C248.183 85.2173 232.208 85.7184 221.562 76.5037L210.202 89.0348C220.954 99.0807 221.652 115.836 211.838 126.734L223.785 137.494C233.985 126.838 250.909 126.296 261.773 136.339L262.064 136.329Z" fill="#0000FF" stroke="white" stroke-width="5" stroke-miterlimit="10"/>
<path d="M253.837 130.643L264.794 118.556L264.783 118.256C254.33 108.369 253.52 92.0969 262.78 81.2337L250.001 69.7246C239.957 79.5318 223.981 80.0329 213.336 70.8181L201.976 83.3492C212.727 93.3951 213.426 110.15 203.612 121.049L215.558 131.808C225.758 121.152 242.683 120.611 253.547 130.654L253.837 130.643Z" fill="#0000FF" stroke="white" stroke-width="5" stroke-miterlimit="10"/>
<path d="M245.61 124.956L256.568 112.869L256.557 112.568C246.104 102.681 245.293 86.4094 254.553 75.5462L241.774 64.0371C231.73 73.8443 215.755 74.3454 205.109 65.1306L193.749 77.6617C204.501 87.7076 205.199 104.463 195.385 115.361L207.331 126.121C217.532 115.465 234.456 114.923 245.32 124.966L245.61 124.956Z" fill="#0000FF" stroke="white" stroke-width="5" stroke-miterlimit="10"/>
<path d="M237.385 119.27L248.342 107.183L248.331 106.883C237.878 96.9959 237.067 80.7239 246.328 69.8606L233.549 58.3516C223.505 68.1587 207.529 68.6598 196.883 59.4451L185.523 71.9762C196.275 82.0221 196.974 98.777 187.159 109.676L199.106 120.435C209.306 109.779 226.231 109.238 237.094 119.281L237.385 119.27Z" fill="#0000FF" stroke="white" stroke-width="5" stroke-miterlimit="10"/>
<path d="M229.158 113.585L240.116 101.498L240.105 101.197C229.652 91.3104 228.841 75.0383 238.101 64.1751L225.322 52.666C215.278 62.4732 199.303 62.9743 188.657 53.7595L177.297 66.2906C188.049 76.3365 188.747 93.0915 178.933 103.99L190.879 114.75C201.08 104.094 218.004 103.552 228.868 113.595L229.158 113.585Z" fill="#0000FF" stroke="white" stroke-width="5" stroke-miterlimit="10"/>
<path d="M220.932 107.899L231.889 95.812L231.878 95.5116C221.425 85.6249 220.614 69.3528 229.874 58.4895L217.096 46.9805C207.052 56.7876 191.076 57.2887 180.43 48.074L169.07 60.6051C179.822 70.651 180.521 87.4059 170.706 98.3046L182.653 109.064C192.853 98.4081 209.777 97.8668 220.641 107.91L220.932 107.899Z" fill="#0000FF" stroke="white" stroke-width="5" stroke-miterlimit="10"/>
<path d="M212.705 102.212L223.663 90.1245L223.652 89.8241C213.199 79.9373 212.388 63.6653 221.648 52.802L208.869 41.293C198.825 51.1001 182.85 51.6012 172.204 42.3865L160.844 54.9176C171.595 64.9635 172.294 81.7184 162.48 92.6171L174.426 103.376C184.626 92.7206 201.551 92.1793 212.415 102.222L212.705 102.212Z" fill="#0000FF" stroke="white" stroke-width="5" stroke-miterlimit="10"/>
<path d="M204.479 96.526L215.436 84.439L215.425 84.1386C204.972 74.2518 204.161 57.9797 213.421 47.1165L200.643 35.6074C190.598 45.4146 174.623 45.9157 163.977 36.7009L152.617 49.232C163.369 59.2779 164.067 76.0329 154.253 86.9315L166.2 97.6909C176.4 87.035 193.324 86.4937 204.188 96.5366L204.479 96.526Z" fill="#0000FF" stroke="white" stroke-width="5" stroke-miterlimit="10"/>
<path d="M196.252 90.8405L207.21 78.7534L207.199 78.453C196.745 68.5663 195.935 52.2942 205.195 41.431L192.416 29.9219C182.372 39.729 166.396 40.2302 155.751 31.0154L144.391 43.5465C155.142 53.5924 155.841 70.3474 146.027 81.246L157.973 92.0054C168.173 81.3495 185.098 80.8082 195.962 90.8511L196.252 90.8405Z" fill="#0000FF" stroke="white" stroke-width="5" stroke-miterlimit="10"/>
<path d="M188.025 85.153L198.983 73.0659L198.972 72.7655C188.519 62.8788 187.708 46.6067 196.968 35.7435L184.189 24.2344C174.145 34.0415 158.17 34.5427 147.524 25.3279L136.164 37.859C146.916 47.9049 147.614 64.6599 137.8 75.5585L149.746 86.3179C159.947 75.662 176.871 75.1207 187.735 85.1636L188.025 85.153Z" fill="#0000FF" stroke="white" stroke-width="5" stroke-miterlimit="10"/>
<path d="M179.799 79.4674L190.756 67.3804L190.745 67.08C180.292 57.1932 179.481 40.9211 188.742 30.0579L175.963 18.5488C165.919 28.356 149.943 28.8571 139.298 19.6423L127.938 32.1734C138.689 42.2193 139.388 58.9743 129.573 69.8729L141.52 80.6323C151.72 69.9764 168.645 69.4352 179.508 79.478L179.799 79.4674Z" fill="#0000FF" stroke="white" stroke-width="5" stroke-miterlimit="10"/>
<path d="M171.572 73.7819L182.53 61.6949L182.519 61.3944C172.066 51.5077 171.255 35.2356 180.515 24.3724L167.736 12.8633C157.692 22.6704 141.717 23.1716 131.071 13.9568L119.711 26.4879C130.463 36.5338 131.161 53.2888 121.347 64.1874L133.293 74.9468C143.494 64.2909 160.418 63.7496 171.282 73.7925L171.572 73.7819Z" fill="#0000FF" stroke="white" stroke-width="5" stroke-miterlimit="10"/>
<path d="M163.346 68.0963L174.303 56.0093L174.292 55.7089C163.839 45.8221 163.028 29.5501 172.288 18.6868L159.51 7.17773C149.466 16.9849 133.49 17.486 122.844 8.27126L111.484 20.8023C122.236 30.8482 122.935 47.6032 113.12 58.5018L125.067 69.2612C135.267 58.6053 152.191 58.0641 163.055 68.1069L163.346 68.0963Z" fill="#0000FF" stroke="white" stroke-width="5" stroke-miterlimit="10"/>
<path d="M155.119 62.4088L166.077 50.3218L166.066 50.0214C155.613 40.1346 154.802 23.8626 164.062 12.9993L151.283 1.49023C141.239 11.2974 125.264 11.7985 114.618 2.58376L103.258 15.1148C114.009 25.1607 114.708 41.9157 104.894 52.8143L116.84 63.5737C127.041 52.9178 143.965 52.3766 154.829 62.4194L155.119 62.4088Z" fill="#0000FF" stroke="white" stroke-width="5" stroke-miterlimit="10"/>
<path d="M150.275 65.485L161.233 53.398L161.222 53.0976C150.769 43.2108 149.958 26.9387 159.218 16.0755L146.439 4.56641C136.395 14.3736 120.42 14.8747 109.774 5.65993L98.4141 18.191C109.166 28.2369 109.864 44.9919 100.05 55.8905L111.996 66.6499C122.197 55.994 139.121 55.4527 149.985 65.4956L150.275 65.485Z" fill="#0000FF" stroke="white" stroke-width="5" stroke-miterlimit="10"/>
<path d="M145.433 68.5592L156.39 56.4722L156.379 56.1718C145.926 46.285 145.115 30.0129 154.375 19.1497L141.597 7.64062C131.553 17.4478 115.577 17.9489 104.931 8.73415L93.5713 21.2652C104.323 31.3111 105.021 48.0661 95.2073 58.9647L107.154 69.7241C117.354 59.0682 134.278 58.5269 145.142 68.5698L145.433 68.5592Z" fill="#0000FF" stroke="white" stroke-width="5" stroke-miterlimit="10"/>
<path d="M140.589 71.6335L151.546 59.5464L151.535 59.246C141.082 49.3592 140.272 33.0872 149.532 22.2239L136.753 10.7148C126.709 20.522 110.733 21.0231 100.088 11.8084L88.7275 24.3394C99.4792 34.3854 100.178 51.1403 90.3635 62.0389L102.31 72.7984C112.51 62.1424 129.435 61.6012 140.298 71.644L140.589 71.6335Z" fill="#0000FF" stroke="white" stroke-width="5" stroke-miterlimit="10"/>
<path d="M135.745 74.7096L146.703 62.6226L146.692 62.3222C136.239 52.4354 135.428 36.1633 144.688 25.3001L131.909 13.791C121.865 23.5982 105.89 24.0993 95.2438 14.8845L83.8838 27.4156C94.6354 37.4615 95.334 54.2165 85.5198 65.1151L97.4662 75.8745C107.667 65.2186 124.591 64.6773 135.455 74.7202L135.745 74.7096Z" fill="#0000FF" stroke="white" stroke-width="5" stroke-miterlimit="10"/>
<path d="M130.901 77.7838L141.859 65.6968L141.848 65.3964C131.395 55.5096 130.584 39.2376 139.844 28.3743L127.065 16.8652C117.021 26.6724 101.046 27.1735 90.4001 17.9588L79.04 30.4898C89.7917 40.5357 90.4902 57.2907 80.676 68.1893L92.6224 78.9487C102.823 68.2928 119.747 67.7516 130.611 77.7944L130.901 77.7838Z" fill="#0000FF" stroke="white" stroke-width="5" stroke-miterlimit="10"/>
<path d="M126.058 80.8581L137.015 68.771L137.004 68.4706C126.551 58.5838 125.74 42.3118 135 31.4485L122.222 19.9395C112.178 29.7466 96.2021 30.2477 85.5563 21.033L74.1963 33.564C84.9479 43.61 85.6465 60.3649 75.8323 71.2635L87.7787 82.023C97.979 71.3671 114.903 70.8258 125.767 80.8687L126.058 80.8581Z" fill="#0000FF" stroke="white" stroke-width="5" stroke-miterlimit="10"/>
<path d="M121.215 83.9323L132.172 71.8452L132.161 71.5448C121.708 61.6581 120.897 45.386 130.158 34.5227L117.379 23.0137C107.335 32.8208 91.3594 33.3219 80.7135 24.1072L69.3535 36.6383C80.1052 46.6842 80.8037 63.4391 70.9895 74.3378L82.9359 85.0972C93.1362 74.4413 110.061 73.9 120.924 83.9429L121.215 83.9323Z" fill="#0000FF" stroke="white" stroke-width="5" stroke-miterlimit="10"/>
<path d="M116.371 87.0085L127.329 74.9214L127.318 74.621C116.865 64.7342 116.054 48.4622 125.314 37.5989L112.535 26.0898C102.491 35.897 86.5156 36.3981 75.8698 27.1834L64.5098 39.7144C75.2614 49.7604 75.96 66.5153 66.1457 77.4139L78.0922 88.1734C88.2925 77.5174 105.217 76.9762 116.081 87.019L116.371 87.0085Z" fill="#0000FF" stroke="white" stroke-width="5" stroke-miterlimit="10"/>
<path d="M111.527 90.0827L122.485 77.9956L122.474 77.6952C112.021 67.8084 111.21 51.5364 120.47 40.6731L107.691 29.1641C97.6473 38.9712 81.6719 39.4723 71.026 30.2576L59.666 42.7887C70.4177 52.8346 71.1162 69.5895 61.302 80.4882L73.2484 91.2476C83.4487 80.5917 100.373 80.0504 111.237 90.0933L111.527 90.0827Z" fill="#0000FF" stroke="white" stroke-width="5" stroke-miterlimit="10"/>
<path d="M106.684 93.1569L117.641 81.0699L117.63 80.7694C107.177 70.8827 106.366 54.6106 115.626 43.7474L102.848 32.2383C92.8035 42.0454 76.8281 42.5466 66.1823 33.3318L54.8223 45.8629C65.5739 55.9088 66.2725 72.6638 56.4582 83.5624L68.4047 94.3218C78.605 83.6659 95.5294 83.1246 106.393 93.1675L106.684 93.1569Z" fill="#0000FF" stroke="white" stroke-width="5" stroke-miterlimit="10"/>
<path d="M101.84 96.2331L112.797 84.146L112.786 83.8456C102.333 73.9588 101.522 57.6868 110.783 46.8235L98.0038 35.3145C87.9598 45.1216 71.9844 45.6227 61.3385 36.408L49.9785 48.939C60.7302 58.985 61.4287 75.7399 51.6145 86.6385L63.5609 97.398C73.7612 86.7421 90.6856 86.2008 101.549 96.2436L101.84 96.2331Z" fill="#0000FF" stroke="white" stroke-width="5" stroke-miterlimit="10"/>
<path d="M96.9971 99.3073L107.955 87.2202L107.944 86.9198C97.4906 77.0331 96.6797 60.761 105.94 49.8977L93.1611 38.3887C83.117 48.1958 67.1416 48.6969 56.4958 39.4822L45.1357 52.0133C55.8874 62.0592 56.5859 78.8141 46.7717 89.7128L58.7181 100.472C68.9185 89.8163 85.8428 89.275 96.7067 99.3179L96.9971 99.3073Z" fill="#0000FF" stroke="white" stroke-width="5" stroke-miterlimit="10"/>
<path d="M92.1534 102.382L103.111 90.2945L103.1 89.994C92.6469 80.1073 91.836 63.8352 101.096 52.972L88.3173 41.4629C78.2733 51.2701 62.2978 51.7712 51.652 42.5564L40.292 55.0875C51.0436 65.1334 51.7422 81.8884 41.928 92.787L53.8744 103.546C64.0747 92.8905 80.9991 92.3492 91.8629 102.392L92.1534 102.382Z" fill="#0000FF" stroke="white" stroke-width="5" stroke-miterlimit="10"/>
<path d="M87.3096 105.458L98.2671 93.3706L98.2561 93.0702C87.8031 83.1834 86.9922 66.9114 96.2524 56.0481L83.4736 44.5391C73.4295 54.3462 57.4541 54.8473 46.8083 45.6326L35.4482 58.1637C46.1999 68.2096 46.8984 84.9645 37.0842 95.8632L49.0306 106.623C59.231 95.9667 76.1553 95.4254 87.0192 105.468L87.3096 105.458Z" fill="#0000FF" stroke="white" stroke-width="5" stroke-miterlimit="10"/>
<path d="M82.4659 108.532L93.4234 96.4449L93.4124 96.1444C82.9594 86.2577 82.1485 69.9856 91.4086 59.1224L78.6298 47.6133C68.5858 57.4204 52.6103 57.9216 41.9645 48.7068L30.6045 61.2379C41.3561 71.2838 42.0547 88.0388 32.2405 98.9374L44.1869 109.697C54.3872 99.0409 71.3116 98.4996 82.1754 108.542L82.4659 108.532Z" fill="#0000FF" stroke="white" stroke-width="5" stroke-miterlimit="10"/>
<path d="M77.6221 111.606L88.5796 99.5191L88.5686 99.2187C78.1156 89.3319 77.3047 73.0598 86.5649 62.1966L73.7861 50.6875C63.742 60.4947 47.7666 60.9958 37.1208 51.781L25.7607 64.3121C36.5124 74.358 37.2109 91.113 27.3967 102.012L39.3431 112.771C49.5435 102.115 66.4678 101.574 77.3317 111.617L77.6221 111.606Z" fill="#0000FF" stroke="white" stroke-width="5" stroke-miterlimit="10"/>
<path d="M72.7784 114.682L83.7359 102.595L83.7249 102.295C73.2719 92.4081 72.461 76.136 81.7211 65.2727L68.9423 53.7637C58.8983 63.5708 42.9228 64.0719 32.277 54.8572L20.917 67.3883C31.6686 77.4342 32.3672 94.1891 22.553 105.088L34.4994 115.847C44.6997 105.191 61.6241 104.65 72.4879 114.693L72.7784 114.682Z" fill="#0000FF" stroke="white" stroke-width="5" stroke-miterlimit="10"/>
<path d="M67.9356 117.757L78.8931 105.669L78.8821 105.369C68.4291 95.4823 67.6182 79.2102 76.8783 68.347L64.0995 56.8379C54.0555 66.6451 38.0801 67.1462 27.4342 57.9314L16.0742 70.4625C26.8259 80.5084 27.5244 97.2634 17.7102 108.162L29.6566 118.921C39.8569 108.265 56.7813 107.724 67.6451 117.767L67.9356 117.757Z" fill="#0000FF" stroke="white" stroke-width="5" stroke-miterlimit="10"/>
<path d="M63.0919 120.831L74.0494 108.744L74.0384 108.443C63.5853 98.5565 62.7744 82.2844 72.0346 71.4212L59.2558 59.9121C49.2117 69.7193 33.2363 70.2204 22.5905 61.0056L11.2305 73.5367C21.9821 83.5826 22.6807 100.338 12.8664 111.236L24.8129 121.996C35.0132 111.34 51.9376 110.798 62.8014 120.841L63.0919 120.831Z" fill="#0000FF" stroke="white" stroke-width="5" stroke-miterlimit="10"/>
<path d="M58.2481 123.905L69.2056 111.818L69.1946 111.517C58.7416 101.631 57.9307 85.3586 67.1908 74.4954L54.412 62.9863C44.368 72.7935 28.3926 73.2946 17.7467 64.0799L6.38672 76.6109C17.1384 86.6568 17.8369 103.412 8.02269 114.31L19.9691 125.07C30.1694 114.414 47.0938 113.873 57.9576 123.916L58.2481 123.905Z" fill="#0000FF" stroke="white" stroke-width="5" stroke-miterlimit="10"/>
<path d="M53.4044 126.981L64.3619 114.894L64.3509 114.594C53.8978 104.707 53.0869 88.4348 62.3471 77.5716L49.5683 66.0625C39.5242 75.8697 23.5488 76.3708 12.903 67.156L1.54297 79.6871C12.2946 89.733 12.9932 106.488 3.17894 117.387L15.1254 128.146C25.3257 117.49 42.2501 116.949 53.1139 126.992L53.4044 126.981Z" fill="#0000FF" stroke="white" stroke-width="5" stroke-miterlimit="10"/>
<path d="M53.9844 133.424L64.9419 121.337L64.9309 121.037C54.4779 111.15 53.667 94.8782 62.9272 84.0149L50.1484 72.5059C40.1043 82.313 24.1289 82.8141 13.4831 73.5994L2.12305 86.1305C12.8747 96.1764 13.5732 112.931 3.75902 123.83L15.7054 134.589C25.9058 123.933 42.8301 123.392 53.694 133.435L53.9844 133.424Z" fill="#0000FF" stroke="white" stroke-width="5" stroke-miterlimit="10"/>
<path d="M54.5635 139.868L65.521 127.781L65.51 127.48C55.057 117.594 54.2461 101.322 63.5063 90.4583L50.7275 78.9492C40.6834 88.7564 24.708 89.2575 14.0622 80.0427L2.70215 92.5738C13.4538 102.62 14.1523 119.375 4.33812 130.273L16.2845 141.033C26.4849 130.377 43.4092 129.836 54.2731 139.878L54.5635 139.868Z" fill="#0000FF" stroke="white" stroke-width="5" stroke-miterlimit="10"/>
<path d="M55.1436 146.309L66.1011 134.222L66.0901 133.922C55.6371 124.035 54.8262 107.763 64.0863 96.8997L51.3075 85.3906C41.2635 95.1978 25.2881 95.6989 14.6422 86.4841L3.28223 99.0152C14.0339 109.061 14.7324 125.816 4.9182 136.715L16.8646 147.474C27.0649 136.818 43.9893 136.277 54.8531 146.32L55.1436 146.309Z" fill="#0000FF" stroke="white" stroke-width="5" stroke-miterlimit="10"/>
<path d="M55.7237 152.753L66.6812 140.666L66.6702 140.365C56.2172 130.478 55.4063 114.206 64.6664 103.343L51.8876 91.834C41.8436 101.641 25.8681 102.142 15.2223 92.9275L3.8623 105.459C14.614 115.504 15.3125 132.259 5.49828 143.158L17.4447 153.917C27.645 143.262 44.5694 142.72 55.4332 152.763L55.7237 152.753Z" fill="#0000FF" stroke="white" stroke-width="5" stroke-miterlimit="10"/>
<path d="M56.3028 159.196L67.2603 147.109L67.2493 146.808C56.7963 136.922 55.9854 120.65 65.2455 109.786L52.4667 98.2773C42.4227 108.085 26.4472 108.586 15.8014 99.3709L4.44141 111.902C15.1931 121.948 15.8916 138.703 6.07738 149.601L18.0238 160.361C28.2241 149.705 45.1485 149.164 56.0123 159.207L56.3028 159.196Z" fill="#0000FF" stroke="white" stroke-width="5" stroke-miterlimit="10"/>
<path d="M56.8829 165.639L67.8404 153.552L67.8294 153.252C57.3763 143.365 56.5654 127.093 65.8256 116.23L53.0468 104.721C43.0028 114.528 27.0273 115.029 16.3815 105.814L5.02148 118.345C15.7731 128.391 16.4717 145.146 6.65745 156.045L18.6039 166.804C28.8042 156.148 45.7286 155.607 56.5924 165.65L56.8829 165.639Z" fill="#0000FF" stroke="white" stroke-width="5" stroke-miterlimit="10"/>
<path d="M57.4629 172.083L68.4204 159.996L68.4094 159.695C57.9564 149.808 57.1455 133.536 66.4057 122.673L53.6269 111.164C43.5828 120.971 27.6074 121.472 16.9616 112.258L5.60156 124.789C16.3532 134.835 17.0518 151.59 7.23753 162.488L19.184 173.248C29.3843 162.592 46.3087 162.05 57.1725 172.093L57.4629 172.083Z" fill="#0000FF" stroke="white" stroke-width="5" stroke-miterlimit="10"/>
<path d="M58.042 178.526L68.9995 166.439L68.9886 166.139C58.5355 156.252 57.7246 139.98 66.9848 129.116L54.206 117.607C44.1619 127.415 28.1865 127.916 17.5407 118.701L6.18066 131.232C16.9323 141.278 17.6309 158.033 7.81663 168.932L19.7631 179.691C29.9634 169.035 46.8878 168.494 57.7516 178.537L58.042 178.526Z" fill="#0000FF" stroke="white" stroke-width="5" stroke-miterlimit="10"/>
<path d="M58.6221 184.969L69.5796 172.882L69.5686 172.582C59.1156 162.695 58.3047 146.423 67.5649 135.56L54.7861 124.051C44.742 133.858 28.7666 134.359 18.1208 125.144L6.76074 137.675C17.5124 147.721 18.2109 164.476 8.39671 175.375L20.3431 186.134C30.5435 175.478 47.4678 174.937 58.3317 184.98L58.6221 184.969Z" fill="#0000FF" stroke="white" stroke-width="5" stroke-miterlimit="10"/>
<path d="M59.2012 191.413L70.1587 179.326L70.1477 179.025C59.6947 169.139 58.8838 152.866 68.144 142.003L55.3652 130.494C45.3211 140.301 29.3457 140.802 18.6999 131.588L7.33984 144.119C18.0915 154.165 18.79 170.92 8.97581 181.818L20.9222 192.578C31.1226 181.922 48.0469 181.38 58.9108 191.423L59.2012 191.413Z" fill="#0000FF" stroke="white" stroke-width="5" stroke-miterlimit="10"/>
<path d="M59.7813 197.856L70.7388 185.769L70.7278 185.469C60.2748 175.582 59.4639 159.31 68.724 148.447L55.9452 136.938C45.9012 146.745 29.9258 147.246 19.2799 138.031L7.91992 150.562C18.6716 160.608 19.3701 177.363 9.55589 188.262L21.5023 199.021C31.7026 188.365 48.627 187.824 59.4908 197.867L59.7813 197.856Z" fill="#0000FF" stroke="white" stroke-width="5" stroke-miterlimit="10"/>
<path d="M60.3614 204.299L71.3189 192.212L71.3079 191.912C60.8549 182.025 60.044 165.753 69.3041 154.89L56.5253 143.381C46.4813 153.188 30.5058 153.689 19.86 144.474L8.5 157.005C19.2516 167.051 19.9502 183.806 10.136 194.705L22.0824 205.464C32.2827 194.808 49.2071 194.267 60.0709 204.31L60.3614 204.299Z" fill="#0000FF" stroke="white" stroke-width="5" stroke-miterlimit="10"/>
<path d="M60.9405 210.741L71.898 198.654L71.887 198.353C61.434 188.467 60.6231 172.195 69.8832 161.331L57.1044 149.822C47.0604 159.629 31.0849 160.131 20.4391 150.916L9.0791 163.447C19.8307 173.493 20.5293 190.248 10.7151 201.146L22.6615 211.906C32.8618 201.25 49.7862 200.709 60.65 210.751L60.9405 210.741Z" fill="#0000FF" stroke="white" stroke-width="5" stroke-miterlimit="10"/>
<path d="M61.5206 217.184L72.4781 205.097L72.4671 204.797C62.014 194.91 61.2031 178.638 70.4633 167.775L57.6845 156.266C47.6405 166.073 31.665 166.574 21.0192 157.359L9.65918 169.89C20.4108 179.936 21.1094 196.691 11.2952 207.59L23.2416 218.349C33.4419 207.693 50.3663 207.152 61.2301 217.195L61.5206 217.184Z" fill="#0000FF" stroke="white" stroke-width="5" stroke-miterlimit="10"/>
<path d="M62.1006 223.628L73.0581 211.541L73.0471 211.24C62.5941 201.353 61.7832 185.081 71.0434 174.218L58.2646 162.709C48.2205 172.516 32.2451 173.017 21.5993 163.803L10.2393 176.334C20.9909 186.379 21.6895 203.134 11.8752 214.033L23.8216 224.792C34.022 214.137 50.9464 213.595 61.8102 223.638L62.1006 223.628Z" fill="#0000FF" stroke="white" stroke-width="5" stroke-miterlimit="10"/>
<path d="M62.6797 230.071L73.6372 217.984L73.6262 217.683C63.1732 207.797 62.3623 191.525 71.6225 180.661L58.8437 169.152C48.7996 178.96 32.8242 179.461 22.1784 170.246L10.8184 182.777C21.57 192.823 22.2686 209.578 12.4543 220.476L24.4007 231.236C34.6011 220.58 51.5255 220.039 62.3893 230.082L62.6797 230.071Z" fill="#0000FF" stroke="white" stroke-width="5" stroke-miterlimit="10"/>
<path d="M63.2598 236.514L74.2173 224.427L74.2063 224.127C63.7533 214.24 62.9424 197.968 72.2026 187.105L59.4238 175.596C49.3797 185.403 33.4043 185.904 22.7585 176.689L11.3984 189.22C22.1501 199.266 22.8486 216.021 13.0344 226.92L24.9808 237.679C35.1812 227.023 52.1055 226.482 62.9694 236.525L63.2598 236.514Z" fill="#0000FF" stroke="white" stroke-width="5" stroke-miterlimit="10"/>
<path d="M63.8389 242.958L74.7964 230.871L74.7854 230.57C64.3324 220.683 63.5215 204.411 72.7817 193.548L60.0029 182.039C49.9588 191.846 33.9834 192.347 23.3376 183.133L11.9775 195.664C22.7292 205.71 23.4277 222.465 13.6135 233.363L25.5599 244.123C35.7603 233.467 52.6846 232.925 63.5485 242.968L63.8389 242.958Z" fill="#0000FF" stroke="white" stroke-width="5" stroke-miterlimit="10"/>
<path d="M64.419 249.401L75.3765 237.314L75.3655 237.014C64.9125 227.127 64.1016 210.855 73.3617 199.991L60.5829 188.482C50.5389 198.29 34.5635 198.791 23.9176 189.576L12.5576 202.107C23.3093 212.153 24.0078 228.908 14.1936 239.807L26.14 250.566C36.3403 239.91 53.2647 239.369 64.1285 249.412L64.419 249.401Z" fill="#0000FF" stroke="white" stroke-width="5" stroke-miterlimit="10"/>
<path d="M64.9991 255.844L75.9566 243.757L75.9456 243.457C65.4926 233.57 64.6817 217.298 73.9418 206.435L61.163 194.926C51.119 204.733 35.1435 205.234 24.4977 196.019L13.1377 208.55C23.8893 218.596 24.5879 235.351 14.7737 246.25L26.7201 257.009C36.9204 246.353 53.8448 245.812 64.7086 255.855L64.9991 255.844Z" fill="#0000FF" stroke="white" stroke-width="5" stroke-miterlimit="10"/>
<path d="M65.5782 262.288L76.5357 250.201L76.5247 249.9C66.0717 240.014 65.2608 223.741 74.5209 212.878L61.7421 201.369C51.6981 211.176 35.7226 211.677 25.0768 202.463L13.7168 214.994C24.4684 225.04 25.167 241.795 15.3528 252.693L27.2992 263.453C37.4995 252.797 54.4239 252.255 65.2877 262.298L65.5782 262.288Z" fill="#0000FF" stroke="white" stroke-width="5" stroke-miterlimit="10"/>
<path d="M66.1583 268.731L77.1158 256.644L77.1048 256.344C66.6517 246.457 65.8408 230.185 75.101 219.322L62.3222 207.812C52.2782 217.62 36.3027 218.121 25.6569 208.906L14.2969 221.437C25.0485 231.483 25.7471 248.238 15.9328 259.137L27.8793 269.896C38.0796 259.24 55.004 258.699 65.8678 268.742L66.1583 268.731Z" fill="#0000FF" stroke="white" stroke-width="5" stroke-miterlimit="10"/>
<path d="M66.7383 275.174L77.6958 263.087L77.6848 262.787C67.2318 252.9 66.4209 236.628 75.6811 225.765L62.9023 214.256C52.8582 224.063 36.8828 224.564 26.237 215.349L14.877 227.88C25.6286 237.926 26.3271 254.681 16.5129 265.58L28.4593 276.339C38.6597 265.683 55.584 265.142 66.4479 275.185L66.7383 275.174Z" fill="#0000FF" stroke="white" stroke-width="5" stroke-miterlimit="10"/>
<path d="M67.3174 281.616L78.2749 269.529L78.2639 269.228C67.8109 259.342 67 243.07 76.2602 232.206L63.4814 220.697C53.4373 230.504 37.4619 231.006 26.8161 221.791L15.4561 234.322C26.2077 244.368 26.9062 261.123 17.092 272.021L29.0384 282.781C39.2388 272.125 56.1632 271.584 67.027 281.626L67.3174 281.616Z" fill="#0000FF" stroke="white" stroke-width="5" stroke-miterlimit="10"/>
<path d="M67.8975 288.059L78.855 275.972L78.844 275.672C68.391 265.785 67.5801 249.513 76.8403 238.65L64.0615 227.141C54.0174 236.948 38.042 237.449 27.3962 228.234L16.0361 240.765C26.7878 250.811 27.4863 267.566 17.6721 278.465L29.6185 289.224C39.8189 278.568 56.7432 278.027 67.6071 288.07L67.8975 288.059Z" fill="#0000FF" stroke="white" stroke-width="5" stroke-miterlimit="10"/>
<path d="M68.4766 294.503L79.4341 282.416L79.4231 282.115C68.9701 272.228 68.1592 255.956 77.4194 245.093L64.6406 233.584C54.5965 243.391 38.6211 243.892 27.9753 234.678L16.6152 247.209C27.3669 257.255 28.0654 274.009 18.2512 284.908L30.1976 295.667C40.398 285.012 57.3223 284.47 68.1862 294.513L68.4766 294.503Z" fill="#0000FF" stroke="white" stroke-width="5" stroke-miterlimit="10"/>
<path d="M69.0567 300.946L80.0142 288.859L80.0032 288.558C69.5502 278.672 68.7393 262.4 77.9994 251.536L65.2206 240.027C55.1766 249.835 39.2012 250.336 28.5553 241.121L17.1953 253.652C27.947 263.698 28.6455 280.453 18.8313 291.351L30.7777 302.111C40.978 291.455 57.9024 290.914 68.7662 300.957L69.0567 300.946Z" fill="#0000FF" stroke="white" stroke-width="5" stroke-miterlimit="10"/>
<path d="M69.6368 307.389L80.5943 295.302L80.5833 295.002C70.1302 285.115 69.3194 268.843 78.5795 257.98L65.8007 246.471C55.7567 256.278 39.7812 256.779 29.1354 247.564L17.7754 260.095C28.527 270.141 29.2256 286.896 19.4114 297.795L31.3578 308.554C41.5581 297.898 58.4825 297.357 69.3463 307.4L69.6368 307.389Z" fill="#0000FF" stroke="white" stroke-width="5" stroke-miterlimit="10"/>
<path d="M70.2159 313.833L81.1734 301.746L81.1624 301.445C70.7094 291.558 69.8985 275.286 79.1586 264.423L66.3798 252.914C56.3358 262.721 40.3603 263.222 29.7145 254.008L18.3545 266.539C29.1061 276.585 29.8047 293.34 19.9905 304.238L31.9369 314.998C42.1372 304.342 59.0616 303.8 69.9254 313.843L70.2159 313.833Z" fill="#0000FF" stroke="white" stroke-width="5" stroke-miterlimit="10"/>
<path d="M70.796 320.276L81.7535 308.189L81.7425 307.889C71.2894 298.002 70.4785 281.73 79.7387 270.867L66.9599 259.357C56.9158 269.165 40.9404 269.666 30.2946 260.451L18.9346 272.982C29.6862 283.028 30.3848 299.783 20.5705 310.682L32.517 321.441C42.7173 310.785 59.6417 310.244 70.5055 320.287L70.796 320.276Z" fill="#0000FF" stroke="white" stroke-width="5" stroke-miterlimit="10"/>
<path d="M71.376 326.719L82.3335 314.632L82.3225 314.332C71.8695 304.445 71.0586 288.173 80.3188 277.31L67.54 265.801C57.4959 275.608 41.5205 276.109 30.8747 266.894L19.5146 279.425C30.2663 289.471 30.9648 306.226 21.1506 317.125L33.097 327.884C43.2974 317.228 60.2217 316.687 71.0856 326.73L71.376 326.719Z" fill="#0000FF" stroke="white" stroke-width="5" stroke-miterlimit="10"/>
<path d="M71.9551 333.163L82.9126 321.076L82.9016 320.775C72.4486 310.889 71.6377 294.616 80.8979 283.753L68.1191 272.244C58.075 282.051 42.0996 282.552 31.4538 273.338L20.0938 285.869C30.8454 295.915 31.5439 312.67 21.7297 323.568L33.6761 334.328C43.8765 323.672 60.8008 323.13 71.6647 333.173L71.9551 333.163Z" fill="#0000FF" stroke="white" stroke-width="5" stroke-miterlimit="10"/>
<path d="M72.5352 339.606L83.4927 327.519L83.4817 327.219C73.0287 317.332 72.2178 301.06 81.4779 290.197L68.6991 278.688C58.6551 288.495 42.6797 288.996 32.0338 279.781L20.6738 292.312C31.4255 302.358 32.124 319.113 22.3098 330.012L34.2562 340.771C44.4565 330.115 61.3809 329.574 72.2448 339.617L72.5352 339.606Z" fill="#0000FF" stroke="white" stroke-width="5" stroke-miterlimit="10"/>
<path d="M73.1153 346.048L84.0728 333.96L84.0618 333.66C73.6088 323.773 72.7979 307.501 82.058 296.638L69.2792 285.129C59.2352 294.936 43.2597 295.437 32.6139 286.222L21.2539 298.753C32.0056 308.799 32.7041 325.554 22.8899 336.453L34.8363 347.212C45.0366 336.557 61.961 336.015 72.8248 346.058L73.1153 346.048Z" fill="#0000FF" stroke="white" stroke-width="5" stroke-miterlimit="10"/>
<path d="M73.6944 352.491L84.6519 340.404L84.6409 340.103C74.1879 330.217 73.377 313.945 82.6371 303.081L69.8583 291.572C59.8143 301.379 43.8388 301.881 33.193 292.666L21.833 305.197C32.5847 315.243 33.2832 331.998 23.469 342.896L35.4154 353.656C45.6157 343 62.5401 342.459 73.4039 352.501L73.6944 352.491Z" fill="#0000FF" stroke="white" stroke-width="5" stroke-miterlimit="10"/>
<path d="M74.2745 358.934L85.232 346.847L85.221 346.547C74.768 336.66 73.9571 320.388 83.2172 309.525L70.4384 298.016C60.3944 307.823 44.4189 308.324 33.7731 299.109L22.4131 311.64C33.1647 321.686 33.8633 338.441 24.0491 349.34L35.9955 360.099C46.1958 349.443 63.1202 348.902 73.984 358.945L74.2745 358.934Z" fill="#0000FF" stroke="white" stroke-width="5" stroke-miterlimit="10"/>
<path d="M74.8536 365.378L85.8111 353.291L85.8001 352.99C75.347 343.103 74.5362 326.831 83.7963 315.968L71.0175 304.459C60.9735 314.266 44.998 314.767 34.3522 305.553L22.9922 318.084C33.7438 328.129 34.4424 344.884 24.6282 355.783L36.5746 366.543C46.7749 355.887 63.6993 355.345 74.5631 365.388L74.8536 365.378Z" fill="#0000FF" stroke="white" stroke-width="5" stroke-miterlimit="10"/>
<path d="M75.4337 371.821L86.3912 359.734L86.3802 359.433C75.9271 349.547 75.1162 333.275 84.3764 322.411L71.5976 310.902C61.5535 320.71 45.5781 321.211 34.9323 311.996L23.5723 324.527C34.3239 334.573 35.0225 351.328 25.2082 362.226L37.1547 372.986C47.355 362.33 64.2794 361.789 75.1432 371.832L75.4337 371.821Z" fill="#0000FF" stroke="white" stroke-width="5" stroke-miterlimit="10"/>
<path d="M76.0137 378.264L86.9712 366.177L86.9602 365.877C76.5072 355.99 75.6963 339.718 84.9565 328.855L72.1777 317.346C62.1336 327.153 46.1582 327.654 35.5124 318.439L24.1523 330.97C34.904 341.016 35.6025 357.771 25.7883 368.67L37.7347 379.429C47.9351 368.773 64.8594 368.232 75.7233 378.275L76.0137 378.264Z" fill="#0000FF" stroke="white" stroke-width="5" stroke-miterlimit="10"/>
<path d="M82.3057 379.346L93.2632 367.259L93.2522 366.959C82.7992 357.072 81.9883 340.8 91.2485 329.937L78.4697 318.428C68.4256 328.235 52.4502 328.736 41.8044 319.521L30.4443 332.052C41.196 342.098 41.8945 358.853 32.0803 369.752L44.0267 380.511C54.2271 369.855 71.1514 369.314 82.0153 379.357L82.3057 379.346Z" fill="#0000FF" stroke="white" stroke-width="5" stroke-miterlimit="10"/>
<path d="M88.5977 380.428L99.5552 368.341L99.5442 368.041C89.0912 358.154 88.2803 341.882 97.5404 331.019L84.7616 319.51C74.7176 329.317 58.7422 329.818 48.0963 320.603L36.7363 333.134C47.488 343.18 48.1865 359.935 38.3723 370.834L50.3187 381.593C60.519 370.937 77.4434 370.396 88.3072 380.439L88.5977 380.428Z" fill="#0000FF" stroke="white" stroke-width="5" stroke-miterlimit="10"/>
<path d="M94.8887 381.51L105.846 369.423L105.835 369.123C95.3822 359.236 94.5713 342.964 103.831 332.101L91.0527 320.592C81.0086 330.399 65.0332 330.9 54.3874 321.685L43.0273 334.216C53.779 344.262 54.4775 361.017 44.6633 371.916L56.6097 382.675C66.8101 372.019 83.7344 371.478 94.5983 381.521L94.8887 381.51Z" fill="#0000FF" stroke="white" stroke-width="5" stroke-miterlimit="10"/>
<path d="M101.182 382.592L112.139 370.505L112.128 370.205C101.675 360.318 100.864 344.046 110.124 333.183L97.3456 321.674C87.3016 331.481 71.3262 331.982 60.6803 322.767L49.3203 335.298C60.072 345.344 60.7705 362.099 50.9563 372.998L62.9027 383.757C73.103 373.101 90.0274 372.56 100.891 382.603L101.182 382.592Z" fill="#0000FF" stroke="white" stroke-width="5" stroke-miterlimit="10"/>
<path d="M107.473 383.676L118.43 371.589L118.419 371.289C107.966 361.402 107.155 345.13 116.415 334.267L103.637 322.758C93.5926 332.565 77.6172 333.066 66.9713 323.851L55.6113 336.382C66.363 346.428 67.0615 363.183 57.2473 374.082L69.1937 384.841C79.394 374.185 96.3184 373.644 107.182 383.687L107.473 383.676Z" fill="#0000FF" stroke="white" stroke-width="5" stroke-miterlimit="10"/>
<path d="M113.765 384.758L124.722 372.671L124.711 372.371C114.258 362.484 113.447 346.212 122.707 335.349L109.929 323.84C99.8846 333.647 83.9092 334.148 73.2633 324.933L61.9033 337.464C72.655 347.51 73.3535 364.265 63.5393 375.164L75.4857 385.923C85.686 375.267 102.61 374.726 113.474 384.769L113.765 384.758Z" fill="#0000FF" stroke="white" stroke-width="5" stroke-miterlimit="10"/>
<path d="M120.057 385.84L131.014 373.753L131.003 373.453C120.55 363.566 119.739 347.294 128.999 336.431L116.221 324.922C106.177 334.729 90.2012 335.23 79.5553 326.015L68.1953 338.546C78.947 348.592 79.6455 365.347 69.8313 376.246L81.7777 387.005C91.978 376.349 108.902 375.808 119.766 385.851L120.057 385.84Z" fill="#0000FF" stroke="white" stroke-width="5" stroke-miterlimit="10"/>
<path d="M126.349 386.923L137.306 374.835L137.295 374.535C126.842 364.648 126.031 348.376 135.291 337.513L122.513 326.004C112.469 335.811 96.4931 336.312 85.8473 327.097L74.4873 339.628C85.239 349.674 85.9375 366.429 76.1233 377.328L88.0697 388.087C98.27 377.431 115.194 376.89 126.058 386.933L126.349 386.923Z" fill="#0000FF" stroke="white" stroke-width="5" stroke-miterlimit="10"/>
<path d="M132.641 388.005L143.598 375.917L143.587 375.617C133.134 365.73 132.323 349.458 141.583 338.595L128.805 327.086C118.761 336.893 102.785 337.394 92.1393 328.179L80.7793 340.711C91.5309 350.756 92.2295 367.511 82.4153 378.41L94.3617 389.169C104.562 378.514 121.486 377.972 132.35 388.015L132.641 388.005Z" fill="#0000FF" stroke="white" stroke-width="5" stroke-miterlimit="10"/>
<path d="M138.933 389.087L149.89 377L149.879 376.699C139.426 366.812 138.615 350.54 147.875 339.677L135.097 328.168C125.053 337.975 109.077 338.476 98.4313 329.261L87.0713 341.793C97.8229 351.838 98.5215 368.593 88.7073 379.492L100.654 390.251C110.854 379.596 127.778 379.054 138.642 389.097L138.933 389.087Z" fill="#0000FF" stroke="white" stroke-width="5" stroke-miterlimit="10"/>
<path d="M145.225 390.169L156.182 378.082L156.171 377.781C145.718 367.894 144.907 351.622 154.167 340.759L141.389 329.25C131.345 339.057 115.369 339.558 104.723 330.344L93.3633 342.875C104.115 352.921 104.813 369.675 94.9993 380.574L106.946 391.334C117.146 380.678 134.07 380.136 144.934 390.179L145.225 390.169Z" fill="#0000FF" stroke="white" stroke-width="5" stroke-miterlimit="10"/>
<path d="M151.517 391.251L162.474 379.164L162.463 378.863C152.01 368.976 151.199 352.704 160.459 341.841L147.681 330.332C137.637 340.139 121.661 340.64 111.015 331.426L99.6553 343.957C110.407 354.003 111.105 370.758 101.291 381.656L113.238 392.416C123.438 381.76 140.362 381.218 151.226 391.261L151.517 391.251Z" fill="#0000FF" stroke="white" stroke-width="5" stroke-miterlimit="10"/>
<path d="M157.809 392.333L168.766 380.246L168.755 379.945C158.302 370.058 157.491 353.786 166.751 342.923L153.973 331.414C143.929 341.221 127.953 341.722 117.307 332.508L105.947 345.039C116.699 355.085 117.397 371.84 107.583 382.738L119.53 393.498C129.73 382.842 146.654 382.3 157.518 392.343L157.809 392.333Z" fill="#0000FF" stroke="white" stroke-width="5" stroke-miterlimit="10"/>
<path d="M164.101 393.417L175.058 381.33L175.047 381.029C164.594 371.142 163.783 354.87 173.043 344.007L160.265 332.498C150.221 342.305 134.245 342.806 123.599 333.592L112.239 346.123C122.991 356.169 123.689 372.924 113.875 383.822L125.822 394.582C136.022 383.926 152.946 383.384 163.81 393.427L164.101 393.417Z" fill="#0000FF" stroke="white" stroke-width="5" stroke-miterlimit="10"/>
<path d="M170.393 394.499L181.35 382.412L181.339 382.111C170.886 372.224 170.075 355.952 179.335 345.089L166.557 333.58C156.513 343.387 140.537 343.888 129.891 334.674L118.531 347.205C129.283 357.251 129.981 374.006 120.167 384.904L132.114 395.664C142.314 385.008 159.238 384.466 170.102 394.509L170.393 394.499Z" fill="#0000FF" stroke="white" stroke-width="5" stroke-miterlimit="10"/>
<path d="M176.685 395.581L187.642 383.494L187.631 383.193C177.178 373.306 176.367 357.034 185.627 346.171L172.849 334.662C162.805 344.469 146.829 344.97 136.183 335.756L124.823 348.287C135.575 358.333 136.273 375.088 126.459 385.986L138.406 396.746C148.606 386.09 165.53 385.548 176.394 395.591L176.685 395.581Z" fill="#0000FF" stroke="white" stroke-width="5" stroke-miterlimit="10"/>
<path d="M182.977 396.663L193.934 384.576L193.923 384.275C183.47 374.389 182.659 358.116 191.919 347.253L179.141 335.744C169.097 345.551 153.121 346.052 142.475 336.838L131.115 349.369C141.867 359.415 142.565 376.17 132.751 387.068L144.698 397.828C154.898 387.172 171.822 386.63 182.686 396.673L182.977 396.663Z" fill="#0000FF" stroke="white" stroke-width="5" stroke-miterlimit="10"/>
<path d="M189.269 397.745L200.226 385.658L200.215 385.357C189.762 375.471 188.951 359.198 198.211 348.335L185.433 336.826C175.389 346.633 159.413 347.134 148.767 337.92L137.407 350.451C148.159 360.497 148.857 377.252 139.043 388.15L150.99 398.91C161.19 388.254 178.114 387.713 188.978 397.755L189.269 397.745Z" fill="#0000FF" stroke="white" stroke-width="5" stroke-miterlimit="10"/>
<path d="M195.561 398.827L206.518 386.74L206.507 386.439C196.054 376.553 195.243 360.281 204.503 349.417L191.725 337.908C181.68 347.715 165.705 348.217 155.059 339.002L143.699 351.533C154.451 361.579 155.149 378.334 145.335 389.232L157.282 399.992C167.482 389.336 184.406 388.795 195.27 398.837L195.561 398.827Z" fill="#0000FF" stroke="white" stroke-width="5" stroke-miterlimit="10"/>
<path d="M201.853 399.909L212.81 387.822L212.799 387.521C202.346 377.635 201.535 361.363 210.795 350.499L198.017 338.99C187.972 348.797 171.997 349.299 161.351 340.084L149.991 352.615C160.743 362.661 161.441 379.416 151.627 390.314L163.574 401.074C173.774 390.418 190.698 389.877 201.562 399.919L201.853 399.909Z" fill="#0000FF" stroke="white" stroke-width="5" stroke-miterlimit="10"/>
<path d="M208.144 400.993L219.101 388.906L219.09 388.605C208.637 378.719 207.826 362.447 217.086 351.583L204.308 340.074C194.264 349.881 178.288 350.382 167.642 341.168L156.282 353.699C167.034 363.745 167.732 380.5 157.918 391.398L169.865 402.158C180.065 391.502 196.989 390.961 207.853 401.003L208.144 400.993Z" fill="#0000FF" stroke="white" stroke-width="5" stroke-miterlimit="10"/>
<path d="M214.436 402.075L225.393 389.988L225.382 389.687C214.929 379.801 214.118 363.529 223.378 352.665L210.6 341.156C200.555 350.963 184.58 351.465 173.934 342.25L162.574 354.781C173.326 364.827 174.024 381.582 164.21 392.48L176.157 403.24C186.357 392.584 203.281 392.043 214.145 402.085L214.436 402.075Z" fill="#0000FF" stroke="white" stroke-width="5" stroke-miterlimit="10"/>
<path d="M220.728 403.157L231.685 391.07L231.674 390.769C221.221 380.883 220.41 364.611 229.67 353.747L216.892 342.238C206.847 352.045 190.872 352.547 180.226 343.332L168.866 355.863C179.618 365.909 180.316 382.664 170.502 393.562L182.449 404.322C192.649 393.666 209.573 393.125 220.437 403.167L220.728 403.157Z" fill="#0000FF" stroke="white" stroke-width="5" stroke-miterlimit="10"/>
<path d="M227.02 404.239L237.977 392.152L237.966 391.851C227.513 381.965 226.702 365.693 235.962 354.829L223.184 343.32C213.139 353.127 197.164 353.629 186.518 344.414L175.158 356.945C185.91 366.991 186.608 383.746 176.794 394.644L188.741 405.404C198.941 394.748 215.865 394.207 226.729 404.249L227.02 404.239Z" fill="#0000FF" stroke="white" stroke-width="5" stroke-miterlimit="10"/>
<path d="M233.312 405.321L244.269 393.234L244.258 392.933C233.805 383.047 232.994 366.775 242.254 355.911L229.476 344.402C219.431 354.21 203.456 354.711 192.81 345.496L181.45 358.027C192.202 368.073 192.9 384.828 183.086 395.726L195.033 406.486C205.233 395.83 222.157 395.289 233.021 405.332L233.312 405.321Z" fill="#0000FF" stroke="white" stroke-width="5" stroke-miterlimit="10"/>
<path d="M238.327 402.862L249.285 390.775L249.274 390.474C238.821 380.588 238.01 364.316 247.27 353.452L234.491 341.943C224.447 351.751 208.472 352.252 197.826 343.037L186.466 355.568C197.217 365.614 197.916 382.369 188.102 393.267L200.048 404.027C210.249 393.371 227.173 392.83 238.037 402.873L238.327 402.862Z" fill="#0000FF" stroke="white" stroke-width="5" stroke-miterlimit="10"/>
<path d="M243.344 400.405L254.301 388.318L254.29 388.017C243.837 378.131 243.026 361.859 252.287 350.995L239.508 339.486C229.464 349.293 213.488 349.795 202.842 340.58L191.482 353.111C202.234 363.157 202.933 379.912 193.118 390.81L205.065 401.57C215.265 390.914 232.19 390.373 243.053 400.416L243.344 400.405Z" fill="#0000FF" stroke="white" stroke-width="5" stroke-miterlimit="10"/>
<path d="M248.359 397.946L259.317 385.859L259.306 385.558C248.853 375.672 248.042 359.4 257.302 348.536L244.523 337.027C234.479 346.835 218.504 347.336 207.858 338.121L196.498 350.652C207.25 360.698 207.948 377.453 198.134 388.351L210.08 399.111C220.281 388.455 237.205 387.914 248.069 397.957L248.359 397.946Z" fill="#0000FF" stroke="white" stroke-width="5" stroke-miterlimit="10"/>
<path d="M253.375 395.489L264.333 383.402L264.322 383.101C253.869 373.215 253.058 356.943 262.318 346.079L249.539 334.57C239.495 344.377 223.52 344.879 212.874 335.664L201.514 348.195C212.265 358.241 212.964 374.996 203.15 385.894L215.096 396.654C225.296 385.998 242.221 385.457 253.085 395.5L253.375 395.489Z" fill="#0000FF" stroke="white" stroke-width="5" stroke-miterlimit="10"/>
<path d="M258.391 393.03L269.348 380.943L269.337 380.642C258.884 370.756 258.073 354.484 267.333 343.62L254.555 332.111C244.511 341.918 228.535 342.42 217.889 333.205L206.529 345.736C217.281 355.782 217.979 372.537 208.165 383.435L220.112 394.195C230.312 383.539 247.236 382.998 258.1 393.041L258.391 393.03Z" fill="#0000FF" stroke="white" stroke-width="5" stroke-miterlimit="10"/>
<path d="M263.406 390.573L274.364 378.486L274.353 378.185C263.9 368.299 263.089 352.027 272.349 341.163L259.57 329.654C249.526 339.461 233.551 339.963 222.905 330.748L211.545 343.279C222.297 353.325 222.995 370.08 213.181 380.978L225.127 391.738C235.328 381.082 252.252 380.541 263.116 390.583L263.406 390.573Z" fill="#0000FF" stroke="white" stroke-width="5" stroke-miterlimit="10"/>
<path d="M268.422 388.114L279.379 376.027L279.368 375.726C268.915 365.84 268.104 349.568 277.365 338.704L264.586 327.195C254.542 337.002 238.566 337.504 227.921 328.289L216.561 340.82C227.312 350.866 228.011 367.621 218.197 378.519L230.143 389.279C240.343 378.623 257.268 378.082 268.131 388.125L268.422 388.114Z" fill="#0000FF" stroke="white" stroke-width="5" stroke-miterlimit="10"/>
<path d="M273.439 385.657L284.396 373.57L284.385 373.269C273.932 363.383 273.121 347.111 282.381 336.247L269.602 324.738C259.558 334.545 243.583 335.047 232.937 325.832L221.577 338.363C232.329 348.409 233.027 365.164 223.213 376.062L235.16 386.822C245.36 376.166 262.284 375.625 273.148 385.667L273.439 385.657Z" fill="#0000FF" stroke="white" stroke-width="5" stroke-miterlimit="10"/>
<path d="M278.454 383.198L289.412 371.111L289.401 370.81C278.948 360.924 278.137 344.652 287.397 333.788L274.618 322.279C264.574 332.086 248.599 332.588 237.953 323.373L226.593 335.904C237.344 345.95 238.043 362.705 228.229 373.603L240.175 384.363C250.376 373.707 267.3 373.166 278.164 383.208L278.454 383.198Z" fill="#0000FF" stroke="white" stroke-width="5" stroke-miterlimit="10"/>
<path d="M283.47 380.741L294.427 368.654L294.416 368.353C283.963 358.467 283.152 342.195 292.413 331.331L279.634 319.822C269.59 329.629 253.614 330.131 242.968 320.916L231.608 333.447C242.36 343.493 243.059 360.248 233.244 371.146L245.191 381.906C255.391 371.25 272.315 370.709 283.179 380.751L283.47 380.741Z" fill="#0000FF" stroke="white" stroke-width="5" stroke-miterlimit="10"/>
<path d="M288.485 378.282L299.443 366.195L299.432 365.894C288.979 356.008 288.168 339.736 297.428 328.872L284.649 317.363C274.605 327.17 258.63 327.672 247.984 318.457L236.624 330.988C247.376 341.034 248.074 357.789 238.26 368.687L250.206 379.447C260.407 368.791 277.331 368.25 288.195 378.292L288.485 378.282Z" fill="#0000FF" stroke="white" stroke-width="5" stroke-miterlimit="10"/>
<path d="M293.501 375.825L304.459 363.738L304.448 363.437C293.995 353.551 293.184 337.279 302.444 326.415L289.665 314.906C279.621 324.713 263.645 325.215 253 316L241.64 328.531C252.391 338.577 253.09 355.332 243.276 366.23L255.222 376.99C265.422 366.334 282.347 365.793 293.211 375.835L293.501 375.825Z" fill="#0000FF" stroke="white" stroke-width="5" stroke-miterlimit="10"/>
<path d="M298.518 373.366L309.475 361.279L309.464 360.978C299.011 351.092 298.2 334.82 307.46 323.956L294.682 312.447C284.638 322.254 268.662 322.756 258.016 313.541L246.656 326.072C257.408 336.118 258.106 352.873 248.292 363.771L260.239 374.531C270.439 363.875 287.363 363.334 298.227 373.376L298.518 373.366Z" fill="#0000FF" stroke="white" stroke-width="5" stroke-miterlimit="10"/>
</g>
<defs>
<clipPath id="clip0_118_9">
<rect width="341" height="408" fill="white" transform="translate(0.0175781)"/>
</clipPath>
</defs>
</svg>
