<svg width="317" height="354" viewBox="0 0 317 354" fill="none" xmlns="http://www.w3.org/2000/svg">
<g clip-path="url(#clip0_118_414)">
<path d="M265.588 309.237L277.378 305.566L277.487 305.366C274.506 294.89 280.26 283.957 290.475 280.432L286.608 268.001C276.292 270.536 265.711 264.714 262.345 254.602L250.122 258.407C253.235 269.103 247.221 280.307 236.633 283.642L240.248 295.263C250.993 292.235 262.207 298.396 265.395 309.132L265.588 309.237Z" fill="#0000FF" stroke="white" stroke-width="2" stroke-miterlimit="10"/>
<path d="M260.464 313.202L272.255 309.531L272.364 309.331C269.383 298.855 275.137 287.922 285.352 284.397L281.485 271.966C271.169 274.501 260.588 268.678 257.222 258.566L244.998 262.372C248.112 273.067 242.098 284.272 231.51 287.607L235.124 299.228C245.87 296.199 257.084 302.361 260.272 313.097L260.464 313.202Z" fill="#0000FF" stroke="white" stroke-width="2" stroke-miterlimit="10"/>
<path d="M255.34 317.167L267.131 313.496L267.24 313.296C264.259 302.819 270.013 291.887 280.228 288.362L276.361 275.931C266.045 278.466 255.464 272.643 252.098 262.531L239.874 266.337C242.988 277.032 236.974 288.236 226.386 291.572L230 303.193C240.746 300.164 251.96 306.326 255.147 317.062L255.34 317.167Z" fill="#0000FF" stroke="white" stroke-width="2" stroke-miterlimit="10"/>
<path d="M250.216 321.13L262.007 317.459L262.116 317.259C259.135 306.782 264.889 295.85 275.104 292.324L271.237 279.894C260.921 282.428 250.34 276.606 246.974 266.494L234.75 270.3C237.864 280.995 231.85 292.199 221.262 295.535L224.876 307.156C235.622 304.127 246.836 310.289 250.023 321.025L250.216 321.13Z" fill="#0000FF" stroke="white" stroke-width="2" stroke-miterlimit="10"/>
<path d="M244.677 325.095L256.468 321.424L256.577 321.224C253.596 310.747 259.35 299.815 269.565 296.289L265.698 283.859C255.382 286.393 244.8 280.571 241.435 270.459L229.211 274.265C232.325 284.96 226.311 296.164 215.723 299.5L219.337 311.12C230.083 308.092 241.297 314.253 244.484 324.99L244.677 325.095Z" fill="#0000FF" stroke="white" stroke-width="2" stroke-miterlimit="10"/>
<path d="M239.968 329.058L251.759 325.387L251.868 325.186C248.887 314.71 254.641 303.778 264.856 300.252L260.989 287.822C250.673 290.356 240.091 284.534 236.726 274.422L224.502 278.228C227.616 288.923 221.602 300.127 211.014 303.462L214.628 315.083C225.374 312.055 236.588 318.216 239.775 328.953L239.968 329.058Z" fill="#0000FF" stroke="white" stroke-width="2" stroke-miterlimit="10"/>
<path d="M234.844 333.022L246.635 329.352L246.744 329.151C243.763 318.675 249.517 307.743 259.732 304.217L255.865 291.786C245.549 294.321 234.967 288.499 231.602 278.387L219.378 282.192C222.492 292.888 216.478 304.092 205.89 307.427L209.504 319.048C220.25 316.02 231.464 322.181 234.651 332.918L234.844 333.022Z" fill="#0000FF" stroke="white" stroke-width="2" stroke-miterlimit="10"/>
<path d="M229.721 336.985L241.512 333.314L241.621 333.114C238.64 322.638 244.394 311.705 254.609 308.18L250.742 295.749C240.426 298.284 229.844 292.462 226.479 282.35L214.255 286.155C217.369 296.851 211.355 308.055 200.767 311.39L204.381 323.011C215.127 319.983 226.341 326.144 229.528 336.88L229.721 336.985Z" fill="#0000FF" stroke="white" stroke-width="2" stroke-miterlimit="10"/>
<path d="M224.597 340.95L236.388 337.279L236.497 337.079C233.516 326.603 239.27 315.67 249.485 312.145L245.618 299.714C235.302 302.249 224.72 296.426 221.355 286.314L209.131 290.12C212.245 300.815 206.231 312.02 195.643 315.355L199.257 326.976C210.003 323.947 221.217 330.109 224.404 340.845L224.597 340.95Z" fill="#0000FF" stroke="white" stroke-width="2" stroke-miterlimit="10"/>
<path d="M219.473 344.913L231.264 341.242L231.373 341.042C228.392 330.565 234.146 319.633 244.361 316.108L240.494 303.677C230.178 306.212 219.596 300.389 216.231 290.277L204.007 294.083C207.12 304.778 201.107 315.983 190.519 319.318L194.133 330.939C204.879 327.91 216.093 334.072 219.28 344.808L219.473 344.913Z" fill="#0000FF" stroke="white" stroke-width="2" stroke-miterlimit="10"/>
<path d="M214.349 348.878L226.14 345.207L226.249 345.007C223.268 334.53 229.022 323.598 239.237 320.072L235.37 307.642C225.054 310.177 214.472 304.354 211.107 294.242L198.883 298.048C201.996 308.743 195.983 319.947 185.395 323.283L189.009 334.904C199.755 331.875 210.969 338.037 214.156 348.773L214.349 348.878Z" fill="#0000FF" stroke="white" stroke-width="2" stroke-miterlimit="10"/>
<path d="M209.226 352.843L221.017 349.172L221.126 348.972C218.145 338.495 223.899 327.563 234.114 324.037L230.247 311.607C219.93 314.141 209.349 308.319 205.984 298.207L193.76 302.013C196.873 312.708 190.86 323.912 180.271 327.248L183.886 338.868C194.632 335.84 205.846 342.001 209.033 352.738L209.226 352.843Z" fill="#0000FF" stroke="white" stroke-width="2" stroke-miterlimit="10"/>
<path d="M202.439 352.411L214.23 348.74L214.339 348.54C211.358 338.064 217.112 327.131 227.327 323.606L223.46 311.175C213.143 313.71 202.562 307.887 199.197 297.775L186.973 301.581C190.086 312.276 184.073 323.481 173.484 326.816L177.099 338.437C187.845 335.408 199.059 341.57 202.246 352.306L202.439 352.411Z" fill="#0000FF" stroke="white" stroke-width="2" stroke-miterlimit="10"/>
<path d="M195.653 351.981L207.444 348.311L207.552 348.11C204.572 337.634 210.326 326.702 220.54 323.176L216.674 310.746C206.357 313.28 195.776 307.458 192.411 297.346L180.187 301.151C183.3 311.847 177.287 323.051 166.698 326.386L170.313 338.007C181.059 334.979 192.273 341.14 195.46 351.877L195.653 351.981Z" fill="#0000FF" stroke="white" stroke-width="2" stroke-miterlimit="10"/>
<path d="M188.867 351.552L200.658 347.881L200.766 347.681C197.786 337.204 203.54 326.272 213.754 322.746L209.888 310.316C199.571 312.85 188.99 307.028 185.625 296.916L173.401 300.722C176.514 311.417 170.501 322.621 159.912 325.957L163.527 337.577C174.273 334.549 185.486 340.71 188.674 351.447L188.867 351.552Z" fill="#0000FF" stroke="white" stroke-width="2" stroke-miterlimit="10"/>
<path d="M182.081 351.122L193.871 347.451L193.98 347.251C191 336.774 196.754 325.842 206.968 322.317L203.102 309.886C192.785 312.421 182.204 306.598 178.838 296.486L166.615 300.292C169.728 310.987 163.715 322.192 153.126 325.527L156.741 337.148C167.487 334.119 178.7 340.281 181.888 351.017L182.081 351.122Z" fill="#0000FF" stroke="white" stroke-width="2" stroke-miterlimit="10"/>
<path d="M175.295 350.692L187.085 347.021L187.194 346.821C184.214 336.345 189.967 325.412 200.182 321.887L196.316 309.456C185.999 311.991 175.418 306.169 172.052 296.057L159.829 299.862C162.942 310.558 156.928 321.762 146.34 325.097L149.955 336.718C160.7 333.69 171.914 339.851 175.102 350.587L175.295 350.692Z" fill="#0000FF" stroke="white" stroke-width="2" stroke-miterlimit="10"/>
<path d="M168.508 350.263L180.299 346.592L180.408 346.391C177.427 335.915 183.181 324.983 193.396 321.457L189.529 309.027C179.213 311.561 168.632 305.739 165.266 295.627L153.042 299.433C156.156 310.128 150.142 321.332 139.554 324.668L143.168 336.288C153.914 333.26 165.128 339.421 168.315 350.158L168.508 350.263Z" fill="#0000FF" stroke="white" stroke-width="2" stroke-miterlimit="10"/>
<path d="M161.721 349.833L173.512 346.162L173.621 345.962C170.64 335.485 176.394 324.553 186.609 321.028L182.742 308.597C172.426 311.132 161.844 305.309 158.479 295.197L146.255 299.003C149.369 309.698 143.355 320.903 132.767 324.238L136.381 335.859C147.127 332.83 158.341 338.992 161.528 349.728L161.721 349.833Z" fill="#0000FF" stroke="white" stroke-width="2" stroke-miterlimit="10"/>
<path d="M154.935 349.401L166.726 345.73L166.835 345.53C163.854 335.054 169.608 324.121 179.823 320.596L175.956 308.165C165.639 310.7 155.058 304.878 151.693 294.766L139.469 298.571C142.582 309.267 136.569 320.471 125.98 323.806L129.595 335.427C140.341 332.399 151.555 338.56 154.742 349.296L154.935 349.401Z" fill="#0000FF" stroke="white" stroke-width="2" stroke-miterlimit="10"/>
<path d="M148.149 348.972L159.94 345.301L160.049 345.1C157.068 334.624 162.822 323.692 173.037 320.166L169.17 307.736C158.853 310.27 148.272 304.448 144.907 294.336L132.683 298.142C135.796 308.837 129.783 320.041 119.194 323.377L122.809 334.997C133.555 331.969 144.769 338.13 147.956 348.867L148.149 348.972Z" fill="#0000FF" stroke="white" stroke-width="2" stroke-miterlimit="10"/>
<path d="M141.363 348.542L153.154 344.871L153.262 344.671C150.282 334.194 156.036 323.262 166.25 319.737L162.384 307.306C152.067 309.841 141.486 304.018 138.121 293.906L125.897 297.712C129.01 308.407 122.997 319.611 112.408 322.947L116.023 334.568C126.769 331.539 137.983 337.701 141.17 348.437L141.363 348.542Z" fill="#0000FF" stroke="white" stroke-width="2" stroke-miterlimit="10"/>
<path d="M134.577 348.112L146.367 344.441L146.476 344.241C143.496 333.765 149.25 322.832 159.464 319.307L155.598 306.876C145.281 309.411 134.7 303.589 131.335 293.477L119.111 297.282C122.224 307.978 116.211 319.182 105.622 322.517L109.237 334.138C119.983 331.11 131.196 337.271 134.384 348.007L134.577 348.112Z" fill="#0000FF" stroke="white" stroke-width="2" stroke-miterlimit="10"/>
<path d="M127.791 347.683L139.581 344.012L139.69 343.811C136.71 333.335 142.464 322.403 152.678 318.877L148.812 306.447C138.495 308.981 127.914 303.159 124.548 293.047L112.325 296.853C115.438 307.548 109.424 318.752 98.8359 322.087L102.451 333.708C113.197 330.68 124.41 336.841 127.598 347.578L127.791 347.683Z" fill="#0000FF" stroke="white" stroke-width="2" stroke-miterlimit="10"/>
<path d="M121.004 347.253L132.794 343.582L132.903 343.382C129.923 332.905 135.676 321.973 145.891 318.447L142.024 306.017C131.708 308.552 121.127 302.729 117.761 292.617L105.538 296.423C108.651 307.118 102.637 318.322 92.0488 321.658L95.6635 333.279C106.409 330.25 117.623 336.412 120.811 347.148L121.004 347.253Z" fill="#0000FF" stroke="white" stroke-width="2" stroke-miterlimit="10"/>
<path d="M114.217 346.821L126.008 343.15L126.117 342.95C123.136 332.474 128.89 321.541 139.105 318.016L135.238 305.585C124.922 308.12 114.34 302.298 110.975 292.186L98.7514 295.991C101.865 306.687 95.8512 317.891 85.2627 321.226L88.8774 332.847C99.6233 329.819 110.837 335.98 114.024 346.716L114.217 346.821Z" fill="#0000FF" stroke="white" stroke-width="2" stroke-miterlimit="10"/>
<path d="M107.656 339.741L119.447 336.07L119.555 335.87C116.575 325.394 122.329 314.461 132.543 310.936L128.677 298.505C118.36 301.04 107.779 295.217 104.414 285.105L92.1899 288.911C95.3031 299.606 89.2897 310.811 78.7012 314.146L82.3159 325.767C93.0618 322.739 104.276 328.9 107.463 339.636L107.656 339.741Z" fill="#0000FF" stroke="white" stroke-width="2" stroke-miterlimit="10"/>
<path d="M101.093 332.659L112.884 328.988L112.993 328.788C110.012 318.312 115.766 307.379 125.981 303.854L122.114 291.423C111.798 293.958 101.216 288.135 97.8512 278.023L85.6274 281.829C88.7406 292.524 82.7272 303.729 72.1387 307.064L75.7534 318.685C86.4993 315.656 97.7131 321.818 100.9 332.554L101.093 332.659Z" fill="#0000FF" stroke="white" stroke-width="2" stroke-miterlimit="10"/>
<path d="M94.5309 325.577L106.322 321.906L106.43 321.706C103.45 311.23 109.204 300.297 119.418 296.772L115.552 284.341C105.235 286.876 94.654 281.053 91.2887 270.941L79.0649 274.747C82.1781 285.442 76.1647 296.647 65.5762 299.982L69.1909 311.603C79.9368 308.574 91.1505 314.736 94.3379 325.472L94.5309 325.577Z" fill="#0000FF" stroke="white" stroke-width="2" stroke-miterlimit="10"/>
<path d="M87.9684 318.497L99.7591 314.826L99.8679 314.626C96.8874 304.149 102.641 293.217 112.856 289.692L108.989 277.261C98.6727 279.796 88.0915 273.973 84.7262 263.861L72.5024 267.667C75.6156 278.362 69.6022 289.567 59.0137 292.902L62.6284 304.523C73.3743 301.494 84.588 307.656 87.7754 318.392L87.9684 318.497Z" fill="#0000FF" stroke="white" stroke-width="2" stroke-miterlimit="10"/>
<path d="M81.4068 311.415L93.1975 307.744L93.3063 307.544C90.3258 297.067 96.0798 286.135 106.294 282.61L102.428 270.179C92.1112 272.714 81.5299 266.891 78.1647 256.779L65.9408 260.585C69.0541 271.28 63.0407 282.485 52.4521 285.82L56.0669 297.441C66.8128 294.412 78.0265 300.574 81.2139 311.31L81.4068 311.415Z" fill="#0000FF" stroke="white" stroke-width="2" stroke-miterlimit="10"/>
<path d="M74.8443 304.333L86.635 300.662L86.7439 300.462C83.7633 289.985 89.5173 279.053 99.7319 275.528L95.8653 263.097C85.5487 265.632 74.9674 259.809 71.6022 249.697L59.3783 253.503C62.4916 264.198 56.4782 275.403 45.8896 278.738L49.5044 290.359C60.2503 287.33 71.464 293.492 74.6514 304.228L74.8443 304.333Z" fill="#0000FF" stroke="white" stroke-width="2" stroke-miterlimit="10"/>
<path d="M68.2818 297.253L80.0725 293.582L80.1813 293.382C77.2008 282.905 82.9548 271.973 93.1694 268.447L89.3028 256.017C78.9862 258.552 68.4049 252.729 65.0397 242.617L52.8158 246.423C55.9291 257.118 49.9157 268.322 39.3271 271.658L42.9419 283.279C53.6878 280.25 64.9015 286.412 68.0889 297.148L68.2818 297.253Z" fill="#0000FF" stroke="white" stroke-width="2" stroke-miterlimit="10"/>
<path d="M61.7193 290.171L73.51 286.5L73.6189 286.3C70.6383 275.823 76.3923 264.891 86.6069 261.365L82.7403 248.935C72.4237 251.47 61.8424 245.647 58.4772 235.535L46.2533 239.341C49.3666 250.036 43.3532 261.24 32.7646 264.576L36.3794 276.197C47.1253 273.168 58.339 279.33 61.5264 290.066L61.7193 290.171Z" fill="#0000FF" stroke="white" stroke-width="2" stroke-miterlimit="10"/>
<path d="M55.1578 283.089L66.9485 279.418L67.0573 279.218C64.0768 268.741 69.8308 257.809 80.0454 254.283L76.1788 241.853C65.8621 244.387 55.2809 238.565 51.9156 228.453L39.6918 232.259C42.8051 242.954 36.7917 254.158 26.2031 257.494L29.8178 269.115C40.5637 266.086 51.7775 272.248 54.9649 282.984L55.1578 283.089Z" fill="#0000FF" stroke="white" stroke-width="2" stroke-miterlimit="10"/>
<path d="M48.5953 276.009L60.386 272.338L60.4948 272.138C57.5143 261.661 63.2683 250.729 73.4829 247.203L69.6163 234.773C59.2996 237.307 48.7184 231.485 45.3531 221.373L33.1293 225.179C36.2426 235.874 30.2292 247.078 19.6406 250.414L23.2553 262.034C34.0013 259.006 45.215 265.167 48.4024 275.904L48.5953 276.009Z" fill="#0000FF" stroke="white" stroke-width="2" stroke-miterlimit="10"/>
<path d="M42.0328 268.927L53.8235 265.256L53.9323 265.056C50.9518 254.579 56.7058 243.647 66.9204 240.121L63.0538 227.691C52.7371 230.225 42.1559 224.403 38.7906 214.291L26.5668 218.097C29.6801 228.792 23.6667 239.996 13.0781 243.332L16.6928 254.952C27.4388 251.924 38.6525 258.085 41.8399 268.822L42.0328 268.927Z" fill="#0000FF" stroke="white" stroke-width="2" stroke-miterlimit="10"/>
<path d="M42.0328 262.978L53.8235 259.307L53.9323 259.106C50.9518 248.63 56.7058 237.698 66.9204 234.172L63.0538 221.742C52.7371 224.276 42.1559 218.454 38.7906 208.342L26.5668 212.148C29.6801 222.843 23.6667 234.047 13.0781 237.382L16.6928 249.003C27.4388 245.975 38.6525 252.136 41.8399 262.873L42.0328 262.978Z" fill="#0000FF" stroke="white" stroke-width="2" stroke-miterlimit="10"/>
<path d="M42.0328 257.03L53.8235 253.359L53.9323 253.159C50.9518 242.683 56.7058 231.75 66.9204 228.225L63.0538 215.794C52.7371 218.329 42.1559 212.507 38.7906 202.395L26.5668 206.2C29.6801 216.896 23.6667 228.1 13.0781 231.435L16.6928 243.056C27.4388 240.028 38.6525 246.189 41.8399 256.925L42.0328 257.03Z" fill="#0000FF" stroke="white" stroke-width="2" stroke-miterlimit="10"/>
<path d="M42.0328 251.081L53.8235 247.41L53.9323 247.21C50.9518 236.733 56.7058 225.801 66.9204 222.276L63.0538 209.845C52.7371 212.38 42.1559 206.557 38.7906 196.445L26.5668 200.251C29.6801 210.946 23.6667 222.151 13.0781 225.486L16.6928 237.107C27.4388 234.078 38.6525 240.24 41.8399 250.976L42.0328 251.081Z" fill="#0000FF" stroke="white" stroke-width="2" stroke-miterlimit="10"/>
<path d="M42.0328 245.134L53.8235 241.463L53.9323 241.263C50.9518 230.786 56.7058 219.854 66.9204 216.328L63.0538 203.898C52.7371 206.432 42.1559 200.61 38.7906 190.498L26.5668 194.304C29.6801 204.999 23.6667 216.203 13.0781 219.539L16.6928 231.159C27.4388 228.131 38.6525 234.293 41.8399 245.029L42.0328 245.134Z" fill="#0000FF" stroke="white" stroke-width="2" stroke-miterlimit="10"/>
<path d="M42.0328 239.185L53.8235 235.514L53.9323 235.313C50.9518 224.837 56.7058 213.905 66.9204 210.379L63.0538 197.949C52.7371 200.483 42.1559 194.661 38.7906 184.549L26.5668 188.355C29.6801 199.05 23.6667 210.254 13.0781 213.589L16.6928 225.21C27.4388 222.182 38.6525 228.343 41.8399 239.08L42.0328 239.185Z" fill="#0000FF" stroke="white" stroke-width="2" stroke-miterlimit="10"/>
<path d="M42.0328 233.237L53.8235 229.566L53.9323 229.366C50.9518 218.89 56.7058 207.957 66.9204 204.432L63.0538 192.001C52.7371 194.536 42.1559 188.714 38.7906 178.602L26.5668 182.407C29.6801 193.103 23.6667 204.307 13.0781 207.642L16.6928 219.263C27.4388 216.235 38.6525 222.396 41.8399 233.132L42.0328 233.237Z" fill="#0000FF" stroke="white" stroke-width="2" stroke-miterlimit="10"/>
<path d="M42.0328 227.288L53.8235 223.617L53.9323 223.417C50.9518 212.94 56.7058 202.008 66.9204 198.483L63.0538 186.052C52.7371 188.587 42.1559 182.764 38.7906 172.652L26.5668 176.458C29.6801 187.153 23.6667 198.358 13.0781 201.693L16.6928 213.314C27.4388 210.285 38.6525 216.447 41.8399 227.183L42.0328 227.288Z" fill="#0000FF" stroke="white" stroke-width="2" stroke-miterlimit="10"/>
<path d="M42.0328 221.341L53.8235 217.67L53.9323 217.47C50.9518 206.993 56.7058 196.061 66.9204 192.535L63.0538 180.105C52.7371 182.639 42.1559 176.817 38.7906 166.705L26.5668 170.511C29.6801 181.206 23.6667 192.41 13.0781 195.746L16.6928 207.366C27.4388 204.338 38.6525 210.5 41.8399 221.236L42.0328 221.341Z" fill="#0000FF" stroke="white" stroke-width="2" stroke-miterlimit="10"/>
<path d="M42.0328 215.392L53.8235 211.721L53.9323 211.52C50.9518 201.044 56.7058 190.112 66.9204 186.586L63.0538 174.156C52.7371 176.69 42.1559 170.868 38.7906 160.756L26.5668 164.562C29.6801 175.257 23.6667 186.461 13.0781 189.796L16.6928 201.417C27.4388 198.389 38.6525 204.55 41.8399 215.287L42.0328 215.392Z" fill="#0000FF" stroke="white" stroke-width="2" stroke-miterlimit="10"/>
<path d="M42.0328 209.444L53.8235 205.773L53.9323 205.573C50.9518 195.097 56.7058 184.164 66.9204 180.639L63.0538 168.208C52.7371 170.743 42.1559 164.921 38.7906 154.809L26.5668 158.614C29.6801 169.31 23.6667 180.514 13.0781 183.849L16.6928 195.47C27.4388 192.442 38.6525 198.603 41.8399 209.339L42.0328 209.444Z" fill="#0000FF" stroke="white" stroke-width="2" stroke-miterlimit="10"/>
<path d="M42.0328 203.495L53.8235 199.824L53.9323 199.624C50.9518 189.148 56.7058 178.215 66.9204 174.69L63.0538 162.259C52.7371 164.794 42.1559 158.971 38.7906 148.859L26.5668 152.665C29.6801 163.36 23.6667 174.565 13.0781 177.9L16.6928 189.521C27.4388 186.492 38.6525 192.654 41.8399 203.39L42.0328 203.495Z" fill="#0000FF" stroke="white" stroke-width="2" stroke-miterlimit="10"/>
<path d="M42.0328 197.548L53.8235 193.877L53.9323 193.677C50.9518 183.2 56.7058 172.268 66.9204 168.742L63.0538 156.312C52.7371 158.846 42.1559 153.024 38.7906 142.912L26.5668 146.718C29.6801 157.413 23.6667 168.617 13.0781 171.953L16.6928 183.573C27.4388 180.545 38.6525 186.707 41.8399 197.443L42.0328 197.548Z" fill="#0000FF" stroke="white" stroke-width="2" stroke-miterlimit="10"/>
<path d="M42.0328 191.599L53.8235 187.928L53.9323 187.727C50.9518 177.251 56.7058 166.319 66.9204 162.793L63.0538 150.363C52.7371 152.897 42.1559 147.075 38.7906 136.963L26.5668 140.769C29.6801 151.464 23.6667 162.668 13.0781 166.003L16.6928 177.624C27.4388 174.596 38.6525 180.757 41.8399 191.494L42.0328 191.599Z" fill="#0000FF" stroke="white" stroke-width="2" stroke-miterlimit="10"/>
<path d="M42.0328 185.651L53.8235 181.98L53.9323 181.78C50.9518 171.304 56.7058 160.371 66.9204 156.846L63.0538 144.415C52.7371 146.95 42.1559 141.128 38.7906 131.016L26.5668 134.821C29.6801 145.517 23.6667 156.721 13.0781 160.056L16.6928 171.677C27.4388 168.649 38.6525 174.81 41.8399 185.546L42.0328 185.651Z" fill="#0000FF" stroke="white" stroke-width="2" stroke-miterlimit="10"/>
<path d="M42.0328 179.702L53.8235 176.031L53.9323 175.831C50.9518 165.355 56.7058 154.422 66.9204 150.897L63.0538 138.466C52.7371 141.001 42.1559 135.178 38.7906 125.066L26.5668 128.872C29.6801 139.567 23.6667 150.772 13.0781 154.107L16.6928 165.728C27.4388 162.699 38.6525 168.861 41.8399 179.597L42.0328 179.702Z" fill="#0000FF" stroke="white" stroke-width="2" stroke-miterlimit="10"/>
<path d="M42.0328 173.755L53.8235 170.084L53.9323 169.884C50.9518 159.407 56.7058 148.475 66.9204 144.949L63.0538 132.519C52.7371 135.053 42.1559 129.231 38.7906 119.119L26.5668 122.925C29.6801 133.62 23.6667 144.824 13.0781 148.16L16.6928 159.781C27.4388 156.752 38.6525 162.914 41.8399 173.65L42.0328 173.755Z" fill="#0000FF" stroke="white" stroke-width="2" stroke-miterlimit="10"/>
<path d="M42.0328 167.806L53.8235 164.135L53.9323 163.934C50.9518 153.458 56.7058 142.526 66.9204 139L63.0538 126.57C52.7371 129.104 42.1559 123.282 38.7906 113.17L26.5668 116.976C29.6801 127.671 23.6667 138.875 13.0781 142.211L16.6928 153.831C27.4388 150.803 38.6525 156.964 41.8399 167.701L42.0328 167.806Z" fill="#0000FF" stroke="white" stroke-width="2" stroke-miterlimit="10"/>
<path d="M42.0328 161.858L53.8235 158.187L53.9323 157.987C50.9518 147.511 56.7058 136.578 66.9204 133.053L63.0538 120.622C52.7371 123.157 42.1559 117.335 38.7906 107.223L26.5668 111.028C29.6801 121.724 23.6667 132.928 13.0781 136.263L16.6928 147.884C27.4388 144.856 38.6525 151.017 41.8399 161.753L42.0328 161.858Z" fill="#0000FF" stroke="white" stroke-width="2" stroke-miterlimit="10"/>
<path d="M42.0328 155.909L53.8235 152.238L53.9323 152.038C50.9518 141.562 56.7058 130.629 66.9204 127.104L63.0538 114.673C52.7371 117.208 42.1559 111.385 38.7906 101.273L26.5668 105.079C29.6801 115.774 23.6667 126.979 13.0781 130.314L16.6928 141.935C27.4388 138.906 38.6525 145.068 41.8399 155.804L42.0328 155.909Z" fill="#0000FF" stroke="white" stroke-width="2" stroke-miterlimit="10"/>
<path d="M42.0328 149.962L53.8235 146.291L53.9323 146.091C50.9518 135.614 56.7058 124.682 66.9204 121.156L63.0538 108.726C52.7371 111.261 42.1559 105.438 38.7906 95.3262L26.5668 99.132C29.6801 109.827 23.6667 121.031 13.0781 124.367L16.6928 135.988C27.4388 132.959 38.6525 139.121 41.8399 149.857L42.0328 149.962Z" fill="#0000FF" stroke="white" stroke-width="2" stroke-miterlimit="10"/>
<path d="M42.0328 144.013L53.8235 140.342L53.9323 140.141C50.9518 129.665 56.7058 118.733 66.9204 115.207L63.0538 102.777C52.7371 105.311 42.1559 99.489 38.7906 89.377L26.5668 93.1827C29.6801 103.878 23.6667 115.082 13.0781 118.418L16.6928 130.038C27.4388 127.01 38.6525 133.171 41.8399 143.908L42.0328 144.013Z" fill="#0000FF" stroke="white" stroke-width="2" stroke-miterlimit="10"/>
<path d="M42.0328 138.065L53.8235 134.395L53.9323 134.194C50.9518 123.718 56.7058 112.785 66.9204 109.26L63.0538 96.8295C52.7371 99.364 42.1559 93.5417 38.7906 83.4297L26.5668 87.2355C29.6801 97.9307 23.6667 109.135 13.0781 112.47L16.6928 124.091C27.4388 121.063 38.6525 127.224 41.8399 137.961L42.0328 138.065Z" fill="#0000FF" stroke="white" stroke-width="2" stroke-miterlimit="10"/>
<path d="M47.9234 131.813L59.7141 128.143L59.8229 127.942C56.8424 117.466 62.5964 106.534 72.811 103.008L68.9444 90.5775C58.6278 93.1121 48.0465 87.2897 44.6813 77.1777L32.4574 80.9835C35.5707 91.6787 29.5573 102.883 18.9688 106.218L22.5835 117.839C33.3294 114.811 44.5431 120.972 47.7305 131.709L47.9234 131.813Z" fill="#0000FF" stroke="white" stroke-width="2" stroke-miterlimit="10"/>
<path d="M53.8131 125.563L65.6038 121.893L65.7126 121.692C62.7321 111.216 68.486 100.284 78.7006 96.758L74.8341 84.3275C64.5174 86.8621 53.9362 81.0397 50.5709 70.9277L38.3471 74.7335C41.4603 85.4287 35.4469 96.633 24.8584 99.9683L28.4731 111.589C39.219 108.561 50.4328 114.722 53.6201 125.459L53.8131 125.563Z" fill="#0000FF" stroke="white" stroke-width="2" stroke-miterlimit="10"/>
<path d="M59.7037 119.312L71.4944 115.641L71.6032 115.44C68.6227 104.964 74.3767 94.0316 84.5913 90.5061L80.7247 78.0756C70.408 80.6101 59.8268 74.7878 56.4615 64.6758L44.2377 68.4816C47.351 79.1768 41.3376 90.381 30.749 93.7164L34.3637 105.337C45.1096 102.309 56.3234 108.47 59.5108 119.207L59.7037 119.312Z" fill="#0000FF" stroke="white" stroke-width="2" stroke-miterlimit="10"/>
<path d="M65.5934 113.062L77.3841 109.391L77.4929 109.19C74.5124 98.7139 80.2663 87.7816 90.4809 84.256L86.6143 71.8256C76.2977 74.3601 65.7165 68.5378 62.3512 58.4258L50.1274 62.2316C53.2406 72.9268 47.2272 84.131 36.6387 87.4664L40.2534 99.0872C50.9993 96.0588 62.2131 102.22 65.4004 112.957L65.5934 113.062Z" fill="#0000FF" stroke="white" stroke-width="2" stroke-miterlimit="10"/>
<path d="M71.483 106.81L83.2737 103.139L83.3825 102.938C80.402 92.462 86.156 81.5296 96.3706 78.0041L92.504 65.5736C82.1873 68.1082 71.6061 62.2858 68.2408 52.1738L56.017 55.9796C59.1303 66.6748 53.1169 77.8791 42.5283 81.2144L46.143 92.8352C56.8889 89.8069 68.1027 95.9683 71.2901 106.705L71.483 106.81Z" fill="#0000FF" stroke="white" stroke-width="2" stroke-miterlimit="10"/>
<path d="M77.3736 100.56L89.1643 96.8887L89.2731 96.6883C86.2926 86.212 92.0466 75.2796 102.261 71.7541L98.3946 59.3236C88.078 61.8582 77.4967 56.0358 74.1315 45.9238L61.9076 49.7296C65.0209 60.4248 59.0075 71.6291 48.4189 74.9644L52.0337 86.5852C62.7796 83.5569 73.9933 89.7183 77.1807 100.455L77.3736 100.56Z" fill="#0000FF" stroke="white" stroke-width="2" stroke-miterlimit="10"/>
<path d="M83.2633 94.3096L95.054 90.6387L95.1628 90.4384C92.1823 79.962 97.9362 69.0296 108.151 65.5041L104.284 53.0736C93.9676 55.6082 83.3864 49.7858 80.0211 39.6738L67.7973 43.4796C70.9105 54.1748 64.8971 65.3791 54.3086 68.7144L57.9233 80.3352C68.6692 77.3069 79.883 83.4683 83.0703 94.2047L83.2633 94.3096Z" fill="#0000FF" stroke="white" stroke-width="2" stroke-miterlimit="10"/>
<path d="M89.1539 88.0576L100.945 84.3867L101.053 84.1864C98.0729 73.71 103.827 62.7777 114.041 59.2521L110.175 46.8217C99.8582 49.3562 89.277 43.5339 85.9117 33.4219L73.6879 37.2277C76.8012 47.9229 70.7878 59.1271 60.1992 62.4625L63.8139 74.0833C74.5598 71.0549 85.7736 77.2163 88.961 87.9527L89.1539 88.0576Z" fill="#0000FF" stroke="white" stroke-width="2" stroke-miterlimit="10"/>
<path d="M95.0436 81.8076L106.834 78.1367L106.943 77.9364C103.963 67.46 109.717 56.5277 119.931 53.0021L116.065 40.5717C105.748 43.1062 95.1667 37.2839 91.8014 27.1719L79.5776 30.9777C82.6908 41.6729 76.6774 52.8771 66.0889 56.2125L69.7036 67.8333C80.4495 64.8049 91.6632 70.9663 94.8506 81.7027L95.0436 81.8076Z" fill="#0000FF" stroke="white" stroke-width="2" stroke-miterlimit="10"/>
<path d="M100.933 75.5557L112.724 71.8848L112.833 71.6844C109.852 61.2081 115.606 50.2757 125.821 46.7502L121.954 34.3197C111.638 36.8543 101.056 31.0319 97.691 20.9199L85.4672 24.7257C88.5805 35.4209 82.5671 46.6251 71.9785 49.9605L75.5932 61.5813C86.3391 58.553 97.5529 64.7144 100.74 75.4508L100.933 75.5557Z" fill="#0000FF" stroke="white" stroke-width="2" stroke-miterlimit="10"/>
<path d="M106.824 69.3057L118.615 65.6347L118.723 65.4344C115.743 54.958 121.497 44.0257 131.711 40.5002L127.845 28.0697C117.528 30.6043 106.947 24.7819 103.582 14.6699L91.3578 18.4757C94.4711 29.1709 88.4577 40.3752 77.8691 43.7105L81.4839 55.3313C92.2298 52.303 103.444 58.4644 106.631 69.2008L106.824 69.3057Z" fill="#0000FF" stroke="white" stroke-width="2" stroke-miterlimit="10"/>
<path d="M112.713 63.0537L124.504 59.3828L124.613 59.1825C121.632 48.7061 127.386 37.7738 137.601 34.2482L133.734 21.8178C123.418 24.3523 112.837 18.53 109.471 8.41797L97.2475 12.2238C100.361 22.919 94.3473 34.1232 83.7588 37.4586L87.3735 49.0793C98.1194 46.051 109.333 52.2124 112.521 62.9488L112.713 63.0537Z" fill="#0000FF" stroke="white" stroke-width="2" stroke-miterlimit="10"/>
<path d="M118.604 56.8037L130.395 53.1328L130.504 52.9325C127.523 42.4561 133.277 31.5238 143.492 27.9982L139.625 15.5678C129.308 18.1023 118.727 12.28 115.362 2.16797L103.138 5.97375C106.251 16.669 100.238 27.8732 89.6494 31.2086L93.2641 42.8293C104.01 39.801 115.224 45.9624 118.411 56.6988L118.604 56.8037Z" fill="#0000FF" stroke="white" stroke-width="2" stroke-miterlimit="10"/>
<path d="M127.791 56.8037L139.581 53.1328L139.69 52.9325C136.71 42.4561 142.464 31.5238 152.678 27.9982L148.812 15.5678C138.495 18.1023 127.914 12.28 124.548 2.16797L112.325 5.97375C115.438 16.669 109.424 27.8732 98.8359 31.2086L102.451 42.8293C113.197 39.801 124.41 45.9624 127.598 56.6988L127.791 56.8037Z" fill="#0000FF" stroke="white" stroke-width="2" stroke-miterlimit="10"/>
<path d="M136.976 56.8037L148.767 53.1328L148.876 52.9325C145.895 42.4561 151.649 31.5238 161.864 27.9982L157.997 15.5678C147.68 18.1023 137.099 12.28 133.734 2.16797L121.51 5.97375C124.623 16.669 118.61 27.8732 108.021 31.2086L111.636 42.8293C122.382 39.801 133.596 45.9624 136.783 56.6988L136.976 56.8037Z" fill="#0000FF" stroke="white" stroke-width="2" stroke-miterlimit="10"/>
<path d="M146.163 56.8037L157.953 53.1328L158.062 52.9325C155.082 42.4561 160.836 31.5238 171.05 27.9982L167.184 15.5678C156.867 18.1023 146.286 12.28 142.921 2.16797L130.697 5.97375C133.81 16.669 127.797 27.8732 117.208 31.2086L120.823 42.8293C131.569 39.801 142.782 45.9624 145.97 56.6988L146.163 56.8037Z" fill="#0000FF" stroke="white" stroke-width="2" stroke-miterlimit="10"/>
<path d="M155.349 56.8037L167.14 53.1328L167.249 52.9325C164.268 42.4561 170.022 31.5238 180.237 27.9982L176.37 15.5678C166.054 18.1023 155.472 12.28 152.107 2.16797L139.883 5.97375C142.996 16.669 136.983 27.8732 126.395 31.2086L130.009 42.8293C140.755 39.801 151.969 45.9624 155.156 56.6988L155.349 56.8037Z" fill="#0000FF" stroke="white" stroke-width="2" stroke-miterlimit="10"/>
<path d="M164.536 56.8037L176.326 53.1328L176.435 52.9325C173.455 42.4561 179.209 31.5238 189.423 27.9982L185.557 15.5678C175.24 18.1023 164.659 12.28 161.294 2.16797L149.07 5.97375C152.183 16.669 146.17 27.8732 135.581 31.2086L139.196 42.8293C149.942 39.801 161.155 45.9624 164.343 56.6988L164.536 56.8037Z" fill="#0000FF" stroke="white" stroke-width="2" stroke-miterlimit="10"/>
<path d="M173.722 56.8037L185.513 53.1328L185.622 52.9325C182.641 42.4561 188.395 31.5238 198.61 27.9982L194.743 15.5678C184.427 18.1023 173.845 12.28 170.48 2.16797L158.256 5.97375C161.37 16.669 155.356 27.8732 144.768 31.2086L148.382 42.8293C159.128 39.801 170.342 45.9624 173.529 56.6988L173.722 56.8037Z" fill="#0000FF" stroke="white" stroke-width="2" stroke-miterlimit="10"/>
<path d="M182.909 56.8037L194.699 53.1328L194.808 52.9325C191.828 42.4561 197.582 31.5238 207.796 27.9982L203.93 15.5678C193.613 18.1023 183.032 12.28 179.667 2.16797L167.443 5.97375C170.556 16.669 164.543 27.8732 153.954 31.2086L157.569 42.8293C168.315 39.801 179.528 45.9624 182.716 56.6988L182.909 56.8037Z" fill="#0000FF" stroke="white" stroke-width="2" stroke-miterlimit="10"/>
<path d="M192.095 56.8037L203.886 53.1328L203.995 52.9325C201.014 42.4561 206.768 31.5238 216.983 27.9982L213.116 15.5678C202.8 18.1023 192.218 12.28 188.853 2.16797L176.629 5.97375C179.743 16.669 173.729 27.8732 163.141 31.2086L166.755 42.8293C177.501 39.801 188.715 45.9624 191.902 56.6988L192.095 56.8037Z" fill="#0000FF" stroke="white" stroke-width="2" stroke-miterlimit="10"/>
<path d="M201.282 56.8037L213.073 53.1328L213.181 52.9325C210.201 42.4561 215.955 31.5238 226.169 27.9982L222.303 15.5678C211.986 18.1023 201.405 12.28 198.04 2.16797L185.816 5.97375C188.929 16.669 182.916 27.8732 172.327 31.2086L175.942 42.8293C186.688 39.801 197.902 45.9624 201.089 56.6988L201.282 56.8037Z" fill="#0000FF" stroke="white" stroke-width="2" stroke-miterlimit="10"/>
<path d="M210.468 56.8037L222.259 53.1328L222.368 52.9325C219.387 42.4561 225.141 31.5238 235.356 27.9982L231.489 15.5678C221.173 18.1023 210.591 12.28 207.226 2.16797L195.002 5.97375C198.116 16.669 192.102 27.8732 181.514 31.2086L185.128 42.8293C195.874 39.801 207.088 45.9624 210.275 56.6988L210.468 56.8037Z" fill="#0000FF" stroke="white" stroke-width="2" stroke-miterlimit="10"/>
<path d="M219.654 56.8037L231.445 53.1328L231.553 52.9325C228.573 42.4561 234.327 31.5238 244.541 27.9982L240.675 15.5678C230.358 18.1023 219.777 12.28 216.412 2.16797L204.188 5.97375C207.301 16.669 201.288 27.8732 190.699 31.2086L194.314 42.8293C205.06 39.801 216.274 45.9624 219.461 56.6988L219.654 56.8037Z" fill="#0000FF" stroke="white" stroke-width="2" stroke-miterlimit="10"/>
<path d="M228.84 56.8037L240.631 53.1328L240.74 52.9325C237.759 42.4561 243.513 31.5238 253.728 27.9982L249.861 15.5678C239.545 18.1023 228.964 12.28 225.598 2.16797L213.374 5.97375C216.488 16.669 210.474 27.8732 199.886 31.2086L203.5 42.8293C214.246 39.801 225.46 45.9624 228.647 56.6988L228.84 56.8037Z" fill="#0000FF" stroke="white" stroke-width="2" stroke-miterlimit="10"/>
<path d="M238.027 56.8037L249.818 53.1328L249.926 52.9325C246.946 42.4561 252.7 31.5238 262.915 27.9982L259.048 15.5678C248.731 18.1023 238.15 12.28 234.785 2.16797L222.561 5.97375C225.674 16.669 219.661 27.8732 209.072 31.2086L212.687 42.8293C223.433 39.801 234.647 45.9624 237.834 56.6988L238.027 56.8037Z" fill="#0000FF" stroke="white" stroke-width="2" stroke-miterlimit="10"/>
<path d="M241.271 63.0537L253.062 59.3828L253.171 59.1825C250.19 48.7061 255.944 37.7738 266.159 34.2482L262.292 21.8178C251.975 24.3523 241.394 18.53 238.029 8.41797L225.805 12.2238C228.918 22.919 222.905 34.1232 212.316 37.4586L215.931 49.0793C226.677 46.051 237.891 52.2124 241.078 62.9488L241.271 63.0537Z" fill="#0000FF" stroke="white" stroke-width="2" stroke-miterlimit="10"/>
<path d="M244.514 69.3057L256.305 65.6347L256.414 65.4344C253.433 54.958 259.187 44.0257 269.402 40.5002L265.535 28.0697C255.219 30.6043 244.637 24.7819 241.272 14.6699L229.048 18.4757C232.162 29.1709 226.148 40.3752 215.56 43.7105L219.174 55.3313C229.92 52.303 241.134 58.4644 244.321 69.2008L244.514 69.3057Z" fill="#0000FF" stroke="white" stroke-width="2" stroke-miterlimit="10"/>
<path d="M247.758 75.5557L259.549 71.8848L259.658 71.6844C256.677 61.2081 262.431 50.2757 272.646 46.7502L268.779 34.3197C258.463 36.8543 247.882 31.0319 244.516 20.9199L232.292 24.7257C235.406 35.4209 229.392 46.6251 218.804 49.9605L222.418 61.5813C233.164 58.553 244.378 64.7144 247.565 75.4508L247.758 75.5557Z" fill="#0000FF" stroke="white" stroke-width="2" stroke-miterlimit="10"/>
<path d="M251.002 81.8076L262.792 78.1367L262.901 77.9364C259.921 67.46 265.675 56.5277 275.889 53.0021L272.023 40.5717C261.706 43.1062 251.125 37.2839 247.759 27.1719L235.536 30.9777C238.649 41.6729 232.635 52.8771 222.047 56.2125L225.662 67.8333C236.407 64.8049 247.621 70.9663 250.809 81.7027L251.002 81.8076Z" fill="#0000FF" stroke="white" stroke-width="2" stroke-miterlimit="10"/>
<path d="M254.246 88.0576L266.036 84.3867L266.145 84.1864C263.165 73.71 268.919 62.7777 279.133 59.2521L275.267 46.8217C264.95 49.3562 254.369 43.5339 251.004 33.4219L238.78 37.2277C241.893 47.9229 235.88 59.1271 225.291 62.4625L228.906 74.0833C239.652 71.0549 250.865 77.2163 254.053 87.9527L254.246 88.0576Z" fill="#0000FF" stroke="white" stroke-width="2" stroke-miterlimit="10"/>
<path d="M257.489 94.3096L269.28 90.6387L269.388 90.4384C266.408 79.962 272.162 69.0296 282.376 65.5041L278.51 53.0736C268.193 55.6082 257.612 49.7858 254.247 39.6738L242.023 43.4796C245.136 54.1748 239.123 65.3791 228.534 68.7144L232.149 80.3352C242.895 77.3069 254.109 83.4683 257.296 94.2047L257.489 94.3096Z" fill="#0000FF" stroke="white" stroke-width="2" stroke-miterlimit="10"/>
<path d="M260.733 100.56L272.524 96.8887L272.633 96.6883C269.652 86.212 275.406 75.2796 285.621 71.7541L281.754 59.3236C271.437 61.8582 260.856 56.0358 257.491 45.9238L245.267 49.7296C248.38 60.4248 242.367 71.6291 231.778 74.9644L235.393 86.5852C246.139 83.5569 257.353 89.7183 260.54 100.455L260.733 100.56Z" fill="#0000FF" stroke="white" stroke-width="2" stroke-miterlimit="10"/>
<path d="M263.976 106.81L275.767 103.139L275.876 102.938C272.895 92.462 278.649 81.5296 288.864 78.0041L284.997 65.5736C274.681 68.1082 264.099 62.2858 260.734 52.1738L248.51 55.9796C251.623 66.6748 245.61 77.8791 235.021 81.2144L238.636 92.8352C249.382 89.8069 260.596 95.9683 263.783 106.705L263.976 106.81Z" fill="#0000FF" stroke="white" stroke-width="2" stroke-miterlimit="10"/>
<path d="M267.219 113.062L279.01 109.391L279.119 109.19C276.138 98.7139 281.892 87.7816 292.107 84.256L288.24 71.8256C277.924 74.3601 267.342 68.5378 263.977 58.4258L251.753 62.2316C254.867 72.9268 248.853 84.131 238.265 87.4664L241.879 99.0872C252.625 96.0588 263.839 102.22 267.026 112.957L267.219 113.062Z" fill="#0000FF" stroke="white" stroke-width="2" stroke-miterlimit="10"/>
<path d="M270.463 119.312L282.254 115.641L282.363 115.44C279.382 104.964 285.136 94.0316 295.351 90.5061L291.484 78.0756C281.168 80.6101 270.587 74.7878 267.221 64.6758L254.998 68.4816C258.111 79.1768 252.097 90.381 241.509 93.7164L245.123 105.337C255.869 102.309 267.083 108.47 270.271 119.207L270.463 119.312Z" fill="#0000FF" stroke="white" stroke-width="2" stroke-miterlimit="10"/>
<path d="M273.707 125.563L285.497 121.893L285.606 121.692C282.626 111.216 288.38 100.284 298.594 96.758L294.728 84.3275C284.411 86.8621 273.83 81.0397 270.464 70.9277L258.241 74.7335C261.354 85.4287 255.34 96.633 244.752 99.9683L248.367 111.589C259.113 108.561 270.326 114.722 273.514 125.459L273.707 125.563Z" fill="#0000FF" stroke="white" stroke-width="2" stroke-miterlimit="10"/>
<path d="M276.951 131.813L288.741 128.143L288.85 127.942C285.87 117.466 291.624 106.534 301.838 103.008L297.972 90.5775C287.655 93.1121 277.074 87.2897 273.709 77.1777L261.485 80.9835C264.598 91.6787 258.585 102.883 247.996 106.218L251.611 117.839C262.357 114.811 273.57 120.972 276.758 131.709L276.951 131.813Z" fill="#0000FF" stroke="white" stroke-width="2" stroke-miterlimit="10"/>
<path d="M280.194 138.065L291.985 134.395L292.093 134.194C289.113 123.718 294.867 112.785 305.082 109.26L301.215 96.8295C290.898 99.364 280.317 93.5417 276.952 83.4297L264.728 87.2355C267.841 97.9307 261.828 109.135 251.239 112.47L254.854 124.091C265.6 121.063 276.814 127.224 280.001 137.961L280.194 138.065Z" fill="#0000FF" stroke="white" stroke-width="2" stroke-miterlimit="10"/>
<path d="M283.438 144.315L295.229 140.645L295.338 140.444C292.357 129.968 298.111 119.035 308.326 115.51L304.459 103.079C294.142 105.614 283.561 99.7917 280.196 89.6797L267.972 93.4855C271.085 104.181 265.072 115.385 254.483 118.72L258.098 130.341C268.844 127.313 280.058 133.474 283.245 144.211L283.438 144.315Z" fill="#0000FF" stroke="white" stroke-width="2" stroke-miterlimit="10"/>
<path d="M286.681 150.567L298.472 146.896L298.581 146.696C295.6 136.22 301.354 125.287 311.569 121.762L307.702 109.331C297.386 111.866 286.804 106.044 283.439 95.9316L271.215 99.7374C274.329 110.433 268.315 121.637 257.727 124.972L261.341 136.593C272.087 133.565 283.301 139.726 286.488 150.462L286.681 150.567Z" fill="#0000FF" stroke="white" stroke-width="2" stroke-miterlimit="10"/>
<path d="M289.925 156.817L301.716 153.146L301.825 152.946C298.844 142.47 304.598 131.537 314.813 128.012L310.946 115.581C300.63 118.116 290.049 112.294 286.683 102.182L274.459 105.987C277.573 116.683 271.559 127.887 260.971 131.222L264.585 142.843C275.331 139.815 286.545 145.976 289.732 156.712L289.925 156.817Z" fill="#0000FF" stroke="white" stroke-width="2" stroke-miterlimit="10"/>
<path d="M284.41 155.573L296.2 151.902L296.309 151.702C293.329 141.226 299.083 130.293 309.297 126.768L305.431 114.337C295.114 116.872 284.533 111.05 281.168 100.938L268.944 104.743C272.057 115.438 266.044 126.643 255.455 129.978L259.07 141.599C269.816 138.571 281.029 144.732 284.217 155.468L284.41 155.573Z" fill="#0000FF" stroke="white" stroke-width="2" stroke-miterlimit="10"/>
<path d="M278.895 154.327L290.686 150.656L290.795 150.456C287.814 139.98 293.568 129.047 303.783 125.522L299.916 113.091C289.599 115.626 279.018 109.803 275.653 99.6914L263.429 103.497C266.542 114.192 260.529 125.397 249.94 128.732L253.555 140.353C264.301 137.324 275.515 143.486 278.702 154.222L278.895 154.327Z" fill="#0000FF" stroke="white" stroke-width="2" stroke-miterlimit="10"/>
<path d="M273.38 153.083L285.17 149.412L285.279 149.212C282.299 138.735 288.052 127.803 298.267 124.278L294.4 111.847C284.084 114.382 273.503 108.559 270.137 98.4473L257.913 102.253C261.027 112.948 255.013 124.153 244.425 127.488L248.04 139.109C258.785 136.08 269.999 142.242 273.187 152.978L273.38 153.083Z" fill="#0000FF" stroke="white" stroke-width="2" stroke-miterlimit="10"/>
<path d="M267.865 151.839L279.656 148.168L279.764 147.968C276.784 137.491 282.538 126.559 292.752 123.033L288.886 110.603C278.569 113.137 267.988 107.315 264.623 97.2031L252.399 101.009C255.512 111.704 249.499 122.908 238.91 126.244L242.525 137.865C253.271 134.836 264.485 140.998 267.672 151.734L267.865 151.839Z" fill="#0000FF" stroke="white" stroke-width="2" stroke-miterlimit="10"/>
<path d="M262.349 150.593L274.14 146.922L274.249 146.722C271.268 136.245 277.022 125.313 287.237 121.787L283.37 109.357C273.054 111.891 262.472 106.069 259.107 95.957L246.883 99.7628C249.996 110.458 243.983 121.662 233.395 124.998L237.009 136.618C247.755 133.59 258.969 139.751 262.156 150.488L262.349 150.593Z" fill="#0000FF" stroke="white" stroke-width="2" stroke-miterlimit="10"/>
<path d="M256.834 149.349L268.624 145.678L268.733 145.477C265.753 135.001 271.507 124.069 281.721 120.543L277.855 108.113C267.538 110.647 256.957 104.825 253.591 94.7129L241.368 98.5187C244.481 109.214 238.467 120.418 227.879 123.753L231.494 135.374C242.24 132.346 253.453 138.507 256.641 149.244L256.834 149.349Z" fill="#0000FF" stroke="white" stroke-width="2" stroke-miterlimit="10"/>
<path d="M251.319 148.104L263.11 144.434L263.218 144.233C260.238 133.757 265.992 122.825 276.206 119.299L272.34 106.869C262.023 109.403 251.442 103.581 248.077 93.4688L235.853 97.2745C238.966 107.97 232.953 119.174 222.364 122.509L225.979 134.13C236.725 131.102 247.939 137.263 251.126 148L251.319 148.104Z" fill="#0000FF" stroke="white" stroke-width="2" stroke-miterlimit="10"/>
<path d="M245.803 146.858L257.594 143.187L257.703 142.987C254.722 132.511 260.476 121.578 270.691 118.053L266.824 105.622C256.508 108.157 245.926 102.335 242.561 92.2227L230.337 96.0284C233.451 106.724 227.437 117.928 216.849 121.263L220.463 132.884C231.209 129.856 242.423 136.017 245.61 146.753L245.803 146.858Z" fill="#0000FF" stroke="white" stroke-width="2" stroke-miterlimit="10"/>
<path d="M240.289 145.614L252.079 141.943L252.188 141.743C249.208 131.267 254.962 120.334 265.176 116.809L261.31 104.378C250.993 106.913 240.412 101.091 237.047 90.9785L224.823 94.7843C227.936 105.48 221.923 116.684 211.334 120.019L214.949 131.64C225.695 128.612 236.908 134.773 240.096 145.509L240.289 145.614Z" fill="#0000FF" stroke="white" stroke-width="2" stroke-miterlimit="10"/>
<path d="M234.773 144.37L246.564 140.699L246.673 140.499C243.692 130.023 249.446 119.09 259.661 115.565L255.794 103.134C245.477 105.669 234.896 99.8464 231.531 89.7344L219.307 93.5402C222.42 104.235 216.407 115.44 205.818 118.775L209.433 130.396C220.179 127.367 231.393 133.529 234.58 144.265L234.773 144.37Z" fill="#0000FF" stroke="white" stroke-width="2" stroke-miterlimit="10"/>
<path d="M229.258 143.124L241.049 139.453L241.158 139.253C238.177 128.776 243.931 117.844 254.146 114.319L250.279 101.888C239.963 104.423 229.382 98.6003 226.016 88.4883L213.792 92.2941C216.906 102.989 210.892 114.194 200.304 117.529L203.918 129.15C214.664 126.121 225.878 132.283 229.065 143.019L229.258 143.124Z" fill="#0000FF" stroke="white" stroke-width="2" stroke-miterlimit="10"/>
<path d="M223.743 141.88L235.533 138.209L235.642 138.009C232.662 127.532 238.416 116.6 248.63 113.074L244.764 100.644C234.447 103.178 223.866 97.3561 220.501 87.2441L208.277 91.0499C211.39 101.745 205.377 112.949 194.788 116.285L198.403 127.906C209.149 124.877 220.362 131.039 223.55 141.775L223.743 141.88Z" fill="#0000FF" stroke="white" stroke-width="2" stroke-miterlimit="10"/>
<path d="M218.228 140.636L230.019 136.965L230.128 136.765C227.147 126.288 232.901 115.356 243.116 111.83L239.249 99.3998C228.932 101.934 218.351 96.112 214.986 86L202.762 89.8058C205.875 100.501 199.862 111.705 189.273 115.041L192.888 126.661C203.634 123.633 214.848 129.794 218.035 140.531L218.228 140.636Z" fill="#0000FF" stroke="white" stroke-width="2" stroke-miterlimit="10"/>
<path d="M212.713 139.39L224.503 135.719L224.612 135.518C221.632 125.042 227.385 114.11 237.6 110.584L233.733 98.1537C223.417 100.688 212.836 94.8659 209.47 84.7539L197.247 88.5597C200.36 99.2549 194.346 110.459 183.758 113.794L187.373 125.415C198.118 122.387 209.332 128.548 212.52 139.285L212.713 139.39Z" fill="#0000FF" stroke="white" stroke-width="2" stroke-miterlimit="10"/>
<path d="M207.198 138.146L218.989 134.475L219.097 134.274C216.117 123.798 221.871 112.866 232.085 109.34L228.219 96.9096C217.902 99.4441 207.321 93.6218 203.956 83.5098L191.732 87.3155C194.845 98.0108 188.832 109.215 178.243 112.55L181.858 124.171C192.604 121.143 203.818 127.304 207.005 138.041L207.198 138.146Z" fill="#0000FF" stroke="white" stroke-width="2" stroke-miterlimit="10"/>
<path d="M201.682 136.901L213.473 133.23L213.582 133.03C210.601 122.554 216.355 111.621 226.57 108.096L222.703 95.6654C212.387 98.2 201.805 92.3776 198.44 82.2656L186.216 86.0714C189.329 96.7666 183.316 107.971 172.728 111.306L176.342 122.927C187.088 119.899 198.302 126.06 201.489 136.796L201.682 136.901Z" fill="#0000FF" stroke="white" stroke-width="2" stroke-miterlimit="10"/>
<path d="M196.167 135.655L207.957 131.984L208.066 131.784C205.086 121.308 210.84 110.375 221.054 106.85L217.188 94.4193C206.871 96.9539 196.29 91.1315 192.924 81.0195L180.701 84.8253C183.814 95.5205 177.8 106.725 167.212 110.06L170.827 121.681C181.573 118.653 192.786 124.814 195.974 135.55L196.167 135.655Z" fill="#0000FF" stroke="white" stroke-width="2" stroke-miterlimit="10"/>
<path d="M190.652 134.411L202.443 130.74L202.551 130.54C199.571 120.064 205.325 109.131 215.54 105.606L211.673 93.1752C201.356 95.7097 190.775 89.8874 187.41 79.7754L175.186 83.5812C178.299 94.2764 172.286 105.481 161.697 108.816L165.312 120.437C176.058 117.408 187.272 123.57 190.459 134.306L190.652 134.411Z" fill="#0000FF" stroke="white" stroke-width="2" stroke-miterlimit="10"/>
<path d="M185.792 136.901L197.582 133.23L197.691 133.03C194.711 122.554 200.465 111.621 210.679 108.096L206.813 95.6654C196.496 98.2 185.915 92.3776 182.549 82.2656L170.326 86.0714C173.439 96.7666 167.425 107.971 156.837 111.306L160.452 122.927C171.198 119.899 182.411 126.06 185.599 136.796L185.792 136.901Z" fill="#0000FF" stroke="white" stroke-width="2" stroke-miterlimit="10"/>
<path d="M180.931 139.39L192.722 135.719L192.831 135.518C189.85 125.042 195.604 114.11 205.819 110.584L201.952 98.1537C191.636 100.688 181.054 94.8659 177.689 84.7539L165.465 88.5597C168.578 99.2549 162.565 110.459 151.977 113.794L155.591 125.415C166.337 122.387 177.551 128.548 180.738 139.285L180.931 139.39Z" fill="#0000FF" stroke="white" stroke-width="2" stroke-miterlimit="10"/>
<path d="M176.071 141.88L187.862 138.209L187.97 138.009C184.99 127.532 190.744 116.6 200.958 113.074L197.092 100.644C186.775 103.178 176.194 97.3561 172.829 87.2441L160.605 91.0499C163.718 101.745 157.705 112.949 147.116 116.285L150.731 127.906C161.477 124.877 172.691 131.039 175.878 141.775L176.071 141.88Z" fill="#0000FF" stroke="white" stroke-width="2" stroke-miterlimit="10"/>
<path d="M171.211 144.37L183.001 140.699L183.11 140.499C180.13 130.023 185.883 119.09 196.098 115.565L192.232 103.134C181.915 105.669 171.334 99.8464 167.968 89.7344L155.745 93.5402C158.858 104.235 152.844 115.44 142.256 118.775L145.871 130.396C156.616 127.367 167.83 133.529 171.018 144.265L171.211 144.37Z" fill="#0000FF" stroke="white" stroke-width="2" stroke-miterlimit="10"/>
<path d="M166.35 146.858L178.141 143.187L178.25 142.987C175.269 132.511 181.023 121.578 191.238 118.053L187.371 105.622C177.055 108.157 166.473 102.335 163.108 92.2227L150.884 96.0284C153.997 106.724 147.984 117.928 137.396 121.263L141.01 132.884C151.756 129.856 162.97 136.017 166.157 146.753L166.35 146.858Z" fill="#0000FF" stroke="white" stroke-width="2" stroke-miterlimit="10"/>
<path d="M161.49 149.349L173.281 145.678L173.389 145.477C170.409 135.001 176.163 124.069 186.377 120.543L182.511 108.113C172.194 110.647 161.613 104.825 158.248 94.7129L146.024 98.5187C149.137 109.214 143.124 120.418 132.535 123.753L136.15 135.374C146.896 132.346 158.11 138.507 161.297 149.244L161.49 149.349Z" fill="#0000FF" stroke="white" stroke-width="2" stroke-miterlimit="10"/>
<path d="M156.63 151.839L168.42 148.168L168.529 147.968C165.549 137.491 171.302 126.559 181.517 123.033L177.65 110.603C167.334 113.137 156.753 107.315 153.387 97.2031L141.164 101.009C144.277 111.704 138.263 122.908 127.675 126.244L131.29 137.865C142.035 134.836 153.249 140.998 156.437 151.734L156.63 151.839Z" fill="#0000FF" stroke="white" stroke-width="2" stroke-miterlimit="10"/>
<path d="M151.769 154.327L163.56 150.656L163.669 150.456C160.688 139.98 166.442 129.047 176.657 125.522L172.79 113.091C162.473 115.626 151.892 109.803 148.527 99.6914L136.303 103.497C139.416 114.192 133.403 125.397 122.814 128.732L126.429 140.353C137.175 137.324 148.389 143.486 151.576 154.222L151.769 154.327Z" fill="#0000FF" stroke="white" stroke-width="2" stroke-miterlimit="10"/>
<path d="M146.909 156.817L158.699 153.146L158.808 152.946C155.828 142.47 161.582 131.537 171.796 128.012L167.93 115.581C157.613 118.116 147.032 112.294 143.667 102.182L131.443 105.987C134.556 116.683 128.543 127.887 117.954 131.222L121.569 142.843C132.315 139.815 143.528 145.976 146.716 156.712L146.909 156.817Z" fill="#0000FF" stroke="white" stroke-width="2" stroke-miterlimit="10"/>
<path d="M142.048 159.308L153.839 155.637L153.948 155.436C150.967 144.96 156.721 134.028 166.936 130.502L163.069 118.072C152.753 120.606 142.172 114.784 138.806 104.672L126.582 108.478C129.696 119.173 123.682 130.377 113.094 133.712L116.708 145.333C127.454 142.305 138.668 148.466 141.855 159.203L142.048 159.308Z" fill="#0000FF" stroke="white" stroke-width="2" stroke-miterlimit="10"/>
<path d="M137.188 161.796L148.979 158.125L149.088 157.925C146.107 147.448 151.861 136.516 162.076 132.99L158.209 120.56C147.892 123.095 137.311 117.272 133.946 107.16L121.722 110.966C124.835 121.661 118.822 132.865 108.233 136.201L111.848 147.822C122.594 144.793 133.808 150.955 136.995 161.691L137.188 161.796Z" fill="#0000FF" stroke="white" stroke-width="2" stroke-miterlimit="10"/>
<path d="M132.328 164.286L144.118 160.615L144.227 160.415C141.247 149.939 147.001 139.006 157.215 135.481L153.349 123.05C143.032 125.585 132.451 119.762 129.086 109.65L116.862 113.456C119.975 124.151 113.962 135.356 103.373 138.691L106.988 150.312C117.734 147.283 128.947 153.445 132.135 164.181L132.328 164.286Z" fill="#0000FF" stroke="white" stroke-width="2" stroke-miterlimit="10"/>
<path d="M127.466 166.776L139.257 163.105L139.366 162.905C136.385 152.429 142.139 141.496 152.354 137.971L148.487 125.54C138.171 128.075 127.59 122.253 124.224 112.141L112 115.946C115.114 126.642 109.1 137.846 98.5117 141.181L102.126 152.802C112.872 149.774 124.086 155.935 127.273 166.671L127.466 166.776Z" fill="#0000FF" stroke="white" stroke-width="2" stroke-miterlimit="10"/>
<path d="M122.606 169.265L134.397 165.594L134.506 165.393C131.525 154.917 137.279 143.985 147.494 140.459L143.627 128.029C133.31 130.563 122.729 124.741 119.364 114.629L107.14 118.435C110.253 129.13 104.24 140.334 93.6514 143.67L97.2661 155.29C108.012 152.262 119.226 158.423 122.413 169.16L122.606 169.265Z" fill="#0000FF" stroke="white" stroke-width="2" stroke-miterlimit="10"/>
<path d="M117.746 171.755L129.536 168.084L129.645 167.884C126.665 157.407 132.419 146.475 142.633 142.949L138.767 130.519C128.45 133.053 117.869 127.231 114.504 117.119L102.28 120.925C105.393 131.62 99.3796 142.824 88.791 146.16L92.4057 157.781C103.152 154.752 114.365 160.914 117.553 171.65L117.746 171.755Z" fill="#0000FF" stroke="white" stroke-width="2" stroke-miterlimit="10"/>
<path d="M112.885 174.245L124.676 170.574L124.785 170.374C121.804 159.898 127.558 148.965 137.773 145.44L133.906 133.009C123.59 135.544 113.008 129.721 109.643 119.609L97.4194 123.415C100.533 134.11 94.5192 145.315 83.9307 148.65L87.5454 160.271C98.2913 157.242 109.505 163.404 112.692 174.14L112.885 174.245Z" fill="#0000FF" stroke="white" stroke-width="2" stroke-miterlimit="10"/>
<path d="M108.025 176.733L119.816 173.062L119.925 172.862C116.944 162.386 122.698 151.453 132.913 147.928L129.046 135.497C118.729 138.032 108.148 132.21 104.783 122.098L92.559 125.903C95.6723 136.599 89.6589 147.803 79.0703 151.138L82.685 162.759C93.4309 159.731 104.645 165.892 107.832 176.629L108.025 176.733Z" fill="#0000FF" stroke="white" stroke-width="2" stroke-miterlimit="10"/>
<path d="M103.165 179.224L114.955 175.553L115.064 175.352C112.084 164.876 117.838 153.944 128.052 150.418L124.186 137.988C113.869 140.522 103.288 134.7 99.9225 124.588L87.6987 128.394C90.8119 139.089 84.7985 150.293 74.21 153.628L77.8247 165.249C88.5706 162.221 99.7843 168.382 102.972 179.119L103.165 179.224Z" fill="#0000FF" stroke="white" stroke-width="2" stroke-miterlimit="10"/>
<path d="M98.3043 181.714L110.095 178.043L110.204 177.843C107.223 167.366 112.977 156.434 123.192 152.908L119.325 140.478C109.009 143.012 98.4274 137.19 95.0621 127.078L82.8383 130.884C85.9516 141.579 79.9382 152.783 69.3496 156.119L72.9643 167.74C83.7102 164.711 94.924 170.873 98.1114 181.609L98.3043 181.714Z" fill="#0000FF" stroke="white" stroke-width="2" stroke-miterlimit="10"/>
<path d="M93.444 184.204L105.235 180.533L105.343 180.333C102.363 169.856 108.117 158.924 118.332 155.399L114.465 142.968C104.148 145.503 93.5671 139.68 90.2018 129.568L77.978 133.374C81.0912 144.069 75.0778 155.274 64.4893 158.609L68.104 170.23C78.8499 167.201 90.0636 173.363 93.251 184.099L93.444 184.204Z" fill="#0000FF" stroke="white" stroke-width="2" stroke-miterlimit="10"/>
<path d="M88.5836 186.692L100.374 183.021L100.483 182.821C97.5026 172.345 103.257 161.412 113.471 157.887L109.605 145.456C99.2879 147.991 88.7067 142.169 85.3414 132.057L73.1176 135.862C76.2309 146.558 70.2175 157.762 59.6289 161.097L63.2436 172.718C73.9895 169.69 85.2033 175.851 88.3907 186.587L88.5836 186.692Z" fill="#0000FF" stroke="white" stroke-width="2" stroke-miterlimit="10"/>
<path d="M83.7233 189.183L95.5139 185.512L95.6228 185.311C92.6423 174.835 98.3962 163.903 108.611 160.377L104.744 147.947C94.4276 150.481 83.8463 144.659 80.4811 134.547L68.2573 138.353C71.3705 149.048 65.3571 160.252 54.7686 163.587L58.3833 175.208C69.1292 172.18 80.3429 178.341 83.5303 189.078L83.7233 189.183Z" fill="#0000FF" stroke="white" stroke-width="2" stroke-miterlimit="10"/>
<path d="M78.8629 191.673L90.6536 188.002L90.7624 187.802C87.7819 177.325 93.5358 166.393 103.75 162.867L99.8839 150.437C89.5672 152.971 78.986 147.149 75.6207 137.037L63.3969 140.843C66.5101 151.538 60.4967 162.742 49.9082 166.078L53.5229 177.698C64.2688 174.67 75.4826 180.832 78.6699 191.568L78.8629 191.673Z" fill="#0000FF" stroke="white" stroke-width="2" stroke-miterlimit="10"/>
<path d="M74.0026 194.161L85.7932 190.49L85.9021 190.29C82.9216 179.814 88.6755 168.881 98.8901 165.356L95.0235 152.925C84.7069 155.46 74.1256 149.637 70.7604 139.525L58.5365 143.331C61.6498 154.026 55.6364 165.231 45.0479 168.566L48.6626 180.187C59.4085 177.158 70.6222 183.32 73.8096 194.056L74.0026 194.161Z" fill="#0000FF" stroke="white" stroke-width="2" stroke-miterlimit="10"/>
<path d="M69.1422 196.651L80.9329 192.98L81.0417 192.78C78.0612 182.304 83.8151 171.371 94.0297 167.846L90.1632 155.415C79.8465 157.95 69.2653 152.128 65.9 142.016L53.6762 145.821C56.7894 156.517 50.776 167.721 40.1875 171.056L43.8022 182.677C54.5481 179.649 65.7619 185.81 68.9492 196.546L69.1422 196.651Z" fill="#0000FF" stroke="white" stroke-width="2" stroke-miterlimit="10"/>
<path d="M64.2818 199.142L76.0725 195.471L76.1814 195.27C73.2008 184.794 78.9548 173.862 89.1694 170.336L85.3028 157.906C74.9862 160.44 64.4049 154.618 61.0397 144.506L48.8158 148.312C51.9291 159.007 45.9157 170.211 35.3271 173.546L38.9419 185.167C49.6878 182.139 60.9015 188.3 64.0889 199.037L64.2818 199.142Z" fill="#0000FF" stroke="white" stroke-width="2" stroke-miterlimit="10"/>
<path d="M59.4215 201.63L71.2122 197.959L71.321 197.759C68.3405 187.282 74.0944 176.35 84.309 172.824L80.4425 160.394C70.1258 162.928 59.5446 157.106 56.1793 146.994L43.9555 150.8C47.0687 161.495 41.0553 172.699 30.4668 176.035L34.0815 187.656C44.8274 184.627 56.0412 190.789 59.2285 201.525L59.4215 201.63Z" fill="#0000FF" stroke="white" stroke-width="2" stroke-miterlimit="10"/>
<path d="M54.5611 204.12L66.3518 200.449L66.4606 200.249C63.4801 189.773 69.2341 178.84 79.4487 175.315L75.5821 162.884C65.2655 165.419 54.6842 159.596 51.319 149.484L39.0951 153.29C42.2084 163.985 36.195 175.19 25.6064 178.525L29.2212 190.146C39.9671 187.117 51.1808 193.279 54.3682 204.015L54.5611 204.12Z" fill="#0000FF" stroke="white" stroke-width="2" stroke-miterlimit="10"/>
<path d="M49.7008 206.61L61.4915 202.939L61.6003 202.739C58.6198 192.263 64.3737 181.33 74.5883 177.805L70.7218 165.374C60.4051 167.909 49.8239 162.087 46.4586 151.975L34.2348 155.78C37.348 166.476 31.3346 177.68 20.7461 181.015L24.3608 192.636C35.1067 189.608 46.3205 195.769 49.5078 206.505L49.7008 206.61Z" fill="#0000FF" stroke="white" stroke-width="2" stroke-miterlimit="10"/>
<path d="M44.8404 209.101L56.6311 205.43L56.7399 205.229C53.7594 194.753 59.5134 183.821 69.728 180.295L65.8614 167.865C55.5448 170.399 44.9635 164.577 41.5983 154.465L29.3744 158.271C32.4877 168.966 26.4743 180.17 15.8857 183.505L19.5004 195.126C30.2464 192.098 41.4601 198.259 44.6475 208.996L44.8404 209.101Z" fill="#0000FF" stroke="white" stroke-width="2" stroke-miterlimit="10"/>
<path d="M39.9801 211.589L51.7708 207.918L51.8796 207.718C48.8991 197.241 54.653 186.309 64.8676 182.783L61.0011 170.353C50.6844 172.887 40.1032 167.065 36.7379 156.953L24.5141 160.759C27.6273 171.454 21.6139 182.658 11.0254 185.994L14.6401 197.615C25.386 194.586 36.5998 200.748 39.7871 211.484L39.9801 211.589Z" fill="#0000FF" stroke="white" stroke-width="2" stroke-miterlimit="10"/>
<path d="M35.1197 214.079L46.9104 210.408L47.0192 210.208C44.0387 199.731 49.7927 188.799 60.0073 185.274L56.1407 172.843C45.8241 175.378 35.2428 169.555 31.8776 159.443L19.6537 163.249C22.767 173.944 16.7536 185.149 6.16504 188.484L9.77975 200.105C20.5257 197.076 31.7394 203.238 34.9268 213.974L35.1197 214.079Z" fill="#0000FF" stroke="white" stroke-width="2" stroke-miterlimit="10"/>
<path d="M30.2594 216.569L42.0501 212.898L42.1589 212.698C39.1784 202.222 44.9323 191.289 55.1469 187.764L51.2804 175.333C40.9637 177.868 30.3825 172.046 27.0172 161.934L14.7934 165.739C17.9066 176.435 11.8932 187.639 1.30469 190.974L4.91939 202.595C15.6653 199.567 26.8791 205.728 30.0664 216.464L30.2594 216.569Z" fill="#0000FF" stroke="white" stroke-width="2" stroke-miterlimit="10"/>
</g>
<defs>
<clipPath id="clip0_118_414">
<rect width="316" height="353" fill="white" transform="translate(0.0546875 0.921875)"/>
</clipPath>
</defs>
</svg>
