<svg width="302" height="326" viewBox="0 0 302 326" fill="none" xmlns="http://www.w3.org/2000/svg">
<g clip-path="url(#clip0_118_902)">
<path d="M239.178 288.686C252.438 288.686 263.187 277.935 263.187 264.674C263.187 251.413 252.438 240.662 239.178 240.662C225.918 240.662 215.169 251.413 215.169 264.674C215.169 277.935 225.918 288.686 239.178 288.686Z" fill="#0000FF" stroke="white" stroke-width="5" stroke-miterlimit="10"/>
<path d="M233.099 292.315C246.359 292.315 257.108 281.564 257.108 268.303C257.108 255.041 246.359 244.291 233.099 244.291C219.839 244.291 209.09 255.041 209.09 268.303C209.09 281.564 219.839 292.315 233.099 292.315Z" fill="#0000FF" stroke="white" stroke-width="5" stroke-miterlimit="10"/>
<path d="M227.02 295.942C240.28 295.942 251.029 285.191 251.029 271.93C251.029 258.668 240.28 247.918 227.02 247.918C213.76 247.918 203.011 258.668 203.011 271.93C203.011 285.191 213.76 295.942 227.02 295.942Z" fill="#0000FF" stroke="white" stroke-width="5" stroke-miterlimit="10"/>
<path d="M220.941 299.571C234.201 299.571 244.95 288.82 244.95 275.559C244.95 262.297 234.201 251.547 220.941 251.547C207.681 251.547 196.932 262.297 196.932 275.559C196.932 288.82 207.681 299.571 220.941 299.571Z" fill="#0000FF" stroke="white" stroke-width="5" stroke-miterlimit="10"/>
<path d="M214.862 303.199C228.121 303.199 238.871 292.449 238.871 279.188C238.871 265.926 228.121 255.176 214.862 255.176C201.602 255.176 190.853 265.926 190.853 279.188C190.853 292.449 201.602 303.199 214.862 303.199Z" fill="#0000FF" stroke="white" stroke-width="5" stroke-miterlimit="10"/>
<path d="M208.782 306.826C222.041 306.826 232.791 296.076 232.791 282.815C232.791 269.553 222.041 258.803 208.782 258.803C195.522 258.803 184.772 269.553 184.772 282.815C184.772 296.076 195.522 306.826 208.782 306.826Z" fill="#0000FF" stroke="white" stroke-width="5" stroke-miterlimit="10"/>
<path d="M202.702 310.455C215.962 310.455 226.711 299.705 226.711 286.443C226.711 273.182 215.962 262.432 202.702 262.432C189.443 262.432 178.693 273.182 178.693 286.443C178.693 299.705 189.443 310.455 202.702 310.455Z" fill="#0000FF" stroke="white" stroke-width="5" stroke-miterlimit="10"/>
<path d="M196.623 314.082C209.883 314.082 220.632 303.332 220.632 290.07C220.632 276.809 209.883 266.059 196.623 266.059C183.363 266.059 172.614 276.809 172.614 290.07C172.614 303.332 183.363 314.082 196.623 314.082Z" fill="#0000FF" stroke="white" stroke-width="5" stroke-miterlimit="10"/>
<path d="M190.544 317.711C203.804 317.711 214.553 306.961 214.553 293.699C214.553 280.438 203.804 269.688 190.544 269.688C177.284 269.688 166.535 280.438 166.535 293.699C166.535 306.961 177.284 317.711 190.544 317.711Z" fill="#0000FF" stroke="white" stroke-width="5" stroke-miterlimit="10"/>
<path d="M184.465 321.338C197.725 321.338 208.474 310.588 208.474 297.326C208.474 284.065 197.725 273.314 184.465 273.314C171.205 273.314 160.456 284.065 160.456 297.326C160.456 310.588 171.205 321.338 184.465 321.338Z" fill="#0000FF" stroke="white" stroke-width="5" stroke-miterlimit="10"/>
<path d="M178.386 324.967C191.646 324.967 202.395 314.217 202.395 300.955C202.395 287.694 191.646 276.943 178.386 276.943C165.126 276.943 154.377 287.694 154.377 300.955C154.377 314.217 165.126 324.967 178.386 324.967Z" fill="#0000FF" stroke="white" stroke-width="5" stroke-miterlimit="10"/>
<path d="M171.407 322.311C184.666 322.311 195.416 311.56 195.416 298.299C195.416 285.038 184.666 274.287 171.407 274.287C158.147 274.287 147.397 285.038 147.397 298.299C147.397 311.56 158.147 322.311 171.407 322.311Z" fill="#0000FF" stroke="white" stroke-width="5" stroke-miterlimit="10"/>
<path d="M164.426 319.656C177.686 319.656 188.435 308.906 188.435 295.645C188.435 282.383 177.686 271.633 164.426 271.633C151.166 271.633 140.417 282.383 140.417 295.645C140.417 308.906 151.166 319.656 164.426 319.656Z" fill="#0000FF" stroke="white" stroke-width="5" stroke-miterlimit="10"/>
<path d="M157.447 317.002C170.706 317.002 181.456 306.252 181.456 292.99C181.456 279.729 170.706 268.979 157.447 268.979C144.187 268.979 133.438 279.729 133.438 292.99C133.438 306.252 144.187 317.002 157.447 317.002Z" fill="#0000FF" stroke="white" stroke-width="5" stroke-miterlimit="10"/>
<path d="M150.466 314.348C163.726 314.348 174.475 303.597 174.475 290.336C174.475 277.075 163.726 266.324 150.466 266.324C137.206 266.324 126.457 277.075 126.457 290.336C126.457 303.597 137.206 314.348 150.466 314.348Z" fill="#0000FF" stroke="white" stroke-width="5" stroke-miterlimit="10"/>
<path d="M143.487 311.694C156.746 311.694 167.496 300.943 167.496 287.682C167.496 274.42 156.746 263.67 143.487 263.67C130.227 263.67 119.478 274.42 119.478 287.682C119.478 300.943 130.227 311.694 143.487 311.694Z" fill="#0000FF" stroke="white" stroke-width="5" stroke-miterlimit="10"/>
<path d="M136.507 309.037C149.767 309.037 160.516 298.287 160.516 285.026C160.516 271.764 149.767 261.014 136.507 261.014C123.247 261.014 112.498 271.764 112.498 285.026C112.498 298.287 123.247 309.037 136.507 309.037Z" fill="#0000FF" stroke="white" stroke-width="5" stroke-miterlimit="10"/>
<path d="M129.527 306.383C142.786 306.383 153.536 295.633 153.536 282.371C153.536 269.11 142.786 258.359 129.527 258.359C116.267 258.359 105.518 269.11 105.518 282.371C105.518 295.633 116.267 306.383 129.527 306.383Z" fill="#0000FF" stroke="white" stroke-width="5" stroke-miterlimit="10"/>
<path d="M122.547 303.729C135.807 303.729 146.556 292.978 146.556 279.717C146.556 266.456 135.807 255.705 122.547 255.705C109.287 255.705 98.5381 266.456 98.5381 279.717C98.5381 292.978 109.287 303.729 122.547 303.729Z" fill="#0000FF" stroke="white" stroke-width="5" stroke-miterlimit="10"/>
<path d="M115.567 301.074C128.827 301.074 139.576 290.324 139.576 277.063C139.576 263.801 128.827 253.051 115.567 253.051C102.307 253.051 91.5576 263.801 91.5576 277.063C91.5576 290.324 102.307 301.074 115.567 301.074Z" fill="#0000FF" stroke="white" stroke-width="5" stroke-miterlimit="10"/>
<path d="M108.587 298.42C121.847 298.42 132.596 287.67 132.596 274.408C132.596 261.147 121.847 250.396 108.587 250.396C95.3274 250.396 84.5781 261.147 84.5781 274.408C84.5781 287.67 95.3274 298.42 108.587 298.42Z" fill="#0000FF" stroke="white" stroke-width="5" stroke-miterlimit="10"/>
<path d="M101.607 295.764C114.867 295.764 125.616 285.013 125.616 271.752C125.616 258.491 114.867 247.74 101.607 247.74C88.3469 247.74 77.5977 258.491 77.5977 271.752C77.5977 285.013 88.3469 295.764 101.607 295.764Z" fill="#0000FF" stroke="white" stroke-width="5" stroke-miterlimit="10"/>
<path d="M94.6272 293.11C107.887 293.11 118.636 282.359 118.636 269.098C118.636 255.836 107.887 245.086 94.6272 245.086C81.3674 245.086 70.6182 255.836 70.6182 269.098C70.6182 282.359 81.3674 293.11 94.6272 293.11Z" fill="#0000FF" stroke="white" stroke-width="5" stroke-miterlimit="10"/>
<path d="M87.6477 290.455C100.908 290.455 111.657 279.705 111.657 266.443C111.657 253.182 100.908 242.432 87.6477 242.432C74.3879 242.432 63.6387 253.182 63.6387 266.443C63.6387 279.705 74.3879 290.455 87.6477 290.455Z" fill="#0000FF" stroke="white" stroke-width="5" stroke-miterlimit="10"/>
<path d="M80.6673 287.801C93.9271 287.801 104.676 277.051 104.676 263.789C104.676 250.528 93.9271 239.777 80.6673 239.777C67.4074 239.777 56.6582 250.528 56.6582 263.789C56.6582 277.051 67.4074 287.801 80.6673 287.801Z" fill="#0000FF" stroke="white" stroke-width="5" stroke-miterlimit="10"/>
<path d="M73.6878 285.147C86.9476 285.147 97.6968 274.396 97.6968 261.135C97.6968 247.874 86.9476 237.123 73.6878 237.123C60.4279 237.123 49.6787 247.874 49.6787 261.135C49.6787 274.396 60.4279 285.147 73.6878 285.147Z" fill="#0000FF" stroke="white" stroke-width="5" stroke-miterlimit="10"/>
<path d="M69.9456 278.135C83.2054 278.135 93.9546 267.385 93.9546 254.123C93.9546 240.862 83.2054 230.111 69.9456 230.111C56.6857 230.111 45.9365 240.862 45.9365 254.123C45.9365 267.385 56.6857 278.135 69.9456 278.135Z" fill="#0000FF" stroke="white" stroke-width="5" stroke-miterlimit="10"/>
<path d="M66.2034 271.125C79.4632 271.125 90.2125 260.375 90.2125 247.113C90.2125 233.852 79.4632 223.102 66.2034 223.102C52.9436 223.102 42.1943 233.852 42.1943 247.113C42.1943 260.375 52.9436 271.125 66.2034 271.125Z" fill="#0000FF" stroke="white" stroke-width="5" stroke-miterlimit="10"/>
<path d="M62.4612 264.115C75.7211 264.115 86.4703 253.365 86.4703 240.104C86.4703 226.842 75.7211 216.092 62.4612 216.092C49.2014 216.092 38.4521 226.842 38.4521 240.104C38.4521 253.365 49.2014 264.115 62.4612 264.115Z" fill="#0000FF" stroke="white" stroke-width="5" stroke-miterlimit="10"/>
<path d="M58.719 257.106C71.9789 257.106 82.7281 246.355 82.7281 233.094C82.7281 219.832 71.9789 209.082 58.719 209.082C45.4592 209.082 34.71 219.832 34.71 233.094C34.71 246.355 45.4592 257.106 58.719 257.106Z" fill="#0000FF" stroke="white" stroke-width="5" stroke-miterlimit="10"/>
<path d="M54.9768 250.096C68.2367 250.096 78.9859 239.345 78.9859 226.084C78.9859 212.823 68.2367 202.072 54.9768 202.072C41.717 202.072 30.9678 212.823 30.9678 226.084C30.9678 239.345 41.717 250.096 54.9768 250.096Z" fill="#0000FF" stroke="white" stroke-width="5" stroke-miterlimit="10"/>
<path d="M51.2346 243.086C64.4945 243.086 75.2437 232.336 75.2437 219.074C75.2437 205.813 64.4945 195.062 51.2346 195.062C37.9748 195.062 27.2256 205.813 27.2256 219.074C27.2256 232.336 37.9748 243.086 51.2346 243.086Z" fill="#0000FF" stroke="white" stroke-width="5" stroke-miterlimit="10"/>
<path d="M47.4925 236.076C60.7523 236.076 71.5015 225.326 71.5015 212.065C71.5015 198.803 60.7523 188.053 47.4925 188.053C34.2326 188.053 23.4834 198.803 23.4834 212.065C23.4834 225.326 34.2326 236.076 47.4925 236.076Z" fill="#0000FF" stroke="white" stroke-width="5" stroke-miterlimit="10"/>
<path d="M43.7493 229.067C57.0091 229.067 67.7584 218.316 67.7584 205.055C67.7584 191.793 57.0091 181.043 43.7493 181.043C30.4895 181.043 19.7402 191.793 19.7402 205.055C19.7402 218.316 30.4895 229.067 43.7493 229.067Z" fill="#0000FF" stroke="white" stroke-width="5" stroke-miterlimit="10"/>
<path d="M40.0071 222.057C53.2669 222.057 64.0162 211.306 64.0162 198.045C64.0162 184.784 53.2669 174.033 40.0071 174.033C26.7473 174.033 15.998 184.784 15.998 198.045C15.998 211.306 26.7473 222.057 40.0071 222.057Z" fill="#0000FF" stroke="white" stroke-width="5" stroke-miterlimit="10"/>
<path d="M36.2649 215.045C49.5248 215.045 60.274 204.295 60.274 191.033C60.274 177.772 49.5248 167.021 36.2649 167.021C23.0051 167.021 12.2559 177.772 12.2559 191.033C12.2559 204.295 23.0051 215.045 36.2649 215.045Z" fill="#0000FF" stroke="white" stroke-width="5" stroke-miterlimit="10"/>
<path d="M32.5227 208.035C45.7826 208.035 56.5318 197.285 56.5318 184.024C56.5318 170.762 45.7826 160.012 32.5227 160.012C19.2629 160.012 8.51367 170.762 8.51367 184.024C8.51367 197.285 19.2629 208.035 32.5227 208.035Z" fill="#0000FF" stroke="white" stroke-width="5" stroke-miterlimit="10"/>
<path d="M28.7805 201.026C42.0404 201.026 52.7896 190.275 52.7896 177.014C52.7896 163.752 42.0404 153.002 28.7805 153.002C15.5207 153.002 4.77148 163.752 4.77148 177.014C4.77148 190.275 15.5207 201.026 28.7805 201.026Z" fill="#0000FF" stroke="white" stroke-width="5" stroke-miterlimit="10"/>
<path d="M25.0384 194.016C38.2982 194.016 49.0474 183.265 49.0474 170.004C49.0474 156.743 38.2982 145.992 25.0384 145.992C11.7785 145.992 1.0293 156.743 1.0293 170.004C1.0293 183.265 11.7785 194.016 25.0384 194.016Z" fill="#0000FF" stroke="white" stroke-width="5" stroke-miterlimit="10"/>
<path d="M26.3782 187.158C39.638 187.158 50.3873 176.408 50.3873 163.147C50.3873 149.885 39.638 139.135 26.3782 139.135C13.1184 139.135 2.36914 149.885 2.36914 163.147C2.36914 176.408 13.1184 187.158 26.3782 187.158Z" fill="#0000FF" stroke="white" stroke-width="5" stroke-miterlimit="10"/>
<path d="M27.718 180.301C40.9779 180.301 51.7271 169.551 51.7271 156.289C51.7271 143.028 40.9779 132.277 27.718 132.277C14.4582 132.277 3.70898 143.028 3.70898 156.289C3.70898 169.551 14.4582 180.301 27.718 180.301Z" fill="#0000FF" stroke="white" stroke-width="5" stroke-miterlimit="10"/>
<path d="M29.0569 173.444C42.3167 173.444 53.066 162.693 53.066 149.432C53.066 136.17 42.3167 125.42 29.0569 125.42C15.7971 125.42 5.04785 136.17 5.04785 149.432C5.04785 162.693 15.7971 173.444 29.0569 173.444Z" fill="#0000FF" stroke="white" stroke-width="5" stroke-miterlimit="10"/>
<path d="M30.3968 166.584C43.6566 166.584 54.4058 155.834 54.4058 142.572C54.4058 129.311 43.6566 118.561 30.3968 118.561C17.1369 118.561 6.3877 129.311 6.3877 142.572C6.3877 155.834 17.1369 166.584 30.3968 166.584Z" fill="#0000FF" stroke="white" stroke-width="5" stroke-miterlimit="10"/>
<path d="M31.7366 159.727C44.9964 159.727 55.7457 148.976 55.7457 135.715C55.7457 122.454 44.9964 111.703 31.7366 111.703C18.4768 111.703 7.72754 122.454 7.72754 135.715C7.72754 148.976 18.4768 159.727 31.7366 159.727Z" fill="#0000FF" stroke="white" stroke-width="5" stroke-miterlimit="10"/>
<path d="M33.0755 152.869C46.3353 152.869 57.0845 142.119 57.0845 128.858C57.0845 115.596 46.3353 104.846 33.0755 104.846C19.8156 104.846 9.06641 115.596 9.06641 128.858C9.06641 142.119 19.8156 152.869 33.0755 152.869Z" fill="#0000FF" stroke="white" stroke-width="5" stroke-miterlimit="10"/>
<path d="M34.4153 146.012C47.6752 146.012 58.4244 135.261 58.4244 122C58.4244 108.739 47.6752 97.9883 34.4153 97.9883C21.1555 97.9883 10.4062 108.739 10.4062 122C10.4062 135.261 21.1555 146.012 34.4153 146.012Z" fill="#0000FF" stroke="white" stroke-width="5" stroke-miterlimit="10"/>
<path d="M35.7552 139.155C49.015 139.155 59.7642 128.404 59.7642 115.143C59.7642 101.881 49.015 91.1309 35.7552 91.1309C22.4953 91.1309 11.7461 101.881 11.7461 115.143C11.7461 128.404 22.4953 139.155 35.7552 139.155Z" fill="#0000FF" stroke="white" stroke-width="5" stroke-miterlimit="10"/>
<path d="M37.094 132.295C50.3539 132.295 61.1031 121.545 61.1031 108.283C61.1031 95.022 50.3539 84.2715 37.094 84.2715C23.8342 84.2715 13.085 95.022 13.085 108.283C13.085 121.545 23.8342 132.295 37.094 132.295Z" fill="#0000FF" stroke="white" stroke-width="5" stroke-miterlimit="10"/>
<path d="M38.4339 125.438C51.6937 125.438 62.4429 114.687 62.4429 101.426C62.4429 88.1645 51.6937 77.4141 38.4339 77.4141C25.174 77.4141 14.4248 88.1645 14.4248 101.426C14.4248 114.687 25.174 125.438 38.4339 125.438Z" fill="#0000FF" stroke="white" stroke-width="5" stroke-miterlimit="10"/>
<path d="M39.7737 118.58C53.0335 118.58 63.7828 107.83 63.7828 94.5685C63.7828 81.3071 53.0335 70.5566 39.7737 70.5566C26.5139 70.5566 15.7646 81.3071 15.7646 94.5685C15.7646 107.83 26.5139 118.58 39.7737 118.58Z" fill="#0000FF" stroke="white" stroke-width="5" stroke-miterlimit="10"/>
<path d="M41.1126 111.723C54.3724 111.723 65.1216 100.972 65.1216 87.7111C65.1216 74.4497 54.3724 63.6992 41.1126 63.6992C27.8527 63.6992 17.1035 74.4497 17.1035 87.7111C17.1035 100.972 27.8527 111.723 41.1126 111.723Z" fill="#0000FF" stroke="white" stroke-width="5" stroke-miterlimit="10"/>
<path d="M42.4524 104.865C55.7123 104.865 66.4615 94.115 66.4615 80.8536C66.4615 67.5923 55.7123 56.8418 42.4524 56.8418C29.1926 56.8418 18.4434 67.5923 18.4434 80.8536C18.4434 94.115 29.1926 104.865 42.4524 104.865Z" fill="#0000FF" stroke="white" stroke-width="5" stroke-miterlimit="10"/>
<path d="M43.7923 98.008C57.0521 98.008 67.8013 87.2576 67.8013 73.9962C67.8013 60.7348 57.0521 49.9844 43.7923 49.9844C30.5324 49.9844 19.7832 60.7348 19.7832 73.9962C19.7832 87.2576 30.5324 98.008 43.7923 98.008Z" fill="#0000FF" stroke="white" stroke-width="5" stroke-miterlimit="10"/>
<path d="M45.1311 91.1487C58.391 91.1487 69.1402 80.3982 69.1402 67.1368C69.1402 53.8755 58.391 43.125 45.1311 43.125C31.8713 43.125 21.1221 53.8755 21.1221 67.1368C21.1221 80.3982 31.8713 91.1487 45.1311 91.1487Z" fill="#0000FF" stroke="white" stroke-width="5" stroke-miterlimit="10"/>
<path d="M46.471 84.2913C59.7308 84.2913 70.48 73.5408 70.48 60.2794C70.48 47.018 59.7308 36.2676 46.471 36.2676C33.2111 36.2676 22.4619 47.018 22.4619 60.2794C22.4619 73.5408 33.2111 84.2913 46.471 84.2913Z" fill="#0000FF" stroke="white" stroke-width="5" stroke-miterlimit="10"/>
<path d="M47.8108 77.4338C61.0707 77.4338 71.8199 66.6834 71.8199 53.422C71.8199 40.1606 61.0707 29.4102 47.8108 29.4102C34.551 29.4102 23.8018 40.1606 23.8018 53.422C23.8018 66.6834 34.551 77.4338 47.8108 77.4338Z" fill="#0000FF" stroke="white" stroke-width="5" stroke-miterlimit="10"/>
<path d="M49.1497 70.5764C62.4095 70.5764 73.1587 59.8259 73.1587 46.5646C73.1587 33.3032 62.4095 22.5527 49.1497 22.5527C35.8898 22.5527 25.1406 33.3032 25.1406 46.5646C25.1406 59.8259 35.8898 70.5764 49.1497 70.5764Z" fill="#0000FF" stroke="white" stroke-width="5" stroke-miterlimit="10"/>
<path d="M50.4895 63.719C63.7494 63.719 74.4986 52.9685 74.4986 39.7071C74.4986 26.4458 63.7494 15.6953 50.4895 15.6953C37.2297 15.6953 26.4805 26.4458 26.4805 39.7071C26.4805 52.9685 37.2297 63.719 50.4895 63.719Z" fill="#0000FF" stroke="white" stroke-width="5" stroke-miterlimit="10"/>
<path d="M51.8294 56.8596C65.0892 56.8596 75.8384 46.1091 75.8384 32.8478C75.8384 19.5864 65.0892 8.83594 51.8294 8.83594C38.5695 8.83594 27.8203 19.5864 27.8203 32.8478C27.8203 46.1091 38.5695 56.8596 51.8294 56.8596Z" fill="#0000FF" stroke="white" stroke-width="5" stroke-miterlimit="10"/>
<path d="M53.1682 50.0022C66.4281 50.0022 77.1773 39.2517 77.1773 25.9904C77.1773 12.729 66.4281 1.97852 53.1682 1.97852C39.9084 1.97852 29.1592 12.729 29.1592 25.9904C29.1592 39.2517 39.9084 50.0022 53.1682 50.0022Z" fill="#0000FF" stroke="white" stroke-width="5" stroke-miterlimit="10"/>
<path d="M62.5032 50.2014C75.763 50.2014 86.5123 39.4509 86.5123 26.1896C86.5123 12.9282 75.763 2.17773 62.5032 2.17773C49.2434 2.17773 38.4941 12.9282 38.4941 26.1896C38.4941 39.4509 49.2434 50.2014 62.5032 50.2014Z" fill="#0000FF" stroke="white" stroke-width="5" stroke-miterlimit="10"/>
<path d="M71.8372 50.4006C85.097 50.4006 95.8462 39.6502 95.8462 26.3888C95.8462 13.1274 85.097 2.37695 71.8372 2.37695C58.5773 2.37695 47.8281 13.1274 47.8281 26.3888C47.8281 39.6502 58.5773 50.4006 71.8372 50.4006Z" fill="#0000FF" stroke="white" stroke-width="5" stroke-miterlimit="10"/>
<path d="M81.1721 50.5998C94.432 50.5998 105.181 39.8494 105.181 26.588C105.181 13.3266 94.432 2.57617 81.1721 2.57617C67.9123 2.57617 57.1631 13.3266 57.1631 26.588C57.1631 39.8494 67.9123 50.5998 81.1721 50.5998Z" fill="#0000FF" stroke="white" stroke-width="5" stroke-miterlimit="10"/>
<path d="M90.5061 50.7991C103.766 50.7991 114.515 40.0486 114.515 26.7872C114.515 13.5259 103.766 2.77539 90.5061 2.77539C77.2463 2.77539 66.4971 13.5259 66.4971 26.7872C66.4971 40.0486 77.2463 50.7991 90.5061 50.7991Z" fill="#0000FF" stroke="white" stroke-width="5" stroke-miterlimit="10"/>
<path d="M99.8401 50.9963C113.1 50.9963 123.849 40.2459 123.849 26.9845C123.849 13.7231 113.1 2.97266 99.8401 2.97266C86.5803 2.97266 75.8311 13.7231 75.8311 26.9845C75.8311 40.2459 86.5803 50.9963 99.8401 50.9963Z" fill="#0000FF" stroke="white" stroke-width="5" stroke-miterlimit="10"/>
<path d="M109.175 51.1955C122.435 51.1955 133.184 40.4451 133.184 27.1837C133.184 13.9223 122.435 3.17188 109.175 3.17188C95.9152 3.17188 85.166 13.9223 85.166 27.1837C85.166 40.4451 95.9152 51.1955 109.175 51.1955Z" fill="#0000FF" stroke="white" stroke-width="5" stroke-miterlimit="10"/>
<path d="M118.509 51.3948C131.769 51.3948 142.518 40.6443 142.518 27.3829C142.518 14.1216 131.769 3.37109 118.509 3.37109C105.249 3.37109 94.5 14.1216 94.5 27.3829C94.5 40.6443 105.249 51.3948 118.509 51.3948Z" fill="#0000FF" stroke="white" stroke-width="5" stroke-miterlimit="10"/>
<path d="M127.844 51.594C141.104 51.594 151.853 40.8435 151.853 27.5821C151.853 14.3208 141.104 3.57031 127.844 3.57031C114.584 3.57031 103.835 14.3208 103.835 27.5821C103.835 40.8435 114.584 51.594 127.844 51.594Z" fill="#0000FF" stroke="white" stroke-width="5" stroke-miterlimit="10"/>
<path d="M137.178 51.7932C150.438 51.7932 161.187 41.0427 161.187 27.7814C161.187 14.52 150.438 3.76953 137.178 3.76953C123.918 3.76953 113.169 14.52 113.169 27.7814C113.169 41.0427 123.918 51.7932 137.178 51.7932Z" fill="#0000FF" stroke="white" stroke-width="5" stroke-miterlimit="10"/>
<path d="M146.513 51.9924C159.773 51.9924 170.522 41.242 170.522 27.9806C170.522 14.7192 159.773 3.96875 146.513 3.96875C133.253 3.96875 122.504 14.7192 122.504 27.9806C122.504 41.242 133.253 51.9924 146.513 51.9924Z" fill="#0000FF" stroke="white" stroke-width="5" stroke-miterlimit="10"/>
<path d="M155.847 52.1916C169.107 52.1916 179.856 41.4412 179.856 28.1798C179.856 14.9184 169.107 4.16797 155.847 4.16797C142.587 4.16797 131.838 14.9184 131.838 28.1798C131.838 41.4412 142.587 52.1916 155.847 52.1916Z" fill="#0000FF" stroke="white" stroke-width="5" stroke-miterlimit="10"/>
<path d="M165.181 52.3889C178.441 52.3889 189.19 41.6384 189.19 28.3771C189.19 15.1157 178.441 4.36523 165.181 4.36523C151.921 4.36523 141.172 15.1157 141.172 28.3771C141.172 41.6384 151.921 52.3889 165.181 52.3889Z" fill="#0000FF" stroke="white" stroke-width="5" stroke-miterlimit="10"/>
<path d="M174.516 52.5881C187.776 52.5881 198.525 41.8377 198.525 28.5763C198.525 15.3149 187.776 4.56445 174.516 4.56445C161.256 4.56445 150.507 15.3149 150.507 28.5763C150.507 41.8377 161.256 52.5881 174.516 52.5881Z" fill="#0000FF" stroke="white" stroke-width="5" stroke-miterlimit="10"/>
<path d="M183.85 52.7873C197.11 52.7873 207.859 42.0369 207.859 28.7755C207.859 15.5141 197.11 4.76367 183.85 4.76367C170.59 4.76367 159.841 15.5141 159.841 28.7755C159.841 42.0369 170.59 52.7873 183.85 52.7873Z" fill="#0000FF" stroke="white" stroke-width="5" stroke-miterlimit="10"/>
<path d="M193.185 52.9866C206.445 52.9866 217.194 42.2361 217.194 28.9747C217.194 15.7134 206.445 4.96289 193.185 4.96289C179.925 4.96289 169.176 15.7134 169.176 28.9747C169.176 42.2361 179.925 52.9866 193.185 52.9866Z" fill="#0000FF" stroke="white" stroke-width="5" stroke-miterlimit="10"/>
<path d="M202.519 53.1858C215.779 53.1858 226.528 42.4353 226.528 29.1739C226.528 15.9126 215.779 5.16211 202.519 5.16211C189.259 5.16211 178.51 15.9126 178.51 29.1739C178.51 42.4353 189.259 53.1858 202.519 53.1858Z" fill="#0000FF" stroke="white" stroke-width="5" stroke-miterlimit="10"/>
<path d="M211.853 53.383C225.113 53.383 235.862 42.6326 235.862 29.3712C235.862 16.1098 225.113 5.35938 211.853 5.35938C198.593 5.35938 187.844 16.1098 187.844 29.3712C187.844 42.6326 198.593 53.383 211.853 53.383Z" fill="#0000FF" stroke="white" stroke-width="5" stroke-miterlimit="10"/>
<path d="M217.199 57.9416C230.459 57.9416 241.209 47.1912 241.209 33.9298C241.209 20.6684 230.459 9.91797 217.199 9.91797C203.94 9.91797 193.19 20.6684 193.19 33.9298C193.19 47.1912 203.94 57.9416 217.199 57.9416Z" fill="#0000FF" stroke="white" stroke-width="5" stroke-miterlimit="10"/>
<path d="M222.546 62.5002C235.806 62.5002 246.555 51.7498 246.555 38.4884C246.555 25.227 235.806 14.4766 222.546 14.4766C209.286 14.4766 198.537 25.227 198.537 38.4884C198.537 51.7498 209.286 62.5002 222.546 62.5002Z" fill="#0000FF" stroke="white" stroke-width="5" stroke-miterlimit="10"/>
<path d="M227.892 67.0588C241.152 67.0588 251.901 56.3084 251.901 43.047C251.901 29.7856 241.152 19.0352 227.892 19.0352C214.632 19.0352 203.883 29.7856 203.883 43.047C203.883 56.3084 214.632 67.0588 227.892 67.0588Z" fill="#0000FF" stroke="white" stroke-width="5" stroke-miterlimit="10"/>
<path d="M233.239 71.6155C246.498 71.6155 257.248 60.865 257.248 47.6036C257.248 34.3423 246.498 23.5918 233.239 23.5918C219.979 23.5918 209.229 34.3423 209.229 47.6036C209.229 60.865 219.979 71.6155 233.239 71.6155Z" fill="#0000FF" stroke="white" stroke-width="5" stroke-miterlimit="10"/>
<path d="M238.584 76.1741C251.844 76.1741 262.593 65.4236 262.593 52.1622C262.593 38.9009 251.844 28.1504 238.584 28.1504C225.324 28.1504 214.575 38.9009 214.575 52.1622C214.575 65.4236 225.324 76.1741 238.584 76.1741Z" fill="#0000FF" stroke="white" stroke-width="5" stroke-miterlimit="10"/>
<path d="M243.931 80.7327C257.191 80.7327 267.94 69.9822 267.94 56.7208C267.94 43.4595 257.191 32.709 243.931 32.709C230.671 32.709 219.922 43.4595 219.922 56.7208C219.922 69.9822 230.671 80.7327 243.931 80.7327Z" fill="#0000FF" stroke="white" stroke-width="5" stroke-miterlimit="10"/>
<path d="M249.277 85.2893C262.536 85.2893 273.286 74.5388 273.286 61.2775C273.286 48.0161 262.536 37.2656 249.277 37.2656C236.017 37.2656 225.268 48.0161 225.268 61.2775C225.268 74.5388 236.017 85.2893 249.277 85.2893Z" fill="#0000FF" stroke="white" stroke-width="5" stroke-miterlimit="10"/>
<path d="M254.623 89.8479C267.883 89.8479 278.632 79.0974 278.632 65.8361C278.632 52.5747 267.883 41.8242 254.623 41.8242C241.363 41.8242 230.614 52.5747 230.614 65.8361C230.614 79.0974 241.363 89.8479 254.623 89.8479Z" fill="#0000FF" stroke="white" stroke-width="5" stroke-miterlimit="10"/>
<path d="M259.969 94.4065C273.229 94.4065 283.978 83.656 283.978 70.3946C283.978 57.1333 273.229 46.3828 259.969 46.3828C246.709 46.3828 235.96 57.1333 235.96 70.3946C235.96 83.656 246.709 94.4065 259.969 94.4065Z" fill="#0000FF" stroke="white" stroke-width="5" stroke-miterlimit="10"/>
<path d="M265.316 98.9651C278.576 98.9651 289.325 88.2146 289.325 74.9532C289.325 61.6919 278.576 50.9414 265.316 50.9414C252.056 50.9414 241.307 61.6919 241.307 74.9532C241.307 88.2146 252.056 98.9651 265.316 98.9651Z" fill="#0000FF" stroke="white" stroke-width="5" stroke-miterlimit="10"/>
<path d="M270.661 103.522C283.921 103.522 294.67 92.7713 294.67 79.5099C294.67 66.2485 283.921 55.498 270.661 55.498C257.402 55.498 246.652 66.2485 246.652 79.5099C246.652 92.7713 257.402 103.522 270.661 103.522Z" fill="#0000FF" stroke="white" stroke-width="5" stroke-miterlimit="10"/>
<path d="M276.008 108.08C289.268 108.08 300.017 97.3298 300.017 84.0685C300.017 70.8071 289.268 60.0566 276.008 60.0566C262.748 60.0566 251.999 70.8071 251.999 84.0685C251.999 97.3298 262.748 108.08 276.008 108.08Z" fill="#0000FF" stroke="white" stroke-width="5" stroke-miterlimit="10"/>
<path d="M273.292 114.473C286.552 114.473 297.301 103.722 297.301 90.4611C297.301 77.1997 286.552 66.4492 273.292 66.4492C260.032 66.4492 249.283 77.1997 249.283 90.4611C249.283 103.722 260.032 114.473 273.292 114.473Z" fill="#0000FF" stroke="white" stroke-width="5" stroke-miterlimit="10"/>
<path d="M270.575 120.867C283.835 120.867 294.585 110.117 294.585 96.8556C294.585 83.5942 283.835 72.8438 270.575 72.8438C257.316 72.8438 246.566 83.5942 246.566 96.8556C246.566 110.117 257.316 120.867 270.575 120.867Z" fill="#0000FF" stroke="white" stroke-width="5" stroke-miterlimit="10"/>
<path d="M267.86 127.26C281.119 127.26 291.869 116.51 291.869 103.248C291.869 89.9868 281.119 79.2363 267.86 79.2363C254.6 79.2363 243.851 89.9868 243.851 103.248C243.851 116.51 254.6 127.26 267.86 127.26Z" fill="#0000FF" stroke="white" stroke-width="5" stroke-miterlimit="10"/>
<path d="M265.143 133.655C278.403 133.655 289.152 122.904 289.152 109.643C289.152 96.3813 278.403 85.6309 265.143 85.6309C251.883 85.6309 241.134 96.3813 241.134 109.643C241.134 122.904 251.883 133.655 265.143 133.655Z" fill="#0000FF" stroke="white" stroke-width="5" stroke-miterlimit="10"/>
<path d="M262.427 140.047C275.687 140.047 286.436 129.297 286.436 116.035C286.436 102.774 275.687 92.0234 262.427 92.0234C249.167 92.0234 238.418 102.774 238.418 116.035C238.418 129.297 249.167 140.047 262.427 140.047Z" fill="#0000FF" stroke="white" stroke-width="5" stroke-miterlimit="10"/>
<path d="M259.711 146.442C272.971 146.442 283.72 135.691 283.72 122.43C283.72 109.168 272.971 98.418 259.711 98.418C246.451 98.418 235.702 109.168 235.702 122.43C235.702 135.691 246.451 146.442 259.711 146.442Z" fill="#0000FF" stroke="white" stroke-width="5" stroke-miterlimit="10"/>
<path d="M254.891 148.033C268.151 148.033 278.9 137.283 278.9 124.022C278.9 110.76 268.151 100.01 254.891 100.01C241.631 100.01 230.882 110.76 230.882 124.022C230.882 137.283 241.631 148.033 254.891 148.033Z" fill="#0000FF" stroke="white" stroke-width="5" stroke-miterlimit="10"/>
<path d="M250.071 149.627C263.33 149.627 274.08 138.877 274.08 125.615C274.08 112.354 263.33 101.604 250.071 101.604C236.811 101.604 226.062 112.354 226.062 125.615C226.062 138.877 236.811 149.627 250.071 149.627Z" fill="#0000FF" stroke="white" stroke-width="5" stroke-miterlimit="10"/>
<path d="M245.251 151.221C258.511 151.221 269.26 140.47 269.26 127.209C269.26 113.948 258.511 103.197 245.251 103.197C231.991 103.197 221.242 113.948 221.242 127.209C221.242 140.47 231.991 151.221 245.251 151.221Z" fill="#0000FF" stroke="white" stroke-width="5" stroke-miterlimit="10"/>
<path d="M240.431 152.815C253.691 152.815 264.44 142.064 264.44 128.803C264.44 115.541 253.691 104.791 240.431 104.791C227.171 104.791 216.422 115.541 216.422 128.803C216.422 142.064 227.171 152.815 240.431 152.815Z" fill="#0000FF" stroke="white" stroke-width="5" stroke-miterlimit="10"/>
<path d="M235.612 154.406C248.871 154.406 259.621 143.656 259.621 130.395C259.621 117.133 248.871 106.383 235.612 106.383C222.352 106.383 211.603 117.133 211.603 130.395C211.603 143.656 222.352 154.406 235.612 154.406Z" fill="#0000FF" stroke="white" stroke-width="5" stroke-miterlimit="10"/>
<path d="M230.791 156C244.051 156 254.8 145.25 254.8 131.988C254.8 118.727 244.051 107.977 230.791 107.977C217.531 107.977 206.782 118.727 206.782 131.988C206.782 145.25 217.531 156 230.791 156Z" fill="#0000FF" stroke="white" stroke-width="5" stroke-miterlimit="10"/>
<path d="M225.971 157.594C239.231 157.594 249.98 146.844 249.98 133.582C249.98 120.321 239.231 109.57 225.971 109.57C212.711 109.57 201.962 120.321 201.962 133.582C201.962 146.844 212.711 157.594 225.971 157.594Z" fill="#0000FF" stroke="white" stroke-width="5" stroke-miterlimit="10"/>
<path d="M221.152 159.188C234.411 159.188 245.161 148.437 245.161 135.176C245.161 121.915 234.411 111.164 221.152 111.164C207.892 111.164 197.143 121.915 197.143 135.176C197.143 148.437 207.892 159.188 221.152 159.188Z" fill="#0000FF" stroke="white" stroke-width="5" stroke-miterlimit="10"/>
<path d="M216.331 160.78C229.591 160.78 240.34 150.029 240.34 136.768C240.34 123.506 229.591 112.756 216.331 112.756C203.071 112.756 192.322 123.506 192.322 136.768C192.322 150.029 203.071 160.78 216.331 160.78Z" fill="#0000FF" stroke="white" stroke-width="5" stroke-miterlimit="10"/>
<path d="M211.511 162.373C224.771 162.373 235.52 151.623 235.52 138.361C235.52 125.1 224.771 114.35 211.511 114.35C198.251 114.35 187.502 125.1 187.502 138.361C187.502 151.623 198.251 162.373 211.511 162.373Z" fill="#0000FF" stroke="white" stroke-width="5" stroke-miterlimit="10"/>
<path d="M206.692 163.967C219.952 163.967 230.701 153.217 230.701 139.955C230.701 126.694 219.952 115.943 206.692 115.943C193.432 115.943 182.683 126.694 182.683 139.955C182.683 153.217 193.432 163.967 206.692 163.967Z" fill="#0000FF" stroke="white" stroke-width="5" stroke-miterlimit="10"/>
<path d="M201.871 165.561C215.131 165.561 225.88 154.81 225.88 141.549C225.88 128.288 215.131 117.537 201.871 117.537C188.612 117.537 177.862 128.288 177.862 141.549C177.862 154.81 188.612 165.561 201.871 165.561Z" fill="#0000FF" stroke="white" stroke-width="5" stroke-miterlimit="10"/>
<path d="M197.052 167.153C210.312 167.153 221.061 156.402 221.061 143.141C221.061 129.879 210.312 119.129 197.052 119.129C183.792 119.129 173.043 129.879 173.043 143.141C173.043 156.402 183.792 167.153 197.052 167.153Z" fill="#0000FF" stroke="white" stroke-width="5" stroke-miterlimit="10"/>
<path d="M192.232 168.746C205.492 168.746 216.241 157.996 216.241 144.734C216.241 131.473 205.492 120.723 192.232 120.723C178.972 120.723 168.223 131.473 168.223 144.734C168.223 157.996 178.972 168.746 192.232 168.746Z" fill="#0000FF" stroke="white" stroke-width="5" stroke-miterlimit="10"/>
<path d="M187.411 170.34C200.671 170.34 211.42 159.59 211.42 146.328C211.42 133.067 200.671 122.316 187.411 122.316C174.152 122.316 163.402 133.067 163.402 146.328C163.402 159.59 174.152 170.34 187.411 170.34Z" fill="#0000FF" stroke="white" stroke-width="5" stroke-miterlimit="10"/>
<path d="M182.592 171.934C195.852 171.934 206.601 161.183 206.601 147.922C206.601 134.661 195.852 123.91 182.592 123.91C169.332 123.91 158.583 134.661 158.583 147.922C158.583 161.183 169.332 171.934 182.592 171.934Z" fill="#0000FF" stroke="white" stroke-width="5" stroke-miterlimit="10"/>
<path d="M177.772 173.526C191.032 173.526 201.781 162.775 201.781 149.514C201.781 136.252 191.032 125.502 177.772 125.502C164.512 125.502 153.763 136.252 153.763 149.514C153.763 162.775 164.512 173.526 177.772 173.526Z" fill="#0000FF" stroke="white" stroke-width="5" stroke-miterlimit="10"/>
<path d="M172.951 175.119C186.211 175.119 196.961 164.369 196.961 151.108C196.961 137.846 186.211 127.096 172.951 127.096C159.692 127.096 148.942 137.846 148.942 151.108C148.942 164.369 159.692 175.119 172.951 175.119Z" fill="#0000FF" stroke="white" stroke-width="5" stroke-miterlimit="10"/>
<path d="M168.132 176.713C181.392 176.713 192.141 165.963 192.141 152.701C192.141 139.44 181.392 128.689 168.132 128.689C154.872 128.689 144.123 139.44 144.123 152.701C144.123 165.963 154.872 176.713 168.132 176.713Z" fill="#0000FF" stroke="white" stroke-width="5" stroke-miterlimit="10"/>
<path d="M163.312 178.307C176.572 178.307 187.321 167.556 187.321 154.295C187.321 141.034 176.572 130.283 163.312 130.283C150.052 130.283 139.303 141.034 139.303 154.295C139.303 167.556 150.052 178.307 163.312 178.307Z" fill="#0000FF" stroke="white" stroke-width="5" stroke-miterlimit="10"/>
<path d="M158.534 175.985C171.794 175.985 182.544 165.234 182.544 151.973C182.544 138.711 171.794 127.961 158.534 127.961C145.275 127.961 134.525 138.711 134.525 151.973C134.525 165.234 145.275 175.985 158.534 175.985Z" fill="#0000FF" stroke="white" stroke-width="5" stroke-miterlimit="10"/>
<path d="M153.756 173.664C167.016 173.664 177.765 162.914 177.765 149.652C177.765 136.391 167.016 125.641 153.756 125.641C140.496 125.641 129.747 136.391 129.747 149.652C129.747 162.914 140.496 173.664 153.756 173.664Z" fill="#0000FF" stroke="white" stroke-width="5" stroke-miterlimit="10"/>
<path d="M148.979 171.342C162.239 171.342 172.988 160.592 172.988 147.33C172.988 134.069 162.239 123.318 148.979 123.318C135.719 123.318 124.97 134.069 124.97 147.33C124.97 160.592 135.719 171.342 148.979 171.342Z" fill="#0000FF" stroke="white" stroke-width="5" stroke-miterlimit="10"/>
<path d="M144.2 169.022C157.46 169.022 168.21 158.271 168.21 145.01C168.21 131.749 157.46 120.998 144.2 120.998C130.941 120.998 120.191 131.749 120.191 145.01C120.191 158.271 130.941 169.022 144.2 169.022Z" fill="#0000FF" stroke="white" stroke-width="5" stroke-miterlimit="10"/>
<path d="M139.423 166.699C152.683 166.699 163.432 155.949 163.432 142.688C163.432 129.426 152.683 118.676 139.423 118.676C126.163 118.676 115.414 129.426 115.414 142.688C115.414 155.949 126.163 166.699 139.423 166.699Z" fill="#0000FF" stroke="white" stroke-width="5" stroke-miterlimit="10"/>
<path d="M134.646 164.379C147.906 164.379 158.655 153.629 158.655 140.367C158.655 127.106 147.906 116.355 134.646 116.355C121.386 116.355 110.637 127.106 110.637 140.367C110.637 153.629 121.386 164.379 134.646 164.379Z" fill="#0000FF" stroke="white" stroke-width="5" stroke-miterlimit="10"/>
<path d="M129.867 162.057C143.127 162.057 153.877 151.306 153.877 138.045C153.877 124.784 143.127 114.033 129.867 114.033C116.608 114.033 105.858 124.784 105.858 138.045C105.858 151.306 116.608 162.057 129.867 162.057Z" fill="#0000FF" stroke="white" stroke-width="5" stroke-miterlimit="10"/>
<path d="M125.09 159.737C138.35 159.737 149.099 148.986 149.099 135.725C149.099 122.463 138.35 111.713 125.09 111.713C111.83 111.713 101.081 122.463 101.081 135.725C101.081 148.986 111.83 159.737 125.09 159.737Z" fill="#0000FF" stroke="white" stroke-width="5" stroke-miterlimit="10"/>
<path d="M120.312 157.416C133.572 157.416 144.321 146.666 144.321 133.404C144.321 120.143 133.572 109.393 120.312 109.393C107.052 109.393 96.3027 120.143 96.3027 133.404C96.3027 146.666 107.052 157.416 120.312 157.416Z" fill="#0000FF" stroke="white" stroke-width="5" stroke-miterlimit="10"/>
<path d="M115.534 155.094C128.794 155.094 139.544 144.344 139.544 131.082C139.544 117.821 128.794 107.07 115.534 107.07C102.275 107.07 91.5254 117.821 91.5254 131.082C91.5254 144.344 102.275 155.094 115.534 155.094Z" fill="#0000FF" stroke="white" stroke-width="5" stroke-miterlimit="10"/>
<path d="M110.756 152.774C124.016 152.774 134.765 142.023 134.765 128.762C134.765 115.5 124.016 104.75 110.756 104.75C97.4963 104.75 86.7471 115.5 86.7471 128.762C86.7471 142.023 97.4963 152.774 110.756 152.774Z" fill="#0000FF" stroke="white" stroke-width="5" stroke-miterlimit="10"/>
<path d="M105.979 150.451C119.239 150.451 129.988 139.701 129.988 126.44C129.988 113.178 119.239 102.428 105.979 102.428C92.719 102.428 81.9697 113.178 81.9697 126.44C81.9697 139.701 92.719 150.451 105.979 150.451Z" fill="#0000FF" stroke="white" stroke-width="5" stroke-miterlimit="10"/>
<path d="M101.2 148.131C114.46 148.131 125.21 137.381 125.21 124.119C125.21 110.858 114.46 100.107 101.2 100.107C87.9406 100.107 77.1914 110.858 77.1914 124.119C77.1914 137.381 87.9406 148.131 101.2 148.131Z" fill="#0000FF" stroke="white" stroke-width="5" stroke-miterlimit="10"/>
<path d="M96.4231 145.809C109.683 145.809 120.432 135.058 120.432 121.797C120.432 108.536 109.683 97.7852 96.4231 97.7852C83.1633 97.7852 72.4141 108.536 72.4141 121.797C72.4141 135.058 83.1633 145.809 96.4231 145.809Z" fill="#0000FF" stroke="white" stroke-width="5" stroke-miterlimit="10"/>
<path d="M91.6458 143.489C104.906 143.489 115.655 132.738 115.655 119.477C115.655 106.215 104.906 95.4648 91.6458 95.4648C78.3859 95.4648 67.6367 106.215 67.6367 119.477C67.6367 132.738 78.3859 143.489 91.6458 143.489Z" fill="#0000FF" stroke="white" stroke-width="5" stroke-miterlimit="10"/>
<path d="M86.8675 141.166C100.127 141.166 110.877 130.416 110.877 117.154C110.877 103.893 100.127 93.1426 86.8675 93.1426C73.6076 93.1426 62.8584 103.893 62.8584 117.154C62.8584 130.416 73.6076 141.166 86.8675 141.166Z" fill="#0000FF" stroke="white" stroke-width="5" stroke-miterlimit="10"/>
<path d="M82.0901 138.846C95.3499 138.846 106.099 128.095 106.099 114.834C106.099 101.573 95.3499 90.8223 82.0901 90.8223C68.8303 90.8223 58.0811 101.573 58.0811 114.834C58.0811 128.095 68.8303 138.846 82.0901 138.846Z" fill="#0000FF" stroke="white" stroke-width="5" stroke-miterlimit="10"/>
<path d="M77.3118 136.526C90.5716 136.526 101.321 125.775 101.321 112.514C101.321 99.2524 90.5716 88.502 77.3118 88.502C64.052 88.502 53.3027 99.2524 53.3027 112.514C53.3027 125.775 64.052 136.526 77.3118 136.526Z" fill="#0000FF" stroke="white" stroke-width="5" stroke-miterlimit="10"/>
<path d="M72.5345 134.203C85.7943 134.203 96.5435 123.453 96.5435 110.192C96.5435 96.9302 85.7943 86.1797 72.5345 86.1797C59.2746 86.1797 48.5254 96.9302 48.5254 110.192C48.5254 123.453 59.2746 134.203 72.5345 134.203Z" fill="#0000FF" stroke="white" stroke-width="5" stroke-miterlimit="10"/>
<path d="M67.7561 131.883C81.016 131.883 91.7652 121.133 91.7652 107.871C91.7652 94.6098 81.016 83.8594 67.7561 83.8594C54.4963 83.8594 43.7471 94.6098 43.7471 107.871C43.7471 121.133 54.4963 131.883 67.7561 131.883Z" fill="#0000FF" stroke="white" stroke-width="5" stroke-miterlimit="10"/>
<path d="M62.9788 129.561C76.2386 129.561 86.9879 118.81 86.9879 105.549C86.9879 92.2876 76.2386 81.5371 62.9788 81.5371C49.719 81.5371 38.9697 92.2876 38.9697 105.549C38.9697 118.81 49.719 129.561 62.9788 129.561Z" fill="#0000FF" stroke="white" stroke-width="5" stroke-miterlimit="10"/>
<path d="M58.2014 127.24C71.4613 127.24 82.2105 116.49 82.2105 103.229C82.2105 89.9673 71.4613 79.2168 58.2014 79.2168C44.9416 79.2168 34.1924 89.9673 34.1924 103.229C34.1924 116.49 44.9416 127.24 58.2014 127.24Z" fill="#0000FF" stroke="white" stroke-width="5" stroke-miterlimit="10"/>
<path d="M53.4231 124.918C66.683 124.918 77.4322 114.168 77.4322 100.906C77.4322 87.645 66.683 76.8945 53.4231 76.8945C40.1633 76.8945 29.4141 87.645 29.4141 100.906C29.4141 114.168 40.1633 124.918 53.4231 124.918Z" fill="#0000FF" stroke="white" stroke-width="5" stroke-miterlimit="10"/>
<path d="M48.6458 122.598C61.9056 122.598 72.6548 111.847 72.6548 98.5861C72.6548 85.3247 61.9056 74.5742 48.6458 74.5742C35.3859 74.5742 24.6367 85.3247 24.6367 98.5861C24.6367 111.847 35.3859 122.598 48.6458 122.598Z" fill="#0000FF" stroke="white" stroke-width="5" stroke-miterlimit="10"/>
</g>
<defs>
<clipPath id="clip0_118_902">
<rect width="301" height="325" fill="white" transform="translate(0.0234375 0.972656)"/>
</clipPath>
</defs>
</svg>
