<svg width="263" height="393" viewBox="0 0 263 393" fill="none" xmlns="http://www.w3.org/2000/svg">
<g clip-path="url(#clip0_118_312)">
<path d="M158.928 392.038C180.069 392.038 197.207 374.887 197.207 353.73C197.207 332.573 180.069 315.422 158.928 315.422C137.787 315.422 120.648 332.573 120.648 353.73C120.648 374.887 137.787 392.038 158.928 392.038Z" fill="#0000FF" stroke="white" stroke-width="5" stroke-miterlimit="10"/>
<path d="M156.712 387.089C177.853 387.089 194.991 369.938 194.991 348.781C194.991 327.624 177.853 310.473 156.712 310.473C135.571 310.473 118.433 327.624 118.433 348.781C118.433 369.938 135.571 387.089 156.712 387.089Z" fill="#0000FF" stroke="white" stroke-width="5" stroke-miterlimit="10"/>
<path d="M154.495 382.14C175.636 382.14 192.774 364.989 192.774 343.832C192.774 322.675 175.636 305.523 154.495 305.523C133.354 305.523 116.216 322.675 116.216 343.832C116.216 364.989 133.354 382.14 154.495 382.14Z" fill="#0000FF" stroke="white" stroke-width="5" stroke-miterlimit="10"/>
<path d="M152.279 377.19C173.42 377.19 190.558 360.039 190.558 338.882C190.558 317.725 173.42 300.574 152.279 300.574C131.138 300.574 114 317.725 114 338.882C114 360.039 131.138 377.19 152.279 377.19Z" fill="#0000FF" stroke="white" stroke-width="5" stroke-miterlimit="10"/>
<path d="M150.063 372.241C171.204 372.241 188.342 355.09 188.342 333.933C188.342 312.776 171.204 295.625 150.063 295.625C128.922 295.625 111.784 312.776 111.784 333.933C111.784 355.09 128.922 372.241 150.063 372.241Z" fill="#0000FF" stroke="white" stroke-width="5" stroke-miterlimit="10"/>
<path d="M147.847 367.292C168.988 367.292 186.127 350.141 186.127 328.984C186.127 307.827 168.988 290.676 147.847 290.676C126.706 290.676 109.568 307.827 109.568 328.984C109.568 350.141 126.706 367.292 147.847 367.292Z" fill="#0000FF" stroke="white" stroke-width="5" stroke-miterlimit="10"/>
<path d="M145.632 362.341C166.773 362.341 183.911 345.19 183.911 324.033C183.911 302.876 166.773 285.725 145.632 285.725C124.491 285.725 107.353 302.876 107.353 324.033C107.353 345.19 124.491 362.341 145.632 362.341Z" fill="#0000FF" stroke="white" stroke-width="5" stroke-miterlimit="10"/>
<path d="M143.416 357.392C164.557 357.392 181.695 340.241 181.695 319.084C181.695 297.927 164.557 280.775 143.416 280.775C122.275 280.775 105.137 297.927 105.137 319.084C105.137 340.241 122.275 357.392 143.416 357.392Z" fill="#0000FF" stroke="white" stroke-width="5" stroke-miterlimit="10"/>
<path d="M141.199 352.442C162.34 352.442 179.478 335.291 179.478 314.134C179.478 292.977 162.34 275.826 141.199 275.826C120.058 275.826 102.92 292.977 102.92 314.134C102.92 335.291 120.058 352.442 141.199 352.442Z" fill="#0000FF" stroke="white" stroke-width="5" stroke-miterlimit="10"/>
<path d="M138.983 347.493C160.124 347.493 177.262 330.342 177.262 309.185C177.262 288.028 160.124 270.877 138.983 270.877C117.842 270.877 100.704 288.028 100.704 309.185C100.704 330.342 117.842 347.493 138.983 347.493Z" fill="#0000FF" stroke="white" stroke-width="5" stroke-miterlimit="10"/>
<path d="M136.767 342.544C157.908 342.544 175.047 325.393 175.047 304.236C175.047 283.079 157.908 265.928 136.767 265.928C115.626 265.928 98.4883 283.079 98.4883 304.236C98.4883 325.393 115.626 342.544 136.767 342.544Z" fill="#0000FF" stroke="white" stroke-width="5" stroke-miterlimit="10"/>
<path d="M134.552 337.595C155.693 337.595 172.831 320.444 172.831 299.287C172.831 278.13 155.693 260.979 134.552 260.979C113.411 260.979 96.2725 278.13 96.2725 299.287C96.2725 320.444 113.411 337.595 134.552 337.595Z" fill="#0000FF" stroke="white" stroke-width="5" stroke-miterlimit="10"/>
<path d="M132.336 332.646C153.477 332.646 170.615 315.494 170.615 294.337C170.615 273.18 153.477 256.029 132.336 256.029C111.195 256.029 94.0566 273.18 94.0566 294.337C94.0566 315.494 111.195 332.646 132.336 332.646Z" fill="#0000FF" stroke="white" stroke-width="5" stroke-miterlimit="10"/>
<path d="M130.119 327.696C151.26 327.696 168.398 310.545 168.398 289.388C168.398 268.231 151.26 251.08 130.119 251.08C108.978 251.08 91.8398 268.231 91.8398 289.388C91.8398 310.545 108.978 327.696 130.119 327.696Z" fill="#0000FF" stroke="white" stroke-width="5" stroke-miterlimit="10"/>
<path d="M127.903 322.747C149.044 322.747 166.182 305.596 166.182 284.439C166.182 263.282 149.044 246.131 127.903 246.131C106.762 246.131 89.624 263.282 89.624 284.439C89.624 305.596 106.762 322.747 127.903 322.747Z" fill="#0000FF" stroke="white" stroke-width="5" stroke-miterlimit="10"/>
<path d="M125.687 317.798C146.828 317.798 163.966 300.647 163.966 279.49C163.966 258.333 146.828 241.182 125.687 241.182C104.546 241.182 87.4082 258.333 87.4082 279.49C87.4082 300.647 104.546 317.798 125.687 317.798Z" fill="#0000FF" stroke="white" stroke-width="5" stroke-miterlimit="10"/>
<path d="M123.472 312.849C144.612 312.849 161.751 295.698 161.751 274.541C161.751 253.384 144.612 236.232 123.472 236.232C102.331 236.232 85.1924 253.384 85.1924 274.541C85.1924 295.698 102.331 312.849 123.472 312.849Z" fill="#0000FF" stroke="white" stroke-width="5" stroke-miterlimit="10"/>
<path d="M121.256 307.899C142.397 307.899 159.535 290.748 159.535 269.591C159.535 248.434 142.397 231.283 121.256 231.283C100.115 231.283 82.9766 248.434 82.9766 269.591C82.9766 290.748 100.115 307.899 121.256 307.899Z" fill="#0000FF" stroke="white" stroke-width="5" stroke-miterlimit="10"/>
<path d="M119.04 302.95C140.181 302.95 157.319 285.799 157.319 264.642C157.319 243.485 140.181 226.334 119.04 226.334C97.8989 226.334 80.7607 243.485 80.7607 264.642C80.7607 285.799 97.8989 302.95 119.04 302.95Z" fill="#0000FF" stroke="white" stroke-width="5" stroke-miterlimit="10"/>
<path d="M116.823 297.999C137.964 297.999 155.102 280.848 155.102 259.691C155.102 238.534 137.964 221.383 116.823 221.383C95.6821 221.383 78.5439 238.534 78.5439 259.691C78.5439 280.848 95.6821 297.999 116.823 297.999Z" fill="#0000FF" stroke="white" stroke-width="5" stroke-miterlimit="10"/>
<path d="M114.607 293.05C135.748 293.05 152.886 275.899 152.886 254.742C152.886 233.585 135.748 216.434 114.607 216.434C93.4663 216.434 76.3281 233.585 76.3281 254.742C76.3281 275.899 93.4663 293.05 114.607 293.05Z" fill="#0000FF" stroke="white" stroke-width="5" stroke-miterlimit="10"/>
<path d="M112.391 288.101C133.532 288.101 150.671 270.95 150.671 249.793C150.671 228.636 133.532 211.484 112.391 211.484C91.2504 211.484 74.1123 228.636 74.1123 249.793C74.1123 270.95 91.2504 288.101 112.391 288.101Z" fill="#0000FF" stroke="white" stroke-width="5" stroke-miterlimit="10"/>
<path d="M110.176 283.151C131.317 283.151 148.455 266 148.455 244.843C148.455 223.686 131.317 206.535 110.176 206.535C89.0346 206.535 71.8965 223.686 71.8965 244.843C71.8965 266 89.0346 283.151 110.176 283.151Z" fill="#0000FF" stroke="white" stroke-width="5" stroke-miterlimit="10"/>
<path d="M107.96 278.202C129.101 278.202 146.239 261.051 146.239 239.894C146.239 218.737 129.101 201.586 107.96 201.586C86.8188 201.586 69.6807 218.737 69.6807 239.894C69.6807 261.051 86.8188 278.202 107.96 278.202Z" fill="#0000FF" stroke="white" stroke-width="5" stroke-miterlimit="10"/>
<path d="M105.744 273.253C126.885 273.253 144.023 256.102 144.023 234.945C144.023 213.788 126.885 196.637 105.744 196.637C84.603 196.637 67.4648 213.788 67.4648 234.945C67.4648 256.102 84.603 273.253 105.744 273.253Z" fill="#0000FF" stroke="white" stroke-width="5" stroke-miterlimit="10"/>
<path d="M103.527 268.304C124.668 268.304 141.806 251.153 141.806 229.996C141.806 208.839 124.668 191.688 103.527 191.688C82.3862 191.688 65.248 208.839 65.248 229.996C65.248 251.153 82.3862 268.304 103.527 268.304Z" fill="#0000FF" stroke="white" stroke-width="5" stroke-miterlimit="10"/>
<path d="M101.311 263.355C122.452 263.355 139.59 246.203 139.59 225.046C139.59 203.889 122.452 186.738 101.311 186.738C80.1704 186.738 63.0322 203.889 63.0322 225.046C63.0322 246.203 80.1704 263.355 101.311 263.355Z" fill="#0000FF" stroke="white" stroke-width="5" stroke-miterlimit="10"/>
<path d="M99.0955 258.405C120.236 258.405 137.375 241.254 137.375 220.097C137.375 198.94 120.236 181.789 99.0955 181.789C77.9545 181.789 60.8164 198.94 60.8164 220.097C60.8164 241.254 77.9545 258.405 99.0955 258.405Z" fill="#0000FF" stroke="white" stroke-width="5" stroke-miterlimit="10"/>
<path d="M96.8797 253.456C118.021 253.456 135.159 236.305 135.159 215.148C135.159 193.991 118.021 176.84 96.8797 176.84C75.7387 176.84 58.6006 193.991 58.6006 215.148C58.6006 236.305 75.7387 253.456 96.8797 253.456Z" fill="#0000FF" stroke="white" stroke-width="5" stroke-miterlimit="10"/>
<path d="M94.6639 248.507C115.805 248.507 132.943 231.356 132.943 210.199C132.943 189.042 115.805 171.891 94.6639 171.891C73.5229 171.891 56.3848 189.042 56.3848 210.199C56.3848 231.356 73.5229 248.507 94.6639 248.507Z" fill="#0000FF" stroke="white" stroke-width="5" stroke-miterlimit="10"/>
<path d="M92.4481 243.558C113.589 243.558 130.727 226.407 130.727 205.25C130.727 184.093 113.589 166.941 92.4481 166.941C71.3071 166.941 54.1689 184.093 54.1689 205.25C54.1689 226.407 71.3071 243.558 92.4481 243.558Z" fill="#0000FF" stroke="white" stroke-width="5" stroke-miterlimit="10"/>
<path d="M90.2313 238.608C111.372 238.608 128.51 221.457 128.51 200.3C128.51 179.143 111.372 161.992 90.2313 161.992C69.0903 161.992 51.9521 179.143 51.9521 200.3C51.9521 221.457 69.0903 238.608 90.2313 238.608Z" fill="#0000FF" stroke="white" stroke-width="5" stroke-miterlimit="10"/>
<path d="M88.0154 233.659C109.156 233.659 126.295 216.508 126.295 195.351C126.295 174.194 109.156 157.043 88.0154 157.043C66.8745 157.043 49.7363 174.194 49.7363 195.351C49.7363 216.508 66.8745 233.659 88.0154 233.659Z" fill="#0000FF" stroke="white" stroke-width="5" stroke-miterlimit="10"/>
<path d="M85.7996 228.708C106.941 228.708 124.079 211.557 124.079 190.4C124.079 169.243 106.941 152.092 85.7996 152.092C64.6587 152.092 47.5205 169.243 47.5205 190.4C47.5205 211.557 64.6587 228.708 85.7996 228.708Z" fill="#0000FF" stroke="white" stroke-width="5" stroke-miterlimit="10"/>
<path d="M83.5838 223.759C104.725 223.759 121.863 206.608 121.863 185.451C121.863 164.294 104.725 147.143 83.5838 147.143C62.4428 147.143 45.3047 164.294 45.3047 185.451C45.3047 206.608 62.4428 223.759 83.5838 223.759Z" fill="#0000FF" stroke="white" stroke-width="5" stroke-miterlimit="10"/>
<path d="M81.368 218.81C102.509 218.81 119.647 201.658 119.647 180.501C119.647 159.344 102.509 142.193 81.368 142.193C60.227 142.193 43.0889 159.344 43.0889 180.501C43.0889 201.658 60.227 218.81 81.368 218.81Z" fill="#0000FF" stroke="white" stroke-width="5" stroke-miterlimit="10"/>
<path d="M79.1522 213.86C100.293 213.86 117.431 196.709 117.431 175.552C117.431 154.395 100.293 137.244 79.1522 137.244C58.0112 137.244 40.873 154.395 40.873 175.552C40.873 196.709 58.0112 213.86 79.1522 213.86Z" fill="#0000FF" stroke="white" stroke-width="5" stroke-miterlimit="10"/>
<path d="M76.9354 208.911C98.0763 208.911 115.214 191.76 115.214 170.603C115.214 149.446 98.0763 132.295 76.9354 132.295C55.7944 132.295 38.6562 149.446 38.6562 170.603C38.6562 191.76 55.7944 208.911 76.9354 208.911Z" fill="#0000FF" stroke="white" stroke-width="5" stroke-miterlimit="10"/>
<path d="M74.7195 203.962C95.8605 203.962 112.999 186.811 112.999 165.654C112.999 144.497 95.8605 127.346 74.7195 127.346C53.5786 127.346 36.4404 144.497 36.4404 165.654C36.4404 186.811 53.5786 203.962 74.7195 203.962Z" fill="#0000FF" stroke="white" stroke-width="5" stroke-miterlimit="10"/>
<path d="M72.5037 199.013C93.6447 199.013 110.783 181.862 110.783 160.705C110.783 139.548 93.6447 122.396 72.5037 122.396C51.3627 122.396 34.2246 139.548 34.2246 160.705C34.2246 181.862 51.3627 199.013 72.5037 199.013Z" fill="#0000FF" stroke="white" stroke-width="5" stroke-miterlimit="10"/>
<path d="M70.2879 194.064C91.4289 194.064 108.567 176.912 108.567 155.755C108.567 134.598 91.4289 117.447 70.2879 117.447C49.1469 117.447 32.0088 134.598 32.0088 155.755C32.0088 176.912 49.1469 194.064 70.2879 194.064Z" fill="#0000FF" stroke="white" stroke-width="5" stroke-miterlimit="10"/>
<path d="M68.0721 189.114C89.213 189.114 106.351 171.963 106.351 150.806C106.351 129.649 89.213 112.498 68.0721 112.498C46.9311 112.498 29.793 129.649 29.793 150.806C29.793 171.963 46.9311 189.114 68.0721 189.114Z" fill="#0000FF" stroke="white" stroke-width="5" stroke-miterlimit="10"/>
<path d="M65.8553 184.165C86.9963 184.165 104.134 167.014 104.134 145.857C104.134 124.7 86.9963 107.549 65.8553 107.549C44.7143 107.549 27.5762 124.7 27.5762 145.857C27.5762 167.014 44.7143 184.165 65.8553 184.165Z" fill="#0000FF" stroke="white" stroke-width="5" stroke-miterlimit="10"/>
<path d="M63.6395 179.216C84.7804 179.216 101.919 162.065 101.919 140.908C101.919 119.751 84.7804 102.6 63.6395 102.6C42.4985 102.6 25.3604 119.751 25.3604 140.908C25.3604 162.065 42.4985 179.216 63.6395 179.216Z" fill="#0000FF" stroke="white" stroke-width="5" stroke-miterlimit="10"/>
<path d="M61.4236 174.267C82.5646 174.267 99.7028 157.116 99.7028 135.959C99.7028 114.802 82.5646 97.6504 61.4236 97.6504C40.2827 97.6504 23.1445 114.802 23.1445 135.959C23.1445 157.116 40.2827 174.267 61.4236 174.267Z" fill="#0000FF" stroke="white" stroke-width="5" stroke-miterlimit="10"/>
<path d="M59.2078 169.315C80.3488 169.315 97.4869 152.164 97.4869 131.007C97.4869 109.85 80.3488 92.6992 59.2078 92.6992C38.0669 92.6992 20.9287 109.85 20.9287 131.007C20.9287 152.164 38.0669 169.315 59.2078 169.315Z" fill="#0000FF" stroke="white" stroke-width="5" stroke-miterlimit="10"/>
<path d="M56.992 164.366C78.133 164.366 95.2711 147.215 95.2711 126.058C95.2711 104.901 78.133 87.75 56.992 87.75C35.851 87.75 18.7129 104.901 18.7129 126.058C18.7129 147.215 35.851 164.366 56.992 164.366Z" fill="#0000FF" stroke="white" stroke-width="5" stroke-miterlimit="10"/>
<path d="M54.7762 159.417C75.9171 159.417 93.0553 142.266 93.0553 121.109C93.0553 99.9519 75.9171 82.8008 54.7762 82.8008C33.6352 82.8008 16.4971 99.9519 16.4971 121.109C16.4971 142.266 33.6352 159.417 54.7762 159.417Z" fill="#0000FF" stroke="white" stroke-width="5" stroke-miterlimit="10"/>
<path d="M52.5594 154.468C73.7004 154.468 90.8385 137.317 90.8385 116.16C90.8385 95.0027 73.7004 77.8516 52.5594 77.8516C31.4184 77.8516 14.2803 95.0027 14.2803 116.16C14.2803 137.317 31.4184 154.468 52.5594 154.468Z" fill="#0000FF" stroke="white" stroke-width="5" stroke-miterlimit="10"/>
<path d="M50.3436 149.519C71.4845 149.519 88.6227 132.367 88.6227 111.21C88.6227 90.0535 71.4845 72.9023 50.3436 72.9023C29.2026 72.9023 12.0645 90.0535 12.0645 111.21C12.0645 132.367 29.2026 149.519 50.3436 149.519Z" fill="#0000FF" stroke="white" stroke-width="5" stroke-miterlimit="10"/>
<path d="M48.1277 144.569C69.2687 144.569 86.4069 127.418 86.4069 106.261C86.4069 85.1043 69.2687 67.9531 48.1277 67.9531C26.9868 67.9531 9.84863 85.1043 9.84863 106.261C9.84863 127.418 26.9868 144.569 48.1277 144.569Z" fill="#0000FF" stroke="white" stroke-width="5" stroke-miterlimit="10"/>
<path d="M45.9119 139.62C67.0529 139.62 84.191 122.469 84.191 101.312C84.191 80.155 67.0529 63.0039 45.9119 63.0039C24.771 63.0039 7.63281 80.155 7.63281 101.312C7.63281 122.469 24.771 139.62 45.9119 139.62Z" fill="#0000FF" stroke="white" stroke-width="5" stroke-miterlimit="10"/>
<path d="M43.6961 134.671C64.8371 134.671 81.9752 117.52 81.9752 96.3628C81.9752 75.2058 64.8371 58.0547 43.6961 58.0547C22.5551 58.0547 5.41699 75.2058 5.41699 96.3628C5.41699 117.52 22.5551 134.671 43.6961 134.671Z" fill="#0000FF" stroke="white" stroke-width="5" stroke-miterlimit="10"/>
<path d="M41.4803 129.722C62.6213 129.722 79.7594 112.571 79.7594 91.4136C79.7594 70.2566 62.6213 53.1055 41.4803 53.1055C20.3393 53.1055 3.20117 70.2566 3.20117 91.4136C3.20117 112.571 20.3393 129.722 41.4803 129.722Z" fill="#0000FF" stroke="white" stroke-width="5" stroke-miterlimit="10"/>
<path d="M39.2635 124.773C60.4045 124.773 77.5426 107.621 77.5426 86.4644C77.5426 65.3074 60.4045 48.1562 39.2635 48.1562C18.1225 48.1562 0.984375 65.3074 0.984375 86.4644C0.984375 107.621 18.1225 124.773 39.2635 124.773Z" fill="#0000FF" stroke="white" stroke-width="5" stroke-miterlimit="10"/>
<path d="M102.661 249.821C123.802 249.821 140.94 232.67 140.94 211.513C140.94 190.356 123.802 173.205 102.661 173.205C81.52 173.205 64.3818 190.356 64.3818 211.513C64.3818 232.67 81.52 249.821 102.661 249.821Z" fill="#0000FF" stroke="white" stroke-width="5" stroke-miterlimit="10"/>
<path d="M104.342 244.554C125.483 244.554 142.621 227.403 142.621 206.246C142.621 185.089 125.483 167.938 104.342 167.938C83.2006 167.938 66.0625 185.089 66.0625 206.246C66.0625 227.403 83.2006 244.554 104.342 244.554Z" fill="#0000FF" stroke="white" stroke-width="5" stroke-miterlimit="10"/>
<path d="M106.022 239.288C127.163 239.288 144.301 222.137 144.301 200.98C144.301 179.823 127.163 162.672 106.022 162.672C84.8813 162.672 67.7432 179.823 67.7432 200.98C67.7432 222.137 84.8813 239.288 106.022 239.288Z" fill="#0000FF" stroke="white" stroke-width="5" stroke-miterlimit="10"/>
<path d="M107.703 234.021C128.844 234.021 145.982 216.869 145.982 195.712C145.982 174.555 128.844 157.404 107.703 157.404C86.562 157.404 69.4238 174.555 69.4238 195.712C69.4238 216.869 86.562 234.021 107.703 234.021Z" fill="#0000FF" stroke="white" stroke-width="5" stroke-miterlimit="10"/>
<path d="M109.384 228.755C130.525 228.755 147.663 211.604 147.663 190.447C147.663 169.29 130.525 152.139 109.384 152.139C88.2426 152.139 71.1045 169.29 71.1045 190.447C71.1045 211.604 88.2426 228.755 109.384 228.755Z" fill="#0000FF" stroke="white" stroke-width="5" stroke-miterlimit="10"/>
<path d="M111.064 223.487C132.205 223.487 149.343 206.336 149.343 185.179C149.343 164.022 132.205 146.871 111.064 146.871C89.9233 146.871 72.7852 164.022 72.7852 185.179C72.7852 206.336 89.9233 223.487 111.064 223.487Z" fill="#0000FF" stroke="white" stroke-width="5" stroke-miterlimit="10"/>
<path d="M112.745 218.222C133.886 218.222 151.024 201.071 151.024 179.914C151.024 158.757 133.886 141.605 112.745 141.605C91.604 141.605 74.4658 158.757 74.4658 179.914C74.4658 201.071 91.604 218.222 112.745 218.222Z" fill="#0000FF" stroke="white" stroke-width="5" stroke-miterlimit="10"/>
<path d="M114.426 212.954C135.567 212.954 152.705 195.803 152.705 174.646C152.705 153.489 135.567 136.338 114.426 136.338C93.2846 136.338 76.1465 153.489 76.1465 174.646C76.1465 195.803 93.2846 212.954 114.426 212.954Z" fill="#0000FF" stroke="white" stroke-width="5" stroke-miterlimit="10"/>
<path d="M116.106 207.689C137.247 207.689 154.385 190.537 154.385 169.38C154.385 148.223 137.247 131.072 116.106 131.072C94.9653 131.072 77.8271 148.223 77.8271 169.38C77.8271 190.537 94.9653 207.689 116.106 207.689Z" fill="#0000FF" stroke="white" stroke-width="5" stroke-miterlimit="10"/>
<path d="M117.787 202.423C138.928 202.423 156.066 185.272 156.066 164.115C156.066 142.958 138.928 125.807 117.787 125.807C96.646 125.807 79.5078 142.958 79.5078 164.115C79.5078 185.272 96.646 202.423 117.787 202.423Z" fill="#0000FF" stroke="white" stroke-width="5" stroke-miterlimit="10"/>
<path d="M119.468 197.155C140.609 197.155 157.747 180.004 157.747 158.847C157.747 137.69 140.609 120.539 119.468 120.539C98.3266 120.539 81.1885 137.69 81.1885 158.847C81.1885 180.004 98.3266 197.155 119.468 197.155Z" fill="#0000FF" stroke="white" stroke-width="5" stroke-miterlimit="10"/>
<path d="M121.148 191.89C142.289 191.89 159.427 174.739 159.427 153.582C159.427 132.425 142.289 115.273 121.148 115.273C100.007 115.273 82.8691 132.425 82.8691 153.582C82.8691 174.739 100.007 191.89 121.148 191.89Z" fill="#0000FF" stroke="white" stroke-width="5" stroke-miterlimit="10"/>
<path d="M122.829 186.622C143.97 186.622 161.108 169.471 161.108 148.314C161.108 127.157 143.97 110.006 122.829 110.006C101.688 110.006 84.5498 127.157 84.5498 148.314C84.5498 169.471 101.688 186.622 122.829 186.622Z" fill="#0000FF" stroke="white" stroke-width="5" stroke-miterlimit="10"/>
<path d="M124.51 181.356C145.651 181.356 162.789 164.205 162.789 143.048C162.789 121.891 145.651 104.74 124.51 104.74C103.369 104.74 86.2305 121.891 86.2305 143.048C86.2305 164.205 103.369 181.356 124.51 181.356Z" fill="#0000FF" stroke="white" stroke-width="5" stroke-miterlimit="10"/>
<path d="M126.191 176.089C147.332 176.089 164.47 158.938 164.47 137.781C164.47 116.624 147.332 99.4727 126.191 99.4727C105.05 99.4727 87.9121 116.624 87.9121 137.781C87.9121 158.938 105.05 176.089 126.191 176.089Z" fill="#0000FF" stroke="white" stroke-width="5" stroke-miterlimit="10"/>
<path d="M127.872 170.823C149.013 170.823 166.151 153.672 166.151 132.515C166.151 111.358 149.013 94.207 127.872 94.207C106.731 94.207 89.5928 111.358 89.5928 132.515C89.5928 153.672 106.731 170.823 127.872 170.823Z" fill="#0000FF" stroke="white" stroke-width="5" stroke-miterlimit="10"/>
<path d="M129.553 165.556C150.694 165.556 167.832 148.405 167.832 127.248C167.832 106.091 150.694 88.9395 129.553 88.9395C108.412 88.9395 91.2734 106.091 91.2734 127.248C91.2734 148.405 108.412 165.556 129.553 165.556Z" fill="#0000FF" stroke="white" stroke-width="5" stroke-miterlimit="10"/>
<path d="M131.233 160.29C152.374 160.29 169.512 143.139 169.512 121.982C169.512 100.825 152.374 83.6738 131.233 83.6738C110.092 83.6738 92.9541 100.825 92.9541 121.982C92.9541 143.139 110.092 160.29 131.233 160.29Z" fill="#0000FF" stroke="white" stroke-width="5" stroke-miterlimit="10"/>
<path d="M132.914 155.024C154.055 155.024 171.193 137.873 171.193 116.716C171.193 95.5593 154.055 78.4082 132.914 78.4082C111.773 78.4082 94.6348 95.5593 94.6348 116.716C94.6348 137.873 111.773 155.024 132.914 155.024Z" fill="#0000FF" stroke="white" stroke-width="5" stroke-miterlimit="10"/>
<path d="M134.595 149.757C155.736 149.757 172.874 132.606 172.874 111.449C172.874 90.2918 155.736 73.1406 134.595 73.1406C113.454 73.1406 96.3154 90.2918 96.3154 111.449C96.3154 132.606 113.454 149.757 134.595 149.757Z" fill="#0000FF" stroke="white" stroke-width="5" stroke-miterlimit="10"/>
<path d="M136.275 144.491C157.416 144.491 174.554 127.34 174.554 106.183C174.554 85.0261 157.416 67.875 136.275 67.875C115.134 67.875 97.9961 85.0261 97.9961 106.183C97.9961 127.34 115.134 144.491 136.275 144.491Z" fill="#0000FF" stroke="white" stroke-width="5" stroke-miterlimit="10"/>
<path d="M137.956 139.224C159.097 139.224 176.235 122.073 176.235 100.916C176.235 79.7586 159.097 62.6074 137.956 62.6074C116.815 62.6074 99.6768 79.7586 99.6768 100.916C99.6768 122.073 116.815 139.224 137.956 139.224Z" fill="#0000FF" stroke="white" stroke-width="5" stroke-miterlimit="10"/>
<path d="M139.637 133.958C160.778 133.958 177.916 116.807 177.916 95.6499C177.916 74.4929 160.778 57.3418 139.637 57.3418C118.496 57.3418 101.357 74.4929 101.357 95.6499C101.357 116.807 118.496 133.958 139.637 133.958Z" fill="#0000FF" stroke="white" stroke-width="5" stroke-miterlimit="10"/>
<path d="M141.317 128.692C162.458 128.692 179.596 111.541 179.596 90.3843C179.596 69.2273 162.458 52.0762 141.317 52.0762C120.176 52.0762 103.038 69.2273 103.038 90.3843C103.038 111.541 120.176 128.692 141.317 128.692Z" fill="#0000FF" stroke="white" stroke-width="5" stroke-miterlimit="10"/>
<path d="M142.998 123.425C164.139 123.425 181.277 106.274 181.277 85.1167C181.277 63.9597 164.139 46.8086 142.998 46.8086C121.857 46.8086 104.719 63.9597 104.719 85.1167C104.719 106.274 121.857 123.425 142.998 123.425Z" fill="#0000FF" stroke="white" stroke-width="5" stroke-miterlimit="10"/>
<path d="M144.679 118.159C165.819 118.159 182.958 101.008 182.958 79.8511C182.958 58.6941 165.819 41.543 144.679 41.543C123.538 41.543 106.399 58.6941 106.399 79.8511C106.399 101.008 123.538 118.159 144.679 118.159Z" fill="#0000FF" stroke="white" stroke-width="5" stroke-miterlimit="10"/>
<path d="M146.359 112.892C167.5 112.892 184.638 95.7405 184.638 74.5835C184.638 53.4265 167.5 36.2754 146.359 36.2754C125.218 36.2754 108.08 53.4265 108.08 74.5835C108.08 95.7405 125.218 112.892 146.359 112.892Z" fill="#0000FF" stroke="white" stroke-width="5" stroke-miterlimit="10"/>
<path d="M148.04 107.626C169.181 107.626 186.319 90.4749 186.319 69.3179C186.319 48.1609 169.181 31.0098 148.04 31.0098C126.899 31.0098 109.761 48.1609 109.761 69.3179C109.761 90.4749 126.899 107.626 148.04 107.626Z" fill="#0000FF" stroke="white" stroke-width="5" stroke-miterlimit="10"/>
<path d="M149.721 102.358C170.861 102.358 188 85.2073 188 64.0503C188 42.8933 170.861 25.7422 149.721 25.7422C128.58 25.7422 111.441 42.8933 111.441 64.0503C111.441 85.2073 128.58 102.358 149.721 102.358Z" fill="#0000FF" stroke="white" stroke-width="5" stroke-miterlimit="10"/>
<path d="M151.402 97.0928C172.543 97.0928 189.681 79.9417 189.681 58.7847C189.681 37.6277 172.543 20.4766 151.402 20.4766C130.261 20.4766 113.123 37.6277 113.123 58.7847C113.123 79.9417 130.261 97.0928 151.402 97.0928Z" fill="#0000FF" stroke="white" stroke-width="5" stroke-miterlimit="10"/>
<path d="M155.863 95.8721C177.004 95.8721 194.142 78.721 194.142 57.564C194.142 36.407 177.004 19.2559 155.863 19.2559C134.722 19.2559 117.584 36.407 117.584 57.564C117.584 78.721 134.722 95.8721 155.863 95.8721Z" fill="#0000FF" stroke="white" stroke-width="5" stroke-miterlimit="10"/>
<path d="M160.324 94.6534C181.465 94.6534 198.603 77.5022 198.603 56.3452C198.603 35.1883 181.465 18.0371 160.324 18.0371C139.183 18.0371 122.045 35.1883 122.045 56.3452C122.045 77.5022 139.183 94.6534 160.324 94.6534Z" fill="#0000FF" stroke="white" stroke-width="5" stroke-miterlimit="10"/>
<path d="M164.786 93.4346C185.927 93.4346 203.065 76.2835 203.065 55.1265C203.065 33.9695 185.927 16.8184 164.786 16.8184C143.645 16.8184 126.507 33.9695 126.507 55.1265C126.507 76.2835 143.645 93.4346 164.786 93.4346Z" fill="#0000FF" stroke="white" stroke-width="5" stroke-miterlimit="10"/>
<path d="M169.247 92.2139C190.388 92.2139 207.526 75.0628 207.526 53.9058C207.526 32.7488 190.388 15.5977 169.247 15.5977C148.106 15.5977 130.968 32.7488 130.968 53.9058C130.968 75.0628 148.106 92.2139 169.247 92.2139Z" fill="#0000FF" stroke="white" stroke-width="5" stroke-miterlimit="10"/>
<path d="M173.709 90.9952C194.85 90.9952 211.988 73.844 211.988 52.687C211.988 31.53 194.85 14.3789 173.709 14.3789C152.568 14.3789 135.43 31.53 135.43 52.687C135.43 73.844 152.568 90.9952 173.709 90.9952Z" fill="#0000FF" stroke="white" stroke-width="5" stroke-miterlimit="10"/>
<path d="M178.17 89.7745C199.311 89.7745 216.449 72.6233 216.449 51.4663C216.449 30.3093 199.311 13.1582 178.17 13.1582C157.029 13.1582 139.891 30.3093 139.891 51.4663C139.891 72.6233 157.029 89.7745 178.17 89.7745Z" fill="#0000FF" stroke="white" stroke-width="5" stroke-miterlimit="10"/>
<path d="M182.631 88.5557C203.772 88.5557 220.91 71.4046 220.91 50.2476C220.91 29.0906 203.772 11.9395 182.631 11.9395C161.49 11.9395 144.352 29.0906 144.352 50.2476C144.352 71.4046 161.49 88.5557 182.631 88.5557Z" fill="#0000FF" stroke="white" stroke-width="5" stroke-miterlimit="10"/>
<path d="M187.093 87.335C208.234 87.335 225.372 70.1839 225.372 49.0269C225.372 27.8699 208.234 10.7188 187.093 10.7188C165.952 10.7188 148.813 27.8699 148.813 49.0269C148.813 70.1839 165.952 87.335 187.093 87.335Z" fill="#0000FF" stroke="white" stroke-width="5" stroke-miterlimit="10"/>
<path d="M191.554 86.1163C212.694 86.1163 229.833 68.9651 229.833 47.8081C229.833 26.6511 212.694 9.5 191.554 9.5C170.413 9.5 153.274 26.6511 153.274 47.8081C153.274 68.9651 170.413 86.1163 191.554 86.1163Z" fill="#0000FF" stroke="white" stroke-width="5" stroke-miterlimit="10"/>
<path d="M196.015 84.8956C217.156 84.8956 234.295 67.7444 234.295 46.5874C234.295 25.4304 217.156 8.2793 196.015 8.2793C174.874 8.2793 157.736 25.4304 157.736 46.5874C157.736 67.7444 174.874 84.8956 196.015 84.8956Z" fill="#0000FF" stroke="white" stroke-width="5" stroke-miterlimit="10"/>
<path d="M200.476 83.6768C221.617 83.6768 238.755 66.5257 238.755 45.3687C238.755 24.2117 221.617 7.06055 200.476 7.06055C179.335 7.06055 162.197 24.2117 162.197 45.3687C162.197 66.5257 179.335 83.6768 200.476 83.6768Z" fill="#0000FF" stroke="white" stroke-width="5" stroke-miterlimit="10"/>
<path d="M204.937 82.4561C226.078 82.4561 243.216 65.305 243.216 44.148C243.216 22.991 226.078 5.83984 204.937 5.83984C183.796 5.83984 166.658 22.991 166.658 44.148C166.658 65.305 183.796 82.4561 204.937 82.4561Z" fill="#0000FF" stroke="white" stroke-width="5" stroke-miterlimit="10"/>
<path d="M209.399 81.2374C230.54 81.2374 247.678 64.0862 247.678 42.9292C247.678 21.7722 230.54 4.62109 209.399 4.62109C188.258 4.62109 171.12 21.7722 171.12 42.9292C171.12 64.0862 188.258 81.2374 209.399 81.2374Z" fill="#0000FF" stroke="white" stroke-width="5" stroke-miterlimit="10"/>
<path d="M213.86 80.0186C235.001 80.0186 252.139 62.8675 252.139 41.7105C252.139 20.5535 235.001 3.40234 213.86 3.40234C192.719 3.40234 175.581 20.5535 175.581 41.7105C175.581 62.8675 192.719 80.0186 213.86 80.0186Z" fill="#0000FF" stroke="white" stroke-width="5" stroke-miterlimit="10"/>
<path d="M218.322 78.7979C239.463 78.7979 256.601 61.6468 256.601 40.4898C256.601 19.3328 239.463 2.18164 218.322 2.18164C197.181 2.18164 180.043 19.3328 180.043 40.4898C180.043 61.6468 197.181 78.7979 218.322 78.7979Z" fill="#0000FF" stroke="white" stroke-width="5" stroke-miterlimit="10"/>
<path d="M222.783 77.5772C243.924 77.5772 261.062 60.4261 261.062 39.2691C261.062 18.1121 243.924 0.960938 222.783 0.960938C201.642 0.960938 184.504 18.1121 184.504 39.2691C184.504 60.4261 201.642 77.5772 222.783 77.5772Z" fill="#0000FF" stroke="white" stroke-width="5" stroke-miterlimit="10"/>
</g>
<defs>
<clipPath id="clip0_118_312">
<rect width="262" height="393" fill="white" transform="translate(0.0234375)"/>
</clipPath>
</defs>
</svg>
