<svg width="304" height="609" viewBox="0 0 304 609" fill="none" xmlns="http://www.w3.org/2000/svg">
<g clip-path="url(#clip0_118_759)">
<path d="M220.252 75.9194L236.325 71.2188L236.477 70.9496C232.685 56.6632 240.746 41.9661 254.679 37.4252L249.731 20.4663C235.684 23.6601 221.476 15.5081 217.154 1.70703L200.491 6.58035C204.458 21.1667 196.039 36.2267 181.604 40.5006L186.228 56.3549C200.87 52.5013 215.927 61.1284 219.993 75.7725L220.252 75.9194Z" fill="#0000FF" stroke="white" stroke-miterlimit="10"/>
<path d="M218.445 82.6987L234.518 77.9981L234.67 77.7288C230.878 63.4425 238.938 48.7453 252.871 44.2045L247.924 27.2456C233.876 30.4394 219.669 22.2874 215.346 8.48633L198.683 13.3596C202.65 27.946 194.231 43.006 179.796 47.2799L184.421 63.1341C199.062 59.2806 214.119 67.9077 218.186 82.5518L218.445 82.6987Z" fill="#0000FF" stroke="white" stroke-miterlimit="10"/>
<path d="M216.637 89.476L232.71 84.7754L232.862 84.5062C229.07 70.2199 237.131 55.5227 251.063 50.9818L246.116 34.023C232.069 37.2167 217.861 29.0647 213.539 15.2637L196.875 20.137C200.842 34.7234 192.423 49.7834 177.988 54.0573L182.613 69.9115C197.254 66.058 212.311 74.6851 216.378 89.3291L216.637 89.476Z" fill="#0000FF" stroke="white" stroke-miterlimit="10"/>
<path d="M214.829 96.2553L230.902 91.5547L231.055 91.2855C227.262 76.9992 235.323 62.302 249.256 57.7611L244.309 40.8023C230.261 43.996 216.054 35.844 211.731 22.043L195.068 26.9163C199.035 41.5027 190.616 56.5627 176.181 60.8366L180.806 76.6908C195.447 72.8372 210.504 81.4644 214.57 96.1084L214.829 96.2553Z" fill="#0000FF" stroke="white" stroke-miterlimit="10"/>
<path d="M213.023 103.033L229.096 98.3321L229.248 98.0628C225.456 83.7765 233.517 69.0793 247.449 64.5385L242.502 47.5796C228.455 50.7733 214.247 42.6213 209.924 28.8203L193.261 33.6936C197.228 48.28 188.809 63.34 174.374 67.6139L178.999 83.4681C193.64 79.6146 208.697 88.2417 212.764 102.886L213.023 103.033Z" fill="#0000FF" stroke="white" stroke-miterlimit="10"/>
<path d="M211.215 109.812L227.288 105.111L227.44 104.842C223.648 90.5558 231.709 75.8586 245.641 71.3178L240.694 54.3589C226.647 57.5526 212.439 49.4006 208.117 35.5996L191.453 40.4729C195.42 55.0593 187.001 70.1193 172.566 74.3932L177.191 90.2474C191.832 86.3939 206.89 95.021 210.956 109.665L211.215 109.812Z" fill="#0000FF" stroke="white" stroke-miterlimit="10"/>
<path d="M209.408 116.589L225.48 111.889L225.633 111.619C221.841 97.3332 229.901 82.636 243.834 78.0951L238.887 61.1363C224.839 64.33 210.632 56.178 206.309 42.377L189.646 47.2503C193.613 61.8367 185.194 76.8967 170.759 81.1705L175.384 97.0248C190.025 93.1712 205.082 101.798 209.148 116.442L209.408 116.589Z" fill="#0000FF" stroke="white" stroke-miterlimit="10"/>
<path d="M207.6 123.369L223.673 118.668L223.825 118.399C220.033 104.112 228.094 89.4153 242.026 84.8744L237.079 67.9155C223.032 71.1093 208.824 62.9573 204.502 49.1562L187.838 54.0296C191.805 68.6159 183.386 83.6759 168.951 87.9498L173.576 103.804C188.217 99.9505 203.274 108.578 207.341 123.222L207.6 123.369Z" fill="#0000FF" stroke="white" stroke-miterlimit="10"/>
<path d="M205.792 130.146L221.865 125.445L222.017 125.176C218.225 110.89 226.286 96.1926 240.219 91.6518L235.272 74.6929C221.224 77.8866 207.016 69.7346 202.694 55.9336L186.031 60.8069C189.998 75.3933 181.579 90.4533 167.144 94.7272L171.768 110.581C186.41 106.728 201.467 115.355 205.533 129.999L205.792 130.146Z" fill="#0000FF" stroke="white" stroke-miterlimit="10"/>
<path d="M203.986 136.925L220.059 132.225L220.211 131.955C216.419 117.669 224.479 102.972 238.412 98.4311L233.465 81.4722C219.417 84.6659 205.21 76.5139 200.887 62.7129L184.224 67.5862C188.191 82.1726 179.772 97.2326 165.337 101.506L169.962 117.361C184.603 113.507 199.66 122.134 203.727 136.778L203.986 136.925Z" fill="#0000FF" stroke="white" stroke-miterlimit="10"/>
<path d="M202.178 143.703L218.251 139.002L218.403 138.733C214.611 124.446 222.672 109.749 236.604 105.208L231.657 88.2495C217.61 91.4433 203.402 83.2913 199.08 69.4902L182.416 74.3636C186.383 88.9499 177.964 104.01 163.529 108.284L168.154 124.138C182.795 120.285 197.852 128.912 201.919 143.556L202.178 143.703Z" fill="#0000FF" stroke="white" stroke-miterlimit="10"/>
<path d="M200.37 150.482L216.443 145.781L216.596 145.512C212.803 131.226 220.864 116.529 234.797 111.988L229.85 95.0288C215.802 98.2226 201.595 90.0706 197.272 76.2695L180.609 81.1429C184.576 95.7292 176.157 110.789 161.722 115.063L166.347 130.917C180.988 127.064 196.045 135.691 200.111 150.335L200.37 150.482Z" fill="#0000FF" stroke="white" stroke-miterlimit="10"/>
<path d="M198.563 157.259L214.636 152.559L214.788 152.289C210.996 138.003 219.057 123.306 232.989 118.765L228.042 101.806C213.995 105 199.787 96.8479 195.464 83.0469L178.801 87.9202C182.768 102.507 174.349 117.567 159.914 121.84L164.539 137.695C179.18 133.841 194.237 142.468 198.304 157.112L198.563 157.259Z" fill="#0000FF" stroke="white" stroke-miterlimit="10"/>
<path d="M196.755 164.039L212.828 159.338L212.98 159.069C209.188 144.782 217.249 130.085 231.182 125.544L226.234 108.585C212.187 111.779 197.979 103.627 193.657 89.8262L176.993 94.6995C180.96 109.286 172.541 124.346 158.106 128.62L162.731 144.474C177.372 140.62 192.43 149.248 196.496 163.892L196.755 164.039Z" fill="#0000FF" stroke="white" stroke-miterlimit="10"/>
<path d="M194.949 170.816L211.021 166.115L211.174 165.846C207.382 151.56 215.442 136.863 229.375 132.322L224.428 115.363C210.38 118.557 196.173 110.405 191.85 96.6035L175.187 101.477C179.154 116.063 170.735 131.123 156.3 135.397L160.925 151.251C175.566 147.398 190.623 156.025 194.689 170.669L194.949 170.816Z" fill="#0000FF" stroke="white" stroke-miterlimit="10"/>
<path d="M193.141 177.595L209.214 172.895L209.366 172.625C205.574 158.339 213.635 143.642 227.567 139.101L222.62 122.142C208.573 125.336 194.365 117.184 190.043 103.383L173.379 108.256C177.346 122.843 168.927 137.903 154.492 142.176L159.117 158.031C173.758 154.177 188.815 162.804 192.882 177.448L193.141 177.595Z" fill="#0000FF" stroke="white" stroke-miterlimit="10"/>
<path d="M191.333 184.373L207.406 179.672L207.559 179.403C203.766 165.116 211.827 150.419 225.76 145.878L220.813 128.919C206.765 132.113 192.557 123.961 188.235 110.16L171.572 115.033C175.539 129.62 167.12 144.68 152.685 148.954L157.309 164.808C171.951 160.954 187.008 169.582 191.074 184.226L191.333 184.373Z" fill="#0000FF" stroke="white" stroke-miterlimit="10"/>
<path d="M189.526 191.152L205.599 186.451L205.751 186.182C201.959 171.896 210.019 157.198 223.952 152.658L219.005 135.699C204.957 138.892 190.75 130.74 186.427 116.939L169.764 121.813C173.731 136.399 165.312 151.459 150.877 155.733L155.502 171.587C170.143 167.734 185.2 176.361 189.267 191.005L189.526 191.152Z" fill="#0000FF" stroke="white" stroke-miterlimit="10"/>
<path d="M187.718 197.929L203.791 193.229L203.943 192.959C200.151 178.673 208.212 163.976 222.144 159.435L217.197 142.476C203.15 145.67 188.942 137.518 184.62 123.717L167.956 128.59C171.923 143.176 163.504 158.236 149.069 162.51L153.694 178.365C168.335 174.511 183.393 183.138 187.459 197.782L187.718 197.929Z" fill="#0000FF" stroke="white" stroke-miterlimit="10"/>
<path d="M185.911 204.708L201.983 200.008L202.136 199.739C198.343 185.452 206.404 170.755 220.337 166.214L215.39 149.255C201.342 152.449 187.135 144.297 182.812 130.496L166.149 135.369C170.116 149.956 161.697 165.016 147.262 169.29L151.887 185.144C166.528 181.29 181.585 189.917 185.651 204.562L185.911 204.708Z" fill="#0000FF" stroke="white" stroke-miterlimit="10"/>
<path d="M184.104 211.486L200.177 206.785L200.329 206.516C196.537 192.23 204.598 177.532 218.53 172.992L213.583 156.033C199.536 159.226 185.328 151.074 181.005 137.273L164.342 142.147C168.309 156.733 159.89 171.793 145.455 176.067L150.08 191.921C164.721 188.068 179.778 196.695 183.845 211.339L184.104 211.486Z" fill="#0000FF" stroke="white" stroke-miterlimit="10"/>
<path d="M182.296 218.265L198.369 213.564L198.521 213.295C194.729 199.009 202.79 184.312 216.723 179.771L211.775 162.812C197.728 166.006 183.52 157.854 179.198 144.053L162.535 148.926C166.501 163.512 158.083 178.572 143.647 182.846L148.272 198.701C162.913 194.847 177.971 203.474 182.037 218.118L182.296 218.265Z" fill="#0000FF" stroke="white" stroke-miterlimit="10"/>
<path d="M180.489 225.042L196.562 220.342L196.714 220.073C192.922 205.786 200.982 191.089 214.915 186.548L209.968 169.589C195.92 172.783 181.713 164.631 177.39 150.83L160.727 155.703C164.694 170.29 156.275 185.35 141.84 189.624L146.465 205.478C161.106 201.624 176.163 210.251 180.23 224.896L180.489 225.042Z" fill="#0000FF" stroke="white" stroke-miterlimit="10"/>
<path d="M178.681 231.822L194.754 227.121L194.906 226.852C191.114 212.566 199.175 197.868 213.107 193.328L208.16 176.369C194.113 179.562 179.905 171.41 175.583 157.609L158.919 162.483C162.886 177.069 154.467 192.129 140.032 196.403L144.657 212.257C159.298 208.404 174.355 217.031 178.422 231.675L178.681 231.822Z" fill="#0000FF" stroke="white" stroke-miterlimit="10"/>
<path d="M176.873 238.599L192.946 233.898L193.099 233.629C189.306 219.343 197.367 204.646 211.3 200.105L206.353 183.146C192.305 186.34 178.097 178.188 173.775 164.387L157.112 169.26C161.079 183.846 152.66 198.906 138.225 203.18L142.849 219.035C157.491 215.181 172.548 223.808 176.614 238.452L176.873 238.599Z" fill="#0000FF" stroke="white" stroke-miterlimit="10"/>
<path d="M175.067 245.378L191.14 240.678L191.292 240.409C187.5 226.122 195.56 211.425 209.493 206.884L204.546 189.925C190.499 193.119 176.291 184.967 171.968 171.166L155.305 176.039C159.272 190.626 150.853 205.686 136.418 209.96L141.043 225.814C155.684 221.96 170.741 230.587 174.808 245.231L175.067 245.378Z" fill="#0000FF" stroke="white" stroke-miterlimit="10"/>
<path d="M173.259 252.156L189.332 247.455L189.484 247.186C185.692 232.9 193.753 218.202 207.685 213.662L202.738 196.703C188.691 199.896 174.483 191.744 170.161 177.943L153.497 182.817C157.464 197.403 149.045 212.463 134.61 216.737L139.235 232.591C153.876 228.738 168.934 237.365 173 252.009L173.259 252.156Z" fill="#0000FF" stroke="white" stroke-miterlimit="10"/>
<path d="M171.452 258.935L187.524 254.234L187.677 253.965C183.884 239.679 191.945 224.982 205.878 220.441L200.931 203.482C186.883 206.676 172.676 198.524 168.353 184.723L151.69 189.596C155.657 204.182 147.238 219.242 132.803 223.516L137.428 239.37C152.069 235.517 167.126 244.144 171.192 258.788L171.452 258.935Z" fill="#0000FF" stroke="white" stroke-miterlimit="10"/>
<path d="M169.644 265.712L185.717 261.012L185.869 260.743C182.077 246.456 190.138 231.759 204.07 227.218L199.123 210.259C185.076 213.453 170.868 205.301 166.545 191.5L149.882 196.373C153.849 210.96 145.43 226.02 130.995 230.294L135.62 246.148C150.261 242.294 165.318 250.921 169.385 265.565L169.644 265.712Z" fill="#0000FF" stroke="white" stroke-miterlimit="10"/>
<path d="M167.836 272.492L183.909 267.791L184.061 267.522C180.269 253.236 188.33 238.538 202.263 233.997L197.315 217.039C183.268 220.232 169.06 212.08 164.738 198.279L148.075 203.153C152.042 217.739 143.623 232.799 129.188 237.073L133.812 252.927C148.453 249.074 163.511 257.701 167.577 272.345L167.836 272.492Z" fill="#0000FF" stroke="white" stroke-miterlimit="10"/>
<path d="M166.03 279.269L182.103 274.568L182.255 274.299C178.463 260.013 186.523 245.316 200.456 240.775L195.509 223.816C181.461 227.01 167.254 218.858 162.931 205.057L146.268 209.93C150.235 224.516 141.816 239.576 127.381 243.85L132.006 259.704C146.647 255.851 161.704 264.478 165.771 279.122L166.03 279.269Z" fill="#0000FF" stroke="white" stroke-miterlimit="10"/>
<path d="M164.222 286.048L180.295 281.348L180.447 281.078C176.655 266.792 184.716 252.095 198.648 247.554L193.701 230.595C179.654 233.789 165.446 225.637 161.124 211.836L144.46 216.709C148.427 231.296 140.008 246.356 125.573 250.63L130.198 266.484C144.839 262.63 159.896 271.257 163.963 285.901L164.222 286.048Z" fill="#0000FF" stroke="white" stroke-miterlimit="10"/>
<path d="M162.414 292.826L178.487 288.125L178.64 287.856C174.847 273.569 182.908 258.872 196.841 254.331L191.894 237.373C177.846 240.566 163.638 232.414 159.316 218.613L142.653 223.487C146.62 238.073 138.201 253.133 123.766 257.407L128.39 273.261C143.032 269.408 158.089 278.035 162.155 292.679L162.414 292.826Z" fill="#0000FF" stroke="white" stroke-miterlimit="10"/>
<path d="M160.607 299.605L176.68 294.904L176.832 294.635C173.04 280.349 181.1 265.652 195.033 261.111L190.086 244.152C176.039 247.346 161.831 239.194 157.508 225.393L140.845 230.266C144.812 244.852 136.393 259.912 121.958 264.186L126.583 280.04C141.224 276.187 156.281 284.814 160.348 299.458L160.607 299.605Z" fill="#0000FF" stroke="white" stroke-miterlimit="10"/>
<path d="M159.059 306.529L175.132 301.828L175.284 301.559C171.492 287.273 179.553 272.575 193.485 268.035L188.538 251.076C174.491 254.269 160.283 246.117 155.961 232.316L139.297 237.19C143.264 251.776 134.845 266.836 120.41 271.11L125.035 286.964C139.676 283.111 154.733 291.738 158.8 306.382L159.059 306.529Z" fill="#0000FF" stroke="white" stroke-miterlimit="10"/>
<path d="M157.51 313.455L173.583 308.754L173.735 308.485C169.943 294.198 178.004 279.501 191.936 274.96L186.989 258.001C172.942 261.195 158.734 253.043 154.412 239.242L137.748 244.115C141.715 258.702 133.296 273.762 118.861 278.036L123.486 293.89C138.127 290.036 153.185 298.664 157.251 313.308L157.51 313.455Z" fill="#0000FF" stroke="white" stroke-miterlimit="10"/>
<path d="M155.962 320.38L172.035 315.68L172.187 315.411C168.395 301.124 176.456 286.427 190.389 281.886L185.441 264.927C171.394 268.121 157.186 259.969 152.864 246.168L136.201 251.041C140.167 265.628 131.749 280.688 117.313 284.962L121.938 300.816C136.579 296.962 151.637 305.589 155.703 320.233L155.962 320.38Z" fill="#0000FF" stroke="white" stroke-miterlimit="10"/>
<path d="M154.413 327.306L170.486 322.605L170.639 322.336C166.846 308.05 174.907 293.353 188.84 288.812L183.893 271.853C169.845 275.047 155.637 266.895 151.315 253.094L134.652 257.967C138.619 272.553 130.2 287.613 115.765 291.887L120.39 307.742C135.031 303.888 150.088 312.515 154.154 327.159L154.413 327.306Z" fill="#0000FF" stroke="white" stroke-miterlimit="10"/>
<path d="M152.866 334.23L168.938 329.529L169.091 329.26C165.299 314.974 173.359 300.277 187.292 295.736L182.345 278.777C168.297 281.971 154.09 273.819 149.767 260.018L133.104 264.891C137.071 279.477 128.652 294.537 114.217 298.811L118.842 314.665C133.483 310.812 148.54 319.439 152.606 334.083L152.866 334.23Z" fill="#0000FF" stroke="white" stroke-miterlimit="10"/>
<path d="M151.317 341.156L167.39 336.455L167.542 336.186C163.75 321.9 171.81 307.202 185.743 302.662L180.796 285.703C166.749 288.896 152.541 280.744 148.218 266.943L131.555 271.817C135.522 286.403 127.103 301.463 112.668 305.737L117.293 321.591C131.934 317.738 146.991 326.365 151.058 341.009L151.317 341.156Z" fill="#0000FF" stroke="white" stroke-miterlimit="10"/>
<path d="M149.769 348.082L165.842 343.381L165.994 343.112C162.202 328.825 170.263 314.128 184.195 309.587L179.248 292.628C165.201 295.822 150.993 287.67 146.67 273.869L130.007 278.742C133.974 293.329 125.555 308.389 111.12 312.663L115.745 328.517C130.386 324.663 145.443 333.291 149.51 347.935L149.769 348.082Z" fill="#0000FF" stroke="white" stroke-miterlimit="10"/>
<path d="M148.22 355.007L164.293 350.307L164.445 350.037C160.653 335.751 168.714 321.054 182.646 316.513L177.699 299.554C163.652 302.748 149.444 294.596 145.122 280.795L128.458 285.668C132.425 300.255 124.006 315.315 109.571 319.589L114.196 335.443C128.837 331.589 143.894 340.216 147.961 354.86L148.22 355.007Z" fill="#0000FF" stroke="white" stroke-miterlimit="10"/>
<path d="M146.672 361.931L162.745 357.23L162.897 356.961C159.105 342.675 167.166 327.978 181.099 323.437L176.151 306.478C162.104 309.672 147.896 301.52 143.574 287.719L126.91 292.592C130.877 307.178 122.458 322.238 108.023 326.512L112.648 342.367C127.289 338.513 142.347 347.14 146.413 361.784L146.672 361.931Z" fill="#0000FF" stroke="white" stroke-miterlimit="10"/>
<path d="M145.124 368.857L161.197 364.156L161.35 363.887C157.557 349.601 165.618 334.904 179.551 330.363L174.604 313.404C160.556 316.598 146.348 308.446 142.026 294.645L125.363 299.518C129.33 314.104 120.911 329.164 106.476 333.438L111.1 349.292C125.742 345.439 140.799 354.066 144.865 368.71L145.124 368.857Z" fill="#0000FF" stroke="white" stroke-miterlimit="10"/>
<path d="M143.576 375.783L159.648 371.082L159.801 370.813C156.009 356.527 164.069 341.829 178.002 337.288L173.055 320.33C159.007 323.523 144.8 315.371 140.477 301.57L123.814 306.444C127.781 321.03 119.362 336.09 104.927 340.364L109.552 356.218C124.193 352.365 139.25 360.992 143.316 375.636L143.576 375.783Z" fill="#0000FF" stroke="white" stroke-miterlimit="10"/>
<path d="M142.028 382.708L158.101 378.008L158.253 377.739C154.461 363.452 162.521 348.755 176.454 344.214L171.507 327.255C157.459 330.449 143.252 322.297 138.929 308.496L122.266 313.369C126.233 327.956 117.814 343.016 103.379 347.29L108.004 363.144C122.645 359.29 137.702 367.917 141.769 382.562L142.028 382.708Z" fill="#0000FF" stroke="white" stroke-miterlimit="10"/>
<path d="M140.479 389.632L156.552 384.932L156.704 384.662C152.912 370.376 160.973 355.679 174.905 351.138L169.958 334.179C155.911 337.373 141.703 329.221 137.38 315.42L120.717 320.293C124.684 334.88 116.265 349.94 101.83 354.214L106.455 370.068C121.096 366.214 136.153 374.841 140.22 389.485L140.479 389.632Z" fill="#0000FF" stroke="white" stroke-miterlimit="10"/>
<path d="M138.931 396.558L155.004 391.857L155.156 391.588C151.364 377.302 159.425 362.605 173.357 358.064L168.41 341.105C154.363 344.299 140.155 336.147 135.833 322.346L119.169 327.219C123.136 341.805 114.717 356.865 100.282 361.139L104.907 376.994C119.548 373.14 134.605 381.767 138.672 396.411L138.931 396.558Z" fill="#0000FF" stroke="white" stroke-miterlimit="10"/>
<path d="M137.382 403.484L153.455 398.783L153.607 398.514C149.815 384.228 157.876 369.531 171.808 364.99L166.861 348.031C152.814 351.225 138.606 343.073 134.284 329.271L117.62 334.145C121.587 348.731 113.168 363.791 98.7334 368.065L103.358 383.919C117.999 380.066 133.057 388.693 137.123 403.337L137.382 403.484Z" fill="#0000FF" stroke="white" stroke-miterlimit="10"/>
<path d="M135.834 410.41L151.907 405.709L152.059 405.44C148.267 391.153 156.328 376.456 170.261 371.915L165.313 354.957C151.266 358.15 137.058 349.998 132.736 336.197L116.073 341.071C120.04 355.657 111.621 370.717 97.1855 374.991L101.81 390.845C116.452 386.992 131.509 395.619 135.575 410.263L135.834 410.41Z" fill="#0000FF" stroke="white" stroke-miterlimit="10"/>
<path d="M134.285 417.333L150.358 412.633L150.511 412.364C146.718 398.077 154.779 383.38 168.712 378.839L163.765 361.88C149.717 365.074 135.51 356.922 131.187 343.121L114.524 347.994C118.491 362.581 110.072 377.641 95.6367 381.915L100.262 397.769C114.903 393.915 129.96 402.542 134.026 417.187L134.285 417.333Z" fill="#0000FF" stroke="white" stroke-miterlimit="10"/>
<path d="M132.738 424.259L148.811 419.559L148.963 419.289C145.171 405.003 153.231 390.306 167.164 385.765L162.217 368.806C148.169 372 133.962 363.848 129.639 350.047L112.976 354.92C116.943 369.507 108.524 384.567 94.0889 388.84L98.7137 404.695C113.355 400.841 128.412 409.468 132.479 424.112L132.738 424.259Z" fill="#0000FF" stroke="white" stroke-miterlimit="10"/>
<path d="M131.189 431.185L147.262 426.484L147.414 426.215C143.622 411.929 151.683 397.232 165.615 392.691L160.668 375.732C146.621 378.926 132.413 370.774 128.09 356.973L111.427 361.846C115.394 376.432 106.975 391.492 92.54 395.766L97.1649 411.62C111.806 407.767 126.863 416.394 130.93 431.038L131.189 431.185Z" fill="#0000FF" stroke="white" stroke-miterlimit="10"/>
<path d="M129.641 438.109L145.714 433.408L145.866 433.139C142.074 418.853 150.135 404.155 164.067 399.615L159.12 382.656C145.073 385.85 130.865 377.698 126.543 363.896L109.879 368.77C113.846 383.356 105.427 398.416 90.9922 402.69L95.617 418.544C110.258 414.691 125.315 423.318 129.382 437.962L129.641 438.109Z" fill="#0000FF" stroke="white" stroke-miterlimit="10"/>
<path d="M128.092 445.035L144.165 440.334L144.317 440.065C140.525 425.778 148.586 411.081 162.518 406.54L157.571 389.582C143.524 392.775 129.316 384.623 124.994 370.822L108.33 375.696C112.297 390.282 103.878 405.342 89.4434 409.616L94.0682 425.47C108.709 421.617 123.767 430.244 127.833 444.888L128.092 445.035Z" fill="#0000FF" stroke="white" stroke-miterlimit="10"/>
<path d="M126.544 451.96L142.617 447.26L142.769 446.991C138.977 432.704 147.038 418.007 160.971 413.466L156.023 396.507C141.976 399.701 127.768 391.549 123.446 377.748L106.783 382.621C110.75 397.208 102.331 412.268 87.8955 416.542L92.5204 432.396C107.161 428.542 122.219 437.169 126.285 451.813L126.544 451.96Z" fill="#0000FF" stroke="white" stroke-miterlimit="10"/>
<path d="M124.996 458.886L141.069 454.186L141.222 453.916C137.429 439.63 145.49 424.933 159.423 420.392L154.476 403.433C140.428 406.627 126.221 398.475 121.898 384.674L105.235 389.547C109.202 404.134 100.783 419.194 86.3477 423.467L90.9725 439.322C105.614 435.468 120.671 444.095 124.737 458.739L124.996 458.886Z" fill="#0000FF" stroke="white" stroke-miterlimit="10"/>
<path d="M123.448 465.81L139.52 461.109L139.673 460.84C135.881 446.554 143.941 431.857 157.874 427.316L152.927 410.357C138.879 413.551 124.672 405.399 120.349 391.598L103.686 396.471C107.653 411.057 99.2339 426.117 84.7988 430.391L89.4237 446.245C104.065 442.392 119.122 451.019 123.188 465.663L123.448 465.81Z" fill="#0000FF" stroke="white" stroke-miterlimit="10"/>
<path d="M121.9 472.736L137.973 468.035L138.125 467.766C134.333 453.48 142.393 438.782 156.326 434.242L151.379 417.283C137.332 420.476 123.124 412.324 118.801 398.523L102.138 403.397C106.105 417.983 97.686 433.043 83.251 437.317L87.8758 453.171C102.517 449.318 117.574 457.945 121.641 472.589L121.9 472.736Z" fill="#0000FF" stroke="white" stroke-miterlimit="10"/>
<path d="M120.351 479.662L136.424 474.961L136.576 474.692C132.784 460.405 140.845 445.708 154.777 441.167L149.83 424.209C135.783 427.402 121.575 419.25 117.252 405.449L100.589 410.323C104.556 424.909 96.1372 439.969 81.7021 444.243L86.327 460.097C100.968 456.243 116.025 464.871 120.092 479.515L120.351 479.662Z" fill="#0000FF" stroke="white" stroke-miterlimit="10"/>
<path d="M118.803 486.585L134.876 481.885L135.028 481.616C131.236 467.329 139.297 452.632 153.229 448.091L148.282 431.132C134.235 434.326 120.027 426.174 115.705 412.373L99.0413 417.246C103.008 431.833 94.5893 446.893 80.1543 451.167L84.7792 467.021C99.4203 463.167 114.477 471.794 118.544 486.438L118.803 486.585Z" fill="#0000FF" stroke="white" stroke-miterlimit="10"/>
<path d="M117.254 493.511L133.327 488.811L133.479 488.541C129.687 474.255 137.748 459.558 151.681 455.017L146.733 438.058C132.686 441.252 118.478 433.1 114.156 419.299L97.4925 424.172C101.459 438.759 93.0405 453.819 78.6055 458.092L83.2303 473.947C97.8715 470.093 112.929 478.72 116.995 493.364L117.254 493.511Z" fill="#0000FF" stroke="white" stroke-miterlimit="10"/>
<path d="M115.706 500.437L131.779 495.736L131.932 495.467C128.139 481.181 136.2 466.484 150.133 461.943L145.186 444.984C131.138 448.178 116.93 440.026 112.608 426.225L95.9447 431.098C99.9116 445.684 91.4927 460.744 77.0576 465.018L81.6825 480.872C96.3236 477.019 111.381 485.646 115.447 500.29L115.706 500.437Z" fill="#0000FF" stroke="white" stroke-miterlimit="10"/>
<path d="M114.158 507.363L130.23 502.662L130.383 502.393C126.591 488.107 134.651 473.409 148.584 468.869L143.637 451.91C129.589 455.103 115.382 446.951 111.059 433.15L94.3958 438.024C98.3628 452.61 89.9438 467.67 75.5088 471.944L80.1337 487.798C94.7748 483.945 109.832 492.572 113.898 507.216L114.158 507.363Z" fill="#0000FF" stroke="white" stroke-miterlimit="10"/>
<path d="M112.61 514.287L128.683 509.586L128.835 509.317C125.043 495.03 133.103 480.333 147.036 475.792L142.089 458.834C128.041 462.027 113.834 453.875 109.511 440.074L92.848 444.948C96.8149 459.534 88.396 474.594 73.9609 478.868L78.5858 494.722C93.2269 490.869 108.284 499.496 112.351 514.14L112.61 514.287Z" fill="#0000FF" stroke="white" stroke-miterlimit="10"/>
<path d="M111.061 521.212L127.134 516.512L127.286 516.243C123.494 501.956 131.555 487.259 145.487 482.718L140.54 465.759C126.493 468.953 112.285 460.801 107.962 447L91.2991 451.873C95.2661 466.46 86.8472 481.52 72.4121 485.794L77.037 501.648C91.6781 497.794 106.735 506.421 110.802 521.065L111.061 521.212Z" fill="#0000FF" stroke="white" stroke-miterlimit="10"/>
<path d="M109.513 528.138L125.586 523.438L125.738 523.168C121.946 508.882 130.007 494.185 143.939 489.644L138.992 472.685C124.945 475.879 110.737 467.727 106.415 453.926L89.7513 458.799C93.7183 473.385 85.2993 488.445 70.8643 492.719L75.4891 508.574C90.1302 504.72 105.187 513.347 109.254 527.991L109.513 528.138Z" fill="#0000FF" stroke="white" stroke-miterlimit="10"/>
<path d="M107.964 535.064L124.037 530.363L124.189 530.094C120.397 515.808 128.458 501.111 142.391 496.57L137.443 479.611C123.396 482.805 109.188 474.653 104.866 460.852L88.2025 465.725C92.1694 480.311 83.7505 495.371 69.3154 499.645L73.9403 515.499C88.5814 511.646 103.639 520.273 107.705 534.917L107.964 535.064Z" fill="#0000FF" stroke="white" stroke-miterlimit="10"/>
<path d="M106.416 541.988L122.489 537.287L122.642 537.018C118.849 522.732 126.91 508.034 140.843 503.494L135.896 486.535C121.848 489.728 107.64 481.576 103.318 467.775L86.6546 472.649C90.6216 487.235 82.2026 502.295 67.7676 506.569L72.3924 522.423C87.0336 518.57 102.091 527.197 106.157 541.841L106.416 541.988Z" fill="#0000FF" stroke="white" stroke-miterlimit="10"/>
<path d="M104.868 548.914L120.94 544.213L121.093 543.944C117.301 529.657 125.361 514.96 139.294 510.419L134.347 493.46C120.299 496.654 106.092 488.502 101.769 474.701L85.1058 479.575C89.0727 494.161 80.6538 509.221 66.2188 513.495L70.8436 529.349C85.4847 525.495 100.542 534.123 104.608 548.767L104.868 548.914Z" fill="#0000FF" stroke="white" stroke-miterlimit="10"/>
<path d="M103.32 555.839L119.393 551.139L119.545 550.869C115.753 536.583 123.813 521.886 137.746 517.345L132.799 500.386C118.751 503.58 104.544 495.428 100.221 481.627L83.5579 486.5C87.5249 501.087 79.1059 516.147 64.6709 520.421L69.2958 536.275C83.9369 532.421 98.9941 541.048 103.061 555.692L103.32 555.839Z" fill="#0000FF" stroke="white" stroke-miterlimit="10"/>
<path d="M101.771 562.765L117.844 558.064L117.996 557.795C114.204 543.509 122.265 528.812 136.197 524.271L131.25 507.312C117.203 510.506 102.995 502.354 98.6724 488.553L82.0091 493.426C85.9761 508.012 77.5571 523.072 63.1221 527.346L67.7469 543.201C82.3881 539.347 97.4453 547.974 101.512 562.618L101.771 562.765Z" fill="#0000FF" stroke="white" stroke-miterlimit="10"/>
<path d="M100.223 569.689L116.296 564.988L116.448 564.719C112.656 550.433 120.717 535.736 134.649 531.195L129.702 514.236C115.655 517.43 101.447 509.278 97.1246 495.477L80.4613 500.35C84.4282 514.936 76.0093 529.996 61.5742 534.27L66.1991 550.124C80.8402 546.271 95.8974 554.898 99.9639 569.542L100.223 569.689Z" fill="#0000FF" stroke="white" stroke-miterlimit="10"/>
<path d="M98.6752 576.615L114.748 571.914L114.9 571.645C111.108 557.359 119.169 542.661 133.101 538.12L128.154 521.162C114.107 524.355 99.8992 516.203 95.5767 502.402L78.9134 507.276C82.8804 521.862 74.4614 536.922 60.0264 541.196L64.6512 557.05C79.2924 553.197 94.3496 561.824 98.416 576.468L98.6752 576.615Z" fill="#0000FF" stroke="white" stroke-miterlimit="10"/>
<path d="M97.1263 583.54L113.199 578.84L113.351 578.571C109.559 564.284 117.62 549.587 131.553 545.046L126.605 528.087C112.558 531.281 98.3504 523.129 94.0279 509.328L77.3646 514.201C81.3315 528.788 72.9126 543.848 58.4775 548.122L63.1024 563.976C77.7435 560.122 92.8007 568.75 96.8672 583.394L97.1263 583.54Z" fill="#0000FF" stroke="white" stroke-miterlimit="10"/>
<path d="M95.5785 590.466L111.651 585.766L111.804 585.496C108.011 571.21 116.072 556.513 130.005 551.972L125.058 535.013C111.01 538.207 96.8025 530.055 92.48 516.254L75.8167 521.127C79.7837 535.714 71.3647 550.774 56.9297 555.048L61.5545 570.902C76.1957 567.048 91.2529 575.675 95.3193 590.319L95.5785 590.466Z" fill="#0000FF" stroke="white" stroke-miterlimit="10"/>
<path d="M94.0296 597.39L110.103 592.689L110.255 592.42C106.463 578.134 114.523 563.437 128.456 558.896L123.509 541.937C109.461 545.131 95.2537 536.979 90.9312 523.178L74.2679 528.051C78.2349 542.637 69.8159 557.697 55.3809 561.971L60.0057 577.826C74.6468 573.972 89.7041 582.599 93.7705 597.243L94.0296 597.39Z" fill="#0000FF" stroke="white" stroke-miterlimit="10"/>
<path d="M102.673 597.898L118.746 593.197L118.898 592.928C115.106 578.642 123.167 563.945 137.099 559.404L132.152 542.445C118.105 545.639 103.897 537.487 99.5748 523.686L82.9115 528.559C86.8784 543.145 78.4595 558.205 64.0244 562.479L68.6493 578.333C83.2904 574.48 98.3476 583.107 102.414 597.751L102.673 597.898Z" fill="#0000FF" stroke="white" stroke-miterlimit="10"/>
<path d="M111.317 598.404L127.39 593.703L127.542 593.434C123.75 579.148 131.81 564.45 145.743 559.91L140.796 542.951C126.748 546.144 112.541 537.992 108.218 524.191L91.555 529.065C95.522 543.651 87.103 558.711 72.668 562.985L77.2928 578.839C91.934 574.986 106.991 583.613 111.058 598.257L111.317 598.404Z" fill="#0000FF" stroke="white" stroke-miterlimit="10"/>
<path d="M119.96 598.91L136.033 594.209L136.185 593.94C132.393 579.653 140.454 564.956 154.387 560.415L149.439 543.457C135.392 546.65 121.184 538.498 116.862 524.697L100.199 529.571C104.166 544.157 95.7466 559.217 81.3115 563.491L85.9364 579.345C100.578 575.492 115.635 584.119 119.701 598.763L119.96 598.91Z" fill="#0000FF" stroke="white" stroke-miterlimit="10"/>
<path d="M128.604 599.415L144.677 594.715L144.829 594.446C141.037 580.159 149.098 565.462 163.03 560.921L158.083 543.962C144.036 547.156 129.828 539.004 125.505 525.203L108.842 530.076C112.809 544.663 104.39 559.723 89.9551 563.997L94.5799 579.851C109.221 575.997 124.278 584.625 128.345 599.269L128.604 599.415Z" fill="#0000FF" stroke="white" stroke-miterlimit="10"/>
<path d="M137.247 599.923L153.32 595.223L153.473 594.953C149.68 580.667 157.741 565.97 171.674 561.429L166.727 544.47C152.679 547.664 138.471 539.512 134.149 525.711L117.486 530.584C121.453 545.171 113.034 560.231 98.5986 564.505L103.223 580.359C117.865 576.505 132.922 585.132 136.988 599.776L137.247 599.923Z" fill="#0000FF" stroke="white" stroke-miterlimit="10"/>
<path d="M145.891 600.429L161.964 595.729L162.116 595.459C158.324 581.173 166.385 566.476 180.317 561.935L175.37 544.976C161.323 548.17 147.115 540.018 142.793 526.217L126.129 531.09C130.096 545.676 121.677 560.737 107.242 565.01L111.867 580.865C126.508 577.011 141.565 585.638 145.632 600.282L145.891 600.429Z" fill="#0000FF" stroke="white" stroke-miterlimit="10"/>
<path d="M154.536 600.935L170.608 596.234L170.761 595.965C166.968 581.679 175.029 566.982 188.962 562.441L184.015 545.482C169.967 548.676 155.76 540.524 151.437 526.723L134.774 531.596C138.741 546.182 130.322 561.242 115.887 565.516L120.512 581.37C135.153 577.517 150.21 586.144 154.276 600.788L154.536 600.935Z" fill="#0000FF" stroke="white" stroke-miterlimit="10"/>
<path d="M163.179 601.443L179.252 596.742L179.404 596.473C175.612 582.187 183.673 567.489 197.605 562.949L192.658 545.99C178.611 549.183 164.403 541.031 160.081 527.23L143.417 532.104C147.384 546.69 138.965 561.75 124.53 566.024L129.155 581.878C143.796 578.025 158.853 586.652 162.92 601.296L163.179 601.443Z" fill="#0000FF" stroke="white" stroke-miterlimit="10"/>
<path d="M171.823 601.949L187.895 597.248L188.048 596.979C184.256 582.693 192.316 567.995 206.249 563.455L201.302 546.496C187.254 549.689 173.047 541.537 168.724 527.736L152.061 532.61C156.028 547.196 147.609 562.256 133.174 566.53L137.799 582.384C152.44 578.531 167.497 587.158 171.563 601.802L171.823 601.949Z" fill="#0000FF" stroke="white" stroke-miterlimit="10"/>
<path d="M180.466 602.455L196.539 597.754L196.691 597.485C192.899 583.198 200.96 568.501 214.892 563.96L209.945 547.002C195.898 550.195 181.69 542.043 177.368 528.242L160.704 533.116C164.671 547.702 156.252 562.762 141.817 567.036L146.442 582.89C161.083 579.036 176.141 587.664 180.207 602.308L180.466 602.455Z" fill="#0000FF" stroke="white" stroke-miterlimit="10"/>
<path d="M189.11 602.962L205.183 598.262L205.335 597.992C201.543 583.706 209.603 569.009 223.536 564.468L218.589 547.509C204.541 550.703 190.334 542.551 186.011 528.75L169.348 533.623C173.315 548.21 164.896 563.27 150.461 567.544L155.086 583.398C169.727 579.544 184.784 588.171 188.851 602.815L189.11 602.962Z" fill="#0000FF" stroke="white" stroke-miterlimit="10"/>
<path d="M197.753 603.468L213.826 598.768L213.978 598.498C210.186 584.212 218.247 569.515 232.18 564.974L227.232 548.015C213.185 551.209 198.977 543.057 194.655 529.256L177.992 534.129C181.959 548.716 173.54 563.776 159.104 568.049L163.729 583.904C178.37 580.05 193.428 588.677 197.494 603.321L197.753 603.468Z" fill="#0000FF" stroke="white" stroke-miterlimit="10"/>
<path d="M206.397 603.974L222.47 599.273L222.622 599.004C218.83 584.718 226.891 570.021 240.823 565.48L235.876 548.521C221.829 551.715 207.621 543.563 203.298 529.762L186.635 534.635C190.602 549.221 182.183 564.281 167.748 568.555L172.373 584.41C187.014 580.556 202.071 589.183 206.138 603.827L206.397 603.974Z" fill="#0000FF" stroke="white" stroke-miterlimit="10"/>
<path d="M215.04 604.482L231.113 599.781L231.266 599.512C227.473 585.226 235.534 570.529 249.467 565.988L244.52 549.029C230.472 552.223 216.264 544.071 211.942 530.27L195.279 535.143C199.246 549.729 190.827 564.789 176.392 569.063L181.016 584.917C195.658 581.064 210.715 589.691 214.781 604.335L215.04 604.482Z" fill="#0000FF" stroke="white" stroke-miterlimit="10"/>
<path d="M223.684 604.988L239.757 600.287L239.909 600.018C236.117 585.732 244.178 571.034 258.11 566.494L253.163 549.535C239.116 552.728 224.908 544.576 220.585 530.775L203.922 535.649C207.889 550.235 199.47 565.295 185.035 569.569L189.66 585.423C204.301 581.57 219.358 590.197 223.425 604.841L223.684 604.988Z" fill="#0000FF" stroke="white" stroke-miterlimit="10"/>
<path d="M232.327 605.494L248.4 600.793L248.553 600.524C244.76 586.237 252.821 571.54 266.754 566.999L261.807 550.041C247.759 553.234 233.552 545.082 229.229 531.281L212.566 536.155C216.533 550.741 208.114 565.801 193.679 570.075L198.304 585.929C212.945 582.076 228.002 590.703 232.068 605.347L232.327 605.494Z" fill="#0000FF" stroke="white" stroke-miterlimit="10"/>
<path d="M240.971 606.001L257.044 601.301L257.196 601.032C253.404 586.745 261.465 572.048 275.397 567.507L270.45 550.548C256.403 553.742 242.195 545.59 237.873 531.789L221.209 536.662C225.176 551.249 216.757 566.309 202.322 570.583L206.947 586.437C221.588 582.583 236.645 591.21 240.712 605.855L240.971 606.001Z" fill="#0000FF" stroke="white" stroke-miterlimit="10"/>
<path d="M249.615 606.507L265.687 601.807L265.84 601.537C262.048 587.251 270.108 572.554 284.041 568.013L279.094 551.054C265.046 554.248 250.839 546.096 246.516 532.295L229.853 537.168C233.82 551.755 225.401 566.815 210.966 571.089L215.591 586.943C230.232 583.089 245.289 591.716 249.355 606.36L249.615 606.507Z" fill="#0000FF" stroke="white" stroke-miterlimit="10"/>
<path d="M258.258 607.013L274.331 602.313L274.483 602.043C270.691 587.757 278.752 573.06 292.684 568.519L287.737 551.56C273.69 554.754 259.482 546.602 255.16 532.801L238.496 537.674C242.463 552.26 234.044 567.32 219.609 571.594L224.234 587.449C238.875 583.595 253.933 592.222 257.999 606.866L258.258 607.013Z" fill="#0000FF" stroke="white" stroke-miterlimit="10"/>
<path d="M266.902 607.521L282.975 602.82L283.127 602.551C279.335 588.265 287.395 573.568 301.328 569.027L296.381 552.068C282.333 555.262 268.126 547.11 263.803 533.309L247.14 538.182C251.107 552.768 242.688 567.828 228.253 572.102L232.878 587.956C247.519 584.103 262.576 592.73 266.643 607.374L266.902 607.521Z" fill="#0000FF" stroke="white" stroke-miterlimit="10"/>
<path d="M27.3994 234.833L44.1285 235.551L44.3591 235.345C45.3515 220.596 57.7004 209.271 72.3514 209.453L73.1076 191.801C58.7801 190.307 47.941 178.017 48.2756 163.557L30.932 162.812C30.0087 177.902 17.2042 189.455 2.16302 188.86L1.45605 205.361C16.5575 206.421 28.0487 219.434 27.2012 234.61L27.3994 234.833Z" fill="#0000FF" stroke="white" stroke-miterlimit="10"/>
<path d="M31.1768 237.354L47.9058 238.073L48.1364 237.867C49.1289 223.118 61.4778 211.793 76.1288 211.974L76.885 194.323C62.5575 192.829 51.7184 180.539 52.0529 166.079L34.7093 165.334C33.7861 180.423 20.9815 191.977 5.94037 191.381L5.2334 207.883C20.3348 208.943 31.826 221.956 30.9785 237.132L31.1768 237.354Z" fill="#0000FF" stroke="white" stroke-miterlimit="10"/>
<path d="M34.9551 239.876L51.6841 240.594L51.9147 240.388C52.9072 225.639 65.2561 214.314 79.9071 214.496L80.6633 196.844C66.3358 195.35 55.4967 183.06 55.8312 168.6L38.4876 167.855C37.5644 182.945 24.7598 194.498 9.71869 193.903L9.01172 210.404C24.1132 211.464 35.6043 224.477 34.7568 239.653L34.9551 239.876Z" fill="#0000FF" stroke="white" stroke-miterlimit="10"/>
<path d="M38.7334 242.399L55.4625 243.118L55.6931 242.912C56.6855 228.163 69.0344 216.838 83.6854 217.019L84.4416 199.368C70.1141 197.874 59.275 185.584 59.6096 171.124L42.2659 170.379C41.3427 185.468 28.5382 197.022 13.497 196.426L12.79 212.927C27.8915 213.988 39.3826 227.001 38.5352 242.177L38.7334 242.399Z" fill="#0000FF" stroke="white" stroke-miterlimit="10"/>
<path d="M42.5117 244.921L59.2408 245.639L59.4714 245.433C60.4638 230.684 72.8127 219.359 87.4637 219.54L88.2199 201.889C73.8924 200.395 63.0533 188.105 63.3879 173.645L46.0443 172.9C45.121 187.99 32.3165 199.543 17.2753 198.947L16.5684 215.449C31.6698 216.509 43.161 229.522 42.3135 244.698L42.5117 244.921Z" fill="#0000FF" stroke="white" stroke-miterlimit="10"/>
<path d="M46.29 247.442L63.0191 248.161L63.2497 247.955C64.2422 233.206 76.5911 221.881 91.242 222.062L91.9983 204.411C77.6707 202.917 66.8317 190.627 67.1662 176.167L49.8226 175.422C48.8994 190.511 36.0948 202.065 21.0536 201.469L20.3467 217.97C35.4481 219.031 46.9393 232.044 46.0918 247.22L46.29 247.442Z" fill="#0000FF" stroke="white" stroke-miterlimit="10"/>
<path d="M50.0684 249.964L66.7974 250.682L67.028 250.476C68.0205 235.727 80.3694 224.402 95.0204 224.583L95.7766 206.932C81.4491 205.438 70.61 193.148 70.9445 178.688L53.6009 177.943C52.6777 193.033 39.8731 204.586 24.832 203.99L24.125 220.492C39.2264 221.552 50.7176 234.565 49.8701 249.741L50.0684 249.964Z" fill="#0000FF" stroke="white" stroke-miterlimit="10"/>
<path d="M53.8457 252.485L70.5748 253.204L70.8054 252.998C71.7978 238.249 84.1467 226.923 98.7977 227.105L99.5539 209.454C85.2264 207.96 74.3873 195.67 74.7219 181.21L57.3782 180.465C56.455 195.554 43.6505 207.108 28.6093 206.512L27.9023 223.013C43.0038 224.074 54.4949 237.087 53.6475 252.263L53.8457 252.485Z" fill="#0000FF" stroke="white" stroke-miterlimit="10"/>
<path d="M57.624 255.007L74.3531 255.725L74.5837 255.519C75.5761 240.77 87.9251 229.445 102.576 229.626L103.332 211.975C89.0047 210.481 78.1656 198.191 78.5002 183.731L61.1566 182.986C60.2334 198.076 47.4288 209.629 32.3876 209.033L31.6807 225.535C46.7821 226.595 58.2733 239.608 57.4258 254.784L57.624 255.007Z" fill="#0000FF" stroke="white" stroke-miterlimit="10"/>
<path d="M61.4023 257.528L78.1314 258.247L78.362 258.041C79.3545 243.292 91.7034 231.966 106.354 232.148L107.111 214.497C92.783 213.003 81.944 200.713 82.2785 186.253L64.9349 185.508C64.0117 200.597 51.2071 212.151 36.166 211.555L35.459 228.056C50.5604 229.117 62.0516 242.13 61.2041 257.306L61.4023 257.528Z" fill="#0000FF" stroke="white" stroke-miterlimit="10"/>
<path d="M65.1807 260.05L81.9097 260.768L82.1403 260.562C83.1328 245.813 95.4817 234.488 110.133 234.669L110.889 217.018C96.5614 215.524 85.7223 203.234 86.0568 188.774L68.7132 188.029C67.79 203.119 54.9854 214.672 39.9443 214.076L39.2373 230.578C54.3387 231.638 65.8299 244.651 64.9824 259.827L65.1807 260.05Z" fill="#0000FF" stroke="white" stroke-miterlimit="10"/>
<path d="M68.959 262.571L85.688 263.29L85.9186 263.084C86.9111 248.335 99.26 237.009 113.911 237.191L114.667 219.54C100.34 218.046 89.5006 205.756 89.8352 191.296L72.4915 190.551C71.5683 205.64 58.7637 217.194 43.7226 216.598L43.0156 233.099C58.1171 234.16 69.6082 247.173 68.7607 262.349L68.959 262.571Z" fill="#0000FF" stroke="white" stroke-miterlimit="10"/>
<path d="M72.7373 265.094L89.4664 265.813L89.697 265.607C90.6894 250.858 103.038 239.533 117.689 239.714L118.446 222.063C104.118 220.569 93.2789 208.279 93.6135 193.819L76.2698 193.074C75.3466 208.163 62.5421 219.717 47.5009 219.121L46.7939 235.623C61.8954 236.683 73.3865 249.696 72.5391 264.872L72.7373 265.094Z" fill="#0000FF" stroke="white" stroke-miterlimit="10"/>
<path d="M76.5146 267.616L93.2437 268.334L93.4743 268.129C94.4668 253.38 106.816 242.054 121.467 242.236L122.223 224.584C107.895 223.09 97.0563 210.8 97.3908 196.341L80.0472 195.596C79.124 210.685 66.3194 222.239 51.2783 221.643L50.5713 238.144C65.6727 239.204 77.1639 252.218 76.3164 267.393L76.5146 267.616Z" fill="#0000FF" stroke="white" stroke-miterlimit="10"/>
<path d="M80.293 270.137L97.022 270.856L97.2526 270.65C98.2451 255.901 110.594 244.576 125.245 244.757L126.001 227.106C111.674 225.612 100.835 213.322 101.169 198.862L83.8255 198.117C82.9023 213.206 70.0977 224.76 55.0566 224.164L54.3496 240.666C69.451 241.726 80.9422 254.739 80.0947 269.915L80.293 270.137Z" fill="#0000FF" stroke="white" stroke-miterlimit="10"/>
<path d="M84.0713 272.659L100.8 273.377L101.031 273.172C102.023 258.423 114.372 247.097 129.023 247.279L129.78 229.627C115.452 228.133 104.613 215.843 104.947 201.384L87.6038 200.639C86.6806 215.728 73.8761 227.282 58.8349 226.686L58.1279 243.187C73.2294 244.247 84.7205 257.261 83.873 272.436L84.0713 272.659Z" fill="#0000FF" stroke="white" stroke-miterlimit="10"/>
<path d="M87.8496 275.18L104.579 275.899L104.809 275.693C105.802 260.944 118.151 249.619 132.802 249.8L133.558 232.149C119.23 230.655 108.391 218.365 108.726 203.905L91.3822 203.16C90.4589 218.249 77.6544 229.803 62.6132 229.207L61.9062 245.709C77.0077 246.769 88.4988 259.782 87.6514 274.958L87.8496 275.18Z" fill="#0000FF" stroke="white" stroke-miterlimit="10"/>
<path d="M91.6279 277.702L108.357 278.42L108.588 278.214C109.58 263.466 121.929 252.14 136.58 252.322L137.336 234.67C123.009 233.176 112.17 220.886 112.504 206.427L95.1605 205.682C94.2373 220.771 81.4327 232.325 66.3915 231.729L65.6846 248.23C80.786 249.29 92.2772 262.304 91.4297 277.479L91.6279 277.702Z" fill="#0000FF" stroke="white" stroke-miterlimit="10"/>
<path d="M95.4053 280.223L112.134 280.942L112.365 280.736C113.357 265.987 125.706 254.662 140.357 254.843L141.113 237.192C126.786 235.698 115.947 223.408 116.281 208.948L98.9378 208.203C98.0146 223.292 85.21 234.846 70.1689 234.25L69.4619 250.752C84.5633 251.812 96.0545 264.825 95.207 280.001L95.4053 280.223Z" fill="#0000FF" stroke="white" stroke-miterlimit="10"/>
<path d="M99.1836 282.745L115.913 283.463L116.143 283.257C117.136 268.509 129.485 257.183 144.136 257.365L144.892 239.713C130.564 238.219 119.725 225.929 120.06 211.47L102.716 210.725C101.793 225.814 88.9884 237.368 73.9472 236.772L73.2402 253.273C88.3417 254.333 99.8328 267.347 98.9853 282.522L99.1836 282.745Z" fill="#0000FF" stroke="white" stroke-miterlimit="10"/>
<path d="M102.962 285.266L119.691 285.985L119.922 285.779C120.914 271.03 133.263 259.705 147.914 259.886L148.67 242.235C134.343 240.741 123.504 228.451 123.838 213.991L106.494 213.246C105.571 228.335 92.7667 239.889 77.7255 239.293L77.0186 255.795C92.12 256.855 103.611 269.868 102.764 285.044L102.962 285.266Z" fill="#0000FF" stroke="white" stroke-miterlimit="10"/>
<path d="M106.74 287.79L123.469 288.508L123.7 288.302C124.692 273.554 137.041 262.228 151.692 262.41L152.448 244.758C138.121 243.264 127.282 230.974 127.616 216.514L110.273 215.77C109.35 230.859 96.545 242.412 81.5038 241.817L80.7969 258.318C95.8983 259.378 107.389 272.391 106.542 287.567L106.74 287.79Z" fill="#0000FF" stroke="white" stroke-miterlimit="10"/>
<path d="M113.192 288.665L129.921 289.383L130.152 289.177C131.144 274.429 143.493 263.103 158.144 263.285L158.901 245.633C144.573 244.139 133.734 231.849 134.069 217.389L116.725 216.645C115.802 231.734 102.997 243.287 87.956 242.692L87.249 259.193C102.35 260.253 113.842 273.266 112.994 288.442L113.192 288.665Z" fill="#0000FF" stroke="white" stroke-miterlimit="10"/>
<path d="M119.645 289.542L136.374 290.26L136.604 290.054C137.597 275.305 149.946 263.98 164.597 264.162L165.353 246.51C151.025 245.016 140.186 232.726 140.521 218.266L123.177 217.521C122.254 232.611 109.449 244.164 94.4081 243.569L93.7012 260.07C108.803 261.13 120.294 274.143 119.446 289.319L119.645 289.542Z" fill="#0000FF" stroke="white" stroke-miterlimit="10"/>
<path d="M126.097 290.417L142.826 291.135L143.056 290.929C144.049 276.18 156.398 264.855 171.049 265.037L171.805 247.385C157.477 245.891 146.638 233.601 146.973 219.141L129.629 218.396C128.706 233.486 115.901 245.039 100.86 244.444L100.153 260.945C115.255 262.005 126.746 275.018 125.898 290.194L126.097 290.417Z" fill="#0000FF" stroke="white" stroke-miterlimit="10"/>
<path d="M132.549 291.294L149.278 292.012L149.508 291.806C150.501 277.057 162.85 265.732 177.501 265.913L178.257 248.262C163.93 246.768 153.09 234.478 153.425 220.018L136.081 219.273C135.158 234.363 122.354 245.916 107.312 245.321L106.605 261.822C121.707 262.882 133.198 275.895 132.351 291.071L132.549 291.294Z" fill="#0000FF" stroke="white" stroke-miterlimit="10"/>
<path d="M139.001 292.171L155.73 292.889L155.961 292.683C156.953 277.934 169.302 266.609 183.953 266.79L184.709 249.139C170.382 247.645 159.543 235.355 159.877 220.895L142.534 220.15C141.61 235.24 128.806 246.793 113.765 246.197L113.058 262.699C128.159 263.759 139.65 276.772 138.803 291.948L139.001 292.171Z" fill="#0000FF" stroke="white" stroke-miterlimit="10"/>
<path d="M145.453 293.046L162.182 293.764L162.413 293.558C163.405 278.809 175.754 267.484 190.405 267.665L191.161 250.014C176.834 248.52 165.995 236.23 166.329 221.77L148.986 221.025C148.062 236.115 135.258 247.668 120.217 247.072L119.51 263.574C134.611 264.634 146.102 277.647 145.255 292.823L145.453 293.046Z" fill="#0000FF" stroke="white" stroke-miterlimit="10"/>
<path d="M151.905 293.923L168.634 294.641L168.865 294.435C169.857 279.686 182.206 268.361 196.857 268.542L197.613 250.891C183.286 249.397 172.447 237.107 172.781 222.647L155.438 221.902C154.515 236.992 141.71 248.545 126.669 247.949L125.962 264.451C141.063 265.511 152.555 278.524 151.707 293.7L151.905 293.923Z" fill="#0000FF" stroke="white" stroke-miterlimit="10"/>
<path d="M158.357 294.8L175.086 295.518L175.317 295.312C176.31 280.563 188.658 269.238 203.309 269.419L204.066 251.768C189.738 250.274 178.899 237.984 179.234 223.524L161.89 222.779C160.967 237.869 148.162 249.422 133.121 248.826L132.414 265.328C147.515 266.388 159.007 279.401 158.159 294.577L158.357 294.8Z" fill="#0000FF" stroke="white" stroke-miterlimit="10"/>
<path d="M164.81 295.675L181.539 296.393L181.769 296.187C182.762 281.438 195.111 270.113 209.762 270.294L210.518 252.643C196.19 251.149 185.351 238.859 185.686 224.399L168.342 223.654C167.419 238.744 154.614 250.297 139.573 249.701L138.866 266.203C153.968 267.263 165.459 280.276 164.611 295.452L164.81 295.675Z" fill="#0000FF" stroke="white" stroke-miterlimit="10"/>
<path d="M171.262 296.551L187.991 297.27L188.221 297.064C189.214 282.315 201.563 270.99 216.214 271.171L216.97 253.52C202.642 252.026 191.803 239.736 192.138 225.276L174.794 224.531C173.871 239.62 161.066 251.174 146.025 250.578L145.318 267.08C160.42 268.14 171.911 281.153 171.063 296.329L171.262 296.551Z" fill="#0000FF" stroke="white" stroke-miterlimit="10"/>
<path d="M177.714 297.428L194.443 298.147L194.674 297.941C195.666 283.192 208.015 271.867 222.666 272.048L223.422 254.397C209.095 252.903 198.255 240.613 198.59 226.153L181.246 225.408C180.323 240.497 167.519 252.051 152.477 251.455L151.771 267.957C166.872 269.017 178.363 282.03 177.516 297.206L177.714 297.428Z" fill="#0000FF" stroke="white" stroke-miterlimit="10"/>
<path d="M184.166 298.303L200.895 299.022L201.126 298.816C202.118 284.067 214.467 272.742 229.118 272.923L229.874 255.272C215.547 253.778 204.708 241.488 205.042 227.028L187.699 226.283C186.775 241.372 173.971 252.926 158.93 252.33L158.223 268.832C173.324 269.892 184.815 282.905 183.968 298.081L184.166 298.303Z" fill="#0000FF" stroke="white" stroke-miterlimit="10"/>
<path d="M190.619 299.18L207.348 299.899L207.579 299.693C208.571 284.944 220.92 273.619 235.571 273.8L236.327 256.149C222 254.655 211.161 242.365 211.495 227.905L194.152 227.16C193.228 242.249 180.424 253.803 165.383 253.207L164.676 269.709C179.777 270.769 191.268 283.782 190.421 298.958L190.619 299.18Z" fill="#0000FF" stroke="white" stroke-miterlimit="10"/>
<path d="M197.071 300.057L213.8 300.776L214.031 300.57C215.023 285.821 227.372 274.496 242.023 274.677L242.779 257.026C228.452 255.532 217.613 243.242 217.947 228.782L200.604 228.037C199.681 243.126 186.876 254.68 171.835 254.084L171.128 270.586C186.229 271.646 197.721 284.659 196.873 299.835L197.071 300.057Z" fill="#0000FF" stroke="white" stroke-miterlimit="10"/>
<path d="M203.523 300.932L220.252 301.651L220.483 301.445C221.476 286.696 233.824 275.371 248.475 275.552L249.232 257.901C234.904 256.407 224.065 244.117 224.4 229.657L207.056 228.912C206.133 244.001 193.328 255.555 178.287 254.959L177.58 271.461C192.682 272.521 204.173 285.534 203.325 300.71L203.523 300.932Z" fill="#0000FF" stroke="white" stroke-miterlimit="10"/>
<path d="M209.976 301.809L226.705 302.528L226.935 302.322C227.928 287.573 240.277 276.248 254.928 276.429L255.684 258.778C241.356 257.284 230.517 244.994 230.852 230.534L213.508 229.789C212.585 244.878 199.78 256.432 184.739 255.836L184.032 272.338C199.134 273.398 210.625 286.411 209.777 301.587L209.976 301.809Z" fill="#0000FF" stroke="white" stroke-miterlimit="10"/>
<path d="M216.428 302.686L233.157 303.405L233.387 303.199C234.38 288.45 246.729 277.125 261.38 277.306L262.136 259.655C247.808 258.161 236.969 245.871 237.304 231.411L219.96 230.666C219.037 245.755 206.233 257.309 191.191 256.713L190.484 273.215C205.586 274.275 217.077 287.288 216.229 302.464L216.428 302.686Z" fill="#0000FF" stroke="white" stroke-miterlimit="10"/>
<path d="M222.88 303.561L239.609 304.28L239.84 304.074C240.832 289.325 253.181 278 267.832 278.181L268.588 260.53C254.261 259.036 243.422 246.746 243.756 232.286L226.412 231.541C225.489 246.63 212.685 258.184 197.643 257.588L196.937 274.09C212.038 275.15 223.529 288.163 222.682 303.339L222.88 303.561Z" fill="#0000FF" stroke="white" stroke-miterlimit="10"/>
<path d="M229.332 304.438L246.061 305.157L246.292 304.951C247.284 290.202 259.633 278.877 274.284 279.058L275.04 261.407C260.713 259.913 249.874 247.623 250.208 233.163L232.865 232.418C231.941 247.507 219.137 259.061 204.096 258.465L203.389 274.967C218.49 276.027 229.981 289.04 229.134 304.216L229.332 304.438Z" fill="#0000FF" stroke="white" stroke-miterlimit="10"/>
<path d="M235.784 305.315L252.513 306.034L252.744 305.828C253.736 291.079 266.085 279.754 280.736 279.935L281.492 262.284C267.165 260.79 256.326 248.5 256.66 234.04L239.317 233.295C238.394 248.384 225.589 259.938 210.548 259.342L209.841 275.843C224.942 276.904 236.433 289.917 235.586 305.093L235.784 305.315Z" fill="#0000FF" stroke="white" stroke-miterlimit="10"/>
<path d="M242.236 306.19L258.965 306.909L259.196 306.703C260.188 291.954 272.537 280.629 287.188 280.81L287.945 263.159C273.617 261.665 262.778 249.375 263.112 234.915L245.769 234.17C244.846 249.259 232.041 260.813 217 260.217L216.293 276.719C231.394 277.779 242.886 290.792 242.038 305.968L242.236 306.19Z" fill="#0000FF" stroke="white" stroke-miterlimit="10"/>
<path d="M248.688 307.067L265.418 307.786L265.648 307.58C266.641 292.831 278.989 281.506 293.64 281.687L294.397 264.036C280.069 262.542 269.23 250.252 269.565 235.792L252.221 235.047C251.298 250.136 238.493 261.69 223.452 261.094L222.745 277.595C237.847 278.656 249.338 291.669 248.49 306.845L248.688 307.067Z" fill="#0000FF" stroke="white" stroke-miterlimit="10"/>
<path d="M255.141 307.942L271.87 308.661L272.1 308.455C273.093 293.706 285.442 282.381 300.093 282.562L300.849 264.911C286.521 263.417 275.682 251.127 276.017 236.667L258.673 235.922C257.75 251.011 244.945 262.565 229.904 261.969L229.197 278.47C244.299 279.531 255.79 292.544 254.942 307.72L255.141 307.942Z" fill="#0000FF" stroke="white" stroke-miterlimit="10"/>
</g>
<defs>
<clipPath id="clip0_118_759">
<rect width="303" height="609" fill="white" transform="translate(0.0234375 0.00585938)"/>
</clipPath>
</defs>
</svg>
